<svg width="24" height="25" viewBox="0 0 24 25" fill="none" xmlns="http://www.w3.org/2000/svg">
<path d="M3 5.58228C3 4.61578 3.7835 3.83228 4.75 3.83228H19.25C20.2165 3.83228 21 4.61578 21 5.58228V20.0823C21 21.0488 20.2165 21.8323 19.25 21.8323H4.75C3.7835 21.8323 3 21.0488 3 20.0823V5.58228Z" stroke="#3C3C3B" stroke-width="2" stroke-miterlimit="10" stroke-linecap="round" stroke-linejoin="round"/>
<path d="M3.01245 15.8323H8.5C8.77614 15.8323 9 16.0561 9 16.3323V17.8323C9 18.1084 9.22386 18.3323 9.5 18.3323H14.5C14.7761 18.3323 15 18.1084 15 17.8323V16.3323C15 16.0561 15.2239 15.8323 15.5 15.8323H20.825" stroke="#3C3C3B" stroke-width="2" stroke-miterlimit="10" stroke-linecap="round" stroke-linejoin="round"/>
<path d="M8 11.8323H16" stroke="#3C3C3B" stroke-width="2" stroke-miterlimit="10" stroke-linecap="round" stroke-linejoin="round"/>
<path d="M8 7.83228H16" stroke="#3C3C3B" stroke-width="2" stroke-miterlimit="10" stroke-linecap="round" stroke-linejoin="round"/>
</svg>
