<svg width="24" height="24" viewBox="0 0 24 24" fill="none" xmlns="http://www.w3.org/2000/svg">
<path d="M12.689 4.42575C13.6021 3.51285 14.8404 3 16.1316 3C17.4228 3 18.6611 3.51285 19.5742 4.42575C20.4872 5.33887 21 6.57719 21 7.86839C21 9.15958 20.4872 10.3979 19.5742 11.311L11.311 19.5742C10.3979 20.4872 9.15958 21 7.86839 21C6.57719 21 5.33887 20.4872 4.42575 19.5742C3.51285 18.6611 3 17.4228 3 16.1316C3 14.8404 3.51285 13.6021 4.42575 12.689L8.90163 8.2131C9.12739 7.98655 9.39566 7.8068 9.69104 7.68414C9.98642 7.56149 10.3031 7.49836 10.6229 7.49836C10.9428 7.49836 11.2595 7.56149 11.5549 7.68414C11.8502 7.8068 12.1185 7.98655 12.3443 8.2131C12.5708 8.43886 12.7506 8.70713 12.8732 9.00251C12.9959 9.29789 13.059 9.61458 13.059 9.93442C13.059 10.2543 12.9959 10.5709 12.8732 10.8663C12.7506 11.1617 12.5708 11.43 12.3443 11.6557L7.86929 16.1316" stroke="#3C3C3B" stroke-width="2" stroke-linecap="round"/>
</svg>
