<svg width="24" height="24" viewBox="0 0 24 24" fill="none" xmlns="http://www.w3.org/2000/svg">
<path d="M17.3752 6L17.3752 10.3751" stroke="#3C3C3B" stroke-width="2" stroke-miterlimit="10" stroke-linecap="round" stroke-linejoin="round"/>
<path d="M17.3752 6.00024L14.0001 6.00024" stroke="#3C3C3B" stroke-width="2" stroke-miterlimit="10" stroke-linecap="round" stroke-linejoin="round"/>
<path d="M15.0752 8.69019L17.3253 11.0027L19.5753 8.69019" stroke="#3C3C3B" stroke-width="2" stroke-miterlimit="10" stroke-linecap="round" stroke-linejoin="round"/>
<path d="M7.19995 20.0027L7.19995 15.6276" stroke="#3C3C3B" stroke-width="2" stroke-miterlimit="10" stroke-linecap="round" stroke-linejoin="round"/>
<path d="M7.19995 20.0024L10.5751 20.0024" stroke="#3C3C3B" stroke-width="2" stroke-miterlimit="10" stroke-linecap="round" stroke-linejoin="round"/>
<path d="M9.5 17.3125L7.24993 15L4.99986 17.3125" stroke="#3C3C3B" stroke-width="2" stroke-miterlimit="10" stroke-linecap="round" stroke-linejoin="round"/>
<path d="M14.1864 19.2778H20.3692C20.611 19.2778 20.8236 19.4381 20.89 19.6706L21.3583 21.3095C21.4571 21.6556 21.1973 22 20.8375 22H13.7181C13.3582 22 13.0984 21.6556 13.1973 21.3095L13.6655 19.6706C13.732 19.4381 13.9445 19.2778 14.1864 19.2778Z" stroke="#3C3C3B" stroke-width="2" stroke-miterlimit="10" stroke-linecap="round" stroke-linejoin="round"/>
<path d="M13.7778 19.2778V15.9479C13.7778 15.4244 14.2022 15 14.7257 15H19.8299C20.3534 15 20.7778 15.4244 20.7778 15.9479V19.2778" stroke="#3C3C3B" stroke-width="2" stroke-miterlimit="10" stroke-linecap="round" stroke-linejoin="round"/>
<path d="M4.18636 8.27778H10.3692C10.611 8.27778 10.8236 8.4381 10.89 8.67064L11.3583 10.3095C11.4571 10.6556 11.1973 11 10.8375 11H3.7181C3.35823 11 3.09841 10.6556 3.19728 10.3095L3.66553 8.67064C3.73197 8.4381 3.94451 8.27778 4.18636 8.27778Z" stroke="#3C3C3B" stroke-width="2" stroke-miterlimit="10" stroke-linecap="round" stroke-linejoin="round"/>
<path d="M3.77783 8.27778V4.94792C3.77783 4.4244 4.20223 4 4.72575 4H9.82992C10.3534 4 10.7778 4.4244 10.7778 4.94792V8.27778" stroke="#3C3C3B" stroke-width="2" stroke-miterlimit="10" stroke-linecap="round" stroke-linejoin="round"/>
</svg>
