<svg width="24" height="24" viewBox="0 0 24 24" fill="none" xmlns="http://www.w3.org/2000/svg">
<path d="M8.48048 3.77927L9.31253 4.33397V4.33397L8.48048 3.77927ZM7 6V7C7.33435 7 7.64658 6.8329 7.83205 6.5547L7 6ZM17 6L16.1679 6.5547C16.3534 6.8329 16.6656 7 17 7V6ZM15.5195 3.77927L14.6875 4.33397V4.33398L15.5195 3.77927ZM9.31253 4.33397C9.45163 4.12533 9.68581 4 9.93657 4V2C9.0171 2 8.15846 2.45953 7.64843 3.22457L9.31253 4.33397ZM7.83205 6.5547L9.31253 4.33397L7.64843 3.22457L6.16795 5.4453L7.83205 6.5547ZM3.75 7H7V5H3.75V7ZM3 7.75C3 7.33579 3.33579 7 3.75 7V5C2.23122 5 1 6.23122 1 7.75H3ZM3 19.25V7.75H1V19.25H3ZM3.75 20C3.33579 20 3 19.6642 3 19.25H1C1 20.7688 2.23122 22 3.75 22V20ZM20.25 20H3.75V22H20.25V20ZM21 19.25C21 19.6642 20.6642 20 20.25 20V22C21.7688 22 23 20.7688 23 19.25H21ZM21 7.75V19.25H23V7.75H21ZM20.25 7C20.6642 7 21 7.33579 21 7.75H23C23 6.23122 21.7688 5 20.25 5V7ZM17 7H20.25V5H17V7ZM14.6875 4.33398L16.1679 6.5547L17.8321 5.4453L16.3516 3.22457L14.6875 4.33398ZM14.0634 4C14.3142 4 14.5484 4.12533 14.6875 4.33397L16.3516 3.22457C15.8415 2.45953 14.9829 2 14.0634 2V4ZM9.93657 4H14.0634V2H9.93657V4Z" fill="#3C3C3B"/>
<circle cx="12" cy="13" r="3" stroke="#3C3C3B" stroke-width="2" stroke-linecap="round" stroke-linejoin="round"/>
<circle cx="18.25" cy="9.75" r="1.25" fill="#3C3C3B"/>
</svg>
