<svg width="24" height="24" viewBox="0 0 24 24" fill="none" xmlns="http://www.w3.org/2000/svg">
<path d="M10.6457 2.46721L9.68309 2.19646V2.19646L10.6457 2.46721ZM13.3543 2.46721L14.3169 2.19646V2.19646L13.3543 2.46721ZM13.9422 4.55766L12.9796 4.8284C13.0758 5.17055 13.3464 5.43591 13.6904 5.52543L13.9422 4.55766ZM15.8887 5.36451L15.3823 6.22681C15.6888 6.40683 16.0679 6.41058 16.3779 6.23666L15.8887 5.36451ZM17.7831 4.3018L18.2723 5.17394L18.2723 5.17394L17.7831 4.3018ZM18.5497 4.40756L17.8426 5.11466L17.8426 5.11466L18.5497 4.40756ZM19.5925 5.45037L18.8854 6.15748L18.8854 6.15748L19.5925 5.45037ZM19.6983 6.21703L20.5705 6.70628L20.5705 6.70628L19.6983 6.21703ZM18.6356 8.11138L17.7635 7.62213C17.5895 7.93218 17.5933 8.31127 17.7733 8.61782L18.6356 8.11138ZM19.3772 9.82226L18.418 10.105C18.5153 10.435 18.7753 10.6918 19.1065 10.7849L19.3772 9.82226ZM21.5328 10.4285L21.8035 9.46586H21.8035L21.5328 10.4285ZM21.5328 13.1371L21.8035 14.0997H21.8035L21.5328 13.1371ZM19.4995 13.7089L19.2287 12.7463C18.8757 12.8456 18.6054 13.1301 18.5243 13.4877L19.4995 13.7089ZM18.6357 15.889L17.7734 15.3826C17.5933 15.6892 17.5896 16.0682 17.7635 16.3783L18.6357 15.889ZM19.6982 17.7832L18.8261 18.2725V18.2725L19.6982 17.7832ZM19.5925 18.5499L20.2996 19.257L19.5925 18.5499ZM18.5497 19.5927L17.8426 18.8856H17.8426L18.5497 19.5927ZM17.783 19.6984L18.2723 18.8263L18.2722 18.8263L17.783 19.6984ZM15.8888 18.6359L16.3781 17.7637C16.068 17.5898 15.689 17.5935 15.3824 17.7736L15.8888 18.6359ZM13.9421 19.4429L13.6902 18.4751C13.3463 18.5646 13.0756 18.83 12.9794 19.1721L13.9421 19.4429ZM13.3543 21.5327L14.3169 21.8035L13.3543 21.5327ZM10.6457 21.5327L11.6084 21.262L11.6084 21.262L10.6457 21.5327ZM10.058 19.4429L11.0206 19.1721C10.9244 18.83 10.6538 18.5646 10.3098 18.4751L10.058 19.4429ZM8.11101 18.6357L8.61747 17.7735C8.31092 17.5934 7.93182 17.5897 7.62176 17.7636L8.11101 18.6357ZM6.21696 19.6982L6.70621 20.5704L6.70621 20.5704L6.21696 19.6982ZM5.4503 19.5925L6.15741 18.8854L6.15741 18.8854L5.4503 19.5925ZM4.40749 18.5497L3.70038 19.2568L3.70038 19.2568L4.40749 18.5497ZM4.30173 17.783L5.17387 18.2723L4.30173 17.783ZM5.3643 15.8889L6.23644 16.3781C6.41037 16.0681 6.40662 15.689 6.2266 15.3825L5.3643 15.8889ZM4.50059 13.7089L5.4758 13.4877C5.39467 13.1301 5.12433 12.8455 4.77133 12.7463L4.50059 13.7089ZM2.46733 13.1371L2.19658 14.0997L2.19658 14.0997L2.46733 13.1371ZM2 12.5202H3H2ZM2 11.0454H1H2ZM2.46733 10.4285L2.73807 11.3912H2.73807L2.46733 10.4285ZM4.62286 9.82227L4.8936 10.7849C5.22476 10.6918 5.48479 10.435 5.58205 10.105L4.62286 9.82227ZM5.36444 8.11138L6.22672 8.61782C6.40676 8.31127 6.41052 7.93218 6.23658 7.62213L5.36444 8.11138ZM4.30172 6.21696L3.42958 6.70621V6.70621L4.30172 6.21696ZM6.21695 4.30173L5.7277 5.17387L5.7277 5.17387L6.21695 4.30173ZM8.11144 5.36449L7.62219 6.23663C7.93223 6.41056 8.3113 6.40681 8.61785 6.22678L8.11144 5.36449ZM10.0578 4.55767L10.3096 5.52543C10.6536 5.43592 10.9242 5.17056 11.0204 4.82841L10.0578 4.55767ZM11.2626 0.999878C10.5275 0.999878 9.88211 1.4888 9.68309 2.19646L11.6084 2.73795C11.5648 2.89285 11.4235 2.99988 11.2626 2.99988V0.999878ZM12.7374 0.999878H11.2626V2.99988H12.7374V0.999878ZM14.3169 2.19646C14.1179 1.4888 13.4725 0.999878 12.7374 0.999878V2.99988C12.5765 2.99988 12.4352 2.89285 12.3916 2.73795L14.3169 2.19646ZM14.9049 4.28691L14.3169 2.19646L12.3916 2.73795L12.9796 4.8284L14.9049 4.28691ZM16.3951 4.50222C15.7154 4.10307 14.9763 3.79344 14.1941 3.58989L13.6904 5.52543C14.2911 5.68175 14.8592 5.91963 15.3823 6.22681L16.3951 4.50222ZM17.2938 3.42965L15.3994 4.49237L16.3779 6.23666L18.2723 5.17394L17.2938 3.42965ZM19.2568 3.70045C18.737 3.18064 17.9349 3.07 17.2938 3.42965L18.2723 5.17394C18.132 5.25267 17.9564 5.22845 17.8426 5.11466L19.2568 3.70045ZM20.2997 4.74326L19.2568 3.70045L17.8426 5.11466L18.8854 6.15748L20.2997 4.74326ZM20.5705 6.70628C20.9301 6.06516 20.8195 5.26307 20.2997 4.74326L18.8854 6.15748C18.7717 6.04369 18.7474 5.86812 18.8262 5.72778L20.5705 6.70628ZM19.5078 8.60063L20.5705 6.70628L18.8262 5.72778L17.7635 7.62213L19.5078 8.60063ZM20.3364 9.53952C20.1348 8.85556 19.8515 8.20692 19.4979 7.60494L17.7733 8.61782C18.0454 9.0811 18.2632 9.57971 18.418 10.105L20.3364 9.53952ZM21.8035 9.46586L19.6479 8.85961L19.1065 10.7849L21.262 11.3912L21.8035 9.46586ZM23.0001 11.0454C23.0001 10.3103 22.5112 9.66489 21.8035 9.46586L21.262 11.3912C21.1071 11.3476 21.0001 11.2063 21.0001 11.0454H23.0001ZM23.0001 12.5202V11.0454H21.0001V12.5202H23.0001ZM21.8035 14.0997C22.5112 13.9007 23.0001 13.2553 23.0001 12.5202H21.0001C21.0001 12.3593 21.1071 12.218 21.262 12.1744L21.8035 14.0997ZM19.7702 14.6716L21.8035 14.0997L21.262 12.1744L19.2287 12.7463L19.7702 14.6716ZM19.4979 16.3955C19.9418 15.6397 20.275 14.8104 20.4747 13.9302L18.5243 13.4877C18.3709 14.1637 18.115 14.801 17.7734 15.3826L19.4979 16.3955ZM20.5704 17.2939L19.5078 15.3998L17.7635 16.3783L18.8261 18.2725L20.5704 17.2939ZM20.2996 19.257C20.8194 18.7372 20.93 17.9351 20.5704 17.2939L18.8261 18.2725C18.7474 18.1321 18.7716 17.9565 18.8854 17.8428L20.2996 19.257ZM19.2568 20.2998L20.2996 19.257L18.8854 17.8428L17.8426 18.8856L19.2568 20.2998ZM17.2937 20.5706C17.9349 20.9302 18.737 20.8196 19.2568 20.2998L17.8426 18.8856C17.9563 18.7718 18.1319 18.7476 18.2723 18.8263L17.2937 20.5706ZM15.3996 19.508L17.2937 20.5706L18.2722 18.8263L16.3781 17.7637L15.3996 19.508ZM14.1939 20.4106C14.9762 20.2071 15.7155 19.8974 16.3953 19.4981L15.3824 17.7736C14.8593 18.0808 14.2911 18.3187 13.6902 18.4751L14.1939 20.4106ZM14.3169 21.8035L14.9047 19.7136L12.9794 19.1721L12.3916 21.262L14.3169 21.8035ZM12.7374 23C13.4725 23 14.1179 22.5111 14.3169 21.8035L12.3916 21.262C12.4352 21.1071 12.5765 21 12.7374 21V23ZM11.2626 23H12.7374V21H11.2626V23ZM9.68309 21.8034C9.88211 22.5111 10.5275 23 11.2626 23V21C11.4235 21 11.5648 21.1071 11.6084 21.262L9.68309 21.8034ZM9.09532 19.7136L9.68309 21.8035L11.6084 21.262L11.0206 19.1721L9.09532 19.7136ZM7.60455 19.498C8.28438 19.8973 9.02372 20.207 9.80614 20.4106L10.3098 18.4751C9.70889 18.3187 9.14064 18.0808 8.61747 17.7735L7.60455 19.498ZM6.70621 20.5704L8.60026 19.5079L7.62176 17.7636L5.72771 18.8261L6.70621 20.5704ZM4.74319 20.2996C5.263 20.8194 6.06509 20.93 6.70621 20.5704L5.72772 18.8261C5.86805 18.7474 6.04362 18.7716 6.15741 18.8854L4.74319 20.2996ZM3.70038 19.2568L4.7432 20.2996L6.15741 18.8854L5.11459 17.8426L3.70038 19.2568ZM3.42959 17.2938C3.06993 17.9349 3.18058 18.737 3.70038 19.2568L5.1146 17.8426C5.22838 17.9563 5.2526 18.1319 5.17387 18.2723L3.42959 17.2938ZM4.49216 15.3996L3.42959 17.2938L5.17387 18.2723L6.23644 16.3781L4.49216 15.3996ZM3.52537 13.9302C3.72506 14.8103 4.05818 15.6395 4.50201 16.3953L6.2266 15.3825C5.88506 14.8009 5.62918 14.1636 5.4758 13.4877L3.52537 13.9302ZM4.77133 12.7463L2.73807 12.1744L2.19658 14.0997L4.22984 14.6716L4.77133 12.7463ZM2.73807 12.1744C2.89297 12.218 3 12.3592 3 12.5202H1C1 13.2553 1.48893 13.9007 2.19658 14.0997L2.73807 12.1744ZM3 12.5202V11.0454H1L1 12.5202H3ZM3 11.0454C3 11.2063 2.89298 11.3476 2.73807 11.3912L2.19658 9.46586C1.48892 9.66488 1 10.3103 1 11.0454H3ZM2.73807 11.3912L4.8936 10.7849L4.35211 8.85961L2.19658 9.46586L2.73807 11.3912ZM4.50216 7.60494C4.14861 8.20691 3.86527 8.85557 3.66366 9.53953L5.58205 10.105C5.73689 9.57972 5.95461 9.0811 6.22672 8.61782L4.50216 7.60494ZM3.42958 6.70621L4.4923 8.60063L6.23658 7.62213L5.17386 5.72771L3.42958 6.70621ZM3.70037 4.74319C3.18057 5.263 3.06992 6.06509 3.42958 6.70621L5.17386 5.72771C5.25259 5.86805 5.22837 6.04362 5.11459 6.15741L3.70037 4.74319ZM4.74319 3.70038L3.70037 4.74319L5.11459 6.15741L6.1574 5.11459L4.74319 3.70038ZM6.7062 3.42958C6.06508 3.06993 5.26299 3.18058 4.74319 3.70038L6.1574 5.11459C6.04362 5.22837 5.86804 5.2526 5.7277 5.17387L6.7062 3.42958ZM8.60069 4.49234L6.7062 3.42958L5.7277 5.17387L7.62219 6.23663L8.60069 4.49234ZM9.80595 3.5899C9.02378 3.79345 8.28468 4.10306 7.60504 4.50219L8.61785 6.22678C9.14087 5.91963 9.70894 5.68176 10.3096 5.52543L9.80595 3.5899ZM9.68309 2.19646L9.09514 4.28692L11.0204 4.82841L11.6084 2.73795L9.68309 2.19646Z" fill="#3C3C3B"/>
<circle cx="12" cy="12" r="2.5" stroke="#3C3C3B" stroke-width="2" stroke-miterlimit="10" stroke-linecap="round" stroke-linejoin="round"/>
</svg>
