<svg width="24" height="25" viewBox="0 0 24 25" fill="none" xmlns="http://www.w3.org/2000/svg">
<path d="M15 6.83228V4.83228C15 4.27999 14.5523 3.83228 14 3.83228H4C3.44772 3.83228 3 4.27999 3 4.83228V16.8323C3 17.3846 3.44772 17.8323 4 17.8323H5" stroke="#3C3C3B" stroke-width="2" stroke-miterlimit="10" stroke-linecap="round" stroke-linejoin="round"/>
<path d="M21.25 9.58224C20.2359 8.56405 18.5141 8.56407 17.5 9.58226L9.5 17.5823C8.54225 18.6004 8 19.9747 8 21.3323V22.8324H9.5C10.9085 22.8324 12.2923 22.2939 13.25 21.3323L21.25 13.3293C22.2641 12.3111 22.2641 10.6004 21.25 9.58224Z" stroke="#3C3C3B" stroke-width="2" stroke-miterlimit="10" stroke-linejoin="round"/>
<path d="M9.78125 17.4573L13.7188 21.3948" stroke="#3C3C3B" stroke-width="2" stroke-miterlimit="10" stroke-linejoin="round"/>
<path d="M7 7.83228H10.5" stroke="#3C3C3B" stroke-width="2" stroke-miterlimit="10" stroke-linecap="round" stroke-linejoin="round"/>
<path d="M7 11.8323H8" stroke="#3C3C3B" stroke-width="2" stroke-miterlimit="10" stroke-linecap="round" stroke-linejoin="round"/>
</svg>
