<svg width="24" height="25" viewBox="0 0 24 25" fill="none" xmlns="http://www.w3.org/2000/svg">
<path d="M12.2142 9.64478V3.83228C12.2142 3.27999 11.7665 2.83228 11.2142 2.83228H3C2.44772 2.83228 2 3.27999 2 3.83228V14.8322C2 15.3845 2.44772 15.8322 3 15.8322H6.3125" stroke="#3C3C3B" stroke-width="2" stroke-miterlimit="10" stroke-linecap="round" stroke-linejoin="round"/>
<path d="M21.2394 9.5958C20.2254 8.57761 18.5352 8.57761 17.5211 9.5958L9.52113 17.5716C8.56338 18.5898 8 19.9474 8 21.305V22.8323H9.52113C10.9296 22.8323 12.2817 22.2666 13.2394 21.305L21.2394 13.3292C22.2535 12.311 22.2535 10.614 21.2394 9.5958Z" stroke="#3C3C3B" stroke-width="2" stroke-miterlimit="10" stroke-linejoin="round"/>
<path d="M9.75 17.1448L13.6875 21.0823" stroke="#3C3C3B" stroke-width="2" stroke-miterlimit="10" stroke-linejoin="round"/>
</svg>
