<svg width="24" height="24" viewBox="0 0 24 24" fill="none" xmlns="http://www.w3.org/2000/svg">
<g clip-path="url(#clip0_12_1814)">
<path fill-rule="evenodd" clip-rule="evenodd" d="M23.5 12C23.5 5.64872 18.3513 0.5 12 0.5C5.64872 0.5 0.5 5.64872 0.5 12C0.5 17.74 4.70538 22.4976 10.2031 23.3603V15.3242H7.2832V12H10.2031V9.46641C10.2031 6.58422 11.92 4.99219 14.5468 4.99219C15.805 4.99219 17.1211 5.2168 17.1211 5.2168V8.04688H15.671C14.2424 8.04688 13.7969 8.93334 13.7969 9.84278V12H16.9863L16.4765 15.3242H13.7969V23.3603C19.2946 22.4976 23.5 17.74 23.5 12Z" fill="#3C3C3B"/>
</g>
<defs>
<clipPath id="clip0_12_1814">
<rect width="24" height="24" fill="white"/>
</clipPath>
</defs>
</svg>
