<svg width="24" height="24" viewBox="0 0 24 24" fill="none" xmlns="http://www.w3.org/2000/svg">
<path fill-rule="evenodd" clip-rule="evenodd" d="M15.5328 5.46747C16.152 5.46747 16.7712 5.46747 17.3904 5.46747C17.4523 5.46747 17.5142 5.46747 17.6381 5.46747V2.18576C17.3285 2.12384 16.957 2.12384 16.5855 2.06192C15.9663 2.06192 15.2851 2 14.666 2C13.6752 2 12.7465 2.24768 11.9415 2.80495C11.0127 3.48606 10.5174 4.41485 10.3316 5.52939C10.2697 5.96283 10.2273 6.45818 10.2273 6.89161C10.2273 7.63464 10.2273 8.31576 10.2273 9.05879V9.30646H7.11182V12.8978H10.2273V21.9999H13.8444V13.0835H17.0808C17.2666 11.9071 17.3904 10.6687 17.5762 9.4303C17.3285 9.4303 17.0808 9.4303 16.895 9.4303C16.0282 9.4303 13.8444 9.4303 13.8444 9.4303C13.8444 9.4303 13.8444 7.63464 13.8444 6.89161C13.8444 5.77707 14.7279 5.46747 15.5328 5.46747Z" fill="#3C3C3B"/>
</svg>
