<svg width="24" height="25" viewBox="0 0 24 25" fill="none" xmlns="http://www.w3.org/2000/svg">
<path d="M10.9224 7.39478L9.46609 5.85428C8.90182 5.25738 7.99835 5.13324 7.29401 5.55585L4.53198 7.21306" stroke="#3C3C3B" stroke-width="2"/>
<path d="M19.5 7.08228L19.5 16.5823C19.5 16.7203 19.6119 16.8323 19.75 16.8323L22.75 16.8323C22.8881 16.8323 23 16.7203 23 16.5823L23 7.08228C23 6.9442 22.8881 6.83228 22.75 6.83228L19.75 6.83228C19.6119 6.83228 19.5 6.9442 19.5 7.08228Z" stroke="#3C3C3B" stroke-width="2" stroke-linecap="round"/>
<path d="M1 7.08228L1 16.5823C1 16.7203 1.11193 16.8323 1.25 16.8323L4.25 16.8323C4.38807 16.8323 4.5 16.7203 4.5 16.5823L4.5 7.08228C4.5 6.9442 4.38807 6.83228 4.25 6.83228L1.25 6.83228C1.11193 6.83228 1 6.9442 1 7.08228Z" stroke="#3C3C3B" stroke-width="2" stroke-linecap="round"/>
<path d="M4.25879 16.3323H5.79289C5.9255 16.3323 6.05268 16.385 6.14645 16.4787L8.39244 18.7247C9.02298 19.3553 10.0268 19.4108 10.7231 18.8538L15.5371 15.0026C16.3284 14.3695 16.4183 13.1988 15.7329 12.4524L13.7861 10.3323L12.369 11.0745C11.5282 11.5148 10.4934 11.2989 9.89888 10.5591V10.5591C9.13507 9.60858 9.39996 8.20067 10.457 7.59276L14.2956 5.38509C14.8935 5.04121 15.6264 5.0297 16.2349 5.35466L19.6035 7.15379" stroke="#3C3C3B" stroke-width="2"/>
<path d="M19.5 16.3323H14" stroke="#3C3C3B" stroke-width="2"/>
</svg>
