<svg width="24" height="24" viewBox="0 0 24 24" fill="none" xmlns="http://www.w3.org/2000/svg">
<path fill-rule="evenodd" clip-rule="evenodd" d="M7.96923 2.00006H15.9692C19.2923 2.00006 21.9385 4.64621 22 7.96929V16.0308C22 19.3539 19.2923 22.0001 16.0308 22.0001H7.96923C4.64615 22.0001 2 19.2924 2 16.0308V7.96929C2 4.64621 4.70769 2.00006 7.96923 2.00006ZM7 12.0001C7 9.2573 9.25724 7.00006 12 7.00006C14.7428 7.00006 17 9.2573 17 12.0001C17 14.7428 14.7428 17.0001 12 17.0001C9.25724 17.0001 7 14.7428 7 12.0001ZM12 9.00006C10.3618 9.00006 9 10.3619 9 12.0001C9 13.6383 10.3618 15.0001 12 15.0001C13.6382 15.0001 15 13.6383 15 12.0001C15 10.3619 13.6382 9.00006 12 9.00006ZM18.9999 6.4255C18.9999 7.11586 18.4403 7.6755 17.7499 7.6755C17.0596 7.6755 16.4999 7.11586 16.4999 6.4255C16.4999 5.73514 17.0596 5.1755 17.7499 5.1755C18.4403 5.1755 18.9999 5.73514 18.9999 6.4255Z" fill="#3C3C3B"/>
</svg>
