<svg width="24" height="24" viewBox="0 0 24 24" fill="none" xmlns="http://www.w3.org/2000/svg">
<path d="M8.37233 2.99969H15.5724C18.5631 2.99969 20.9447 5.38124 21.0001 8.37203V15.6274C21.0001 18.6182 18.5631 20.9998 15.6278 20.9998H8.37233C5.38155 20.9998 3 18.5628 3 15.6274V8.37203C3 5.38124 5.43693 2.99969 8.37233 2.99969Z" stroke="#3C3C3B" stroke-width="2" stroke-miterlimit="10" stroke-linecap="round" stroke-linejoin="round"/>
<path d="M12 8.62463C10.1518 8.62463 8.625 10.1514 8.625 11.9996C8.625 13.8479 10.1518 15.3746 12 15.3746C13.8482 15.3746 15.375 13.8479 15.375 11.9996C15.375 10.1514 13.8482 8.62463 12 8.62463Z" stroke="#3C3C3B" stroke-width="2" stroke-miterlimit="10" stroke-linecap="round" stroke-linejoin="round"/>
<path d="M17.125 8C17.7463 8 18.25 7.49632 18.25 6.875C18.25 6.25368 17.7463 5.75 17.125 5.75C16.5037 5.75 16 6.25368 16 6.875C16 7.49632 16.5037 8 17.125 8Z" fill="#3C3C3B"/>
</svg>
