<svg width="24" height="25" viewBox="0 0 24 25" fill="none" xmlns="http://www.w3.org/2000/svg">
<path d="M11 6.83228L12.5 5.33227C14.433 3.39928 17.567 3.39928 19.5 5.33228V5.33228C21.433 7.26527 21.433 10.3993 19.5 12.3323L17.201 14.6313C16.432 15.4003 15.389 15.8323 14.3015 15.8323H13.7135C12.3488 15.8323 11.1027 15.0567 10.5 13.8323V13.8323" stroke="#3C3C3B" stroke-width="2" stroke-linecap="round" stroke-linejoin="round"/>
<path d="M13 18.8323L11.44 20.3923C9.54023 22.292 6.46005 22.2918 4.56064 20.3917V20.3917C2.61548 18.4458 2.67015 15.2753 4.68123 13.3976L7.21894 11.0283C8.04214 10.2597 9.12639 9.83228 10.2526 9.83228H10.7639C12.1343 9.83228 13.3871 10.6065 14 11.8323V11.8323" stroke="#3C3C3B" stroke-width="2" stroke-linecap="round" stroke-linejoin="round"/>
</svg>
