<svg width="24" height="24" viewBox="0 0 24 24" fill="none" xmlns="http://www.w3.org/2000/svg">
<path d="M12 5H21" stroke="#3C3C3B" stroke-width="2" stroke-miterlimit="10" stroke-linecap="round" stroke-linejoin="round"/>
<path d="M12 12H21" stroke="#3C3C3B" stroke-width="2" stroke-miterlimit="10" stroke-linecap="round" stroke-linejoin="round"/>
<path d="M12 19H21" stroke="#3C3C3B" stroke-width="2" stroke-miterlimit="10" stroke-linecap="round" stroke-linejoin="round"/>
<path d="M3.41421 3.58579L4.82843 4.998L6.24264 3.58579L4.83043 5L6.24264 6.41421L4.82843 5.002L3.41421 6.41421L4.82643 5L3.41421 3.58579Z" stroke="#3C3C3B" stroke-width="2" stroke-linecap="round" stroke-linejoin="round"/>
<path d="M3.41421 10.5858L4.82843 11.998L6.24264 10.5858L4.83043 12L6.24264 13.4142L4.82843 12.002L3.41421 13.4142L4.82643 12L3.41421 10.5858Z" stroke="#3C3C3B" stroke-width="2" stroke-linecap="round" stroke-linejoin="round"/>
<path d="M3.41421 17.5857L4.82843 18.9979L6.24264 17.5857L4.83043 18.9999L6.24264 20.4141L4.82843 19.0019L3.41421 20.4141L4.82643 18.9999L3.41421 17.5857Z" stroke="#3C3C3B" stroke-width="2" stroke-linecap="round" stroke-linejoin="round"/>
</svg>
