<svg width="24" height="24" viewBox="0 0 24 24" fill="none" xmlns="http://www.w3.org/2000/svg">
<path fill-rule="evenodd" clip-rule="evenodd" d="M2.12105 5.53534C2.04274 5.74953 2 5.98086 2 6.22217V17.7777C2 18.8823 2.89543 19.7777 4 19.7777H20C21.1046 19.7777 22 18.8823 22 17.7777V6.22217C22 5.98086 21.9573 5.74953 21.8789 5.53534L14.1213 13.293C12.9497 14.4645 11.0503 14.4645 9.87868 13.293L2.12105 5.53534ZM20.3356 4.25021C20.2265 4.23177 20.1144 4.22217 20 4.22217H4C3.88562 4.22217 3.77348 4.23177 3.66435 4.25021L11.2929 11.8788C11.6834 12.2693 12.3166 12.2693 12.7071 11.8788L20.3356 4.25021Z" fill="#3C3C3B"/>
</svg>
