<svg width="24" height="24" viewBox="0 0 24 24" fill="none" xmlns="http://www.w3.org/2000/svg">
<path d="M7 12V4.75C7 3.7835 7.7835 3 8.75 3H20.25C21.2165 3 22 3.7835 22 4.75V18C22 18 22 18 22 18C22 18 22 21 19.5 21C17 21 4.5 21 4.5 21M7 12H2V18C2 18 2 18 2 18C2 18.0001 2.00005 21 4.5 21M7 12V18C7 18 7 18 7 18C7 18 7 21 4.5 21" stroke="#3C3C3B" stroke-width="2" stroke-miterlimit="10" stroke-linecap="round" stroke-linejoin="round"/>
<path d="M11 10L18 10" stroke="#3C3C3B" stroke-width="2" stroke-miterlimit="10" stroke-linecap="round" stroke-linejoin="round"/>
<path d="M11 14L18 14" stroke="#3C3C3B" stroke-width="2" stroke-miterlimit="10" stroke-linecap="round" stroke-linejoin="round"/>
</svg>
