<svg width="24" height="25" viewBox="0 0 24 25" fill="none" xmlns="http://www.w3.org/2000/svg">
<path d="M21.3717 15.185C22.1859 14.4464 21.8724 13.2281 21.747 12.9326L18.3078 5.56213C17.8149 4.50585 16.7548 3.83069 15.5892 3.83069H6.99989L6.99988 13.6051C6.99981 13.6754 7.02724 13.7447 7.05988 13.8069C7.09252 13.8692 7.1615 13.9225 7.21935 13.9625C8.87172 15.1031 10.7184 17.7052 10.7184 20.0871C10.7019 20.5082 10.8393 20.9209 11.1049 21.2482C11.3705 21.5754 11.7462 21.7947 12.1617 21.8652C13.0065 21.9823 14.0873 21.4619 14.5973 19.6404C14.7805 18.3486 14.6375 17.3182 14.1587 16.1046C14.148 16.0721 14.1452 16.0375 14.1505 16.0036C14.1557 15.9698 14.1689 15.9377 14.189 15.9099C14.209 15.8822 14.2354 15.8663 14.2658 15.8507C14.2963 15.8351 14.33 15.8308 14.3643 15.8307H19.8383C20.4135 15.8307 20.965 15.5916 21.3717 15.185Z" fill="white" stroke="#3C3C3B" stroke-width="2" stroke-linecap="round" stroke-linejoin="round"/>
<path d="M2 12.3307C2 13.1591 2.67157 13.8307 3.5 13.8307H7V3.83069H3.5C2.67157 3.83069 2 4.50226 2 5.33069V12.3307Z" stroke="#3C3C3B" stroke-width="2" stroke-linecap="round" stroke-linejoin="round"/>
</svg>
