<svg width="24" height="25" viewBox="0 0 24 25" fill="none" xmlns="http://www.w3.org/2000/svg">
<path d="M9.94015 4.92559L10.1156 5.91007C10.4435 5.85163 10.7208 5.63374 10.8552 5.32895L9.94015 4.92559ZM14.0598 4.92559L13.1448 5.32895C13.2792 5.63374 13.5565 5.85163 13.8844 5.91007L14.0598 4.92559ZM19 18.8323H18C18 19.0975 18.1054 19.3518 18.2929 19.5394L19 18.8323ZM20 19.8323V20.8323C20.4045 20.8323 20.7691 20.5886 20.9239 20.215C21.0787 19.8413 20.9931 19.4112 20.7071 19.1252L20 19.8323ZM4 19.8323L3.29289 19.1252C3.0069 19.4112 2.92134 19.8413 3.07612 20.215C3.2309 20.5886 3.59554 20.8323 4 20.8323V19.8323ZM5 18.8323L5.70711 19.5394C5.89464 19.3518 6 19.0975 6 18.8323H5ZM10.8552 5.32895C11.0499 4.88734 11.4904 4.58228 12 4.58228V2.58228C10.6695 2.58228 9.52788 3.38167 9.02511 4.52223L10.8552 5.32895ZM12 4.58228C12.5096 4.58228 12.9501 4.88734 13.1448 5.32895L14.9749 4.52223C14.4721 3.38167 13.3305 2.58228 12 2.58228V4.58228ZM20 10.8323C20 7.38716 17.5122 4.52515 14.2353 3.9411L13.8844 5.91007C16.2239 6.32704 18 8.37327 18 10.8323H20ZM20 18.8323V10.8323H18V18.8323H20ZM20.7071 19.1252L19.7071 18.1252L18.2929 19.5394L19.2929 20.5394L20.7071 19.1252ZM4 20.8323H20V18.8323H4V20.8323ZM4.29289 18.1252L3.29289 19.1252L4.70711 20.5394L5.70711 19.5394L4.29289 18.1252ZM4 10.8323V18.8323H6V10.8323H4ZM9.76469 3.9411C6.48777 4.52515 4 7.38716 4 10.8323H6C6 8.37327 7.77611 6.32704 10.1156 5.91007L9.76469 3.9411Z" fill="#3C3C3B"/>
<path d="M10 19.8323V20.8323C10 21.9368 10.8954 22.8323 12 22.8323C13.1046 22.8323 14 21.9368 14 20.8323V19.8323" stroke="#3C3C3B" stroke-width="2"/>
</svg>
