<svg width="24" height="24" viewBox="0 0 24 24" fill="none" xmlns="http://www.w3.org/2000/svg">
<path d="M7.54349 6.95653C6.43049 6.95653 5.47827 5.95194 5.47827 4.75321V4.17951C5.47827 2.98078 6.43049 2 7.54349 2C8.65649 2 9.60872 2.98078 9.60872 4.17951V4.75321C9.60872 5.95194 8.65649 6.95653 7.54349 6.95653Z" stroke="#3C3C3B" stroke-width="2" stroke-miterlimit="10" stroke-linecap="round" stroke-linejoin="round"/>
<path d="M3.96799 12L11.532 12C12.0237 12 12.3845 11.5379 12.2653 11.0609C11.9624 9.84969 10.8742 9 9.62569 9H8.75001L7.75001 10L6.75001 9H5.87436C4.62586 9 3.53758 9.84971 3.23477 11.0609C3.11552 11.5379 3.4763 12 3.96799 12Z" stroke="#3C3C3B" stroke-width="2" stroke-miterlimit="10" stroke-linecap="round" stroke-linejoin="round"/>
<path d="M17.3752 6L17.3752 10.3751" stroke="#3C3C3B" stroke-width="2" stroke-miterlimit="10" stroke-linecap="round" stroke-linejoin="round"/>
<path d="M17.3752 6.00024L14.0001 6.00024" stroke="#3C3C3B" stroke-width="2" stroke-miterlimit="10" stroke-linecap="round" stroke-linejoin="round"/>
<path d="M15.0752 8.69019L17.3253 11.0027L19.5753 8.69019" stroke="#3C3C3B" stroke-width="2" stroke-miterlimit="10" stroke-linecap="round" stroke-linejoin="round"/>
<path d="M7.19995 20.0027L7.19995 15.6276" stroke="#3C3C3B" stroke-width="2" stroke-miterlimit="10" stroke-linecap="round" stroke-linejoin="round"/>
<path d="M7.19995 20.0024L10.5751 20.0024" stroke="#3C3C3B" stroke-width="2" stroke-miterlimit="10" stroke-linecap="round" stroke-linejoin="round"/>
<path d="M9.5 17.3125L7.24993 15L4.99986 17.3125" stroke="#3C3C3B" stroke-width="2" stroke-miterlimit="10" stroke-linecap="round" stroke-linejoin="round"/>
<path d="M14.1864 19.2778H20.3692C20.611 19.2778 20.8236 19.4381 20.89 19.6706L21.3583 21.3095C21.4571 21.6556 21.1973 22 20.8375 22H13.7181C13.3582 22 13.0984 21.6556 13.1973 21.3095L13.6655 19.6706C13.732 19.4381 13.9445 19.2778 14.1864 19.2778Z" stroke="#3C3C3B" stroke-width="2" stroke-miterlimit="10" stroke-linecap="round" stroke-linejoin="round"/>
<path d="M13.7778 19.2778V15.9479C13.7778 15.4244 14.2022 15 14.7257 15H19.8299C20.3534 15 20.7778 15.4244 20.7778 15.9479V19.2778" stroke="#3C3C3B" stroke-width="2" stroke-miterlimit="10" stroke-linecap="round" stroke-linejoin="round"/>
</svg>
