<svg width="24" height="24" viewBox="0 0 24 24" fill="none" xmlns="http://www.w3.org/2000/svg">
<path d="M11.1001 8.71949C11.1739 8.70089 11.2413 8.66252 11.2949 8.60851L16.7744 3.12236C16.8133 3.0834 16.8596 3.05253 16.9105 3.03153C16.9614 3.01053 17.016 2.99981 17.0711 3H20.6747C20.7858 3 20.8924 3.04415 20.971 3.12273C21.0495 3.20131 21.0937 3.30789 21.0937 3.41903V7.02264C21.0925 7.13159 21.0485 7.23572 20.9713 7.3126L15.4852 12.8004C15.431 12.854 15.3925 12.9214 15.3739 12.9952C15.3553 13.0691 15.3573 13.1466 15.3796 13.2195C15.5749 13.8326 15.6771 14.4716 15.683 15.1151C15.683 16.4411 15.2898 17.7374 14.5531 18.8399C13.8164 19.9424 12.7693 20.8017 11.5442 21.3092C10.3192 21.8166 8.97113 21.9494 7.6706 21.6907C6.37008 21.432 5.17547 20.7935 4.23784 19.8558C3.30022 18.9182 2.66169 17.7236 2.403 16.4231C2.14431 15.1226 2.27707 13.7745 2.78451 12.5495C3.29195 11.3244 4.15127 10.2773 5.25381 9.54063C6.35634 8.80394 7.65256 8.41073 8.97857 8.41073C9.6226 8.41668 10.2621 8.51894 10.8759 8.71411C10.9488 8.73623 11.0263 8.7381 11.1001 8.71949Z" stroke="#3C3C3B" stroke-width="2" stroke-miterlimit="10" stroke-linecap="round" stroke-linejoin="round"/>
<circle cx="8.94101" cy="14.9438" r="2.11728" stroke="#3C3C3B" stroke-width="2" stroke-miterlimit="10" stroke-linecap="round" stroke-linejoin="round"/>
</svg>
