<svg width="24" height="24" viewBox="0 0 24 24" fill="none" xmlns="http://www.w3.org/2000/svg">
<path d="M17.9267 19.8843C16.6241 21.187 14.6267 21.3607 13.0635 20.4054C9.3293 17.887 6.11612 14.6738 3.59768 10.9395C2.64241 9.37638 2.8161 7.37899 4.11874 6.07635L6.34375 4.34375L9.9375 7.90625L8.59375 9.4263C8.07269 9.94736 8.07269 10.7289 8.59375 11.25L12.7812 15.375C13.3023 15.8961 14.0839 15.8961 14.6049 15.375L16 14.0312L19.8438 17.75L17.9267 19.8843Z" stroke="#3C3C3B" stroke-width="2" stroke-miterlimit="10" stroke-linecap="round" stroke-linejoin="round"/>
<path d="M14 6C16.3958 6 18 7.60419 18 10" stroke="#3C3C3B" stroke-width="2" stroke-miterlimit="10" stroke-linecap="round" stroke-linejoin="round"/>
<path d="M14 2C18.6124 2 22 5.4879 22 10" stroke="#3C3C3B" stroke-width="2" stroke-miterlimit="10" stroke-linecap="round" stroke-linejoin="round"/>
</svg>
