<svg width="24" height="24" viewBox="0 0 24 24" fill="none" xmlns="http://www.w3.org/2000/svg">
<path d="M12 12.375C9.57484 12.375 7.5 10.2722 7.5 7.763V6.56215C7.5 4.05297 9.57484 2 12 2C14.4252 2 16.5 4.05297 16.5 6.56215V7.763C16.5 10.2722 14.4252 12.375 12 12.375Z" stroke="#3C3C3B" stroke-width="2" stroke-miterlimit="10" stroke-linecap="round" stroke-linejoin="round"/>
<path d="M4.10098 22L19.899 21.9999C20.7122 21.9999 21.3089 21.2357 21.1117 20.4468L20.8522 19.4086C20.3513 17.4053 18.5514 16 16.4865 16H14L12 18L10 16H7.5135C5.44859 16 3.64867 17.4053 3.14786 19.4086L2.88829 20.4469C2.69106 21.2358 3.28776 22 4.10098 22Z" stroke="#3C3C3B" stroke-width="2" stroke-miterlimit="10" stroke-linecap="round" stroke-linejoin="round"/>
</svg>
