<svg width="24" height="25" viewBox="0 0 24 25" fill="none" xmlns="http://www.w3.org/2000/svg">
<path d="M5.39267 17.153C5.20616 17.1532 5.0201 17.1348 4.83726 17.098C4.73638 17.0775 4.63221 17.0797 4.53229 17.1044C4.43237 17.1292 4.33921 17.1758 4.25955 17.241C4.17989 17.3062 4.11574 17.3883 4.07174 17.4813C4.02774 17.5744 4.00499 17.6761 4.00515 17.779L4.00133 20.6189C4.0014 20.9868 4.14761 21.3397 4.40782 21.5999C4.66804 21.8602 5.02093 22.0064 5.38892 22.0064L18.4869 22.0068C18.8548 22.0068 19.2077 21.8606 19.4679 21.6004C19.7281 21.3402 19.8743 20.9873 19.8744 20.6193L19.8733 17.5548C19.8732 17.4396 19.8445 17.3262 19.7897 17.2248C19.7349 17.1235 19.6558 17.0374 19.5594 16.9743C19.463 16.9112 19.3524 16.8731 19.2376 16.8634C19.1228 16.8537 19.0074 16.8728 18.9018 16.9189C18.5236 17.0834 18.1135 17.1616 17.7014 17.1477C17.2892 17.1339 16.8853 17.0284 16.519 16.8388C16.1527 16.6493 15.8333 16.3806 15.5839 16.0521C15.3345 15.7236 15.1614 15.3437 15.0773 14.94C14.9931 14.5362 15 14.1188 15.0974 13.7181C15.1948 13.3174 15.3802 12.9434 15.6403 12.6234C15.9004 12.3033 16.2285 12.0453 16.6008 11.8679C16.9732 11.6906 17.3803 11.5985 17.7927 11.5983C18.1747 11.5968 18.5528 11.6754 18.9026 11.8289C19.0083 11.8753 19.1239 11.8945 19.2389 11.8849C19.3539 11.8753 19.4647 11.8372 19.5613 11.7739C19.6578 11.7107 19.7371 11.6244 19.7919 11.5228C19.8467 11.4212 19.8752 11.3075 19.875 11.1921L19.8749 8.12855C19.8748 7.76056 19.7286 7.40766 19.4684 7.14745C19.2082 6.88724 18.8553 6.74102 18.4873 6.74096L14.8812 6.74086C14.8256 6.74131 14.7708 6.72823 14.7214 6.70276C14.672 6.67729 14.6295 6.64018 14.5976 6.59464C14.5658 6.54921 14.5452 6.49684 14.5377 6.44188C14.5302 6.38692 14.5359 6.33096 14.5544 6.27866C14.6601 5.98166 14.7136 5.66858 14.7124 5.35332C14.7113 4.94966 14.6221 4.5511 14.4512 4.18542C14.2802 3.81974 14.0316 3.49575 13.7226 3.23603C13.4135 2.97631 13.0516 2.78711 12.6619 2.68164C12.2723 2.57616 11.8644 2.55694 11.4665 2.62531C11.0687 2.69369 10.6906 2.84802 10.3586 3.07753C10.0265 3.30705 9.74858 3.60623 9.54405 3.95422C9.33952 4.30221 9.21336 4.69062 9.17437 5.09239C9.13537 5.49415 9.18448 5.89959 9.31827 6.28044C9.33625 6.33245 9.34159 6.388 9.33386 6.44248C9.32613 6.49697 9.30555 6.54883 9.27382 6.59379C9.24209 6.63875 9.20012 6.67551 9.15138 6.70105C9.10263 6.72659 9.04851 6.74016 8.99348 6.74065L5.38837 6.74154C5.02039 6.74158 4.6675 6.88777 4.40731 7.14797C4.14712 7.40816 4.00092 7.76105 4.00088 8.12903L4 10.9738C3.99979 11.0769 4.02257 11.1788 4.06669 11.272C4.11081 11.3653 4.17516 11.4475 4.25506 11.5127C4.33495 11.578 4.42838 11.6246 4.52855 11.6491C4.62872 11.6737 4.73311 11.6757 4.83412 11.6548C5.01651 11.6172 5.2023 11.5985 5.38854 11.5989C5.75323 11.5987 6.1144 11.6703 6.45143 11.8096C6.78846 11.9489 7.09475 12.1533 7.35281 12.411C7.61088 12.6687 7.81566 12.9747 7.95547 13.3115C8.09528 13.6483 8.16738 14.0094 8.16765 14.3741C8.16792 14.7388 8.09636 15.0999 7.95705 15.437C7.81774 15.774 7.61341 16.0803 7.35573 16.3383C7.09805 16.5963 6.79206 16.8011 6.45524 16.9409C6.11842 17.0807 5.75735 17.1528 5.39267 17.153Z" stroke="#3C3C3B" stroke-width="2" stroke-miterlimit="10" stroke-linecap="round" stroke-linejoin="round"/>
</svg>
