<svg width="24" height="25" viewBox="0 0 24 25" fill="none" xmlns="http://www.w3.org/2000/svg">
<g clip-path="url(#clip0_401_1733)">
<path d="M23 19.8323V22.8323C23 23.3846 22.5523 23.8323 22 23.8323H19" stroke="#3C3C3B" stroke-width="2" stroke-miterlimit="10" stroke-linecap="round" stroke-linejoin="round"/>
<path d="M19 1.83228L22 1.83228C22.5523 1.83228 23 2.27999 23 2.83228L23 5.83228" stroke="#3C3C3B" stroke-width="2" stroke-miterlimit="10" stroke-linecap="round" stroke-linejoin="round"/>
<path d="M5 23.8323L2 23.8323C1.44772 23.8323 1 23.3846 1 22.8323L1 19.8323" stroke="#3C3C3B" stroke-width="2" stroke-miterlimit="10" stroke-linecap="round" stroke-linejoin="round"/>
<path d="M1 5.83228L1 2.83228C1 2.27999 1.44771 1.83228 2 1.83228L5 1.83228" stroke="#3C3C3B" stroke-width="2" stroke-miterlimit="10" stroke-linecap="round" stroke-linejoin="round"/>
<g clip-path="url(#clip1_401_1733)">
<path d="M6.75 12.0823H9.75C10.575 12.0823 11.25 11.4073 11.25 10.5823V7.58228C11.25 6.75728 10.575 6.08228 9.75 6.08228H6.75C5.925 6.08228 5.25 6.75728 5.25 7.58228V10.5823C5.25 11.4073 5.925 12.0823 6.75 12.0823ZM6.75 7.58228H9.75V10.5823H6.75V7.58228Z" fill="#3C3C3B"/>
<path d="M6.75 19.5823H9.75C10.575 19.5823 11.25 18.9073 11.25 18.0823V15.0823C11.25 14.2573 10.575 13.5823 9.75 13.5823H6.75C5.925 13.5823 5.25 14.2573 5.25 15.0823V18.0823C5.25 18.9073 5.925 19.5823 6.75 19.5823ZM6.75 15.0823H9.75V18.0823H6.75V15.0823Z" fill="#3C3C3B"/>
<path d="M12.75 7.58228V10.5823C12.75 11.4073 13.425 12.0823 14.25 12.0823H17.25C18.075 12.0823 18.75 11.4073 18.75 10.5823V7.58228C18.75 6.75728 18.075 6.08228 17.25 6.08228H14.25C13.425 6.08228 12.75 6.75728 12.75 7.58228ZM17.25 10.5823H14.25V7.58228H17.25V10.5823Z" fill="#3C3C3B"/>
<path d="M18.75 19.2073V18.4573C18.75 18.2473 18.585 18.0823 18.375 18.0823H17.625C17.415 18.0823 17.25 18.2473 17.25 18.4573V19.2073C17.25 19.4173 17.415 19.5823 17.625 19.5823H18.375C18.585 19.5823 18.75 19.4173 18.75 19.2073Z" fill="#3C3C3B"/>
<path d="M12.75 13.9573V14.7073C12.75 14.9173 12.915 15.0823 13.125 15.0823H13.875C14.085 15.0823 14.25 14.9173 14.25 14.7073V13.9573C14.25 13.7473 14.085 13.5823 13.875 13.5823H13.125C12.915 13.5823 12.75 13.7473 12.75 13.9573Z" fill="#3C3C3B"/>
<path d="M15.375 15.0823H14.625C14.415 15.0823 14.25 15.2473 14.25 15.4573V16.2073C14.25 16.4173 14.415 16.5823 14.625 16.5823H15.375C15.585 16.5823 15.75 16.4173 15.75 16.2073V15.4573C15.75 15.2473 15.585 15.0823 15.375 15.0823Z" fill="#3C3C3B"/>
<path d="M12.75 16.9573V17.7073C12.75 17.9173 12.915 18.0823 13.125 18.0823H13.875C14.085 18.0823 14.25 17.9173 14.25 17.7073V16.9573C14.25 16.7473 14.085 16.5823 13.875 16.5823H13.125C12.915 16.5823 12.75 16.7473 12.75 16.9573Z" fill="#3C3C3B"/>
<path d="M14.625 19.5823H15.375C15.585 19.5823 15.75 19.4173 15.75 19.2073V18.4573C15.75 18.2473 15.585 18.0823 15.375 18.0823H14.625C14.415 18.0823 14.25 18.2473 14.25 18.4573V19.2073C14.25 19.4173 14.415 19.5823 14.625 19.5823Z" fill="#3C3C3B"/>
<path d="M16.125 18.0823H16.875C17.085 18.0823 17.25 17.9173 17.25 17.7073V16.9573C17.25 16.7473 17.085 16.5823 16.875 16.5823H16.125C15.915 16.5823 15.75 16.7473 15.75 16.9573V17.7073C15.75 17.9173 15.915 18.0823 16.125 18.0823Z" fill="#3C3C3B"/>
<path d="M16.875 13.5823H16.125C15.915 13.5823 15.75 13.7473 15.75 13.9573V14.7073C15.75 14.9173 15.915 15.0823 16.125 15.0823H16.875C17.085 15.0823 17.25 14.9173 17.25 14.7073V13.9573C17.25 13.7473 17.085 13.5823 16.875 13.5823Z" fill="#3C3C3B"/>
<path d="M17.625 16.5823H18.375C18.585 16.5823 18.75 16.4173 18.75 16.2073V15.4573C18.75 15.2473 18.585 15.0823 18.375 15.0823H17.625C17.415 15.0823 17.25 15.2473 17.25 15.4573V16.2073C17.25 16.4173 17.415 16.5823 17.625 16.5823Z" fill="#3C3C3B"/>
</g>
</g>
<defs>
<clipPath id="clip0_401_1733">
<rect width="24" height="24" fill="white" transform="translate(0 0.832275)"/>
</clipPath>
<clipPath id="clip1_401_1733">
<rect width="18" height="18" fill="white" transform="translate(3 3.83228)"/>
</clipPath>
</defs>
</svg>
