<svg width="24" height="25" viewBox="0 0 24 25" fill="none" xmlns="http://www.w3.org/2000/svg">
<g clip-path="url(#clip0_12_1816)">
<path d="M23 19.8323V22.8323C23 23.3846 22.5523 23.8323 22 23.8323H19" stroke="#3C3C3B" stroke-width="2" stroke-miterlimit="10" stroke-linecap="round" stroke-linejoin="round"/>
<path d="M19 1.83228L22 1.83228C22.5523 1.83228 23 2.27999 23 2.83228L23 5.83228" stroke="#3C3C3B" stroke-width="2" stroke-miterlimit="10" stroke-linecap="round" stroke-linejoin="round"/>
<path d="M5 23.8323L2 23.8323C1.44772 23.8323 1 23.3846 1 22.8323L1 19.8323" stroke="#3C3C3B" stroke-width="2" stroke-miterlimit="10" stroke-linecap="round" stroke-linejoin="round"/>
<path d="M1 5.83228L1 2.83228C1 2.27999 1.44771 1.83228 2 1.83228L5 1.83228" stroke="#3C3C3B" stroke-width="2" stroke-miterlimit="10" stroke-linecap="round" stroke-linejoin="round"/>
<path d="M11.9375 6.58228C17.215 6.58228 20.0785 11.1722 20.7715 12.4881C20.8879 12.7092 20.8871 12.9548 20.7703 13.1757C20.0753 14.4901 17.2127 19.0823 11.9375 19.0823C6.78502 19.0823 3.96136 14.7368 3.16898 13.2887C3.01138 13.0007 3.01192 12.6641 3.16968 12.3762C3.96291 10.9285 6.78501 6.58228 11.9375 6.58228Z" stroke="#3C3C3B" stroke-width="2" stroke-linecap="round"/>
<circle cx="11.9375" cy="12.8323" r="2" fill="#3C3C3B"/>
</g>
<defs>
<clipPath id="clip0_12_1816">
<rect width="24" height="24" fill="white" transform="translate(0 0.832275)"/>
</clipPath>
</defs>
</svg>
