<svg width="24" height="25" viewBox="0 0 24 25" fill="none" xmlns="http://www.w3.org/2000/svg">
<path d="M12 12.8323H3L1 16.8323H10L12 12.8323ZM12 12.8323H21L23 16.8323H14L12 12.8323ZM12 12.8323V22.8323M12 22.8323H19.25C20.2165 22.8323 21 22.0488 21 21.0823V16.8323M12 22.8323H4.75C3.7835 22.8323 3 22.0488 3 21.0823V16.8323" stroke="#3C3C3B" stroke-width="2" stroke-miterlimit="10" stroke-linecap="round" stroke-linejoin="round"/>
<path d="M4 9.83228V4.58228C4 3.61578 4.7835 2.83228 5.75 2.83228H18.25C19.2165 2.83228 20 3.61578 20 4.58228V9.83228" stroke="#3C3C3B" stroke-width="2" stroke-miterlimit="10" stroke-linecap="round" stroke-linejoin="round"/>
<path d="M9 7.33228H15" stroke="#3C3C3B" stroke-width="2" stroke-miterlimit="10" stroke-linecap="round" stroke-linejoin="round"/>
</svg>
