<svg width="24" height="24" viewBox="0 0 24 24" fill="none" xmlns="http://www.w3.org/2000/svg">
<path fill-rule="evenodd" clip-rule="evenodd" d="M20.5863 8.19314C20.5863 10.5441 19.9388 12.9598 18.4944 15.1399C17.7821 16.2389 16.9403 17.1887 15.969 18.0305C14.0065 19.6691 11.1807 20.77 8.00952 20.77C5.35637 20.77 3.08996 20.1656 1.21387 18.9802C1.55923 19.0216 1.90458 19.045 2.27153 19.045C4.19079 19.045 6.00212 18.3542 7.7505 16.9512C6.80076 16.9296 5.93737 16.649 5.18369 16.0662C4.42822 15.4852 3.91018 14.7514 3.62958 13.8664C3.91018 13.9311 4.19079 13.9527 4.44981 13.9527C4.85992 13.9527 5.24845 13.9095 5.63698 13.8016C4.62249 13.6074 3.75909 13.0893 3.08996 12.2925C2.42262 11.4722 2.09885 10.5225 2.09885 9.46485V9.4001C2.72301 9.76704 3.37056 9.93972 4.08286 9.9613C2.76618 9.07812 2.12043 7.84778 2.12043 6.29367C2.12043 5.56158 2.3147 4.84928 2.70143 4.13697C4.94626 6.83329 8.20378 8.49533 11.8283 8.68959C11.7635 8.40899 11.7203 8.06363 11.7203 7.65352C11.7203 6.44476 12.152 5.41048 12.992 4.54709C13.8554 3.66211 14.9131 3.23041 16.1416 3.23041C17.4151 3.23041 18.4944 3.70528 19.3992 4.63343C20.3705 4.43916 21.2986 4.07222 22.1836 3.55418C21.8598 4.61184 20.9003 5.88368 20.241 6.01306C21.0828 5.90514 21.9462 5.6695 22.7862 5.30256C22.1836 6.20733 21.4497 6.98438 20.5863 7.61035V8.19314Z" fill="#3C3C3B"/>
</svg>
