<svg width="24" height="24" viewBox="0 0 24 24" fill="none" xmlns="http://www.w3.org/2000/svg">
<path d="M7 7.0321H13" stroke="#3C3C3B" stroke-width="2" stroke-linecap="round"/>
<path d="M7 11H13" stroke="#3C3C3B" stroke-width="2" stroke-linecap="round"/>
<path d="M7 15H9.5" stroke="#3C3C3B" stroke-width="2" stroke-linecap="round"/>
<path d="M17 20.5313L17 17.9375" stroke="#3C3C3B" stroke-width="2" stroke-linecap="round"/>
<path d="M13.9147 21H4.75C3.7835 21 3 20.2165 3 19.25V4.75C3 3.7835 3.7835 3 4.75 3H15.25C16.2165 3 17 3.7835 17 4.75V14" stroke="#3C3C3B" stroke-width="2" stroke-linecap="round"/>
<path d="M13 15.75C13 14.7835 13.7835 14 14.75 14H19.25C20.2165 14 21 14.7835 21 15.75V19.25C21 20.2165 20.2165 21 19.25 21H13V15.75Z" stroke="#3C3C3B" stroke-width="2" stroke-linecap="round"/>
</svg>
