<svg width="24" height="24" viewBox="0 0 24 24" fill="none" xmlns="http://www.w3.org/2000/svg">
<path d="M17 13V20.5938" stroke="#3C3C3B" stroke-width="2" stroke-linecap="round"/>
<path fill-rule="evenodd" clip-rule="evenodd" d="M4 21C3.44771 21 3 20.5523 3 20V10.5146C3 10.1917 3.15597 9.8886 3.41876 9.70088L9.41876 5.41517C9.76646 5.16681 10.2335 5.16681 10.5812 5.41517L16.5812 9.70088C16.844 9.8886 17 10.1917 17 10.5146V15H20.099C20.6513 15 21.099 15.4477 21.099 16V20" stroke="#3C3C3B" stroke-width="2" stroke-linecap="round"/>
<path d="M8 20L8 17.5C8 16.3954 8.89543 15.5 10 15.5V15.5C11.1046 15.5 12 16.3954 12 17.5V20" stroke="#3C3C3B" stroke-width="2" stroke-linecap="round"/>
<path d="M9 11.5L11 11.5" stroke="#3C3C3B" stroke-width="2" stroke-linecap="round"/>
</svg>
