<svg width="24" height="25" viewBox="0 0 24 25" fill="none" xmlns="http://www.w3.org/2000/svg">
<path d="M21.3717 10.478C22.1859 11.2166 21.8724 12.4348 21.747 12.7304L18.3078 20.1008C17.8149 21.1571 16.7548 21.8323 15.5892 21.8323H6.99989L6.99988 12.0579C6.99981 11.9876 7.02724 11.9183 7.05988 11.8561C7.09252 11.7938 7.1615 11.7404 7.21935 11.7005C8.87172 10.5599 10.7184 7.95773 10.7184 5.57589C10.7019 5.15476 10.8393 4.74203 11.1049 4.41481C11.3705 4.08758 11.7462 3.86824 12.1617 3.79776C13.0065 3.68066 14.0873 4.20109 14.5973 6.0226C14.7805 7.31434 14.6375 8.34474 14.1587 9.55837C14.148 9.5909 14.1452 9.6255 14.1505 9.65933C14.1557 9.69317 14.1689 9.72527 14.189 9.75303C14.209 9.78078 14.2354 9.79666 14.2658 9.81227C14.2963 9.82789 14.33 9.8322 14.3643 9.83228H19.8383C20.4135 9.83228 20.965 10.0713 21.3717 10.478Z" fill="white" stroke="#3C3C3B" stroke-width="2" stroke-linecap="round" stroke-linejoin="round"/>
<path d="M2 13.3323C2 12.5038 2.67157 11.8323 3.5 11.8323H7V21.8323H3.5C2.67157 21.8323 2 21.1607 2 20.3323V13.3323Z" stroke="#3C3C3B" stroke-width="2" stroke-linecap="round" stroke-linejoin="round"/>
</svg>
