<svg width="24" height="24" viewBox="0 0 24 24" fill="none" xmlns="http://www.w3.org/2000/svg">
<path fill-rule="evenodd" clip-rule="evenodd" d="M10.001 15.2499L10 8.74994L16 12.0113L10.001 15.2499ZM21.9057 5.00017C21.0691 4.06833 20.1314 4.06373 19.7014 4.00917C16.6228 3.77252 12.0048 3.77252 12.0048 3.77252C11.9952 3.77252 7.37728 3.77252 4.29859 4.00917C3.86854 4.06373 2.93116 4.06833 2.09428 5.00017C1.43466 5.71013 1.22001 7.32233 1.22001 7.32233C1.22001 7.32233 1 9.21557 1 11.1088V12.8838C1 14.777 1.22001 16.6702 1.22001 16.6702C1.22001 16.6702 1.43466 18.2824 2.09428 18.9924C2.93116 19.9242 4.03047 19.8948 4.52007 19.9924C6.28011 20.1719 12 20.2274 12 20.2274C12 20.2274 16.6228 20.22 19.7014 19.9834C20.1314 19.9288 21.0691 19.9242 21.9057 18.9924C22.5653 18.2824 22.7803 16.6702 22.7803 16.6702C22.7803 16.6702 23 14.777 23 12.8838V11.1088C23 9.21557 22.7803 7.32233 22.7803 7.32233C22.7803 7.32233 22.5653 5.71013 21.9057 5.00017Z" fill="#3C3C3B"/>
</svg>
