<svg width="32" height="32" viewBox="0 0 32 32" fill="none" xmlns="http://www.w3.org/2000/svg">
<rect width="32" height="32" fill="#E74133"/>
<path fill-rule="evenodd" clip-rule="evenodd" d="M0 28H32V4H0V28Z" fill="#E74133"/>
<path fill-rule="evenodd" clip-rule="evenodd" d="M17.0063 23.4518C17.0063 22.0246 17.5769 20.4943 18.5891 19.3243C18.9405 18.9173 19.4006 18.4927 19.9825 18.1147C19.9212 19.3869 19.2788 21.274 17.1816 23.9425C17.129 23.9408 17.1194 23.9408 17.0598 23.9408C17.044 23.7778 17.0063 23.6183 17.0063 23.4518ZM6.62317 14.6824C6.08332 15.2101 5.39099 16.2065 5.39099 17.8505C5.39099 18.4257 5.48476 19.0882 5.69071 19.8309H2.86353V21.3594H7.85974L7.45047 20.3146C6.66436 18.305 6.74586 16.6937 7.68271 15.7801C8.41623 15.0639 9.61073 14.8859 10.6536 15.3361C11.8148 15.8365 12.4774 16.9589 12.4774 18.424V18.4804L13.9987 18.4848V18.4504C13.9996 16.8761 14.8252 15.6806 16.2125 15.2515C17.5165 14.8472 18.8872 15.2498 19.5444 16.2303C19.5961 16.3078 19.6522 16.403 19.7048 16.5122C18.8433 16.9783 18.08 17.58 17.4411 18.3218C16.1914 19.7666 15.4886 21.674 15.4886 23.4712C15.4886 23.9504 15.5377 24.4218 15.6411 24.8737L15.7751 25.4658L17.9153 25.4737L18.144 25.19C20.76 21.9576 21.5224 19.571 21.5224 17.8848C21.5224 17.7033 21.5005 17.5448 21.483 17.38C22.3637 17.0734 23.4338 16.899 24.7098 16.9325V21.3594H26.2303V15.4964L25.5336 15.4383C23.9237 15.3017 22.4321 15.4735 21.1044 15.9167C21.0097 15.7149 20.9098 15.529 20.8047 15.3749C19.7767 13.8402 17.7032 13.19 15.7638 13.79C14.8497 14.0728 13.9111 14.6956 13.2696 15.6726C12.7981 14.9035 12.1137 14.3009 11.2539 13.9309C9.65192 13.2402 7.79225 13.5433 6.62317 14.6824Z" fill="white"/>
<path fill-rule="evenodd" clip-rule="evenodd" d="M8.64135 9.29954C8.72636 9.62639 8.78683 9.94971 8.78683 10.2008C8.78683 10.4131 8.75352 10.5735 8.68429 10.6404C8.4538 10.8589 7.84472 10.7875 7.32503 10.6378V9.29954H8.64135ZM9.10933 8.05292H6.08496V11.5082L6.46618 11.6685C6.67388 11.7566 8.5318 12.4984 9.53525 11.5469C10.4528 10.6774 9.82533 8.82114 9.68949 8.45817L9.53875 8.05292H9.10933Z" fill="white"/>
<path fill-rule="evenodd" clip-rule="evenodd" d="M26.0636 9.29954C26.1495 9.62639 26.2091 9.94971 26.2091 10.2008C26.2091 10.4131 26.1758 10.5735 26.1066 10.6404C25.877 10.8589 25.267 10.7875 24.7482 10.6378V9.29954H26.0636ZM26.5324 8.05292H23.5081V11.5082L23.8884 11.6685C24.097 11.7566 25.954 12.4984 26.9575 11.5469C27.875 10.6774 27.2475 8.82114 27.1117 8.45817L26.9618 8.05292H26.5324Z" fill="white"/>
<path fill-rule="evenodd" clip-rule="evenodd" d="M17.3606 9.09913C17.4614 9.20573 17.5026 9.39779 17.5026 9.62332C17.5026 9.88674 17.4386 10.1845 17.3589 10.4656H16.0277V9.1423C16.6297 8.98284 17.2169 8.94584 17.3606 9.09913ZM15.1899 8.0895L14.7876 8.24015V11.7113H18.2247L18.3834 11.328C18.4719 11.1184 19.2098 9.25153 18.2624 8.24368C17.3974 7.3204 15.5518 7.95207 15.1899 8.0895Z" fill="white"/>
</svg>
