<svg width="48" height="36" viewBox="0 0 48 36" fill="none" xmlns="http://www.w3.org/2000/svg">
<path fill-rule="evenodd" clip-rule="evenodd" d="M0 36H48V0H0V36Z" fill="#E74133"/>
<path fill-rule="evenodd" clip-rule="evenodd" d="M25.5093 29.1777C25.5093 27.0369 26.3651 24.7415 27.8834 22.9865C28.4106 22.376 29.1007 21.739 29.9736 21.1721C29.8815 23.0804 28.918 25.911 25.7722 29.9138C25.6934 29.9111 25.6789 29.9111 25.5895 29.9111C25.5658 29.6667 25.5093 29.4275 25.5093 29.1777ZM9.93439 16.0236C9.12462 16.8152 8.08612 18.3098 8.08612 20.7757C8.08612 21.6386 8.22678 22.6324 8.5357 23.7464H4.29492V26.0392H11.7892L11.1753 24.4719C9.99617 21.4576 10.1184 19.0406 11.5237 17.6702C12.624 16.5958 14.4157 16.3289 15.9801 17.0042C17.7219 17.7548 18.7157 19.4383 18.7157 21.636V21.7205L20.9977 21.7272V21.6756C20.9991 19.3141 22.2374 17.5209 24.3183 16.8773C26.2744 16.2707 28.3304 16.8746 29.3163 18.3455C29.3938 18.4618 29.478 18.6045 29.5569 18.7683C28.2646 19.4674 27.1197 20.37 26.1613 21.4827C24.2868 23.6499 23.2325 26.5109 23.2325 29.2068C23.2325 29.9257 23.3061 30.6327 23.4612 31.3106L23.6624 32.1986L26.8725 32.2105L27.2156 31.785C31.1396 26.9365 32.2832 23.3566 32.2832 20.8272C32.2832 20.555 32.2504 20.3171 32.2241 20.07C33.5452 19.6101 35.1503 19.3485 37.0643 19.3987V26.0392H39.3451V17.2447L38.3 17.1574C35.8851 16.9526 33.6478 17.2103 31.6562 17.875C31.5142 17.5724 31.3644 17.2936 31.2066 17.0623C29.6646 14.7603 26.5544 13.785 23.6453 14.6849C22.2742 15.1091 20.8663 16.0434 19.904 17.509C19.1968 16.3553 18.1701 15.4514 16.8805 14.8964C14.4775 13.8603 11.688 14.3149 9.93439 16.0236Z" fill="white"/>
<path fill-rule="evenodd" clip-rule="evenodd" d="M12.962 7.94918C13.0895 8.43946 13.1802 8.92444 13.1802 9.30107C13.1802 9.61955 13.1303 9.86006 13.0264 9.96049C12.6807 10.2882 11.7671 10.1812 10.9875 9.95653V7.94918H12.962ZM13.664 6.07935H9.12744V11.2622L9.69928 11.5027C10.0108 11.6349 12.7977 12.7476 14.3029 11.3204C15.6792 10.0161 14.738 7.23168 14.5342 6.68723L14.3081 6.07935H13.664Z" fill="white"/>
<path fill-rule="evenodd" clip-rule="evenodd" d="M39.0954 7.94918C39.2243 8.43946 39.3137 8.92444 39.3137 9.30107C39.3137 9.61955 39.2637 9.86006 39.1599 9.96049C38.8154 10.2882 37.9005 10.1812 37.1223 9.95653V7.94918H39.0954ZM39.7988 6.07935H35.2622V11.2622L35.8327 11.5027C36.1456 11.6349 38.9311 12.7476 40.4363 11.3204C41.8127 10.0161 40.8714 7.23168 40.6677 6.68723L40.4429 6.07935H39.7988Z" fill="white"/>
<path fill-rule="evenodd" clip-rule="evenodd" d="M26.0412 7.64866C26.1923 7.80856 26.2541 8.09664 26.2541 8.43494C26.2541 8.83007 26.1582 9.27673 26.0385 9.69828H24.0417V7.71341C24.9448 7.47422 25.8256 7.41872 26.0412 7.64866ZM22.785 6.13422L22.1816 6.3602V11.5669H27.3374L27.5753 10.992C27.7081 10.6775 28.8149 7.87727 27.3939 6.36548C26.0964 4.98056 23.3279 5.92807 22.785 6.13422Z" fill="white"/>
</svg>
