<svg width="120" height="120" viewBox="0 0 120 120" fill="none" xmlns="http://www.w3.org/2000/svg">
<mask id="mask0_8_550" style="mask-type:alpha" maskUnits="userSpaceOnUse" x="0" y="0" width="120" height="120">
<rect width="120" height="120" rx="26" fill="#C4C4C4"/>
</mask>
<g mask="url(#mask0_8_550)">
<g clip-path="url(#clip0_8_550)">
<rect width="120" height="120" fill="#E74133"/>
<path fill-rule="evenodd" clip-rule="evenodd" d="M12.5 95.375H109.5V22.625H12.5V95.375Z" fill="#E74133"/>
<path fill-rule="evenodd" clip-rule="evenodd" d="M64.0505 81.5883C64.0505 77.2621 65.7799 72.6234 68.8481 69.077C69.9134 67.8432 71.3081 66.556 73.072 65.4104C72.886 69.2666 70.9388 74.9868 64.5818 83.0758C64.4224 83.0705 64.3932 83.0705 64.2125 83.0705C64.1647 82.5764 64.0505 82.0931 64.0505 81.5883ZM32.5764 55.0061C30.9399 56.6057 28.8413 59.626 28.8413 64.6092C28.8413 66.353 29.1256 68.3613 29.7498 70.6125H21.1799V75.2458H36.3247L35.0841 72.0786C32.7012 65.9872 32.9483 61.1028 35.7881 58.3335C38.0116 56.1624 41.6324 55.6229 44.7936 56.9876C48.3135 58.5044 50.3218 61.9067 50.3218 66.3477V66.5186L54.9335 66.532V66.4278C54.9362 61.6556 57.4386 58.0317 61.6439 56.7312C65.5968 55.5054 69.7515 56.7259 71.7439 59.6981C71.9007 59.9331 72.0707 60.2216 72.2301 60.5527C69.6187 61.9654 67.3049 63.7894 65.3683 66.0379C61.5801 70.4176 59.4496 76.1992 59.4496 81.6471C59.4496 83.0998 59.5984 84.5285 59.9118 85.8985L60.3183 87.6931L66.8055 87.7171L67.4988 86.8572C75.4285 77.0591 77.7397 69.8247 77.7397 64.7134C77.7397 64.1632 77.6733 63.6825 77.6201 63.1832C80.2899 62.2538 83.5335 61.7251 87.4014 61.8265V75.2458H92.0104V57.4736L89.8985 57.2974C85.0185 56.8834 80.4971 57.4042 76.4725 58.7474C76.1856 58.1359 75.8828 57.5724 75.564 57.1051C72.4479 52.453 66.1626 50.4822 60.2838 52.3008C57.513 53.1581 54.6679 55.0461 52.7233 58.0077C51.2941 55.6764 49.2194 53.8497 46.6134 52.7281C41.7573 50.6344 36.1201 51.5531 32.5764 55.0061Z" fill="white"/>
<path fill-rule="evenodd" clip-rule="evenodd" d="M38.6941 38.689C38.9518 39.6797 39.1351 40.6598 39.1351 41.4209C39.1351 42.0645 39.0341 42.5505 38.8243 42.7535C38.1256 43.4158 36.2793 43.1995 34.704 42.7455V38.689H38.6941ZM40.1127 34.9103H30.9451V45.3841L32.1006 45.8701C32.7302 46.1372 38.362 48.3857 41.4037 45.5016C44.1851 42.8658 42.2831 37.239 41.8713 36.1388L41.4144 34.9103H40.1127Z" fill="white"/>
<path fill-rule="evenodd" clip-rule="evenodd" d="M91.5054 38.689C91.7658 39.6797 91.9464 40.6598 91.9464 41.4209C91.9464 42.0645 91.8455 42.5505 91.6356 42.7535C90.9396 43.4158 89.0907 43.1995 87.518 42.7455V38.689H91.5054ZM92.9266 34.9103H83.759V45.3841L84.912 45.8701C85.5442 46.1372 91.1734 48.3857 94.2151 45.5016C96.9964 42.8658 95.0944 37.239 94.6826 36.1388L94.2283 34.9103H92.9266Z" fill="white"/>
<path fill-rule="evenodd" clip-rule="evenodd" d="M65.1244 38.0816C65.4299 38.4047 65.5548 38.9869 65.5548 39.6705C65.5548 40.469 65.3608 41.3716 65.1191 42.2235H61.0839V38.2124C62.9089 37.7291 64.6888 37.6169 65.1244 38.0816ZM58.5443 35.0212L57.325 35.4779V45.9997H67.7438L68.2246 44.838C68.4929 44.2024 70.7297 38.5436 67.858 35.4886C65.236 32.6899 59.6414 34.6046 58.5443 35.0212Z" fill="white"/>
</g>
</g>
<defs>
<clipPath id="clip0_8_550">
<rect width="120" height="120" fill="white"/>
</clipPath>
</defs>
</svg>
