<svg width="24" height="24" viewBox="0 0 24 24" fill="none" xmlns="http://www.w3.org/2000/svg">
<path d="M3 5.4C3 4.07452 4.07452 3 5.4 3H18.6C19.9255 3 21 4.07452 21 5.4V18.6C21 19.9255 19.9255 21 18.6 21H5.4C4.07452 21 3 19.9255 3 18.6V5.4Z" stroke="#3C3C3B" stroke-width="1.5" stroke-miterlimit="10" stroke-linecap="round" stroke-linejoin="round"/>
<path d="M17 21V20C17 17.8636 14.8626 16 12.1145 16H11.8855C9.21374 16 7 17.8636 7 20V21" stroke="#3C3C3B" stroke-width="1.5" stroke-miterlimit="10" stroke-linecap="round" stroke-linejoin="round"/>
<path d="M9.5 9.5C9.5 8.13636 10.5526 7 11.8158 7L12.1842 7C13.4474 7 14.5 8.13636 14.5 9.5C14.5 10.8636 13.4474 12 12.1842 12H11.8158C10.5526 11.9432 9.5 10.8636 9.5 9.5Z" stroke="#3C3C3B" stroke-width="1.5" stroke-miterlimit="10" stroke-linecap="round" stroke-linejoin="round"/>
</svg>
