<svg width="24" height="24" viewBox="0 0 24 24" fill="none" xmlns="http://www.w3.org/2000/svg">
<path d="M8.48048 3.77927L9.10452 4.1953V4.1953L8.48048 3.77927ZM7 6V6.75C7.25076 6.75 7.48494 6.62467 7.62404 6.41603L7 6ZM17 6L16.376 6.41603C16.5151 6.62467 16.7492 6.75 17 6.75V6ZM15.5195 3.77927L14.8955 4.1953V4.1953L15.5195 3.77927ZM9.10452 4.1953C9.28999 3.9171 9.60222 3.75 9.93657 3.75V2.25C9.10069 2.25 8.32011 2.66775 7.85645 3.36325L9.10452 4.1953ZM7.62404 6.41603L9.10452 4.1953L7.85645 3.36325L6.37596 5.58397L7.62404 6.41603ZM3.75 6.75H7V5.25H3.75V6.75ZM2.75 7.75C2.75 7.19772 3.19772 6.75 3.75 6.75V5.25C2.36929 5.25 1.25 6.36929 1.25 7.75H2.75ZM2.75 19.25V7.75H1.25V19.25H2.75ZM3.75 20.25C3.19771 20.25 2.75 19.8023 2.75 19.25H1.25C1.25 20.6307 2.36929 21.75 3.75 21.75V20.25ZM20.25 20.25H3.75V21.75H20.25V20.25ZM21.25 19.25C21.25 19.8023 20.8023 20.25 20.25 20.25V21.75C21.6307 21.75 22.75 20.6307 22.75 19.25H21.25ZM21.25 7.75V19.25H22.75V7.75H21.25ZM20.25 6.75C20.8023 6.75 21.25 7.19771 21.25 7.75H22.75C22.75 6.36929 21.6307 5.25 20.25 5.25V6.75ZM17 6.75H20.25V5.25H17V6.75ZM14.8955 4.1953L16.376 6.41603L17.624 5.58397L16.1436 3.36325L14.8955 4.1953ZM14.0634 3.75C14.3978 3.75 14.71 3.9171 14.8955 4.1953L16.1436 3.36325C15.6799 2.66775 14.8993 2.25 14.0634 2.25V3.75ZM9.93657 3.75H14.0634V2.25H9.93657V3.75Z" fill="#3C3C3B"/>
<circle cx="12" cy="13" r="3" stroke="#3C3C3B" stroke-width="1.5" stroke-linecap="round" stroke-linejoin="round"/>
<circle cx="18.25" cy="9.75" r="1.25" fill="#3C3C3B"/>
</svg>
