<svg width="24" height="24" viewBox="0 0 24 24" fill="none" xmlns="http://www.w3.org/2000/svg">
<path fill-rule="evenodd" clip-rule="evenodd" d="M3 21C3 20.4477 3.44772 20 4 20H20C20.5523 20 21 20.4477 21 21C21 21.5523 20.5523 22 20 22H4C3.44772 22 3 21.5523 3 21Z" fill="#3C3C3B"/>
<path fill-rule="evenodd" clip-rule="evenodd" d="M4 5C4 4.44772 4.44772 4 5 4H17C17.5523 4 18 4.44772 18 5V13C18 15.7614 15.7614 18 13 18H9C6.23858 18 4 15.7614 4 13V5ZM6 6V13C6 14.6569 7.34315 16 9 16H13C14.6569 16 16 14.6569 16 13V6H6Z" fill="#3C3C3B"/>
<path fill-rule="evenodd" clip-rule="evenodd" d="M16 7H19C20.6569 7 22 8.34315 22 10C22 11.6569 20.6569 13 19 13H16V7ZM18 9V11H19C19.5523 11 20 10.5523 20 10C20 9.44772 19.5523 9 19 9H18Z" fill="#3C3C3B"/>
</svg>
