<svg width="24" height="24" viewBox="0 0 24 24" fill="none" xmlns="http://www.w3.org/2000/svg">
<path d="M12 2C8.13401 2 5 5.13401 5 9C5 10.6287 5.55625 12.1275 6.48913 13.3168C7.29617 14.3456 8 15.5246 8 16.8322V20C8 21.1046 8.89543 22 10 22H14C15.1046 22 16 21.1046 16 20V16.8322C16 15.5246 16.7038 14.3456 17.5109 13.3168C18.4438 12.1275 19 10.6287 19 9C19 5.13401 15.866 2 12 2Z" stroke="#3C3C3B" stroke-width="1.5"/>
<path d="M8 18H16" stroke="#3C3C3B" stroke-width="1.5"/>
<path d="M12.75 15C12.75 14.5858 12.4142 14.25 12 14.25C11.5858 14.25 11.25 14.5858 11.25 15H12.75ZM12.75 18V15H11.25V18H12.75Z" fill="#3C3C3B"/>
</svg>
