<svg width="24" height="24" viewBox="0 0 24 24" fill="none" xmlns="http://www.w3.org/2000/svg">
<path d="M11.1003 8.71949C11.1742 8.70089 11.2415 8.66252 11.2952 8.60851L16.7746 3.12236C16.8136 3.0834 16.8598 3.05253 16.9107 3.03153C16.9617 3.01053 17.0162 2.99981 17.0713 3H20.6749C20.786 3 20.8926 3.04415 20.9712 3.12273C21.0498 3.20131 21.0939 3.30789 21.0939 3.41903V7.02264C21.0927 7.13159 21.0488 7.23572 20.9716 7.3126L15.4854 12.8004C15.4313 12.854 15.3928 12.9214 15.3742 12.9952C15.3556 13.0691 15.3575 13.1466 15.3798 13.2195C15.5751 13.8326 15.6774 14.4716 15.6832 15.1151C15.6832 16.4411 15.29 17.7374 14.5533 18.8399C13.8166 19.9424 12.7695 20.8017 11.5445 21.3092C10.3194 21.8166 8.97137 21.9494 7.67085 21.6907C6.37032 21.432 5.17571 20.7935 4.23809 19.8558C3.30046 18.9182 2.66193 17.7236 2.40324 16.4231C2.14455 15.1226 2.27732 13.7745 2.78476 12.5495C3.2922 11.3244 4.15152 10.2773 5.25405 9.54063C6.35658 8.80394 7.65281 8.41073 8.97881 8.41073C9.62285 8.41668 10.2624 8.51894 10.8762 8.71411C10.949 8.73623 11.0265 8.7381 11.1003 8.71949Z" stroke="#3C3C3B" stroke-width="1.5" stroke-miterlimit="10" stroke-linecap="round" stroke-linejoin="round"/>
<circle cx="8.94101" cy="14.9438" r="2.11728" stroke="#3C3C3B" stroke-width="1.5" stroke-miterlimit="10" stroke-linecap="round" stroke-linejoin="round"/>
</svg>
