<svg width="24" height="24" viewBox="0 0 24 24" fill="none" xmlns="http://www.w3.org/2000/svg">
<path d="M17.927 19.8843C16.6243 21.187 14.627 21.3607 13.0638 20.4054C9.32955 17.887 6.11637 14.6738 3.59793 10.9395C2.64266 9.37638 2.81634 7.37899 4.11898 6.07635L6.34399 4.34375L9.93774 7.90625L8.59399 9.4263C8.07294 9.94736 8.07294 10.7289 8.59399 11.25L12.7815 15.375C13.3026 15.8961 14.0841 15.8961 14.6052 15.375L16.0002 14.0312L19.844 17.75L17.927 19.8843Z" stroke="#3C3C3B" stroke-width="1.5" stroke-miterlimit="10" stroke-linecap="round" stroke-linejoin="round"/>
<path d="M14 6C16.3958 6 18 7.60419 18 10" stroke="#3C3C3B" stroke-width="1.5" stroke-miterlimit="10" stroke-linecap="round" stroke-linejoin="round"/>
<path d="M14 2C18.6124 2 22 5.4879 22 10" stroke="#3C3C3B" stroke-width="1.5" stroke-miterlimit="10" stroke-linecap="round" stroke-linejoin="round"/>
</svg>
