<svg width="25" height="25" viewBox="0 0 25 25" fill="none" xmlns="http://www.w3.org/2000/svg">
<path d="M19.0194 21.3228L19.1699 20.2358C19.1699 18.5207 17.7352 17.1083 15.9932 17.1083H9.02503C7.28299 17.1083 5.34668 18.5207 5.34668 20.2358V21.3228C5.34668 21.3228 8.90303 23.5102 12.4896 23.5102C15.2564 23.5102 19.0194 21.3228 19.0194 21.3228Z" fill="#FA3E34"/>
<path fill-rule="evenodd" clip-rule="evenodd" d="M4.60303 20.426C4.60303 18.2452 6.39433 16.4539 8.57514 16.4539H15.8524C18.0332 16.4539 19.8245 18.2452 19.8245 20.426V20.854C19.8245 21.2155 19.5314 21.5086 19.1699 21.5086C18.8084 21.5086 18.5154 21.2155 18.5154 20.854V20.426C18.5154 18.9682 17.3102 17.7629 15.8524 17.7629H8.57514C7.11732 17.7629 5.91212 18.9682 5.91212 20.426V20.854C5.91212 21.2155 5.61907 21.5086 5.25757 21.5086C4.89608 21.5086 4.60303 21.2155 4.60303 20.854V20.426Z" fill="#3C3C3B"/>
<path d="M12.2146 19.2484C11.305 19.2484 10.6094 18.5528 10.6094 17.6432V14.4326H13.8199V17.6432C13.8199 18.5528 13.1243 19.2484 12.2146 19.2484Z" fill="white"/>
<path fill-rule="evenodd" clip-rule="evenodd" d="M9.9541 14.4329C9.9541 14.0714 10.2472 13.7783 10.6086 13.7783H13.8192C14.1807 13.7783 14.4737 14.0714 14.4737 14.4329V17.6434C14.4737 18.9146 13.4851 19.9032 12.2139 19.9032C10.9428 19.9032 9.9541 18.9146 9.9541 17.6434V14.4329ZM11.2632 15.0874V17.6434C11.2632 18.1916 11.6658 18.5941 12.2139 18.5941C12.7621 18.5941 13.1646 18.1916 13.1646 17.6434V15.0874H11.2632Z" fill="#3C3C3B"/>
<path d="M12.2144 16.0382C10.1275 16.0382 8.46875 14.3794 8.46875 12.2926V9.6171C8.46875 7.53024 10.1275 5.87146 12.2144 5.87146C14.3012 5.87146 15.96 7.53024 15.96 9.6171V12.2926C15.96 14.3794 14.3012 16.0382 12.2144 16.0382Z" fill="white"/>
<path fill-rule="evenodd" clip-rule="evenodd" d="M12.2141 6.52601C10.4888 6.52601 9.12306 7.89174 9.12306 9.6171V12.2926C9.12306 14.0179 10.4888 15.3836 12.2141 15.3836C13.9395 15.3836 15.3052 14.0179 15.3052 12.2926V9.6171C15.3052 7.89174 13.9395 6.52601 12.2141 6.52601ZM7.81396 9.6171C7.81396 7.16875 9.7658 5.21692 12.2141 5.21692C14.6625 5.21692 16.6143 7.16875 16.6143 9.6171V12.2926C16.6143 14.7409 14.6625 16.6927 12.2141 16.6927C9.7658 16.6927 7.81396 14.7409 7.81396 12.2926V9.6171Z" fill="#3C3C3B"/>
<path fill-rule="evenodd" clip-rule="evenodd" d="M11.1979 7.83875C11.3793 7.83875 11.5526 7.91405 11.6764 8.04668C12.3047 8.71988 13.203 9.12296 14.1409 9.12296C14.6753 9.12296 15.2253 8.98881 15.7429 8.75356L16.2846 9.94531C15.6249 10.2452 14.8907 10.4321 14.1409 10.4321C13.0567 10.4321 12.0187 10.0481 11.1998 9.38696C10.3946 10.0462 9.38651 10.4321 8.25488 10.4321V9.12296C9.24167 9.12296 10.0878 8.7234 10.7194 8.04668C10.8432 7.91405 11.0165 7.83875 11.1979 7.83875Z" fill="#3C3C3B"/>
<path fill-rule="evenodd" clip-rule="evenodd" d="M12.2144 1.52332C6.30993 1.52332 1.52345 6.30981 1.52345 12.2142C1.52345 18.1187 6.30993 22.9051 12.2144 22.9051C18.1188 22.9051 22.9053 18.1187 22.9053 12.2142C22.9053 6.30981 18.1188 1.52332 12.2144 1.52332ZM0.214355 12.2142C0.214355 5.58682 5.58694 0.214233 12.2144 0.214233C18.8418 0.214233 24.2144 5.58682 24.2144 12.2142C24.2144 18.8417 18.8418 24.2142 12.2144 24.2142C5.58694 24.2142 0.214355 18.8417 0.214355 12.2142Z" fill="#3C3C3B"/>
</svg>
