<svg width="18" height="18" viewBox="0 0 18 18" fill="none" xmlns="http://www.w3.org/2000/svg">
<path d="M2.25 3.5625C2.25 2.83763 2.83763 2.25 3.5625 2.25H14.4375C15.1624 2.25 15.75 2.83763 15.75 3.5625V14.4375C15.75 15.1624 15.1624 15.75 14.4375 15.75H3.5625C2.83763 15.75 2.25 15.1624 2.25 14.4375V3.5625Z" stroke="#3C3C3B" stroke-width="1.5" stroke-miterlimit="10" stroke-linecap="round" stroke-linejoin="round"/>
<path d="M2.25928 11.25H6.24994C6.52608 11.25 6.74994 11.4739 6.74994 11.75V12.625C6.74994 12.9011 6.9738 13.125 7.24994 13.125H10.7499C11.0261 13.125 11.2499 12.9011 11.2499 12.625V11.75C11.2499 11.4739 11.4738 11.25 11.7499 11.25H15.6187" stroke="#3C3C3B" stroke-width="1.5" stroke-miterlimit="10" stroke-linecap="round" stroke-linejoin="round"/>
<path d="M6 8.25H12" stroke="#3C3C3B" stroke-width="1.5" stroke-miterlimit="10" stroke-linecap="round" stroke-linejoin="round"/>
<path d="M6 5.25H12" stroke="#3C3C3B" stroke-width="1.5" stroke-miterlimit="10" stroke-linecap="round" stroke-linejoin="round"/>
</svg>
