<svg width="18" height="18" viewBox="0 0 18 18" fill="none" xmlns="http://www.w3.org/2000/svg">
<path d="M9.51673 3.31931C10.2016 2.63463 11.1303 2.25 12.0987 2.25C13.0671 2.25 13.9958 2.63463 14.6807 3.31931C15.3654 4.00415 15.75 4.9329 15.75 5.90129C15.75 6.86968 15.3654 7.79843 14.6807 8.48327L8.48327 14.6807C7.79843 15.3654 6.86968 15.75 5.90129 15.75C4.9329 15.75 4.00415 15.3654 3.31931 14.6807C2.63463 13.9958 2.25 13.0671 2.25 12.0987C2.25 11.1303 2.63463 10.2016 3.31931 9.51673L6.67622 6.15983C6.84554 5.98991 7.04674 5.8551 7.26828 5.76311C7.48982 5.67112 7.72733 5.62377 7.96721 5.62377C8.20709 5.62377 8.4446 5.67112 8.66614 5.76311C8.88768 5.8551 9.08887 5.98991 9.2582 6.15983C9.42811 6.32915 9.56293 6.53035 9.65491 6.75188C9.7469 6.97342 9.79426 7.21094 9.79426 7.45081C9.79426 7.69069 9.7469 7.92821 9.65491 8.14974C9.56293 8.37128 9.42811 8.57248 9.2582 8.7418L5.90196 12.0987" stroke="#3C3C3B" stroke-width="1.5" stroke-linecap="round"/>
</svg>
