<svg width="18" height="18" viewBox="0 0 18 18" fill="none" xmlns="http://www.w3.org/2000/svg">
<path d="M2.25 4.05C2.25 3.05589 3.05589 2.25 4.05 2.25H13.95C14.9441 2.25 15.75 3.05589 15.75 4.05V13.95C15.75 14.9441 14.9441 15.75 13.95 15.75H4.05C3.05589 15.75 2.25 14.9441 2.25 13.95V4.05Z" stroke="#3C3C3B" stroke-width="1.5" stroke-miterlimit="10" stroke-linecap="round" stroke-linejoin="round"/>
<path d="M12.75 15.75V15C12.75 13.3977 11.1469 12 9.08588 12H8.91412C6.9103 12 5.25 13.3977 5.25 15V15.75" stroke="#3C3C3B" stroke-width="1.5" stroke-miterlimit="10" stroke-linecap="round" stroke-linejoin="round"/>
<path d="M7.125 7.125C7.125 6.10227 7.91447 5.25 8.86184 5.25L9.13816 5.25C10.0855 5.25 10.875 6.10227 10.875 7.125C10.875 8.14773 10.0855 9 9.13816 9H8.86184C7.91447 8.95739 7.125 8.14773 7.125 7.125Z" stroke="#3C3C3B" stroke-width="1.5" stroke-miterlimit="10" stroke-linecap="round" stroke-linejoin="round"/>
</svg>
