<svg width="18" height="18" viewBox="0 0 18 18" fill="none" xmlns="http://www.w3.org/2000/svg">
<path d="M6.36036 2.83446L5.73632 2.41843V2.41843L6.36036 2.83446ZM5.25 4.5V5.25C5.50076 5.25 5.73494 5.12467 5.87404 4.91603L5.25 4.5ZM12.75 4.5L12.126 4.91603C12.2651 5.12467 12.4992 5.25 12.75 5.25V4.5ZM11.6396 2.83446L11.0156 3.25048V3.25048L11.6396 2.83446ZM6.9844 3.25048C7.08872 3.09399 7.26436 3 7.45243 3V1.5C6.76283 1.5 6.11885 1.84465 5.73632 2.41843L6.9844 3.25048ZM5.87404 4.91603L6.9844 3.25048L5.73632 2.41843L4.62596 4.08397L5.87404 4.91603ZM2.8125 5.25H5.25V3.75H2.8125V5.25ZM2.25 5.8125C2.25 5.50184 2.50184 5.25 2.8125 5.25V3.75C1.67341 3.75 0.75 4.67341 0.75 5.8125H2.25ZM2.25 14.4375V5.8125H0.75V14.4375H2.25ZM2.8125 15C2.50184 15 2.25 14.7482 2.25 14.4375H0.75C0.75 15.5766 1.67341 16.5 2.8125 16.5V15ZM15.1875 15H2.8125V16.5H15.1875V15ZM15.75 14.4375C15.75 14.7482 15.4982 15 15.1875 15V16.5C16.3266 16.5 17.25 15.5766 17.25 14.4375H15.75ZM15.75 5.8125V14.4375H17.25V5.8125H15.75ZM15.1875 5.25C15.4982 5.25 15.75 5.50184 15.75 5.8125H17.25C17.25 4.67341 16.3266 3.75 15.1875 3.75V5.25ZM12.75 5.25H15.1875V3.75H12.75V5.25ZM11.0156 3.25048L12.126 4.91603L13.374 4.08397L12.2637 2.41843L11.0156 3.25048ZM10.5476 3C10.7356 3 10.9113 3.09399 11.0156 3.25048L12.2637 2.41843C11.8812 1.84465 11.2372 1.5 10.5476 1.5V3ZM7.45243 3H10.5476V1.5H7.45243V3Z" fill="#3C3C3B"/>
<circle cx="9" cy="9.75" r="2.25" stroke="#3C3C3B" stroke-width="1.5" stroke-linecap="round" stroke-linejoin="round"/>
<circle cx="13.6875" cy="7.3125" r="0.9375" fill="#3C3C3B"/>
</svg>
