<svg width="18" height="18" viewBox="0 0 18 18" fill="none" xmlns="http://www.w3.org/2000/svg">
<path fill-rule="evenodd" clip-rule="evenodd" d="M2.25 15.75C2.25 15.3358 2.58579 15 3 15H15C15.4142 15 15.75 15.3358 15.75 15.75C15.75 16.1642 15.4142 16.5 15 16.5H3C2.58579 16.5 2.25 16.1642 2.25 15.75Z" fill="#3C3C3B"/>
<path fill-rule="evenodd" clip-rule="evenodd" d="M3 3.75C3 3.33579 3.33579 3 3.75 3H12.75C13.1642 3 13.5 3.33579 13.5 3.75V9.75C13.5 11.8211 11.8211 13.5 9.75 13.5H6.75C4.67893 13.5 3 11.8211 3 9.75V3.75ZM4.5 4.5V9.75C4.5 10.9926 5.50736 12 6.75 12H9.75C10.9926 12 12 10.9926 12 9.75V4.5H4.5Z" fill="#3C3C3B"/>
<path fill-rule="evenodd" clip-rule="evenodd" d="M12 5.25H14.25C15.4926 5.25 16.5 6.25736 16.5 7.5C16.5 8.74264 15.4926 9.75 14.25 9.75H12V5.25ZM13.5 6.75V8.25H14.25C14.6642 8.25 15 7.91421 15 7.5C15 7.08579 14.6642 6.75 14.25 6.75H13.5Z" fill="#3C3C3B"/>
</svg>
