<svg width="18" height="18" viewBox="0 0 18 18" fill="none" xmlns="http://www.w3.org/2000/svg">
<path d="M7.98436 1.85037L7.26238 1.64731L7.26238 1.64731L7.98436 1.85037ZM10.0158 1.85037L9.29379 2.05343V2.05343L10.0158 1.85037ZM10.4567 3.41815L9.73473 3.62121C9.8069 3.87782 10.0099 4.07684 10.2678 4.14398L10.4567 3.41815ZM11.9165 4.02331L11.5367 4.67003C11.7666 4.80505 12.0509 4.80787 12.2835 4.67742L11.9165 4.02331ZM13.3373 3.2263L13.7042 3.88041V3.88041L13.3373 3.2263ZM13.9123 3.30562L14.4426 2.77529L14.4426 2.77529L13.9123 3.30562ZM14.6944 4.08773L14.1641 4.61806L14.1641 4.61806L14.6944 4.08773ZM14.7737 4.66273L15.4278 5.02966L15.4278 5.02966L14.7737 4.66273ZM13.9767 6.08348L13.3226 5.71654C13.1922 5.94908 13.195 6.23339 13.33 6.4633L13.9767 6.08348ZM14.5329 7.36663L13.8135 7.57868C13.8864 7.82615 14.0815 8.01876 14.3298 8.08862L14.5329 7.36663ZM16.1495 7.8213L16.3525 7.09931H16.3525L16.1495 7.8213ZM16.1495 9.85271L16.3525 10.5747L16.1495 9.85271ZM14.6246 10.2816L14.4215 9.55961C14.1568 9.63407 13.954 9.84745 13.8932 10.1156L14.6246 10.2816ZM13.9767 11.9167L13.33 11.5368C13.195 11.7668 13.1922 12.0511 13.3226 12.2836L13.9767 11.9167ZM14.7737 13.3374L15.4278 12.9704V12.9704L14.7737 13.3374ZM13.9123 14.6945L13.3819 14.1641L13.3819 14.1641L13.9123 14.6945ZM13.3373 14.7738L12.9703 15.4279H12.9703L13.3373 14.7738ZM11.9166 13.9768L12.2835 13.3227C12.051 13.1922 11.7666 13.1951 11.5367 13.3301L11.9166 13.9768ZM10.4566 14.582L10.2677 13.8562C10.0098 13.9233 9.80681 14.1223 9.73464 14.3789L10.4566 14.582ZM10.0158 16.1495L9.29379 15.9464V15.9464L10.0158 16.1495ZM7.98437 16.1495L7.26238 16.3525L7.98437 16.1495ZM7.54353 14.5821L8.26552 14.379C8.19335 14.1224 7.99038 13.9233 7.73239 13.8562L7.54353 14.5821ZM6.08322 13.9767L6.46307 13.33C6.23315 13.195 5.94883 13.1921 5.71629 13.3226L6.08322 13.9767ZM4.66268 14.7736L5.02962 15.4277L5.02962 15.4277L4.66268 14.7736ZM4.08769 14.6943L4.61802 14.1639H4.61802L4.08769 14.6943ZM3.30558 13.9121L3.83591 13.3818L3.83591 13.3818L3.30558 13.9121ZM3.22626 13.3372L3.88037 13.7041H3.88037L3.22626 13.3372ZM4.02319 11.9165L4.6773 12.2835C4.80774 12.0509 4.80493 11.7666 4.66991 11.5367L4.02319 11.9165ZM3.37541 10.2816L4.10682 10.1156C4.04597 9.84745 3.84321 9.63407 3.57847 9.55961L3.37541 10.2816ZM1.8505 9.85271L2.05356 9.13072H2.05355L1.8505 9.85271ZM1.5 9.39004H0.75H1.5ZM1.5 8.28397H2.25H1.5ZM1.8505 7.8213L1.64744 7.09931L1.64744 7.09931L1.8505 7.8213ZM3.46709 7.36663L3.67015 8.08862C3.91852 8.01877 4.11355 7.82616 4.18649 7.57868L3.46709 7.36663ZM4.02326 6.08347L4.66997 6.46329C4.805 6.23339 4.80782 5.94907 4.67737 5.71653L4.02326 6.08347ZM3.22622 4.66266L3.88033 4.29572L3.22622 4.66266ZM3.30554 4.08766L2.77521 3.55733H2.77521L3.30554 4.08766ZM4.08765 3.30555L4.61798 3.83588L4.61798 3.83588L4.08765 3.30555ZM4.66265 3.22623L4.29571 3.88034H4.29571L4.66265 3.22623ZM6.08349 4.02329L5.71655 4.67739C5.94908 4.80784 6.23339 4.80503 6.4633 4.67001L6.08349 4.02329ZM7.54344 3.4181L7.73231 4.14393C7.99029 4.0768 8.19326 3.87778 8.26543 3.62116L7.54344 3.4181ZM8.44704 0.749878C7.8957 0.749878 7.41165 1.11657 7.26238 1.64731L8.70635 2.05343C8.67368 2.16961 8.56772 2.24988 8.44704 2.24988V0.749878ZM9.55311 0.749878H8.44704V2.24988H9.55311V0.749878ZM10.7378 1.64731C10.5885 1.11657 10.1044 0.749878 9.55311 0.749878V2.24988C9.43242 2.24988 9.32647 2.16961 9.29379 2.05343L10.7378 1.64731ZM11.1787 3.21509L10.7378 1.64731L9.29379 2.05343L9.73473 3.62121L11.1787 3.21509ZM12.2963 3.3766C11.7866 3.07723 11.2323 2.845 10.6456 2.69233L10.2678 4.14398C10.7184 4.26123 11.1444 4.43964 11.5367 4.67003L12.2963 3.3766ZM12.9704 2.57219L11.5496 3.36921L12.2835 4.67742L13.7042 3.88041L12.9704 2.57219ZM14.4426 2.77529C14.0528 2.38544 13.4512 2.30245 12.9704 2.57219L13.7042 3.88041C13.599 3.93945 13.4673 3.92129 13.382 3.83595L14.4426 2.77529ZM15.2247 3.5574L14.4426 2.77529L13.382 3.83595L14.1641 4.61806L15.2247 3.5574ZM15.4278 5.02966C15.6976 4.54882 15.6146 3.94725 15.2247 3.5574L14.1641 4.61806C14.0787 4.53272 14.0606 4.40104 14.1196 4.29579L15.4278 5.02966ZM14.6308 6.45042L15.4278 5.02966L14.1196 4.29579L13.3226 5.71654L14.6308 6.45042ZM15.2523 7.15458C15.1011 6.64162 14.8886 6.15513 14.6234 5.70366L13.33 6.4633C13.5341 6.81076 13.6974 7.18472 13.8135 7.57868L15.2523 7.15458ZM16.3525 7.09931L14.7359 6.64464L14.3298 8.08862L15.9464 8.54329L16.3525 7.09931ZM17.25 8.28397C17.25 7.73263 16.8833 7.24858 16.3525 7.09931L15.9464 8.54329C15.8302 8.51061 15.75 8.40466 15.75 8.28397H17.25ZM17.25 9.39004V8.28397H15.75V9.39004H17.25ZM16.3525 10.5747C16.8833 10.4254 17.25 9.94137 17.25 9.39004H15.75C15.75 9.26936 15.8302 9.1634 15.9464 9.13072L16.3525 10.5747ZM14.8276 11.0036L16.3525 10.5747L15.9464 9.13072L14.4215 9.55961L14.8276 11.0036ZM14.6234 12.2965C14.9563 11.7297 15.2062 11.1077 15.356 10.4475L13.8932 10.1156C13.7781 10.6227 13.5862 11.1007 13.33 11.5368L14.6234 12.2965ZM15.4278 12.9704L14.6308 11.5497L13.3226 12.2836L14.1196 13.7043L15.4278 12.9704ZM15.2247 14.4427C15.6145 14.0528 15.6975 13.4513 15.4278 12.9704L14.1196 13.7043C14.0605 13.599 14.0787 13.4674 14.164 13.382L15.2247 14.4427ZM14.4426 15.2248L15.2247 14.4427L14.164 13.382L13.3819 14.1641L14.4426 15.2248ZM12.9703 15.4279C13.4512 15.6976 14.0527 15.6146 14.4426 15.2248L13.3819 14.1641C13.4673 14.0788 13.5989 14.0606 13.7042 14.1197L12.9703 15.4279ZM11.5496 14.6309L12.9703 15.4279L13.7042 14.1197L12.2835 13.3227L11.5496 14.6309ZM10.6455 15.3078C11.2322 15.1552 11.7866 14.9229 12.2964 14.6235L11.5367 13.3301C11.1444 13.5605 10.7183 13.7389 10.2677 13.8562L10.6455 15.3078ZM10.7378 16.3525L11.1786 14.7851L9.73464 14.3789L9.29379 15.9464L10.7378 16.3525ZM9.55311 17.2499C10.1044 17.2499 10.5885 16.8833 10.7378 16.3525L9.29379 15.9464C9.32647 15.8302 9.43242 15.7499 9.55311 15.7499V17.2499ZM8.44704 17.2499H9.55311V15.7499H8.44704V17.2499ZM7.26238 16.3525C7.41165 16.8833 7.8957 17.2499 8.44704 17.2499V15.7499C8.56772 15.7499 8.67368 15.8302 8.70635 15.9464L7.26238 16.3525ZM6.82155 14.7851L7.26238 16.3525L8.70635 15.9464L8.26552 14.379L6.82155 14.7851ZM5.70338 14.6234C6.21328 14.9229 6.76782 15.1552 7.35468 15.3079L7.73239 13.8562C7.28168 13.739 6.85547 13.5605 6.46307 13.33L5.70338 14.6234ZM5.02962 15.4277L6.45016 14.6308L5.71629 13.3226L4.29575 14.1195L5.02962 15.4277ZM3.55736 15.2246C3.94721 15.6144 4.54878 15.6974 5.02962 15.4277L4.29575 14.1195C4.401 14.0604 4.53268 14.0786 4.61802 14.1639L3.55736 15.2246ZM2.77525 14.4425L3.55736 15.2246L4.61802 14.1639L3.83591 13.3818L2.77525 14.4425ZM2.57215 12.9702C2.30241 13.4511 2.3854 14.0526 2.77525 14.4425L3.83591 13.3818C3.92125 13.4672 3.93941 13.5988 3.88037 13.7041L2.57215 12.9702ZM3.36908 11.5496L2.57215 12.9702L3.88037 13.7041L4.6773 12.2835L3.36908 11.5496ZM2.644 10.4475C2.79376 11.1076 3.0436 11.7295 3.37647 12.2963L4.66991 11.5367C4.41376 11.1006 4.22185 10.6226 4.10682 10.1156L2.644 10.4475ZM3.57847 9.55961L2.05356 9.13072L1.64744 10.5747L3.17235 11.0036L3.57847 9.55961ZM2.05355 9.13072C2.16973 9.1634 2.25 9.26936 2.25 9.39004H0.75C0.75 9.94137 1.11669 10.4254 1.64744 10.5747L2.05355 9.13072ZM2.25 9.39004V8.28397H0.75V9.39004H2.25ZM2.25 8.28397C2.25 8.40466 2.16973 8.51061 2.05356 8.54329L1.64744 7.09931C1.11669 7.24858 0.75 7.73264 0.75 8.28397H2.25ZM2.05355 8.54329L3.67015 8.08862L3.26403 6.64464L1.64744 7.09931L2.05355 8.54329ZM3.37655 5.70365C3.11139 6.15513 2.89889 6.64162 2.74769 7.15458L4.18649 7.57868C4.30262 7.18472 4.4659 6.81076 4.66997 6.46329L3.37655 5.70365ZM2.57211 5.02959L3.36916 6.45041L4.67737 5.71653L3.88033 4.29572L2.57211 5.02959ZM2.77521 3.55733C2.38536 3.94718 2.30237 4.54875 2.57211 5.02959L3.88033 4.29572C3.93937 4.40097 3.92121 4.53265 3.83587 4.61799L2.77521 3.55733ZM3.55732 2.77522L2.77521 3.55733L3.83587 4.61799L4.61798 3.83588L3.55732 2.77522ZM5.02958 2.57212C4.54874 2.30238 3.94717 2.38537 3.55732 2.77522L4.61798 3.83588C4.53264 3.92122 4.40096 3.93938 4.29571 3.88034L5.02958 2.57212ZM6.45043 3.36918L5.02958 2.57212L4.29571 3.88034L5.71655 4.67739L6.45043 3.36918ZM7.35457 2.69227C6.76787 2.84494 6.21347 3.07718 5.70368 3.37657L6.4633 4.67001C6.85561 4.4396 7.28172 4.26118 7.73231 4.14393L7.35457 2.69227ZM7.26238 1.64731L6.82145 3.21505L8.26543 3.62116L8.70635 2.05343L7.26238 1.64731Z" fill="#3C3C3B"/>
<circle cx="9" cy="9" r="1.875" stroke="#3C3C3B" stroke-width="1.5" stroke-miterlimit="10" stroke-linecap="round" stroke-linejoin="round"/>
</svg>
