<svg width="18" height="18" viewBox="0 0 18 18" fill="none" xmlns="http://www.w3.org/2000/svg">
<path d="M14.25 7.125C14.25 4.22551 11.8995 1.875 9 1.875C6.10051 1.875 3.75 4.22551 3.75 7.125" stroke="#3C3C3B" stroke-width="1.5"/>
<path d="M3.75 7.125V7.22727C3.75 7.37789 3.6279 7.49999 3.47727 7.49999V7.49999C2.79947 7.49999 2.25 8.04946 2.25 8.72727V8.8125C2.25 9.53737 2.83763 10.125 3.5625 10.125H14.4375C15.1624 10.125 15.75 9.53737 15.75 8.8125V8.72727C15.75 8.04946 15.2005 7.49999 14.5227 7.49999V7.49999C14.3721 7.49999 14.25 7.37789 14.25 7.22727V7.125" stroke="#3C3C3B" stroke-width="1.5" stroke-linecap="round"/>
<path d="M7.5 2.625V4.875" stroke="#3C3C3B" stroke-width="1.5" stroke-linecap="round"/>
<path d="M10.5 2.625V4.875" stroke="#3C3C3B" stroke-width="1.5" stroke-linecap="round"/>
<path d="M4.39844 10.5V11.7837C4.39844 14.3496 6.52018 16.5 9.00017 16.5C11.4802 16.5 13.6019 14.3496 13.6019 11.7837V10.5" stroke="#3C3C3B" stroke-width="1.53163" stroke-linecap="round"/>
</svg>
