<svg width="18" height="18" viewBox="0 0 18 18" fill="none" xmlns="http://www.w3.org/2000/svg">
<path d="M4.3125 16.5H13.6875C14.4124 16.5 15 15.9124 15 15.1875V2.8125C15 2.08763 14.4124 1.5 13.6875 1.5H8.00081C7.65033 1.5 7.31441 1.64017 7.06789 1.88929L3.37958 5.61643C3.1364 5.86216 3 6.19392 3 6.53964V15.1875C3 15.9124 3.58763 16.5 4.3125 16.5Z" stroke="#3C3C3B" stroke-width="1.5" stroke-miterlimit="10" stroke-linecap="round" stroke-linejoin="round"/>
<path d="M3.79688 6H6.9375C7.66237 6 8.25 5.41237 8.25 4.6875V1.5" stroke="#3C3C3B" stroke-width="1.5" stroke-miterlimit="10" stroke-linecap="round" stroke-linejoin="round"/>
<path d="M6 13.125V10.125" stroke="#3C3C3B" stroke-width="1.5" stroke-miterlimit="10" stroke-linecap="round" stroke-linejoin="round"/>
<path d="M9 13.125L9 11.5781" stroke="#3C3C3B" stroke-width="1.5" stroke-miterlimit="10" stroke-linecap="round" stroke-linejoin="round"/>
<path d="M12 13.125L12 7.82812" stroke="#3C3C3B" stroke-width="1.5" stroke-miterlimit="10" stroke-linecap="round" stroke-linejoin="round"/>
</svg>
