<svg width="18" height="18" viewBox="0 0 18 18" fill="none" xmlns="http://www.w3.org/2000/svg">
<path d="M11.25 4.5V3C11.25 2.58579 10.9142 2.25 10.5 2.25H3C2.58579 2.25 2.25 2.58579 2.25 3V12C2.25 12.4142 2.58579 12.75 3 12.75H3.75" stroke="#3C3C3B" stroke-width="1.5" stroke-miterlimit="10" stroke-linecap="round" stroke-linejoin="round"/>
<path d="M15.9375 6.56247C15.1769 5.79883 13.8856 5.79884 13.125 6.56249L7.125 12.5625C6.40669 13.3261 6 14.3568 6 15.375V16.5001H7.125C8.18134 16.5001 9.21919 16.0962 9.9375 15.375L15.9375 9.37274C16.6981 8.6091 16.6981 7.32611 15.9375 6.56247Z" stroke="#3C3C3B" stroke-width="1.5" stroke-miterlimit="10" stroke-linejoin="round"/>
<path d="M7.33594 12.4688L10.2891 15.4219" stroke="#3C3C3B" stroke-width="1.5" stroke-miterlimit="10" stroke-linejoin="round"/>
<path d="M5.25 5.25H7.875" stroke="#3C3C3B" stroke-width="1.5" stroke-miterlimit="10" stroke-linecap="round" stroke-linejoin="round"/>
<path d="M5.25 8.25H6" stroke="#3C3C3B" stroke-width="1.5" stroke-miterlimit="10" stroke-linecap="round" stroke-linejoin="round"/>
</svg>
