<svg width="18" height="18" viewBox="0 0 18 18" fill="none" xmlns="http://www.w3.org/2000/svg">
<g clip-path="url(#clip0_12_330)">
<path d="M9.16068 6.60938V2.25C9.16068 1.83579 8.82489 1.5 8.41068 1.5H2.25C1.83579 1.5 1.5 1.83579 1.5 2.25V10.5C1.5 10.9142 1.83579 11.25 2.25 11.25H4.73438" stroke="#3C3C3B" stroke-width="1.5" stroke-miterlimit="10" stroke-linecap="round" stroke-linejoin="round"/>
<path d="M15.9296 6.57261C15.169 5.80897 13.9014 5.80897 13.1408 6.57261L7.14085 12.5545C6.42254 13.3181 6 14.3363 6 15.3545V16.5H7.14085C8.19718 16.5 9.21127 16.0757 9.92958 15.3545L15.9296 9.37264C16.6901 8.60899 16.6901 7.33625 15.9296 6.57261Z" stroke="#3C3C3B" stroke-width="1.5" stroke-miterlimit="10" stroke-linejoin="round"/>
<path d="M7.3125 12.2344L10.2657 15.1875" stroke="#3C3C3B" stroke-width="1.5" stroke-miterlimit="10" stroke-linejoin="round"/>
</g>
<defs>
<clipPath id="clip0_12_330">
<rect width="18" height="18" fill="white"/>
</clipPath>
</defs>
</svg>
