<svg width="18" height="18" viewBox="0 0 18 18" fill="none" xmlns="http://www.w3.org/2000/svg">
<path fill-rule="evenodd" clip-rule="evenodd" d="M11.6497 4.1006C12.1141 4.1006 12.5785 4.1006 13.0429 4.1006C13.0894 4.1006 13.1358 4.1006 13.2287 4.1006V1.63932C12.9965 1.59288 12.7178 1.59288 12.4392 1.54644C11.9748 1.54644 11.464 1.5 10.9996 1.5C10.2566 1.5 9.55997 1.68576 8.95626 2.10371C8.25967 2.61455 7.88815 3.31114 7.74883 4.14704C7.70239 4.47212 7.67057 4.84364 7.67057 5.16871C7.67057 5.72598 7.67057 6.23682 7.67057 6.79409V6.97985H5.33398V9.67333H7.67057V16.4999H10.3834V9.81265H12.8107C12.95 8.9303 13.0429 8.00151 13.1822 7.07273C12.9965 7.07273 12.8107 7.07273 12.6714 7.07273C12.0213 7.07273 10.3834 7.07273 10.3834 7.07273C10.3834 7.07273 10.3834 5.72598 10.3834 5.16871C10.3834 4.3328 11.046 4.1006 11.6497 4.1006Z" fill="#3C3C3B"/>
</svg>
