<svg width="18" height="18" viewBox="0 0 18 18" fill="none" xmlns="http://www.w3.org/2000/svg">
<path d="M8.19171 4.92188L7.34104 4.022C6.77677 3.4251 5.8733 3.30097 5.16895 3.72357L3.39893 4.78559" stroke="#3C3C3B" stroke-width="1.5"/>
<path d="M14.625 4.6875L14.625 11.8125C14.625 11.9161 14.7089 12 14.8125 12L17.0625 12C17.1661 12 17.25 11.9161 17.25 11.8125L17.25 4.6875C17.25 4.58395 17.1661 4.5 17.0625 4.5L14.8125 4.5C14.7089 4.5 14.625 4.58395 14.625 4.6875Z" stroke="#3C3C3B" stroke-width="1.5" stroke-linecap="round"/>
<path d="M0.75 4.6875L0.75 11.8125C0.75 11.9161 0.833947 12 0.9375 12L3.1875 12C3.29105 12 3.375 11.9161 3.375 11.8125L3.375 4.6875C3.375 4.58395 3.29105 4.5 3.1875 4.5L0.9375 4.5C0.833947 4.5 0.75 4.58395 0.75 4.6875Z" stroke="#3C3C3B" stroke-width="1.5" stroke-linecap="round"/>
<path d="M3.19434 11.625H4.29314C4.42575 11.625 4.55292 11.6777 4.64669 11.7714L6.01769 13.1424C6.64822 13.773 7.65203 13.8286 8.34834 13.2715L11.2874 10.9203C12.0787 10.2873 12.1686 9.11654 11.4832 8.37013L10.3398 7.125L9.27696 7.68164C8.64639 8.01189 7.87029 7.84996 7.4244 7.29509V7.29509C6.85155 6.58223 7.05021 5.5263 7.84298 5.07036L10.4816 3.55282C11.0796 3.20893 11.8125 3.19743 12.4209 3.52238L14.7029 4.74114" stroke="#3C3C3B" stroke-width="1.5"/>
<path d="M14.625 11.625H10.5" stroke="#3C3C3B" stroke-width="1.5"/>
</svg>
