<svg width="18" height="18" viewBox="0 0 18 18" fill="none" xmlns="http://www.w3.org/2000/svg">
<path d="M6.27925 2.24982H11.6793C13.9224 2.24982 15.7085 4.03598 15.7501 6.27907V11.7206C15.7501 13.9637 13.9224 15.7499 11.7208 15.7499H6.27925C4.03616 15.7499 2.25 13.9222 2.25 11.7206V6.27907C2.25 4.03598 4.0777 2.24982 6.27925 2.24982Z" stroke="#3C3C3B" stroke-width="1.5" stroke-miterlimit="10" stroke-linecap="round" stroke-linejoin="round"/>
<path d="M9 6.46863C7.61384 6.46863 6.46875 7.61372 6.46875 8.99988C6.46875 10.386 7.61384 11.5311 9 11.5311C10.3862 11.5311 11.5313 10.386 11.5313 8.99988C11.5313 7.61372 10.3862 6.46863 9 6.46863Z" stroke="#3C3C3B" stroke-width="1.5" stroke-miterlimit="10" stroke-linecap="round" stroke-linejoin="round"/>
<path d="M12.8438 6.00006C13.3097 6.00006 13.6875 5.6223 13.6875 5.15631C13.6875 4.69032 13.3097 4.31256 12.8438 4.31256C12.3778 4.31256 12 4.69032 12 5.15631C12 5.6223 12.3778 6.00006 12.8438 6.00006Z" fill="#3C3C3B"/>
</svg>
