<svg width="18" height="18" viewBox="0 0 18 18" fill="none" xmlns="http://www.w3.org/2000/svg">
<path fill-rule="evenodd" clip-rule="evenodd" d="M5.97692 1.5H11.9769C14.4692 1.5 16.4538 3.48462 16.5 5.97692V12.0231C16.5 14.5154 14.4692 16.5 12.0231 16.5H5.97692C3.48462 16.5 1.5 14.4692 1.5 12.0231V5.97692C1.5 3.48462 3.53077 1.5 5.97692 1.5ZM5.25 9C5.25 6.94293 6.94293 5.25 9 5.25C11.0571 5.25 12.75 6.94293 12.75 9C12.75 11.0571 11.0571 12.75 9 12.75C6.94293 12.75 5.25 11.0571 5.25 9ZM9 6.75C7.77136 6.75 6.75 7.77136 6.75 9C6.75 10.2286 7.77136 11.25 9 11.25C10.2286 11.25 11.25 10.2286 11.25 9C11.25 7.77136 10.2286 6.75 9 6.75ZM14.25 4.81906C14.25 5.33683 13.8303 5.75656 13.3125 5.75656C12.7947 5.75656 12.375 5.33683 12.375 4.81906C12.375 4.30129 12.7947 3.88156 13.3125 3.88156C13.8303 3.88156 14.25 4.30129 14.25 4.81906Z" fill="#3C3C3B"/>
</svg>
