<svg width="18" height="18" viewBox="0 0 18 18" fill="none" xmlns="http://www.w3.org/2000/svg">
<path d="M9 1.5C6.10051 1.5 3.75 3.85051 3.75 6.75C3.75 7.78442 4.04916 8.74896 4.56569 9.56183C5.26698 10.6655 6 11.8382 6 13.1458V15C6 15.8284 6.67157 16.5 7.5 16.5H10.5C11.3284 16.5 12 15.8284 12 15V13.1458C12 11.8382 12.733 10.6655 13.4343 9.56183C13.9508 8.74896 14.25 7.78442 14.25 6.75C14.25 3.85051 11.8995 1.5 9 1.5Z" stroke="#3C3C3B" stroke-width="1.5"/>
<path d="M6 13.5H12" stroke="#3C3C3B" stroke-width="1.5"/>
<path d="M9.75 11.25C9.75 10.8358 9.41421 10.5 9 10.5C8.58579 10.5 8.25 10.8358 8.25 11.25H9.75ZM9.75 13.5V11.25H8.25V13.5H9.75Z" fill="#3C3C3B"/>
</svg>
