<svg width="18" height="18" viewBox="0 0 18 18" fill="none" xmlns="http://www.w3.org/2000/svg">
<path d="M8.25 4.5L9.375 3.375C10.8247 1.92525 13.1753 1.92525 14.625 3.375V3.375C16.0747 4.82475 16.0747 7.17525 14.625 8.625L12.9008 10.3492C12.324 10.926 11.5418 11.25 10.7261 11.25H10.2851C9.26158 11.25 8.32699 10.6683 7.875 9.75V9.75" stroke="#3C3C3B" stroke-width="1.5" stroke-linecap="round" stroke-linejoin="round"/>
<path d="M9.75 13.5L8.57998 14.67C7.15517 16.0948 4.84503 16.0946 3.42048 14.6696V14.6696C1.96161 13.2102 2.00261 10.8323 3.51092 9.42403L5.4142 7.64704C6.03161 7.07061 6.84479 6.75 7.68947 6.75H8.07295C9.10076 6.75 10.0404 7.3307 10.5 8.25V8.25" stroke="#3C3C3B" stroke-width="1.5" stroke-linecap="round" stroke-linejoin="round"/>
</svg>
