<svg width="18" height="18" viewBox="0 0 18 18" fill="none" xmlns="http://www.w3.org/2000/svg">
<path d="M9 3.75H15.75" stroke="#3C3C3B" stroke-width="1.5" stroke-miterlimit="10" stroke-linecap="round" stroke-linejoin="round"/>
<path d="M9 9H15.75" stroke="#3C3C3B" stroke-width="1.5" stroke-miterlimit="10" stroke-linecap="round" stroke-linejoin="round"/>
<path d="M9 14.25H15.75" stroke="#3C3C3B" stroke-width="1.5" stroke-miterlimit="10" stroke-linecap="round" stroke-linejoin="round"/>
<path d="M2.56066 2.68934L3.62132 3.7485L4.68198 2.68934L3.62282 3.75L4.68198 4.81066L3.62132 3.7515L2.56066 4.81066L3.61982 3.75L2.56066 2.68934Z" stroke="#3C3C3B" stroke-width="1.5" stroke-linecap="round" stroke-linejoin="round"/>
<path d="M2.56066 7.93934L3.62132 8.9985L4.68198 7.93934L3.62282 9L4.68198 10.0607L3.62132 9.0015L2.56066 10.0607L3.61982 9L2.56066 7.93934Z" stroke="#3C3C3B" stroke-width="1.5" stroke-linecap="round" stroke-linejoin="round"/>
<path d="M2.56066 13.1892L3.62132 14.2484L4.68198 13.1892L3.62282 14.2499L4.68198 15.3105L3.62132 14.2514L2.56066 15.3105L3.61982 14.2499L2.56066 13.1892Z" stroke="#3C3C3B" stroke-width="1.5" stroke-linecap="round" stroke-linejoin="round"/>
</svg>
