<svg width="18" height="18" viewBox="0 0 18 18" fill="none" xmlns="http://www.w3.org/2000/svg">
<path d="M3.75 9V14C3.75 14.9665 4.5335 15.75 5.5 15.75H12.5C13.4665 15.75 14.25 14.9665 14.25 14V9" stroke="#3C3C3B" stroke-width="1.5"/>
<path d="M9 9L9 15.75" stroke="#3C3C3B" stroke-width="1.5"/>
<path d="M7.12711 1.5C8.14886 1.5 9.00031 2.35146 9.00031 3.3732V5.2464H7.12711C6.10536 5.2464 5.25391 4.39495 5.25391 3.3732C5.25391 2.35146 6.10536 1.5 7.12711 1.5Z" stroke="#3C3C3B" stroke-width="1.5" stroke-miterlimit="10" stroke-linecap="round" stroke-linejoin="round"/>
<path d="M10.8732 1.5C9.85146 1.5 9 2.35146 9 3.3732V5.2464H10.8732C11.8949 5.2464 12.7464 4.39495 12.7464 3.3732C12.7464 2.35146 11.8949 1.5 10.8732 1.5Z" stroke="#3C3C3B" stroke-width="1.5" stroke-miterlimit="10" stroke-linecap="round" stroke-linejoin="round"/>
<rect x="2.25" y="5.24646" width="13.5" height="3.75366" rx="0.75" stroke="#3C3C3B" stroke-width="1.5" stroke-linecap="round" stroke-linejoin="round"/>
</svg>
