<svg width="18" height="18" viewBox="0 0 18 18" fill="none" xmlns="http://www.w3.org/2000/svg">
<path d="M5.25 9V3.5625C5.25 2.83763 5.83763 2.25 6.5625 2.25H15.1875C15.9124 2.25 16.5 2.83763 16.5 3.5625V13.5C16.5 13.5 16.5 13.5 16.5 13.5C16.5 13.5 16.5 15.75 14.625 15.75C12.75 15.75 3.375 15.75 3.375 15.75M5.25 9H1.5V13.5C1.5 13.5 1.5 13.5 1.5 13.5C1.5 13.5001 1.50004 15.75 3.375 15.75M5.25 9V13.5C5.25 13.5 5.25 13.5 5.25 13.5C5.25 13.5 5.25 15.75 3.375 15.75" stroke="#3C3C3B" stroke-width="1.5" stroke-miterlimit="10" stroke-linecap="round" stroke-linejoin="round"/>
<path d="M8.25 7.5L13.5 7.5" stroke="#3C3C3B" stroke-width="1.5" stroke-miterlimit="10" stroke-linecap="round" stroke-linejoin="round"/>
<path d="M8.25 10.5L13.5 10.5" stroke="#3C3C3B" stroke-width="1.5" stroke-miterlimit="10" stroke-linecap="round" stroke-linejoin="round"/>
</svg>
