<svg width="18" height="18" viewBox="0 0 18 18" fill="none" xmlns="http://www.w3.org/2000/svg">
<path d="M16.0288 10.7645C16.6394 10.2105 16.4043 9.29687 16.3103 9.07518L13.7309 3.54736C13.3612 2.75515 12.5661 2.24878 11.6919 2.24878H5.24992L5.24991 9.5796C5.24986 9.63231 5.27043 9.68425 5.29491 9.73094C5.31939 9.77763 5.37113 9.81767 5.41451 9.84762C6.65379 10.7031 8.03878 12.6547 8.03878 14.4411C8.02643 14.7569 8.12948 15.0665 8.32869 15.3119C8.5279 15.5573 8.80964 15.7218 9.12128 15.7747C9.7549 15.8625 10.5655 15.4722 10.948 14.106C11.0854 13.1372 10.9781 12.3644 10.619 11.4542C10.611 11.4298 10.6089 11.4039 10.6128 11.3785C10.6168 11.3531 10.6267 11.329 10.6417 11.3082C10.6568 11.2874 10.6765 11.2755 10.6994 11.2638C10.7222 11.2521 10.7475 11.2488 10.7732 11.2488H14.8788C15.3101 11.2488 15.7238 11.0695 16.0288 10.7645Z" fill="white" stroke="#3C3C3B" stroke-width="1.5" stroke-linecap="round" stroke-linejoin="round"/>
<path d="M1.5 8.24878C1.5 9.07721 2.17157 9.74878 3 9.74878H5.25V2.24878H3C2.17157 2.24878 1.5 2.92035 1.5 3.74878V8.24878Z" stroke="#3C3C3B" stroke-width="1.5" stroke-linecap="round" stroke-linejoin="round"/>
</svg>
