<svg width="18" height="18" viewBox="0 0 18 18" fill="none" xmlns="http://www.w3.org/2000/svg">
<path d="M7.45512 3.06998L7.58671 3.80835C7.83266 3.76451 8.04063 3.6011 8.1414 3.3725L7.45512 3.06998ZM10.5449 3.06998L9.8586 3.3725C9.95937 3.6011 10.1673 3.76451 10.4133 3.80835L10.5449 3.06998ZM14.25 13.5H13.5C13.5 13.6989 13.579 13.8897 13.7197 14.0303L14.25 13.5ZM15 14.25V15C15.3033 15 15.5768 14.8173 15.6929 14.537C15.809 14.2568 15.7448 13.9342 15.5303 13.7197L15 14.25ZM3 14.25L2.46967 13.7197C2.25517 13.9342 2.191 14.2568 2.30709 14.537C2.42318 14.8173 2.69665 15 3 15V14.25ZM3.75 13.5L4.28033 14.0303C4.42098 13.8897 4.5 13.6989 4.5 13.5H3.75ZM8.1414 3.3725C8.2874 3.0413 8.61781 2.8125 9 2.8125V1.3125C8.00211 1.3125 7.14591 1.91204 6.76884 2.76746L8.1414 3.3725ZM9 2.8125C9.38219 2.8125 9.7126 3.0413 9.8586 3.3725L11.2312 2.76746C10.8541 1.91204 9.99789 1.3125 9 1.3125V2.8125ZM15 7.5C15 4.91616 13.1342 2.76965 10.6765 2.33162L10.4133 3.80835C12.1679 4.12108 13.5 5.65575 13.5 7.5H15ZM15 13.5V7.5H13.5V13.5H15ZM15.5303 13.7197L14.7803 12.9697L13.7197 14.0303L14.4697 14.7803L15.5303 13.7197ZM3 15H15V13.5H3V15ZM3.21967 12.9697L2.46967 13.7197L3.53033 14.7803L4.28033 14.0303L3.21967 12.9697ZM3 7.5V13.5H4.5V7.5H3ZM7.32352 2.33162C4.86583 2.76965 3 4.91616 3 7.5H4.5C4.5 5.65575 5.83208 4.12108 7.58671 3.80835L7.32352 2.33162Z" fill="#3C3C3B"/>
<path d="M7.5 14.25V15C7.5 15.8284 8.17157 16.5 9 16.5C9.82843 16.5 10.5 15.8284 10.5 15V14.25" stroke="#3C3C3B" stroke-width="1.5"/>
</svg>
