<svg width="18" height="18" viewBox="0 0 18 18" fill="none" xmlns="http://www.w3.org/2000/svg">
<path d="M8.325 6.53962C8.38037 6.52567 8.43089 6.49689 8.47114 6.45639L12.5807 2.34177C12.6099 2.31255 12.6446 2.28939 12.6828 2.27364C12.721 2.25789 12.7619 2.24986 12.8032 2.25H15.5059C15.5893 2.25 15.6692 2.28311 15.7282 2.34205C15.7871 2.40099 15.8202 2.48092 15.8202 2.56427V5.26698C15.8193 5.34869 15.7864 5.42679 15.7284 5.48445L11.6138 9.60032C11.5732 9.64049 11.5443 9.69102 11.5304 9.74641C11.5164 9.80181 11.5179 9.85997 11.5346 9.91459C11.6811 10.3745 11.7578 10.8537 11.7622 11.3363C11.7622 12.3308 11.4673 13.303 10.9147 14.1299C10.3622 14.9568 9.57691 15.6013 8.65811 15.9819C7.73931 16.3625 6.72829 16.462 5.75289 16.268C4.7775 16.074 3.88154 15.5951 3.17832 14.8919C2.4751 14.1887 1.9962 13.2927 1.80219 12.3173C1.60817 11.3419 1.70775 10.3309 2.08832 9.4121C2.4689 8.4933 3.11339 7.70799 3.94029 7.15547C4.76719 6.60296 5.73936 6.30805 6.73386 6.30805C7.21689 6.31251 7.69653 6.3892 8.15687 6.53558C8.21151 6.55218 8.26963 6.55357 8.325 6.53962Z" stroke="#3C3C3B" stroke-width="1.5" stroke-miterlimit="10" stroke-linecap="round" stroke-linejoin="round"/>
<circle cx="6.70564" cy="11.2078" r="1.58796" stroke="#3C3C3B" stroke-width="1.5" stroke-miterlimit="10" stroke-linecap="round" stroke-linejoin="round"/>
</svg>
