<svg width="18" height="18" viewBox="0 0 18 18" fill="none" xmlns="http://www.w3.org/2000/svg">
<path d="M13.4451 14.9133C12.4681 15.8902 10.9701 16.0205 9.79772 15.3041C6.99704 13.4152 4.58715 11.0053 2.69832 8.20466C1.98187 7.03228 2.11214 5.53425 3.08912 4.55727L4.75787 3.25781L7.45319 5.92969L6.44537 7.06973C6.05458 7.46052 6.05458 8.04671 6.44537 8.4375L9.586 11.5312C9.97679 11.922 10.563 11.922 10.9538 11.5312L12.0001 10.5234L14.8829 13.3125L13.4451 14.9133Z" stroke="#3C3C3B" stroke-width="1.5" stroke-miterlimit="10" stroke-linecap="round" stroke-linejoin="round"/>
<path d="M10.5 4.5C12.2969 4.5 13.5 5.70314 13.5 7.5" stroke="#3C3C3B" stroke-width="1.5" stroke-miterlimit="10" stroke-linecap="round" stroke-linejoin="round"/>
<path d="M10.5 1.5C13.9593 1.5 16.5 4.11593 16.5 7.5" stroke="#3C3C3B" stroke-width="1.5" stroke-miterlimit="10" stroke-linecap="round" stroke-linejoin="round"/>
</svg>
