<svg width="18" height="18" viewBox="0 0 18 18" fill="none" xmlns="http://www.w3.org/2000/svg">
<path d="M9 9.28125C7.18113 9.28125 5.625 7.70414 5.625 5.82225V4.92161C5.625 3.03972 7.18113 1.5 9 1.5C10.8189 1.5 12.375 3.03972 12.375 4.92161V5.82225C12.375 7.70414 10.8189 9.28125 9 9.28125Z" stroke="#3C3C3B" stroke-width="1.5" stroke-miterlimit="10" stroke-linecap="round" stroke-linejoin="round"/>
<path d="M3.32699 16.5L14.673 16.5C15.4106 16.5 15.9517 15.8068 15.7728 15.0913C15.3186 13.2745 13.6862 12 11.8135 12H10.5L9 13.5L7.5 12H6.18653C4.31379 12 2.68136 13.2746 2.22716 15.0914C2.04828 15.8069 2.58945 16.5 3.32699 16.5Z" stroke="#3C3C3B" stroke-width="1.5" stroke-miterlimit="10" stroke-linecap="round" stroke-linejoin="round"/>
</svg>
