<svg width="18" height="18" viewBox="0 0 18 18" fill="none" xmlns="http://www.w3.org/2000/svg">
<path fill-rule="evenodd" clip-rule="evenodd" d="M15.4395 6.1449C15.4395 7.90812 14.9538 9.7199 13.8706 11.355C13.3363 12.1792 12.705 12.8915 11.9765 13.5229C10.5047 14.7519 8.38528 15.5775 6.0069 15.5775C4.01704 15.5775 2.31722 15.1242 0.910156 14.2352C1.16918 14.2662 1.42819 14.2838 1.7034 14.2838C3.14285 14.2838 4.50135 13.7657 5.81263 12.7135C5.10033 12.6973 4.45278 12.4868 3.88753 12.0497C3.32092 11.614 2.93239 11.0636 2.72194 10.3998C2.93239 10.4484 3.14285 10.4646 3.33711 10.4646C3.6447 10.4646 3.93609 10.4322 4.22749 10.3513C3.46662 10.2056 2.81907 9.81704 2.31722 9.2194C1.81672 8.60423 1.57389 7.89193 1.57389 7.09868V7.05012C2.04202 7.32533 2.52768 7.45484 3.0619 7.47102C2.07439 6.80864 1.59008 5.88588 1.59008 4.7203C1.59008 4.17123 1.73578 3.637 2.02583 3.10278C3.70945 5.12501 6.15259 6.37154 8.87094 6.51724C8.82238 6.30679 8.79 6.04777 8.79 5.74018C8.79 4.83362 9.11378 4.05791 9.74378 3.41036C10.3913 2.74663 11.1846 2.42285 12.106 2.42285C13.0611 2.42285 13.8706 2.779 14.5491 3.47512C15.2776 3.32942 15.9737 3.05421 16.6375 2.66568C16.3946 3.45893 15.675 4.41281 15.1805 4.50984C15.8118 4.4289 16.4594 4.25217 17.0894 3.97697C16.6375 4.65554 16.0871 5.23833 15.4395 5.70781V6.1449Z" fill="#3C3C3B"/>
</svg>
