<svg width="18" height="18" viewBox="0 0 18 18" fill="none" xmlns="http://www.w3.org/2000/svg">
<path d="M5.25 5.27405H9.75" stroke="#3C3C3B" stroke-width="1.5" stroke-linecap="round"/>
<path d="M5.25 8.25H9.75" stroke="#3C3C3B" stroke-width="1.5" stroke-linecap="round"/>
<path d="M5.25 11.25H7.125" stroke="#3C3C3B" stroke-width="1.5" stroke-linecap="round"/>
<path d="M12.75 15.3984L12.75 13.4531" stroke="#3C3C3B" stroke-width="1.5" stroke-linecap="round"/>
<path d="M10.4361 15.75H4C3.0335 15.75 2.25 14.9665 2.25 14V4C2.25 3.0335 3.0335 2.25 4 2.25H11C11.9665 2.25 12.75 3.0335 12.75 4V10.5" stroke="#3C3C3B" stroke-width="1.5" stroke-linecap="round"/>
<path d="M9.75 12.25C9.75 11.2835 10.5335 10.5 11.5 10.5H14C14.9665 10.5 15.75 11.2835 15.75 12.25V14C15.75 14.9665 14.9665 15.75 14 15.75H9.75V12.25Z" stroke="#3C3C3B" stroke-width="1.5" stroke-linecap="round"/>
</svg>
