<svg width="18" height="18" viewBox="0 0 18 18" fill="none" xmlns="http://www.w3.org/2000/svg">
<path d="M12.75 9.75V15.4453" stroke="#3C3C3B" stroke-width="1.5" stroke-linecap="round"/>
<path fill-rule="evenodd" clip-rule="evenodd" d="M3 15.75C2.58579 15.75 2.25 15.4142 2.25 15V7.88596C2.25 7.64375 2.36697 7.41645 2.56407 7.27566L7.06407 4.06138C7.32484 3.87511 7.67516 3.87511 7.93593 4.06138L12.4359 7.27566C12.633 7.41645 12.75 7.64375 12.75 7.88596V11.25H15.0742C15.4884 11.25 15.8242 11.5858 15.8242 12V15" stroke="#3C3C3B" stroke-width="1.5" stroke-linecap="round"/>
<path d="M6 15L6 13.125C6 12.2966 6.67157 11.625 7.5 11.625V11.625C8.32843 11.625 9 12.2966 9 13.125V15" stroke="#3C3C3B" stroke-width="1.5" stroke-linecap="round"/>
<path d="M6.75 8.625L8.25 8.625" stroke="#3C3C3B" stroke-width="1.5" stroke-linecap="round"/>
</svg>
