<svg width="18" height="18" viewBox="0 0 18 18" fill="none" xmlns="http://www.w3.org/2000/svg">
<path d="M16.0288 7.23429C16.6394 7.78825 16.4043 8.70191 16.3103 8.9236L13.7309 14.4514C13.3612 15.2436 12.5661 15.75 11.6919 15.75H5.24992L5.24991 8.41918C5.24986 8.36647 5.27043 8.31453 5.29491 8.26784C5.31939 8.22115 5.37113 8.18111 5.41451 8.15116C6.65379 7.2957 8.03878 5.34409 8.03878 3.55771C8.02643 3.24186 8.12948 2.93232 8.32869 2.6869C8.5279 2.44148 8.80964 2.27697 9.12128 2.22411C9.7549 2.13629 10.5655 2.52661 10.948 3.89274C11.0854 4.86155 10.9781 5.63435 10.619 6.54457C10.611 6.56897 10.6089 6.59492 10.6128 6.62029C10.6168 6.64567 10.6267 6.66975 10.6417 6.69056C10.6568 6.71138 10.6765 6.72329 10.6994 6.735C10.7222 6.74671 10.7475 6.74995 10.7732 6.75H14.8788C15.3101 6.75 15.7238 6.9293 16.0288 7.23429Z" fill="white" stroke="#3C3C3B" stroke-width="1.5" stroke-linecap="round" stroke-linejoin="round"/>
<path d="M1.5 9.75C1.5 8.92157 2.17157 8.25 3 8.25H5.25V15.75H3C2.17157 15.75 1.5 15.0784 1.5 14.25V9.75Z" stroke="#3C3C3B" stroke-width="1.5" stroke-linecap="round" stroke-linejoin="round"/>
</svg>
