<svg width="18" height="18" viewBox="0 0 18 18" fill="none" xmlns="http://www.w3.org/2000/svg">
<path fill-rule="evenodd" clip-rule="evenodd" d="M7.50077 11.4375L7.5 6.5625L12 9.00849L7.50077 11.4375ZM16.4293 3.7502C15.8019 3.05132 15.0986 3.04787 14.776 3.00695C12.4671 2.82947 9.00358 2.82947 9.00358 2.82947C8.99641 2.82947 5.53296 2.82947 3.22394 3.00695C2.90141 3.04787 2.19837 3.05132 1.57071 3.7502C1.07599 4.28267 0.915008 5.49183 0.915008 5.49183C0.915008 5.49183 0.75 6.91176 0.75 8.3317V9.66289C0.75 11.0828 0.915008 12.5027 0.915008 12.5027C0.915008 12.5027 1.07599 13.7119 1.57071 14.2444C2.19837 14.9432 3.02285 14.9211 3.39005 14.9944C4.71008 15.129 9.00001 15.1707 9.00001 15.1707C9.00001 15.1707 12.4671 15.1651 14.776 14.9876C15.0986 14.9467 15.8019 14.9432 16.4293 14.2444C16.924 13.7119 17.0852 12.5027 17.0852 12.5027C17.0852 12.5027 17.25 11.0828 17.25 9.66289V8.3317C17.25 6.91176 17.0852 5.49183 17.0852 5.49183C17.0852 5.49183 16.924 4.28267 16.4293 3.7502Z" fill="#3C3C3B"/>
</svg>
