<svg width="48" height="48" viewBox="0 0 48 48" fill="none" xmlns="http://www.w3.org/2000/svg">
<path fill-rule="evenodd" clip-rule="evenodd" d="M27.6127 38.1501C30.3007 38.1501 32.4797 35.9598 32.4797 33.258C32.4797 30.5562 30.3007 28.366 27.6127 28.366C24.9247 28.366 22.7456 30.5562 22.7456 33.258C22.7456 35.9598 24.9247 38.1501 27.6127 38.1501Z" fill="#FA3E34"/>
<path d="M22.1778 34.9979H12.7417C11.6371 34.9979 10.7417 34.1025 10.7417 32.9979V6.7605C10.7417 5.65593 11.6371 4.7605 12.7417 4.7605H35.2581C36.3627 4.7605 37.2581 5.65593 37.2581 6.7605V32.9979C37.2581 34.1025 36.3627 34.9979 35.2581 34.9979H32.7312" stroke="#3C3C3B" stroke-width="2" stroke-miterlimit="10" stroke-linecap="round" stroke-linejoin="round"/>
<path d="M17.5142 12.2626H30.4856" stroke="#3C3C3B" stroke-width="2" stroke-miterlimit="10" stroke-linecap="round" stroke-linejoin="round"/>
<path d="M17.5142 17.7142H30.4856" stroke="#3C3C3B" stroke-width="2" stroke-miterlimit="10" stroke-linecap="round" stroke-linejoin="round"/>
<path d="M17.5142 23.1659H25.1875" stroke="#3C3C3B" stroke-width="2" stroke-miterlimit="10" stroke-linecap="round" stroke-linejoin="round"/>
<path fill-rule="evenodd" clip-rule="evenodd" d="M27.6127 38.1501C30.3007 38.1501 32.4797 35.9598 32.4797 33.258C32.4797 30.5562 30.3007 28.366 27.6127 28.366C24.9247 28.366 22.7456 30.5562 22.7456 33.258C22.7456 35.9598 24.9247 38.1501 27.6127 38.1501Z" stroke="#3C3C3B" stroke-width="2"/>
<path d="M24.9917 37.4062V43.4269L27.4928 42.1144L30.2341 43.4269V37.4062" stroke="#3C3C3B" stroke-width="2" stroke-linejoin="round"/>
</svg>
