<svg width="48" height="49" viewBox="0 0 48 49" fill="none" xmlns="http://www.w3.org/2000/svg">
<rect x="4" y="9.86987" width="40" height="30" rx="3" stroke="#3C3C3B" stroke-width="2" stroke-miterlimit="10" stroke-linecap="round" stroke-linejoin="round"/>
<path d="M28 19.8699H37" stroke="#3C3C3B" stroke-width="2" stroke-miterlimit="10" stroke-linecap="round" stroke-linejoin="round"/>
<path d="M16 32.8699L11.1181 26.3925C10.2922 25.2325 9.90326 23.816 10.0205 22.3951C10.1377 20.9743 10.7534 19.6412 11.7582 18.6334C12.3152 18.0743 12.9765 17.6308 13.7043 17.3282C14.4321 17.0256 15.2122 16.8699 16 16.8699C16.7878 16.8699 17.5679 17.0256 18.2957 17.3282C19.0235 17.6308 19.6848 18.0743 20.2418 18.6334C21.2466 19.6412 21.8623 20.9743 21.9795 22.3951C22.0967 23.816 21.7078 25.2325 20.8819 26.3925L16 32.8699Z" stroke="#3C3C3B" stroke-width="2" stroke-miterlimit="10" stroke-linecap="round" stroke-linejoin="round"/>
<circle cx="16" cy="22.8699" r="2" fill="#FA3E34"/>
<path d="M28 24.8699H37" stroke="#3C3C3B" stroke-width="2" stroke-miterlimit="10" stroke-linecap="round" stroke-linejoin="round"/>
<path d="M28 29.8699H32" stroke="#3C3C3B" stroke-width="2" stroke-miterlimit="10" stroke-linecap="round" stroke-linejoin="round"/>
</svg>
