<svg width="48" height="48" viewBox="0 0 48 48" fill="none" xmlns="http://www.w3.org/2000/svg">
<g clip-path="url(#clip0_12_1086)">
<path d="M3.5 42H44.5" stroke="#3C3C3B" stroke-width="2" stroke-miterlimit="10" stroke-linecap="round" stroke-linejoin="round"/>
<path d="M43.9353 23.9972H4.06486C2.33798 23.9972 1.63881 21.7731 3.05508 20.785L24 6.17236L44.945 20.785C46.3613 21.7731 45.6621 23.9972 43.9353 23.9972Z" stroke="#3C3C3B" stroke-width="2" stroke-miterlimit="10" stroke-linecap="round" stroke-linejoin="round"/>
<path d="M21.5 42V25" stroke="#3C3C3B" stroke-width="2" stroke-miterlimit="10" stroke-linejoin="round"/>
<path d="M26.5 42V25" stroke="#3C3C3B" stroke-width="2" stroke-miterlimit="10" stroke-linejoin="round"/>
<path d="M7.5 42V25" stroke="#3C3C3B" stroke-width="2" stroke-miterlimit="10" stroke-linejoin="round"/>
<path d="M12.5 42V25" stroke="#3C3C3B" stroke-width="2" stroke-miterlimit="10" stroke-linejoin="round"/>
<path d="M35.5 42V25" stroke="#3C3C3B" stroke-width="2" stroke-miterlimit="10" stroke-linejoin="round"/>
<path d="M40.5 42V25" stroke="#3C3C3B" stroke-width="2" stroke-miterlimit="10" stroke-linejoin="round"/>
<path d="M24 20.5C26.2091 20.5 28 18.7091 28 16.5C28 14.2909 26.2091 12.5 24 12.5C21.7909 12.5 20 14.2909 20 16.5C20 18.7091 21.7909 20.5 24 20.5Z" fill="#FA3E34"/>
</g>
<defs>
<clipPath id="clip0_12_1086">
<rect width="48" height="48" fill="white"/>
</clipPath>
</defs>
</svg>
