<svg width="48" height="48" viewBox="0 0 48 48" fill="none" xmlns="http://www.w3.org/2000/svg">
<path d="M24 44C35.0457 44 44 35.0457 44 24C44 12.9543 35.0457 4 24 4C12.9543 4 4 12.9543 4 24C4 35.0457 12.9543 44 24 44Z" stroke="#3C3C3B" stroke-width="2" stroke-miterlimit="10" stroke-linecap="round" stroke-linejoin="round"/>
<path d="M17.8094 21.1429C19.6504 21.1429 21.1427 19.6505 21.1427 17.8095C21.1427 15.9686 19.6504 14.4762 17.8094 14.4762C15.9685 14.4762 14.4761 15.9686 14.4761 17.8095C14.4761 19.6505 15.9685 21.1429 17.8094 21.1429Z" fill="#FA3E34"/>
<path d="M30.1905 33.5238C32.0315 33.5238 33.5238 32.0315 33.5238 30.1905C33.5238 28.3496 32.0315 26.8572 30.1905 26.8572C28.3496 26.8572 26.8572 28.3496 26.8572 30.1905C26.8572 32.0315 28.3496 33.5238 30.1905 33.5238Z" fill="#FA3E34"/>
<path d="M32.5713 15.4286L15.4285 32.5714" stroke="#3C3C3B" stroke-width="2" stroke-miterlimit="10" stroke-linecap="round" stroke-linejoin="round"/>
</svg>
