<svg width="48" height="48" viewBox="0 0 48 48" fill="none" xmlns="http://www.w3.org/2000/svg">
<path d="M38.3128 26.9383V11.5829C38.3128 10.5402 37.4597 9.68713 36.4171 9.68713H21.0616C20.5877 9.68713 20.019 9.87671 19.7346 10.2559L4.56872 25.7061C3.81043 26.4644 3.81043 27.6018 4.56872 28.3601L19.6398 43.4312C20.3981 44.1895 21.5356 44.1895 22.2939 43.4312L37.7441 28.2653C38.1232 27.8862 38.3128 27.4123 38.3128 26.9383Z" stroke="#3C3C3B" stroke-width="2" stroke-miterlimit="10" stroke-linecap="round" stroke-linejoin="round"/>
<path d="M27.4126 23.9052C29.7683 23.9052 31.678 21.9955 31.678 19.6398C31.678 17.2841 29.7683 15.3744 27.4126 15.3744C25.0569 15.3744 23.1472 17.2841 23.1472 19.6398C23.1472 21.9955 25.0569 23.9052 27.4126 23.9052Z" stroke="#3C3C3B" stroke-width="2" stroke-miterlimit="10" stroke-linecap="round" stroke-linejoin="round"/>
<path d="M13.384 26.5593L21.9148 35.0901" stroke="#FA3E34" stroke-width="2" stroke-miterlimit="10" stroke-linecap="round" stroke-linejoin="round"/>
<path d="M27.0335 19.2607C25.8013 17.6493 25.043 15.6588 25.043 13.4787C25.043 8.26541 29.3084 4 34.5216 4C39.7349 4 44.0003 8.26541 44.0003 13.4787C44.0003 17.2702 41.8202 20.4929 38.6923 22.0095" stroke="#3C3C3B" stroke-width="2" stroke-miterlimit="10" stroke-linecap="round" stroke-linejoin="round"/>
</svg>
