<svg width="48" height="48" viewBox="0 0 48 48" fill="none" xmlns="http://www.w3.org/2000/svg">
<path d="M39.75 43H8.25C7.2875 43 6.5 42.2227 6.5 41.2727V6.72727C6.5 5.77727 7.2875 5 8.25 5H39.75C40.7125 5 41.5 5.77727 41.5 6.72727V41.2727C41.5 42.2227 40.7125 43 39.75 43Z" stroke="#3C3C3B" stroke-width="2" stroke-miterlimit="10" stroke-linecap="round" stroke-linejoin="round"/>
<path d="M41.5 31H32.75C31.2625 31 30.125 32.0833 30.125 33.5C30.125 34.9167 28.9875 36 27.5 36H20.5C19.0125 36 17.875 34.9167 17.875 33.5C17.875 32.0833 16.7375 31 15.25 31H6.5" stroke="#3C3C3B" stroke-width="2" stroke-miterlimit="10" stroke-linecap="round" stroke-linejoin="round"/>
<path d="M14.5 12H33.5" stroke="#FA3E34" stroke-width="2" stroke-miterlimit="10" stroke-linecap="round" stroke-linejoin="round"/>
<path d="M14.5 18H33.5" stroke="#FA3E34" stroke-width="2" stroke-miterlimit="10" stroke-linecap="round" stroke-linejoin="round"/>
<path d="M14.5 24H33.5" stroke="#FA3E34" stroke-width="2" stroke-miterlimit="10" stroke-linecap="round" stroke-linejoin="round"/>
</svg>
