<svg width="48" height="48" viewBox="0 0 48 48" fill="none" xmlns="http://www.w3.org/2000/svg">
<path d="M2 33.25H9.25V44.25H2" fill="#FA3E34"/>
<path d="M2 31H9V44H2" stroke="#3C3C3B" stroke-width="2" stroke-miterlimit="10" stroke-linejoin="round"/>
<path d="M25.449 34.8615L32.0999 35.4C32.9999 35.5 33.8999 35.2 34.5999 34.7L41.6999 29.6C42.6999 28.9 43.8999 28.9 44.8999 29.4C46.6999 30.4 46.8999 32.8 45.4999 34.2L37.2999 41.7C36.0999 42.8 34.5999 43.5 33.0999 43.6L22.3999 44.8C18.9999 45.2 16.3421 44.8 13.1421 43.6" stroke="#3C3C3B" stroke-width="2" stroke-miterlimit="10" stroke-linecap="round" stroke-linejoin="round"/>
<path d="M9 43.0001V32.5001L11.7 30.4001C14.1 28.5001 17.1 27.6001 20.2 27.8001L26 28.2001C27.8 28.3001 29.2 29.8001 29.2 31.6001C29.2 33.5001 27.5 35.1001 25.6 34.9001L19 34.6001" stroke="#3C3C3B" stroke-width="2" stroke-miterlimit="10" stroke-linecap="round" stroke-linejoin="round"/>
<path d="M38 21H12C10.3 21 9 19.7 9 18V6C9 4.3 10.3 3 12 3H38C39.7 3 41 4.3 41 6V18C41 19.7 39.7 21 38 21Z" stroke="#3C3C3B" stroke-width="2" stroke-miterlimit="10" stroke-linejoin="round"/>
<path d="M25 16C27.2091 16 29 14.2091 29 12C29 9.79086 27.2091 8 25 8C22.7909 8 21 9.79086 21 12C21 14.2091 22.7909 16 25 16Z" stroke="#3C3C3B" stroke-width="2" stroke-miterlimit="10" stroke-linejoin="round"/>
<path d="M15 13.7C15.9389 13.7 16.7 12.9389 16.7 12C16.7 11.0612 15.9389 10.3 15 10.3C14.0612 10.3 13.3 11.0612 13.3 12C13.3 12.9389 14.0612 13.7 15 13.7Z" fill="#FA3E34"/>
<path d="M35 13.7C35.9389 13.7 36.7001 12.9389 36.7001 12C36.7001 11.0612 35.9389 10.3 35 10.3C34.0612 10.3 33.3 11.0612 33.3 12C33.3 12.9389 34.0612 13.7 35 13.7Z" fill="#FA3E34"/>
</svg>
