<svg width="48" height="48" viewBox="0 0 48 48" fill="none" xmlns="http://www.w3.org/2000/svg">
<path d="M41.1429 33.882H6.85714C5.2381 33.882 4 32.6608 4 31.0638V5.7002C4 4.10323 5.2381 2.88202 6.85714 2.88202H41.1429C42.7619 2.88202 44 4.10323 44 5.7002V31.0638C44 32.6608 42.7619 33.882 41.1429 33.882Z" stroke="#3C3C3B" stroke-width="2" stroke-miterlimit="10" stroke-linejoin="round"/>
<path d="M17.4387 34.5591L13.5991 44.6278" stroke="#3C3C3B" stroke-width="2" stroke-miterlimit="10" stroke-linecap="round" stroke-linejoin="round"/>
<path d="M30.7815 34.5591L34.6211 44.6278" stroke="#3C3C3B" stroke-width="2" stroke-miterlimit="10" stroke-linecap="round" stroke-linejoin="round"/>
<path d="M15.519 39.1357H32.7974" stroke="#3C3C3B" stroke-width="2" stroke-miterlimit="10" stroke-linejoin="round"/>
<path d="M24.6262 16.4081H33.8262C33.1262 11.7081 29.3262 8.00806 24.6262 7.50806V16.4081Z" fill="#FA3E34"/>
<path d="M22.6264 18.408V7.40796C16.8264 8.00796 12.4264 13.208 13.2264 19.308C13.8264 23.908 17.6264 27.608 22.2264 28.208C28.4264 29.008 33.6264 24.408 34.0264 18.508H22.6264V18.408Z" fill="#FA3E34"/>
<path d="M35.5325 29.408H39.5325" stroke="#3C3C3B" stroke-width="2" stroke-miterlimit="10" stroke-linecap="round" stroke-linejoin="round"/>
</svg>
