<svg width="48" height="48" viewBox="0 0 48 48" fill="none" xmlns="http://www.w3.org/2000/svg">
<path d="M19.3971 4V12.1728C19.3971 13.7165 18.2165 14.8971 16.6728 14.8971H8.5" stroke="#3C3C3B" stroke-width="2" stroke-miterlimit="10" stroke-linejoin="round"/>
<path d="M39.5 14V6.72727C39.5 5.18182 38.3147 4 36.7647 4H19.4412L8.5 14.9091V41.2727C8.5 42.8182 9.68529 44 11.2353 44H24.8235" stroke="#3C3C3B" stroke-width="2" stroke-miterlimit="10" stroke-linecap="round" stroke-linejoin="round"/>
<path d="M41.2046 36.0063V46.3226C41.2046 46.8186 40.6463 47.1092 40.24 46.8248L35.6876 43.6381L31.1352 46.8248C30.7289 47.1092 30.1707 46.8186 30.1707 46.3226V36.0063" fill="#FA3E34"/>
<path d="M35.75 37.5C40.5825 37.5 44.5 33.5825 44.5 28.75C44.5 23.9175 40.5825 20 35.75 20C30.9175 20 27 23.9175 27 28.75C27 33.5825 30.9175 37.5 35.75 37.5Z" fill="white" stroke="#3C3C3B" stroke-width="2" stroke-miterlimit="10" stroke-linecap="round" stroke-linejoin="round"/>
<path d="M35.4184 24.6901C35.552 24.412 35.9479 24.412 36.0815 24.6901L37.1648 26.9451L39.6442 27.2786C39.9499 27.3197 40.0723 27.6962 39.8491 27.9092L38.0392 29.6363L38.4883 32.0974C38.5436 32.4009 38.2233 32.6336 37.9519 32.4872L35.75 31.2996L33.5481 32.4872C33.2766 32.6336 32.9563 32.4009 33.0116 32.0974L33.4607 29.6363L31.6508 27.9092C31.4276 27.6962 31.55 27.3197 31.8557 27.2786L34.3351 26.9451L35.4184 24.6901Z" fill="#FA3E34"/>
</svg>
