<svg width="48" height="48" viewBox="0 0 48 48" fill="none" xmlns="http://www.w3.org/2000/svg">
<path d="M17.4643 3V11.5982C17.4643 13.2223 16.2223 14.4643 14.5982 14.4643H6" stroke="#3C3C3B" stroke-width="2" stroke-miterlimit="10" stroke-linejoin="round"/>
<path d="M38.5 18.6237V5.86364C38.5 4.24091 37.2574 3 35.6324 3H17.4706L6 14.4545V42.1364C6 43.7591 7.24265 45 8.86765 45H17.5569" stroke="#3C3C3B" stroke-width="2" stroke-miterlimit="10" stroke-linecap="round" stroke-linejoin="round"/>
<path fill-rule="evenodd" clip-rule="evenodd" d="M44.5625 25.4495C43.0336 23.9198 40.5538 23.9198 39.0241 25.4495L35.5088 28.9649L41.0472 34.5032L44.5625 30.9879C46.0922 29.4582 46.0922 26.9784 44.5625 25.4495Z" fill="#FA3E34"/>
<path fill-rule="evenodd" clip-rule="evenodd" d="M44.8043 25.499V25.4982C43.2101 23.9039 40.6239 23.9039 39.0297 25.4982L26.6951 37.8327C25.1637 39.3642 24.3025 41.4422 24.3025 43.6073V46H26.6951C28.8612 46 30.9383 45.1388 32.4697 43.6073L44.8043 31.2728C46.3985 29.6785 46.3985 27.0933 44.8043 25.499Z" stroke="#3C3C3B" stroke-width="2" stroke-miterlimit="10" stroke-linecap="round" stroke-linejoin="round"/>
<path d="M27.3835 37.3906L32.6718 42.6789" stroke="#3C3C3B" stroke-width="2" stroke-miterlimit="10" stroke-linecap="round" stroke-linejoin="round"/>
</svg>
