<svg width="48" height="49" viewBox="0 0 48 49" fill="none" xmlns="http://www.w3.org/2000/svg">
<path d="M17.4643 3.86987V12.4681C17.4643 14.0922 16.2223 15.3342 14.5982 15.3342H6" stroke="#3C3C3B" stroke-width="2" stroke-miterlimit="10" stroke-linejoin="round"/>
<path d="M38.5 43.0062V43.0022M38.5 43.0022V6.73351C38.5 5.11078 37.2574 3.86987 35.6324 3.86987H17.4706L6 15.3244V43.0062C6 44.629 7.24265 45.8699 8.86765 45.8699C8.86765 45.8699 32.7647 45.8699 35.6324 45.8699C38.5 45.8699 38.5 43.0022 38.5 43.0022Z" stroke="#3C3C3B" stroke-width="2" stroke-miterlimit="10" stroke-linecap="round" stroke-linejoin="round"/>
<path d="M13 30.7306L17.2105 26.5201L21.4211 32.8359L29.8421 22.3096" stroke="#FA3E34" stroke-width="2" stroke-miterlimit="10" stroke-linecap="round" stroke-linejoin="round"/>
<path d="M25.6948 23.0106L29.8464 22.3096L30.5496 26.4611" stroke="#FA3E34" stroke-width="2" stroke-miterlimit="10" stroke-linecap="round" stroke-linejoin="round"/>
</svg>
