<svg width="48" height="48" viewBox="0 0 48 48" fill="none" xmlns="http://www.w3.org/2000/svg">
<path d="M17.4643 3V11.5982C17.4643 13.2223 16.2223 14.4643 14.5982 14.4643H6" stroke="#3C3C3B" stroke-width="2" stroke-miterlimit="10" stroke-linejoin="round"/>
<path d="M38.5 18.6237V5.86364C38.5 4.24091 37.2574 3 35.6324 3H17.4706L6 14.4545V42.1364C6 43.7591 7.24265 45 8.86765 45H21.5569" stroke="#3C3C3B" stroke-width="2" stroke-miterlimit="10" stroke-linecap="round" stroke-linejoin="round"/>
<path d="M33.5288 24.4491L32.5662 24.1783L32.5662 24.1783L33.5288 24.4491ZM36.4717 24.4491L35.5091 24.7198V24.7198L36.4717 24.4491ZM37.331 27.5043L36.3683 27.7751C36.4601 28.1012 36.7108 28.3588 37.0344 28.4593L37.331 27.5043ZM38.6517 28.0519L38.1857 28.9367C38.4856 29.0946 38.8452 29.0899 39.1409 28.924L38.6517 28.0519ZM41.4201 26.4988L41.9093 27.371L41.9094 27.371L41.4201 26.4988ZM42.157 26.6005L41.4499 27.3076V27.3076L42.157 26.6005ZM43.3994 27.8429L44.1065 27.1358V27.1358L43.3994 27.8429ZM43.501 28.5798L42.6289 28.0905L42.6289 28.0905L43.501 28.5798ZM41.948 31.3482L41.0758 30.859C40.91 31.1547 40.9052 31.5142 41.0632 31.8142L41.948 31.3482ZM42.4085 32.4055L41.4647 32.736C41.5725 33.0439 41.8238 33.2798 42.1378 33.3681L42.4085 32.4055ZM45.5509 33.2893L45.8217 32.3266V32.3266L45.5509 33.2893ZM45.5509 36.2322L45.2802 35.2695H45.2802L45.5509 36.2322ZM42.5714 37.0701L42.3007 36.1075C41.9626 36.2026 41.6992 36.4681 41.6067 36.8069L42.5714 37.0701ZM41.9304 38.6843L41.0478 38.2141C40.8493 38.5867 40.9062 39.0438 41.1899 39.3565L41.9304 38.6843ZM42.0942 38.9122L42.9663 38.423L42.9663 38.423L42.0942 38.9122ZM43.501 41.42L44.3731 40.9308L44.3731 40.9308L43.501 41.42ZM43.3993 42.1569L44.1064 42.864H44.1064L43.3993 42.1569ZM42.1569 43.3993L41.4498 42.6922H41.4498L42.1569 43.3993ZM41.4201 43.5009L41.9093 42.6288L41.9093 42.6288L41.4201 43.5009ZM38.9123 42.0941L38.423 42.9663L38.423 42.9663L38.9123 42.0941ZM38.6842 41.9302L39.3565 41.1898C39.0439 40.906 38.5867 40.8491 38.2141 41.0476L38.6842 41.9302ZM37.3311 42.495L37.0345 41.54C36.7109 41.6405 36.4602 41.898 36.3685 42.2242L37.3311 42.495ZM36.4717 45.5507L37.4344 45.8215H37.4344L36.4717 45.5507ZM33.5288 45.5507L32.5662 45.8215L32.5662 45.8215L33.5288 45.5507ZM32.6694 42.495L33.6321 42.2243C33.5403 41.8981 33.2896 41.6406 32.966 41.54L32.6694 42.495ZM31.3488 41.9475L31.8148 41.0627C31.5148 40.9047 31.1552 40.9095 30.8595 41.0754L31.3488 41.9475ZM28.5798 43.5008L28.0906 42.6287L28.0906 42.6287L28.5798 43.5008ZM27.843 43.3992L27.1359 44.1063H27.1359L27.843 43.3992ZM26.6006 42.1568L27.3077 41.4497H27.3077L26.6006 42.1568ZM26.4989 41.4199L27.3711 41.9091V41.9091L26.4989 41.4199ZM28.0523 38.6509L28.9244 39.1401C29.0903 38.8445 29.095 38.4849 28.9371 38.1849L28.0523 38.6509ZM27.4289 37.0702L28.3937 36.807C28.3012 36.4682 28.0378 36.2027 27.6997 36.1076L27.4289 37.0702ZM24.4492 36.2322L24.7199 35.2695H24.7199L24.4492 36.2322ZM24.4492 33.2893L24.1784 32.3266L24.1784 32.3266L24.4492 33.2893ZM27.5918 32.4054L27.8626 33.3681C28.1766 33.2797 28.4278 33.0438 28.5356 32.7359L27.5918 32.4054ZM28.0523 31.3483L28.9371 31.8143C29.0951 31.5143 29.0903 31.1547 28.9245 30.8591L28.0523 31.3483ZM26.4991 28.5796L25.627 29.0689L25.627 29.0689L26.4991 28.5796ZM28.5801 26.4987L28.0908 27.3708L28.0908 27.3708L28.5801 26.4987ZM31.3488 28.0518L30.8595 28.924C31.1552 29.0898 31.5148 29.0946 31.8147 28.9366L31.3488 28.0518ZM32.6696 27.5042L32.9662 28.4592C33.2898 28.3587 33.5405 28.1012 33.6322 27.775L32.6696 27.5042ZM34.1218 22.9999C33.3978 22.9999 32.7622 23.4814 32.5662 24.1783L34.4915 24.7198C34.4449 24.8854 34.2938 24.9999 34.1218 24.9999V22.9999ZM35.8788 22.9999H34.1218V24.9999H35.8788V22.9999ZM37.4344 24.1783C37.2384 23.4814 36.6027 22.9999 35.8788 22.9999V24.9999C35.7067 24.9999 35.5556 24.8854 35.5091 24.7198L37.4344 24.1783ZM38.2936 27.2336L37.4344 24.1783L35.5091 24.7198L36.3683 27.7751L38.2936 27.2336ZM39.1176 27.1671C38.6448 26.9181 38.1465 26.7105 37.6276 26.5493L37.0344 28.4593C37.435 28.5838 37.82 28.7441 38.1857 28.9367L39.1176 27.1671ZM40.9308 25.6267L38.1624 27.1797L39.1409 28.924L41.9093 27.371L40.9308 25.6267ZM42.8641 25.8934C42.3522 25.3815 41.5622 25.2725 40.9308 25.6267L41.9094 27.371C41.7593 27.4552 41.5715 27.4293 41.4499 27.3076L42.8641 25.8934ZM44.1065 27.1358L42.8641 25.8934L41.4499 27.3076L42.6923 28.55L44.1065 27.1358ZM44.3732 29.069C44.7274 28.4376 44.6184 27.6477 44.1065 27.1358L42.6923 28.55C42.5706 28.4283 42.5447 28.2406 42.6289 28.0905L44.3732 29.069ZM42.8201 31.8375L44.3732 29.069L42.6289 28.0905L41.0758 30.859L42.8201 31.8375ZM43.3524 32.075C43.2079 31.6625 43.0339 31.2641 42.8328 30.8823L41.0632 31.8142C41.2187 32.1095 41.3532 32.4174 41.4647 32.736L43.3524 32.075ZM45.8217 32.3266L42.6793 31.4428L42.1378 33.3681L45.2802 34.2519L45.8217 32.3266ZM47.0001 33.8822C47.0001 33.1583 46.5186 32.5226 45.8217 32.3266L45.2802 34.2519C45.1146 34.2053 45.0001 34.0543 45.0001 33.8822H47.0001ZM47.0001 35.6392V33.8822H45.0001V35.6392H47.0001ZM45.8217 37.1948C46.5186 36.9988 47.0001 36.3632 47.0001 35.6392H45.0001C45.0001 35.4672 45.1146 35.3161 45.2802 35.2695L45.8217 37.1948ZM42.8422 38.0328L45.8217 37.1948L45.2802 35.2695L42.3007 36.1075L42.8422 38.0328ZM42.8129 39.1546C43.1178 38.5823 43.3619 37.9723 43.5362 37.3334L41.6067 36.8069C41.4721 37.3003 41.2836 37.7716 41.0478 38.2141L42.8129 39.1546ZM42.9663 38.423C42.8822 38.273 42.7828 38.1356 42.6708 38.0122L41.1899 39.3565C41.2009 39.3685 41.2118 39.3833 41.222 39.4015L42.9663 38.423ZM44.3731 40.9308L42.9663 38.423L41.222 39.4015L42.6288 41.9093L44.3731 40.9308ZM44.1064 42.864C44.6184 42.3521 44.7273 41.5622 44.3731 40.9308L42.6288 41.9093C42.5447 41.7592 42.5706 41.5715 42.6922 41.4498L44.1064 42.864ZM42.864 44.1064L44.1064 42.864L42.6922 41.4498L41.4498 42.6922L42.864 44.1064ZM40.9308 44.3731C41.5622 44.7273 42.3521 44.6183 42.864 44.1064L41.4498 42.6922C41.5715 42.5705 41.7592 42.5446 41.9093 42.6288L40.9308 44.3731ZM38.423 42.9663L40.9308 44.3731L41.9093 42.6288L39.4015 41.222L38.423 42.9663ZM38.012 42.6705C38.1355 42.7826 38.2729 42.8821 38.423 42.9663L39.4015 41.222C39.3833 41.2118 39.3686 41.2008 39.3565 41.1898L38.012 42.6705ZM37.6278 43.4499C38.1601 43.2846 38.6707 43.0704 39.1544 42.8128L38.2141 41.0476C37.84 41.2469 37.4455 41.4123 37.0345 41.54L37.6278 43.4499ZM37.4344 45.8215L38.2938 42.7657L36.3685 42.2242L35.5091 45.28L37.4344 45.8215ZM35.8788 46.9999C36.6027 46.9999 37.2383 46.5184 37.4344 45.8215L35.5091 45.28C35.5556 45.1144 35.7067 44.9999 35.8788 44.9999V46.9999ZM34.1218 46.9999H35.8788V44.9999H34.1218V46.9999ZM32.5662 45.8215C32.7622 46.5184 33.3978 46.9999 34.1218 46.9999V44.9999C34.2938 44.9999 34.4449 45.1144 34.4915 45.28L32.5662 45.8215ZM31.7068 42.7658L32.5662 45.8215L34.4915 45.28L33.6321 42.2243L31.7068 42.7658ZM30.8828 42.8323C31.3557 43.0813 31.8539 43.2889 32.3728 43.45L32.966 41.54C32.5654 41.4156 32.1804 41.2552 31.8148 41.0627L30.8828 42.8323ZM29.0691 44.373L31.8381 42.8196L30.8595 41.0754L28.0906 42.6287L29.0691 44.373ZM27.1359 44.1063C27.6478 44.6182 28.4377 44.7272 29.0691 44.373L28.0906 42.6287C28.2407 42.5445 28.4284 42.5704 28.5501 42.6921L27.1359 44.1063ZM25.8935 42.8639L27.1359 44.1063L28.5501 42.6921L27.3077 41.4497L25.8935 42.8639ZM25.6268 40.9306C25.2726 41.562 25.3815 42.352 25.8935 42.8639L27.3077 41.4497C27.4293 41.5713 27.4552 41.7591 27.3711 41.9091L25.6268 40.9306ZM27.1801 38.1616L25.6268 40.9306L27.3711 41.9091L28.9244 39.1401L27.1801 38.1616ZM26.4642 37.3334C26.6347 37.9583 26.8718 38.5555 27.1674 39.1168L28.9371 38.1849C28.7085 37.7509 28.5253 37.2895 28.3937 36.807L26.4642 37.3334ZM27.6997 36.1076L24.7199 35.2695L24.1784 37.1948L27.1582 38.0329L27.6997 36.1076ZM24.7199 35.2695C24.8856 35.3161 25 35.4672 25 35.6392H23C23 36.3632 23.4815 36.9988 24.1784 37.1948L24.7199 35.2695ZM25 35.6392V33.8822H23V35.6392H25ZM25 33.8822C25 34.0543 24.8856 34.2053 24.7199 34.2519L24.1784 32.3266C23.4815 32.5226 23 33.1583 23 33.8822H25ZM24.7199 34.2519L27.8626 33.3681L27.3211 31.4428L24.1784 32.3266L24.7199 34.2519ZM27.1675 30.8823C26.9665 31.2641 26.7924 31.6625 26.648 32.0749L28.5356 32.7359C28.6472 32.4174 28.7816 32.1095 28.9371 31.8143L27.1675 30.8823ZM25.627 29.0689L27.1802 31.8376L28.9245 30.8591L27.3713 28.0904L25.627 29.0689ZM25.8937 27.1356C25.3818 27.6475 25.2728 28.4375 25.627 29.0689L27.3713 28.0904C27.4555 28.2404 27.4296 28.4282 27.3079 28.5498L25.8937 27.1356ZM27.1361 25.8932L25.8937 27.1356L27.3079 28.5498L28.5503 27.3074L27.1361 25.8932ZM29.0693 25.6265C28.4379 25.2723 27.648 25.3813 27.1361 25.8932L28.5503 27.3074C28.4286 27.4291 28.2409 27.455 28.0908 27.3708L29.0693 25.6265ZM31.838 27.1797L29.0693 25.6265L28.0908 27.3708L30.8595 28.924L31.838 27.1797ZM32.3729 26.5492C31.854 26.7104 31.3557 26.918 30.8828 27.167L31.8147 28.9366C32.1804 28.7441 32.5655 28.5837 32.9662 28.4592L32.3729 26.5492ZM32.5662 24.1783L31.7069 27.2335L33.6322 27.775L34.4915 24.7198L32.5662 24.1783Z" fill="#3C3C3B"/>
<circle cx="34.9998" cy="35" r="3.74666" fill="#FA3E34"/>
</svg>
