<svg width="48" height="48" viewBox="0 0 48 48" fill="none" xmlns="http://www.w3.org/2000/svg">
<path d="M17.4643 3V11.5982C17.4643 13.2223 16.2223 14.4643 14.5982 14.4643H6" stroke="#3C3C3B" stroke-width="2" stroke-miterlimit="10" stroke-linejoin="round"/>
<path d="M38.5 20.6237V5.86364C38.5 4.24091 37.2574 3 35.6324 3H17.4706L6 14.4545V42.1364C6 43.7591 7.24265 45 8.86765 45H24.5569" stroke="#3C3C3B" stroke-width="2" stroke-miterlimit="10" stroke-linecap="round" stroke-linejoin="round"/>
<path fill-rule="evenodd" clip-rule="evenodd" d="M26 36.5C26 42.299 30.701 47 36.5 47C42.3 47 47 42.299 47 36.5C47 30.701 42.3 26 36.5 26C30.701 26 26 30.701 26 36.5Z" fill="#FA3E34"/>
<path d="M32.2524 37.1574L35.0378 39.9428L40.7478 34.2328" stroke="white" stroke-width="2" stroke-linecap="round"/>
</svg>
