<svg width="48" height="48" viewBox="0 0 48 48" fill="none" xmlns="http://www.w3.org/2000/svg">
<path d="M17.4643 3V11.5982C17.4643 13.2223 16.2223 14.4643 14.5982 14.4643H6" stroke="#3C3C3B" stroke-width="2" stroke-miterlimit="10" stroke-linejoin="round"/>
<path d="M38.5 21.6237V5.86364C38.5 4.24091 37.2574 3 35.6324 3H17.4706L6 14.4545V41.1364C6 42.7591 7.24265 44 8.86765 44H23.5569" stroke="#3C3C3B" stroke-width="2" stroke-miterlimit="10" stroke-linecap="round" stroke-linejoin="round"/>
<circle cx="36.5" cy="36.5" r="10.5" fill="#FA3E34"/>
<path d="M39.9587 33.63C39.9587 31.9181 38.6252 30.6027 36.4268 30.6027C34.3784 30.6027 33.1452 31.752 32.8423 33.4867C32.7581 33.9686 33.1654 34.3688 33.6546 34.3688C34.1344 34.3688 34.5074 33.9804 34.6223 33.5145C34.8332 32.6586 35.3748 32.1163 36.4268 32.1163C37.6161 32.1163 38.2107 32.8371 38.2107 33.7561C38.2107 35.7923 35.3646 35.2044 35.4186 37.9794C35.4186 38.2076 35.6036 38.3926 35.8318 38.3926H36.483C36.7112 38.3926 36.8962 38.2076 36.8962 37.9794C36.9143 36.1054 39.9587 36.6212 39.9587 33.63ZM35.0063 40.6648C35.0063 41.2619 35.4903 41.7459 36.0875 41.7459C36.6846 41.7459 37.1686 41.2619 37.1686 40.6648C37.1686 40.0676 36.6846 39.5836 36.0875 39.5836C35.4903 39.5836 35.0063 40.0676 35.0063 40.6648Z" fill="white"/>
</svg>
