<svg width="48" height="49" viewBox="0 0 48 49" fill="none" xmlns="http://www.w3.org/2000/svg">
<path d="M11 43.8699H37C37.5304 43.8699 38.0391 43.6592 38.4142 43.2841C38.7893 42.9091 39 42.4003 39 41.8699V7.86992C39 7.33948 38.7893 6.83077 38.4142 6.4557C38.0391 6.08063 37.5304 5.86992 37 5.86992H18.954C17.2359 5.86428 15.5619 6.4143 14.182 7.43792C12.8161 8.46979 11.5999 9.68603 10.568 11.0519C9.54439 12.4319 8.99437 14.1058 9 15.8239V41.8699C9 42.4003 9.21072 42.9091 9.58579 43.2841C9.96086 43.6592 10.4696 43.8699 11 43.8699Z" stroke="#3C3C3B" stroke-width="2" stroke-miterlimit="10" stroke-linecap="round" stroke-linejoin="round"/>
<path d="M17 9.86987V13.8699H13C11.9391 13.8699 10.9217 14.2913 10.1716 15.0414C9.42143 15.7916 9 16.809 9 17.8699V19.8699" stroke="#3C3C3B" stroke-width="2" stroke-miterlimit="10" stroke-linecap="round" stroke-linejoin="round"/>
</svg>
