<svg width="48" height="48" viewBox="0 0 48 48" fill="none" xmlns="http://www.w3.org/2000/svg">
<path d="M43.913 39.6758C43.913 42.7778 39.8075 45.2411 34.7896 45.2411C29.7718 45.2411 25.6663 42.7778 25.6663 39.6758V30.8405L43.913 29.8405V39.6758Z" stroke="#3C3C3B" stroke-width="2" stroke-miterlimit="10" stroke-linecap="round" stroke-linejoin="round"/>
<path d="M43.913 32.0051V34.9317C43.913 38.0337 39.8075 40.497 34.7896 40.497C29.7718 40.497 25.6663 38.0337 25.6663 34.9317V33.0964" fill="#FA3E34"/>
<path d="M43.913 32.0051V34.9317C43.913 38.0337 39.8075 40.497 34.7896 40.497C29.7718 40.497 25.6663 38.0337 25.6663 34.9317V33.0964" stroke="#3C3C3B" stroke-width="2" stroke-miterlimit="10" stroke-linecap="round" stroke-linejoin="round"/>
<path d="M34.7896 35.5704C39.8283 35.5704 43.913 33.0788 43.913 30.0052C43.913 26.9316 39.8283 24.4399 34.7896 24.4399C29.7509 24.4399 25.6663 26.9316 25.6663 30.0052C25.6663 33.0788 29.7509 35.5704 34.7896 35.5704Z" fill="white" stroke="#3C3C3B" stroke-width="2" stroke-miterlimit="10" stroke-linecap="round" stroke-linejoin="round"/>
<path d="M15.448 3V11.211C15.448 12.762 14.262 13.948 12.711 13.948H4.5" stroke="#3C3C3B" stroke-width="2" stroke-miterlimit="10" stroke-linejoin="round"/>
<path d="M35.5194 18.5097V5.73701C35.5194 4.18604 34.3334 3 32.7824 3H15.448L4.5 13.948V40.4058C4.5 41.9567 5.68604 43.1428 7.23701 43.1428H20.922" stroke="#3C3C3B" stroke-width="2" stroke-miterlimit="10" stroke-linecap="round" stroke-linejoin="round"/>
</svg>
