<svg width="48" height="48" viewBox="0 0 48 48" fill="none" xmlns="http://www.w3.org/2000/svg">
<path fill-rule="evenodd" clip-rule="evenodd" d="M16.7188 45.1301H23.7344V37.0364H16.7188V45.1301Z" fill="#FA3E34"/>
<path d="M14.6214 18.0149V5.8159C14.6214 4.83953 15.4138 4.04712 16.3902 4.04712H37.8896C38.8668 4.04712 39.6584 4.83953 39.6584 5.8159V44.1261M39.6584 44.1261C39.6584 37.6053 39.6557 44.1261 39.6557 44.1261M39.6584 44.1261H39.6557M39.6584 44.1261H31.6989M39.6557 44.1261H31.6989M31.6989 44.1261C31.6997 40.439 31.6997 30.3575 31.6997 25.198C31.6997 24.2234 30.9091 23.4354 29.9345 23.4354H10.1106C9.13422 23.4354 8.3418 24.2278 8.3418 25.2042L8.3418 44.1261H16.6643V37.051H23.7394V44.1261" stroke="#3C3C3B" stroke-width="2" stroke-linecap="round" stroke-linejoin="round"/>
<path d="M14.9207 30.1512H25.1773" stroke="#3C3C3B" stroke-width="2" stroke-linecap="round" stroke-linejoin="round"/>
<path d="M21.1626 11.0938H33.1236" stroke="#3C3C3B" stroke-width="2" stroke-linecap="round" stroke-linejoin="round"/>
<path d="M21.1626 16.8193H33.1236" stroke="#3C3C3B" stroke-width="2" stroke-linecap="round" stroke-linejoin="round"/>
</svg>
