<svg width="48" height="48" viewBox="0 0 48 48" fill="none" xmlns="http://www.w3.org/2000/svg">
<path d="M20.4895 15.5056C20.6394 13.7123 22.1587 12.3031 24.0108 12.3031H24.2152C26.0538 12.3031 27.5442 13.4467 27.5442 15.0532C27.5442 16.6598 26.3723 17.2869 26.0479 17.4893C25.2482 17.9883 23.719 18.5299 23.5812 19.7897V20.1441" stroke="#FA3E34" stroke-width="2.07284" stroke-miterlimit="10" stroke-linecap="round" stroke-linejoin="round"/>
<circle cx="23.6731" cy="24.4616" r="1.41338" fill="#FA3E34"/>
<path d="M9.60406 19.25L5 22.9396V40.1618C5 41.7701 6.22149 43 7.81881 43L40.1812 42.9999C41.7785 42.9999 43 41.77 43 40.1617V22.9395L37.8649 19.2501" stroke="#3C3C3B" stroke-width="2" stroke-miterlimit="10" stroke-linejoin="round"/>
<path d="M38.0275 26.7527L38.0275 8.13658C38.0275 6.43002 36.8134 5.125 35.2258 5.125H12.812C11.2243 5.125 10.0103 6.43002 10.0103 8.13658V26.7527" stroke="#3C3C3B" stroke-width="2" stroke-miterlimit="10" stroke-linejoin="round"/>
<path d="M5.42139 24.3397L41.594 42.282" stroke="#3C3C3B" stroke-width="2" stroke-miterlimit="10" stroke-linejoin="round"/>
<path d="M42.6918 23.0107L26.4011 34.8677" stroke="#3C3C3B" stroke-width="2" stroke-miterlimit="10" stroke-linejoin="round"/>
</svg>
