<svg width="48" height="48" viewBox="0 0 48 48" fill="none" xmlns="http://www.w3.org/2000/svg">
<path d="M9.60406 19.25L5 22.9396V40.1618C5 41.7701 6.22149 43 7.81881 43L40.1812 42.9999C41.7785 42.9999 43 41.77 43 40.1617V22.9395L37.8649 19.2501" stroke="#3C3C3B" stroke-width="2" stroke-miterlimit="10" stroke-linejoin="round"/>
<path d="M38.0275 26.7527L38.0275 8.13658C38.0275 6.43002 36.8134 5.125 35.2258 5.125H12.812C11.2243 5.125 10.0103 6.43002 10.0103 8.13658V26.7527" stroke="#3C3C3B" stroke-width="2" stroke-miterlimit="10" stroke-linejoin="round"/>
<path d="M5.42139 24.3397L23.5077 33.3108L41.594 42.282" stroke="#3C3C3B" stroke-width="2" stroke-miterlimit="10" stroke-linejoin="round"/>
<path d="M42.6918 23.0107L26.4011 34.8677" stroke="#3C3C3B" stroke-width="2" stroke-miterlimit="10" stroke-linejoin="round"/>
<path d="M24.0001 10.9805C22.8482 10.9804 21.7117 11.2454 20.6785 11.7548C19.6453 12.2643 18.7432 13.0046 18.042 13.9185C17.3407 14.8323 16.859 15.8953 16.6343 17.0251C16.4096 18.1549 16.4477 19.3213 16.7459 20.434C17.044 21.5466 17.5942 22.5758 18.3537 23.4419C19.1132 24.3079 20.0618 24.9877 21.1261 25.4285C22.1904 25.8693 23.3418 26.0593 24.4912 25.9839C25.6407 25.9086 26.7574 25.5697 27.755 24.9937C27.8447 24.9468 27.9241 24.8822 27.9882 24.8038C28.0523 24.7254 28.0999 24.6348 28.1281 24.5375C28.1564 24.4403 28.1646 24.3383 28.1524 24.2377C28.1402 24.1372 28.1078 24.0402 28.0571 23.9525C28.0064 23.8648 27.9385 23.7883 27.8575 23.7275C27.7764 23.6667 27.6839 23.623 27.5856 23.5989C27.4872 23.5748 27.385 23.5708 27.285 23.5873C27.1851 23.6037 27.0895 23.6402 27.004 23.6945C25.8587 24.3558 24.5273 24.6206 23.2161 24.4481C21.9049 24.2755 20.6873 23.6751 19.7522 22.74C18.817 21.8049 18.2165 20.5874 18.0437 19.2763C17.871 17.9651 18.1357 16.6336 18.7968 15.4883C19.4579 14.3429 20.4785 13.4477 21.7002 12.9414C22.922 12.4352 24.2766 12.3462 25.5541 12.6882C26.8315 13.0303 27.9604 13.7843 28.7657 14.8333C29.571 15.8824 30.0076 17.1678 30.0079 18.4903V19.0535C30.0079 19.402 29.8695 19.7363 29.623 19.9828C29.3765 20.2292 29.0423 20.3677 28.6937 20.3677C28.3452 20.3677 28.0109 20.2292 27.7644 19.9828C27.518 19.7363 27.3795 19.402 27.3795 19.0535V15.8618C27.3795 15.6627 27.3004 15.4716 27.1596 15.3308C27.0187 15.19 26.8277 15.1109 26.6285 15.1109C26.4539 15.107 26.2834 15.1641 26.1463 15.2724C26.0092 15.3806 25.9142 15.5333 25.8776 15.7041C25.3255 15.3223 24.6713 15.1156 24.0001 15.1109C23.4347 15.1041 22.8767 15.2393 22.3771 15.5041C21.8776 15.7688 21.4524 16.1547 21.1406 16.6264C20.8288 17.098 20.6403 17.6404 20.5924 18.2038C20.5445 18.7671 20.6388 19.3335 20.8665 19.851C21.0942 20.3685 21.4481 20.8207 21.8958 21.166C22.3435 21.5113 22.8707 21.7387 23.4291 21.8275C23.9875 21.9163 24.5592 21.8635 25.092 21.6741C25.6247 21.4847 26.1014 21.1646 26.4783 20.7432C26.8352 21.2053 27.3271 21.5447 27.8858 21.7142C28.4444 21.8838 29.042 21.875 29.5955 21.6891C30.1489 21.5033 30.6307 21.1496 30.9738 20.6772C31.3169 20.2048 31.5043 19.6373 31.5099 19.0535V18.4903C31.5099 17.5041 31.3156 16.5275 30.9382 15.6164C30.5608 14.7053 30.0077 13.8774 29.3103 13.18C28.613 12.4827 27.7851 11.9295 26.874 11.5521C25.9628 11.1747 24.9863 10.9805 24.0001 10.9805ZM24.0001 20.3677C23.6288 20.3677 23.2658 20.2576 22.9571 20.0513C22.6483 19.845 22.4077 19.5518 22.2656 19.2087C22.1235 18.8657 22.0863 18.4882 22.1587 18.124C22.2312 17.7598 22.41 17.4253 22.6726 17.1627C22.9351 16.9001 23.2696 16.7213 23.6338 16.6489C23.998 16.5764 24.3755 16.6136 24.7186 16.7557C25.0616 16.8978 25.3548 17.1385 25.5611 17.4472C25.7674 17.7559 25.8776 18.1189 25.8776 18.4903C25.8776 18.9882 25.6797 19.4657 25.3277 19.8178C24.9756 20.1699 24.498 20.3677 24.0001 20.3677Z" fill="#FA3E34"/>
</svg>
