<svg width="48" height="48" viewBox="0 0 48 48" fill="none" xmlns="http://www.w3.org/2000/svg">
<path fill-rule="evenodd" clip-rule="evenodd" d="M9.12354 12.7739C9.12354 12.7739 9.3963 3.78815 17.8658 3.54656C26.3342 3.30594 26.607 13.1967 26.607 13.1967C26.607 13.1967 19.9709 12.621 17.7196 8.51289C17.7196 8.51289 14.536 13.1967 9.12354 12.7739Z" fill="#FA3E34"/>
<path d="M13.3967 20.5004C14.2666 22.0764 15.9355 23.1446 17.8653 23.1446" stroke="#3C3C3B" stroke-width="2" stroke-linecap="round" stroke-linejoin="round"/>
<path fill-rule="evenodd" clip-rule="evenodd" d="M17.6125 27.8966V27.8966C12.7709 27.8966 8.84497 23.9716 8.84497 19.129V12.3098C8.84497 7.46718 12.7709 3.54224 17.6125 3.54224C22.4551 3.54224 26.3801 7.46718 26.3801 12.3098V19.129C26.3801 23.9716 22.4551 27.8966 17.6125 27.8966Z" stroke="#3C3C3B" stroke-width="2" stroke-linecap="round" stroke-linejoin="round"/>
<path d="M24.4318 43.4839H3V40.2681C3 35.6603 5.0555 31.5318 8.30047 28.7515" stroke="#3C3C3B" stroke-width="2" stroke-linecap="round" stroke-linejoin="round"/>
<circle cx="35.5" cy="33.5" r="10.5" transform="rotate(-180 35.5 33.5)" fill="#FA3E34"/>
<path d="M35.4976 38.5421L35.4976 33.5001" stroke="white" stroke-width="2" stroke-linecap="round"/>
<circle cx="35.5" cy="29.4609" r="1.25" transform="rotate(-180 35.5 29.4609)" fill="white"/>
</svg>
