<svg width="48" height="48" viewBox="0 0 48 48" fill="none" xmlns="http://www.w3.org/2000/svg">
<path d="M27.7949 27.1428L12.0629 42.875H40.0687C40.2636 42.875 40.4508 42.7991 40.5908 42.6634L42.5041 40.8081C42.6497 40.6668 42.7319 40.4726 42.7319 40.2696V27.5212L36.5441 33.7246C36.252 34.0174 35.778 34.0185 35.4845 33.7271L28.8538 27.141C28.5606 26.8498 28.0871 26.8506 27.7949 27.1428Z" fill="#FA3E34" stroke="#FA3E34" stroke-width="2" stroke-miterlimit="10" stroke-linecap="round" stroke-linejoin="round"/>
<rect x="5.125" y="5.125" width="37.75" height="37.75" rx="3" stroke="#3C3C3B" stroke-width="2" stroke-miterlimit="10" stroke-linecap="round" stroke-linejoin="round"/>
<circle cx="17.9943" cy="17.1364" r="5.14773" stroke="#3C3C3B" stroke-width="2" stroke-miterlimit="10" stroke-linecap="round" stroke-linejoin="round"/>
<path d="M10.2727 42.303L26.5354 26.0404C27.3164 25.2594 28.5827 25.2594 29.3638 26.0404L36.4749 33.1515L42.838 26.7884" stroke="#3C3C3B" stroke-width="2"/>
</svg>
