<svg width="48" height="48" viewBox="0 0 48 48" fill="none" xmlns="http://www.w3.org/2000/svg">
<path d="M17.4643 3V11.5982C17.4643 13.2223 16.2223 14.4643 14.5982 14.4643H6" stroke="#3C3C3B" stroke-width="2" stroke-miterlimit="10" stroke-linejoin="round"/>
<path d="M38.5 17.6237V5.86364C38.5 4.24091 37.2574 3 35.6324 3H17.4706L6 14.4545V41.1364C6 42.7591 7.24265 44 8.86765 44H25" stroke="#3C3C3B" stroke-width="2" stroke-miterlimit="10" stroke-linecap="round" stroke-linejoin="round"/>
<path d="M42.7294 30.7169L36.6151 32.4365L39.6722 37.9776L34.2267 34.8249L32.507 40.9392L30.7874 34.8249L25.3418 37.9776L28.399 32.4365L22.2847 30.7169L28.399 28.9973L25.3418 23.5517L30.7874 26.6089L32.507 20.5901L34.2267 26.6089L39.6722 23.5517L36.6151 28.9973L42.7294 30.7169Z" stroke="#FA3E34" stroke-width="2" stroke-miterlimit="10"/>
</svg>
