<svg width="48" height="48" viewBox="0 0 48 48" fill="none" xmlns="http://www.w3.org/2000/svg">
<rect width="48" height="48" fill="white"/>
<path d="M21.0785 11.6709H7.88574C6.22889 11.6709 4.88574 13.014 4.88574 14.6709V36.2808C4.88574 37.9376 6.22889 39.2808 7.88574 39.2808H38.2712C39.9281 39.2808 41.2712 37.9376 41.2712 36.2808V24.4758" stroke="#3C3C3B" stroke-width="2" stroke-linecap="round" stroke-linejoin="round"/>
<path d="M15.5752 43.041H30.5823" stroke="#3C3C3B" stroke-width="2" stroke-linecap="round" stroke-linejoin="round"/>
<path d="M20.8286 39.041L18.5786 43.166" stroke="#3C3C3B" stroke-width="2" stroke-linejoin="round"/>
<path d="M24.9575 39.041L27.2075 43.166" stroke="#3C3C3B" stroke-width="2" stroke-linejoin="round"/>
<path fill-rule="evenodd" clip-rule="evenodd" d="M43.5873 11.7776L38.5305 14.2393L42.1119 18.5774L36.794 16.7429L36.2601 22.3417L33.7993 17.2847L29.4612 20.8661L31.2957 15.5483L25.6969 15.0144L30.7539 12.5535L27.1725 8.21546L32.4904 10.0499L33.0234 4.45129L35.4851 9.5081L39.8231 5.9267L37.9887 11.2446L43.5873 11.7776Z" stroke="#FA3E34" stroke-width="2"/>
<path d="M4.5498 30.875H41.6072" stroke="#3C3C3B" stroke-width="2" stroke-linejoin="round"/>
<path d="M20.3599 34.875H25.7974" stroke="#3C3C3B" stroke-width="2" stroke-linecap="round" stroke-linejoin="round"/>
</svg>
