<svg width="48" height="48" viewBox="0 0 48 48" fill="none" xmlns="http://www.w3.org/2000/svg">
<path d="M14.0876 24.0001H25.0876" stroke="#3C3C3B" stroke-width="2" stroke-linecap="round"/>
<path d="M21.0876 11H32.0876" stroke="#3C3C3B" stroke-width="2" stroke-linecap="round"/>
<path d="M14.0876 29.0001H25.0876" stroke="#3C3C3B" stroke-width="2" stroke-linecap="round"/>
<path d="M15.6299 35.0001H23.1346V43.0001H15.6299V35.0001Z" fill="#FA3E34"/>
<path d="M31.1162 42H30.1162C30.1162 42.5523 30.5639 43 31.1162 43V42ZM16.0591 34.9663V33.9663C15.5068 33.9663 15.0591 34.414 15.0591 34.9663H16.0591ZM23.1448 34.9663H24.1448C24.1448 34.414 23.6971 33.9663 23.1448 33.9663V34.9663ZM22.1448 42C22.1448 42.5523 22.5925 43 23.1448 43C23.6971 43 24.1448 42.5523 24.1448 42H22.1448ZM13.0876 13C13.0876 13.5523 13.5354 14 14.0876 14C14.6399 14 15.0876 13.5523 15.0876 13H13.0876ZM38.0876 7V40H40.0876V7H38.0876ZM37.0876 41H31.1162V43H37.0876V41ZM32.1162 42V19.4022H30.1162V42H32.1162ZM32.1162 19.4022C32.1162 17.8756 30.8717 16.6301 29.3448 16.6301V18.6301C29.7664 18.6301 30.1162 18.9794 30.1162 19.4022H32.1162ZM29.3448 16.6301H9.85908V18.6301H29.3448V16.6301ZM9.85908 16.6301C8.33215 16.6301 7.08765 17.8756 7.08765 19.4022H9.08765C9.08765 18.9794 9.43743 18.6301 9.85908 18.6301V16.6301ZM7.08765 19.4022V40H9.08765V19.4022H7.08765ZM10.0876 43H15.671V41H10.0876V43ZM17.0591 41.6119V34.9663H15.0591V41.6119H17.0591ZM16.0591 35.9663H23.1448V33.9663H16.0591V35.9663ZM22.1448 34.9663V42H24.1448V34.9663H22.1448ZM7.08765 40C7.08765 41.6569 8.43079 43 10.0876 43V41C9.53536 41 9.08765 40.5523 9.08765 40H7.08765ZM38.0876 40C38.0876 40.5523 37.6399 41 37.0876 41V43C38.7445 43 40.0876 41.6569 40.0876 40H38.0876ZM15.671 43C16.4376 43 17.0591 42.3785 17.0591 41.6119H15.0591C15.0591 41.274 15.333 41 15.671 41V43ZM16.0876 6H37.0876V4H16.0876V6ZM13.0876 7V13H15.0876V7H13.0876ZM40.0876 7C40.0876 5.34315 38.7445 4 37.0876 4V6C37.6399 6 38.0876 6.44772 38.0876 7H40.0876ZM16.0876 4C14.4308 4 13.0876 5.34315 13.0876 7H15.0876C15.0876 6.44772 15.5354 6 16.0876 6V4Z" fill="#3C3C3B"/>
</svg>
