<svg width="48" height="49" viewBox="0 0 48 49" fill="none" xmlns="http://www.w3.org/2000/svg">
<rect x="4" y="9.86987" width="40" height="30" rx="3" stroke="#3C3C3B" stroke-width="2" stroke-miterlimit="10" stroke-linecap="round" stroke-linejoin="round"/>
<path d="M20.3763 28.7861C21.3951 29.8369 22 31.2403 22 32.8066V34.3343H10V32.8066C10 31.2403 10.6049 29.8369 11.6237 28.7861" stroke="#3C3C3B" stroke-width="2" stroke-miterlimit="10" stroke-linecap="round" stroke-linejoin="round"/>
<path d="M28 19.8699H37" stroke="#3C3C3B" stroke-width="2" stroke-miterlimit="10" stroke-linecap="round" stroke-linejoin="round"/>
<path d="M28 24.8699H37" stroke="#3C3C3B" stroke-width="2" stroke-miterlimit="10" stroke-linecap="round" stroke-linejoin="round"/>
<path d="M28 29.8699H32" stroke="#3C3C3B" stroke-width="2" stroke-miterlimit="10" stroke-linecap="round" stroke-linejoin="round"/>
<path d="M19.9915 20.4909C19.6334 20.7083 19.1462 20.7531 18.5498 20.591C17.9922 20.4394 17.4318 20.1925 16.9199 19.8761C15.9325 20.5421 14.7823 21.0154 13.69 21.1853C12.9462 21.301 12.349 21.3028 12.0085 21.0831V19.5729C12.0085 17.3685 13.7956 15.5814 16 15.5814C18.2045 15.5814 19.9915 17.3685 19.9915 19.5729V20.4909Z" fill="#FA3E34"/>
<path d="M16 25.5161C13.8047 25.5161 12.0085 23.8336 12.0085 21.7771V18.9914C12.0085 16.9349 13.8047 15.2523 16 15.2523C18.1954 15.2523 19.9915 16.9349 19.9915 18.9914V21.7771C19.9915 23.8336 18.1954 25.5161 16 25.5161Z" stroke="#3C3C3B" stroke-width="2" stroke-miterlimit="10" stroke-linecap="round" stroke-linejoin="round"/>
</svg>
