<svg width="48" height="48" viewBox="0 0 48 48" fill="none" xmlns="http://www.w3.org/2000/svg">
<path d="M21.4814 21.5432C21.5554 21.5246 21.6229 21.4861 21.6766 21.432L28.4636 14.6384C28.5026 14.5993 28.5489 14.5684 28.6 14.5473C28.651 14.5263 28.7057 14.5156 28.7608 14.5157H32.3718C32.4832 14.5157 32.59 14.56 32.6687 14.6387C32.7475 14.7175 32.7917 14.8243 32.7917 14.9356V18.5466C32.7905 18.6558 32.7465 18.7601 32.6691 18.8372L25.8754 25.6325C25.8212 25.6862 25.7826 25.7537 25.764 25.8277C25.7453 25.9017 25.7473 25.9794 25.7696 26.0524C25.9653 26.6668 26.0678 27.3071 26.0736 27.9519C26.0736 29.2806 25.6796 30.5795 24.9414 31.6843C24.2032 32.7891 23.154 33.6501 21.9264 34.1586C20.6989 34.6671 19.3481 34.8001 18.0449 34.5409C16.7417 34.2817 15.5447 33.6418 14.6051 32.7023C13.6656 31.7628 13.0258 30.5657 12.7665 29.2625C12.5073 27.9594 12.6404 26.6086 13.1488 25.381C13.6573 24.1534 14.5184 23.1042 15.6232 22.366C16.728 21.6278 18.0268 21.2338 19.3555 21.2338C20.0009 21.2398 20.6417 21.3423 21.2568 21.5378C21.3297 21.56 21.4074 21.5619 21.4814 21.5432Z" stroke="#3C3C3B" stroke-width="2" stroke-miterlimit="10" stroke-linecap="round" stroke-linejoin="round"/>
<circle cx="24" cy="24" r="20" stroke="#3C3C3B" stroke-width="2" stroke-miterlimit="10" stroke-linecap="round" stroke-linejoin="round"/>
<circle cx="19.4574" cy="27.8932" r="2.02428" fill="#FA3E34"/>
</svg>
