<svg width="48" height="48" viewBox="0 0 48 48" fill="none" xmlns="http://www.w3.org/2000/svg">
<path d="M21.2727 23.0909H35.8182" stroke="#3C3C3B" stroke-width="2" stroke-miterlimit="10" stroke-linecap="round" stroke-linejoin="round"/>
<path d="M32.1819 26.8182V23.8182" stroke="#3C3C3B" stroke-width="2" stroke-miterlimit="10" stroke-linecap="round" stroke-linejoin="round"/>
<path d="M27.7273 25.9091V23.8182" stroke="#3C3C3B" stroke-width="2" stroke-miterlimit="10" stroke-linecap="round" stroke-linejoin="round"/>
<path d="M24 44C12.9091 44 4 35.0909 4 24C4 12.9091 12.9091 4 24 4C35.0909 4 44 12.9091 44 24C44 35.0909 35.0909 44 24 44Z" stroke="#3C3C3B" stroke-width="2" stroke-miterlimit="10" stroke-linejoin="round"/>
<path d="M16.7273 27.6363C14.1819 27.6363 12.1819 25.6363 12.1819 23.0909C12.1819 20.5454 14.1819 18.5454 16.7273 18.5454C19.2728 18.5454 21.2728 20.5454 21.2728 23.0909C21.2728 25.6363 19.2728 27.6363 16.7273 27.6363Z" stroke="#3C3C3B" stroke-width="2" stroke-miterlimit="10" stroke-linejoin="round"/>
<path d="M16.7274 24.8637C15.7274 24.8637 14.9092 24.0455 14.9092 23.0455C14.9092 22.0455 15.7274 21.2273 16.7274 21.2273C17.7274 21.2273 18.5455 22.0455 18.5455 23.0455C18.5455 24.0455 17.7274 24.8637 16.7274 24.8637Z" fill="#FA3E34"/>
</svg>
