<svg width="48" height="48" viewBox="0 0 48 48" fill="none" xmlns="http://www.w3.org/2000/svg">
<path d="M38 10.5C39.7 10.5 41 11.8 41 13.5V42.5C41 44.2 39.7 45.5 38 45.5H10C8.3 45.5 7 44.2 7 42.5V13.5C7 11.8 8.3 10.5 10 10.5" stroke="#3C3C3B" stroke-width="2" stroke-miterlimit="10" stroke-linecap="round" stroke-linejoin="round"/>
<path d="M28.4 7.5C28.5 7.2 28.5 6.8 28.5 6.5C28.5 4 26.5 2 24 2C21.5 2 19.5 4 19.5 6.5C19.5 6.8 19.5 7.2 19.6 7.5H15V13.5H33V7.5H28.4Z" stroke="#3C3C3B" stroke-width="2" stroke-miterlimit="10" stroke-linejoin="round"/>
<path d="M17 35.4351L30.435 22" stroke="#FA3E34" stroke-width="2" stroke-miterlimit="10" stroke-linecap="round" stroke-linejoin="round"/>
<path d="M13 28.5C13 34.299 17.701 39 23.5 39C29.3 39 34 34.299 34 28.5C34 22.701 29.3 18 23.5 18C17.701 18 13 22.701 13 28.5" stroke="#FA3E34" stroke-width="2"/>
</svg>
