<svg width="48" height="48" viewBox="0 0 48 48" fill="none" xmlns="http://www.w3.org/2000/svg">
<path fill-rule="evenodd" clip-rule="evenodd" d="M25.4054 34.2292C25.4054 39.8784 29.985 44.458 35.6342 44.458C41.2844 44.458 45.863 39.8784 45.863 34.2292C45.863 28.58 41.2844 24.0004 35.6342 24.0004C29.985 24.0004 25.4054 28.58 25.4054 34.2292Z" fill="#FA3E34"/>
<path fill-rule="evenodd" clip-rule="evenodd" d="M36.0556 29.0128L37.4157 31.7688C37.4843 31.9071 37.616 32.004 37.7685 32.0258L40.8098 32.4679C41.1952 32.5234 41.3488 32.9971 41.07 33.2682L38.8693 35.4133C38.7583 35.5211 38.7093 35.6768 38.7343 35.8293L39.2548 38.8586C39.3201 39.2419 38.9173 39.5337 38.5732 39.3529L35.852 37.9232C35.7159 37.8513 35.5526 37.8513 35.4154 37.9232L32.6953 39.3529C32.3512 39.5337 31.9494 39.2419 32.0137 38.8586L32.5342 35.8293C32.5603 35.6768 32.5091 35.5211 32.3991 35.4133L30.1985 33.2682C29.9197 32.9971 30.0733 32.5234 30.4577 32.4679L33.4989 32.0258C33.6525 32.004 33.7842 31.9071 33.8539 31.7688L35.2139 29.0128C35.386 28.6644 35.8836 28.6644 36.0556 29.0128Z" fill="white"/>
<path fill-rule="evenodd" clip-rule="evenodd" d="M9.12366 12.7739C9.12366 12.7739 9.39643 3.78815 17.8659 3.54656C26.3344 3.30594 26.6071 13.1967 26.6071 13.1967C26.6071 13.1967 19.9711 12.621 17.7198 8.51289C17.7198 8.51289 14.5362 13.1967 9.12366 12.7739Z" fill="#FA3E34"/>
<path d="M13.3969 20.5004C14.2667 22.0764 15.9356 23.1446 17.8654 23.1446" stroke="#3C3C3B" stroke-width="2" stroke-linecap="round" stroke-linejoin="round"/>
<path fill-rule="evenodd" clip-rule="evenodd" d="M17.6124 27.8966V27.8966C12.7708 27.8966 8.84485 23.9716 8.84485 19.129V12.3098C8.84485 7.46718 12.7708 3.54224 17.6124 3.54224C22.455 3.54224 26.38 7.46718 26.38 12.3098V19.129C26.38 23.9716 22.455 27.8966 17.6124 27.8966Z" stroke="#3C3C3B" stroke-width="2" stroke-linecap="round" stroke-linejoin="round"/>
<path d="M24.4318 43.4839H3V40.2681C3 35.6603 5.0555 31.5318 8.30047 28.7515" stroke="#3C3C3B" stroke-width="2" stroke-linecap="round" stroke-linejoin="round"/>
</svg>
