<svg width="48" height="48" viewBox="0 0 48 48" fill="none" xmlns="http://www.w3.org/2000/svg">
<path d="M28.2014 13.5H19.7983V44H28.2014V13.5Z" fill="#FA3E34"/>
<path d="M43 22H5C3.9 22 3 21.0438 3 19.875V15.625C3 14.4562 3.9 13.5 5 13.5H43C44.1 13.5 45 14.4562 45 15.625V19.875C45 21.0438 44.1 22 43 22Z" stroke="#3C3C3B" stroke-width="2" stroke-miterlimit="10" stroke-linecap="round" stroke-linejoin="round"/>
<path d="M7 22V41.9953C7 43.0979 7.9 44 9 44H39C40.1 44 41 43.0979 41 41.9953V22" stroke="#3C3C3B" stroke-width="2" stroke-miterlimit="10" stroke-linecap="round" stroke-linejoin="round"/>
<path d="M18.1905 1.875C21.3592 1.875 23.9998 4.51562 23.9998 7.68436V13.4937H18.1905C15.0217 13.4937 12.3811 10.8531 12.3811 7.68436C12.3811 4.51562 15.0217 1.875 18.1905 1.875Z" stroke="#3C3C3B" stroke-width="2" stroke-miterlimit="10" stroke-linecap="round" stroke-linejoin="round"/>
<path d="M29.8094 1.875C26.6406 1.875 24 4.51562 24 7.68436V13.4937H29.8094C32.9781 13.4937 35.6187 10.8531 35.6187 7.68436C35.6187 4.51562 32.9781 1.875 29.8094 1.875Z" stroke="#3C3C3B" stroke-width="2" stroke-miterlimit="10" stroke-linecap="round" stroke-linejoin="round"/>
</svg>
