<svg width="48" height="48" viewBox="0 0 48 48" fill="none" xmlns="http://www.w3.org/2000/svg">
<path d="M31.8 31.3999V44.3999L24.1 40.0666L16.4 44.3999V31.3999" stroke="#3C3C3B" stroke-width="2" stroke-miterlimit="10" stroke-linejoin="round"/>
<path d="M40 19C40 21 37.7 22.6 36.9 24.4C36.1 26.2 36.7 29 35.3 30.4C33.9 31.8 31.2 31.3 29.3 32C27.6 32.7 26.1 35 24 35C22 35 20.4 32.7 18.6 31.9C16.8 31.1 14 31.7 12.6 30.3C11.2 28.9 11.7 26.2 11 24.3C10.3 22.6 8 21.1 8 19C8 17 10.3 15.4 11.1 13.6C11.9 11.8 11.3 9 12.7 7.6C14.1 6.2 16.8 6.7 18.7 6C20.4 5.3 22 3 24 3C26 3 27.6 5.3 29.4 6.1C31.2 6.9 34 6.3 35.4 7.7C36.8 9.1 36.3 11.8 37 13.7C37.7 15.4 40 17 40 19Z" stroke="#3C3C3B" stroke-width="2" stroke-miterlimit="10" stroke-linejoin="round"/>
<path d="M24.75 11.7926L26.45 15.2926C26.55 15.4926 26.75 15.5926 26.85 15.5926L30.75 16.1926C31.25 16.2926 31.45 16.8926 31.05 17.1926L28.25 19.8926C28.15 20.0926 28.05 20.2926 28.15 20.4926L28.85 24.2926C28.95 24.7926 28.45 25.1926 27.95 24.8926L24.45 23.0926C24.25 22.9926 24.05 22.9926 23.85 23.0926L20.35 24.8926C19.95 25.0926 19.45 24.7926 19.45 24.2926L20.15 20.4926C20.15 20.2926 20.15 20.0926 19.95 19.9926L17.15 17.2926C16.75 16.9926 16.95 16.3926 17.45 16.2926L21.35 15.6926C21.55 15.6926 21.75 15.4926 21.75 15.3926L23.45 11.8926C23.85 11.3926 24.45 11.3926 24.75 11.7926Z" fill="#FA3E34"/>
</svg>
