<svg width="48" height="48" viewBox="0 0 48 48" fill="none" xmlns="http://www.w3.org/2000/svg">
<path d="M33 30H15C15 25.6 18.6 22 23 22H25C29.4 22 33 25.6 33 30Z" fill="#FA3E34"/>
<path d="M46 35H2C2 37.8 4.2 40 7 40H41C43.8 40 46 37.8 46 35Z" stroke="#3C3C3B" stroke-width="2" stroke-miterlimit="10" stroke-linecap="round" stroke-linejoin="round"/>
<path d="M6 35V10C6 8.9 6.9 8 8 8H40C41.1 8 42 8.9 42 10V35" stroke="#3C3C3B" stroke-width="2" stroke-miterlimit="10" stroke-linecap="round" stroke-linejoin="round"/>
<path d="M24 23C21.2 23 19 20.8 19 18C19 15.2 21.2 13 24 13C26.8 13 29 15.2 29 18C29 20.7 26.8 23 24 23Z" fill="#FA3E34"/>
</svg>
