<svg width="48" height="48" viewBox="0 0 48 48" fill="none" xmlns="http://www.w3.org/2000/svg">
<path d="M9.82132 32.102V7.79567C9.82132 6.68163 10.7328 5.77014 11.8469 5.77014H44.2553C45.3694 5.77014 46.2809 6.68163 46.2809 7.79567V40.2042C46.2809 41.3182 45.3694 42.2297 44.2553 42.2297H5.77026" stroke="#3C3C3B" stroke-width="2" stroke-miterlimit="10" stroke-linecap="round" stroke-linejoin="round"/>
<path d="M24.0002 13.8726H16.9109V20.9619H24.0002V13.8726Z" fill="#FA3E34" stroke="#FA3E34" stroke-width="2" stroke-miterlimit="10" stroke-linecap="round" stroke-linejoin="round"/>
<path d="M30.0767 14.3789H40.2043" stroke="#3C3C3B" stroke-width="2" stroke-miterlimit="10" stroke-linecap="round" stroke-linejoin="round"/>
<path d="M30.0767 20.7592H40.2043" stroke="#3C3C3B" stroke-width="2" stroke-miterlimit="10" stroke-linecap="round" stroke-linejoin="round"/>
<path d="M16.9109 27.1395H40.2045" stroke="#3C3C3B" stroke-width="2" stroke-miterlimit="10" stroke-linecap="round" stroke-linejoin="round"/>
<path d="M16.9109 33.5199H40.2045" stroke="#3C3C3B" stroke-width="2" stroke-miterlimit="10" stroke-linecap="round" stroke-linejoin="round"/>
<path d="M9.82136 22.987V38.1785C9.82136 40.4066 7.99838 42.2296 5.7703 42.2296C3.54222 42.2296 1.71924 40.4066 1.71924 38.1785V19.9487H5.7703" stroke="#3C3C3B" stroke-width="2" stroke-miterlimit="10" stroke-linecap="round" stroke-linejoin="round"/>
</svg>
