<svg width="48" height="48" viewBox="0 0 48 48" fill="none" xmlns="http://www.w3.org/2000/svg">
<path d="M40.9234 27.5697C41.6327 26.8603 42.0312 25.8982 42.0312 24.895C42.0297 24.2259 41.8508 23.5692 41.5127 22.9919C41.1746 22.4146 40.6894 21.9373 40.1067 21.6086C40.3233 21.2089 40.4577 20.7698 40.5018 20.3173C40.546 19.8648 40.4991 19.408 40.3638 18.9739C40.2286 18.5398 40.0078 18.1372 39.7144 17.7899C39.421 17.4425 39.061 17.1574 38.6557 16.9515C39.0508 16.1479 39.1136 15.221 38.8304 14.3715C38.5473 13.522 37.9409 12.8181 37.1426 12.4124C37.3743 11.9417 37.4939 11.4239 37.4921 10.8993C37.4921 9.90981 37.0503 8.25151 34.0878 8.25H15.9313V25.3141C15.9312 25.4367 15.9609 25.5575 16.0178 25.6661C16.0747 25.7747 16.1572 25.8678 16.2581 25.9374C19.1405 27.9271 22.3617 32.4662 22.3617 36.621C22.333 37.3556 22.5727 38.0756 23.036 38.6464C23.4993 39.2172 24.1546 39.5998 24.8794 39.7228C26.3531 39.927 28.2384 39.0192 29.128 35.8418C29.4476 33.5885 29.1765 31.2909 28.3413 29.1738C28.3226 29.1171 28.3177 29.0567 28.3269 28.9977C28.336 28.9387 28.3591 28.8827 28.394 28.8343C28.429 28.7859 28.475 28.7464 28.5281 28.7192C28.5813 28.692 28.6401 28.6777 28.6998 28.6776H38.2486C39.2519 28.6776 40.214 28.279 40.9234 27.5697Z" fill="white" stroke="#3C3C3B" stroke-width="2" stroke-linecap="round" stroke-linejoin="round"/>
<path d="M5.96875 24.3247C5.96875 24.877 6.41647 25.3247 6.96875 25.3247H15.0938V8.24999H6.96875C6.41647 8.24999 5.96875 8.69771 5.96875 9.24999V24.3247Z" fill="#FA3E34"/>
<path d="M6.28125 24.3247C6.28125 24.877 6.72897 25.3247 7.28125 25.3247H15.7422V8.24999H7.28125C6.72897 8.24999 6.28125 8.69771 6.28125 9.24999V24.3247Z" stroke="#3C3C3B" stroke-width="2" stroke-linecap="round" stroke-linejoin="round"/>
</svg>
