<svg width="48" height="48" viewBox="0 0 48 48" fill="none" xmlns="http://www.w3.org/2000/svg">
<path d="M38 10.5C39.7 10.5 41 11.8 41 13.5V42.5C41 44.2 39.7 45.5 38 45.5H10C8.3 45.5 7 44.2 7 42.5V13.5C7 11.8 8.3 10.5 10 10.5" stroke="#3C3C3B" stroke-width="2" stroke-miterlimit="10" stroke-linecap="round" stroke-linejoin="round"/>
<path d="M19.675 20.0499H12.875V26.8499H19.675V20.0499Z" fill="#FA3E34"/>
<path d="M24 21.5H35" stroke="#3C3C3B" stroke-width="2" stroke-miterlimit="10" stroke-linecap="round" stroke-linejoin="round"/>
<path d="M19.675 30.5499H12.875V37.3499H19.675V30.5499Z" fill="#FA3E34"/>
<path d="M24 36.4H30.9" stroke="#3C3C3B" stroke-width="2" stroke-miterlimit="10" stroke-linecap="round" stroke-linejoin="round"/>
<path d="M28.4 7.5C28.5 7.2 28.5 6.8 28.5 6.5C28.5 4 26.5 2 24 2C21.5 2 19.5 4 19.5 6.5C19.5 6.8 19.5 7.2 19.6 7.5H15V13.5H33V7.5H28.4Z" stroke="#3C3C3B" stroke-width="2" stroke-miterlimit="10" stroke-linejoin="round"/>
<path d="M24 28.7H35" stroke="#3C3C3B" stroke-width="2" stroke-miterlimit="10" stroke-linecap="round" stroke-linejoin="round"/>
</svg>
