<svg width="48" height="49" viewBox="0 0 48 49" fill="none" xmlns="http://www.w3.org/2000/svg">
<rect x="16.8125" y="30.7974" width="27.1875" height="15.375" rx="2" fill="#FA3E34"/>
<path d="M21.2585 34.8989H23.8765C24.2652 34.8989 24.6282 34.9392 24.9655 35.0199C25.3102 35.0932 25.6072 35.2215 25.8565 35.4049C26.1132 35.5809 26.3149 35.8192 26.4615 36.1199C26.6082 36.4132 26.6815 36.7762 26.6815 37.2089C26.6815 37.6269 26.6045 37.9899 26.4505 38.2979C26.3039 38.6059 26.1022 38.8589 25.8455 39.0569C25.5889 39.2549 25.2919 39.4015 24.9545 39.4969C24.6172 39.5922 24.2579 39.6399 23.8765 39.6399H22.8755V42.0709H21.2585V34.8989ZM23.7775 38.3529C24.6502 38.3529 25.0865 37.9715 25.0865 37.2089C25.0865 36.8349 24.9765 36.5709 24.7565 36.4169C24.5365 36.2629 24.2102 36.1859 23.7775 36.1859H22.8755V38.3529H23.7775Z" fill="white"/>
<path d="M27.851 34.8988H29.798C30.3187 34.8988 30.7917 34.9685 31.217 35.1078C31.6423 35.2471 32.0053 35.4635 32.306 35.7568C32.6067 36.0428 32.8377 36.4095 32.999 36.8568C33.1677 37.3041 33.252 37.8358 33.252 38.4518C33.252 39.0678 33.1677 39.6031 32.999 40.0578C32.8377 40.5125 32.6067 40.8901 32.306 41.1908C32.0127 41.4841 31.6607 41.7041 31.25 41.8508C30.8393 41.9975 30.3847 42.0708 29.886 42.0708H27.851V34.8988ZM29.71 40.7618C29.9887 40.7618 30.2417 40.7215 30.469 40.6408C30.7037 40.5601 30.9017 40.4318 31.063 40.2558C31.2317 40.0725 31.36 39.8341 31.448 39.5408C31.5433 39.2475 31.591 38.8845 31.591 38.4518C31.591 38.0265 31.5433 37.6708 31.448 37.3848C31.36 37.0915 31.2317 36.8605 31.063 36.6918C30.9017 36.5158 30.7037 36.3911 30.469 36.3178C30.2417 36.2445 29.9887 36.2078 29.71 36.2078H29.479V40.7618H29.71Z" fill="white"/>
<path d="M34.824 34.8989H39.554V36.2629H36.441V37.9239H39.092V39.2879H36.441V42.0709H34.824V34.8989Z" fill="white"/>
<path d="M19.4643 3.86987V12.4681C19.4643 14.0922 18.2223 15.3342 16.5982 15.3342H8" stroke="#3C3C3B" stroke-width="2" stroke-miterlimit="10" stroke-linejoin="round"/>
<path d="M40.5 25.4935V6.73351C40.5 5.11078 39.2574 3.86987 37.6324 3.86987H19.4706L8 15.3244V43.0062C8 44.629 9.24265 45.8699 10.8676 45.8699H13.5569" stroke="#3C3C3B" stroke-width="2" stroke-miterlimit="10" stroke-linecap="round" stroke-linejoin="round"/>
</svg>
