<svg width="48" height="48" viewBox="0 0 48 48" fill="none" xmlns="http://www.w3.org/2000/svg">
<path d="M25.6797 42.6894C29.059 44.7545 33.377 44.3791 36.193 41.563L37.3195 40.4366C38.4459 39.3101 38.4459 37.6205 37.3195 36.4941L32.4383 31.4252C31.3119 30.2987 29.6222 30.2987 28.4958 31.4252C27.3694 32.5516 25.6797 32.5516 24.5533 31.4252L16.6683 23.5402C15.5419 22.4137 15.5419 20.7241 16.6683 19.5977C17.7947 18.4713 17.7947 16.7816 16.6683 15.6552L11.4117 10.5863C10.2852 9.45985 8.59559 9.45985 7.46917 10.5863L6.34274 11.7127C3.52668 14.5288 3.1512 18.8467 5.21632 22.226C10.6607 30.2987 17.607 37.245 25.6797 42.6894Z" stroke="#3C3C3B" stroke-width="2" stroke-miterlimit="10" stroke-linecap="round" stroke-linejoin="round"/>
<path d="M26.2205 11.9677C31.6041 11.9677 35.911 16.2746 35.911 21.6582" stroke="#FA3E34" stroke-width="2" stroke-miterlimit="10" stroke-linecap="round" stroke-linejoin="round"/>
<path d="M26.2205 4C36.1264 4 44.0942 11.9678 44.0942 21.6584" stroke="#FA3E34" stroke-width="2" stroke-miterlimit="10" stroke-linecap="round" stroke-linejoin="round"/>
</svg>
