<svg width="48" height="48" viewBox="0 0 48 48" fill="none" xmlns="http://www.w3.org/2000/svg">
<path d="M7.59375 40.4238L16.3125 27L21 31.6113L7.59375 40.4238Z" fill="#FA3E34"/>
<path d="M30.1228 26.2671L30.1611 26.3053L36.5922 19.8765L41.3351 20.5518C41.8323 20.6214 42.3389 20.533 42.7832 20.2991C43.2274 20.0651 43.5869 19.6975 43.8109 19.2481C44.0348 18.7987 44.1119 18.2903 44.0312 17.7947C43.9504 17.2992 43.716 16.8415 43.361 16.4864L31.5117 4.6304C31.1566 4.2754 30.699 4.04097 30.2034 3.96024C29.7078 3.87951 29.1994 3.95656 28.7501 4.18051C28.3007 4.40446 27.933 4.76397 27.6991 5.20824C27.4652 5.65251 27.3768 6.15906 27.4464 6.6563L28.1217 11.3992L21.6951 17.8371L21.7333 17.8753C16.1666 14.5011 10.2082 14.0779 6.94873 17.3351L30.6653 41.0629C33.9225 37.7922 33.5106 31.8338 30.1228 26.2671Z" stroke="#3C3C3B" stroke-width="2" stroke-linecap="round" stroke-linejoin="round"/>
<path d="M16.2696 26.8701L6.9375 41.0629L21.1303 31.7308" stroke="#3C3C3B" stroke-width="2" stroke-linecap="round" stroke-linejoin="round"/>
</svg>
