<svg width="48" height="49" viewBox="0 0 48 49" fill="none" xmlns="http://www.w3.org/2000/svg">
<path d="M11.271 6.68237H36.7293V15.6824H11.271V6.68237Z" fill="#FA3E34"/>
<path d="M33.7915 20.9532H35.7498" stroke="#3C3C3B" stroke-width="1.99731" stroke-miterlimit="10" stroke-linecap="round" stroke-linejoin="round"/>
<path d="M36.7291 15.0574V8.22408C36.7291 7.7047 36.5228 7.20659 36.1555 6.83933C35.7882 6.47207 35.2901 6.26575 34.7708 6.26575H13.2291C12.7097 6.26575 12.2116 6.47207 11.8443 6.83933C11.4771 7.20659 11.2708 7.7047 11.2708 8.22408V15.0574" stroke="#3C3C3B" stroke-width="1.99731" stroke-miterlimit="10" stroke-linecap="round" stroke-linejoin="round"/>
<path d="M11.2708 25.849V41.5157C11.2708 42.035 11.4771 42.5332 11.8443 42.9004C12.2116 43.2677 12.7097 43.474 13.2291 43.474H34.7708C35.2901 43.474 35.7882 43.2677 36.1555 42.9004C36.5228 42.5332 36.7291 42.035 36.7291 41.5157V25.849" stroke="#3C3C3B" stroke-width="1.99731" stroke-miterlimit="10" stroke-linecap="round" stroke-linejoin="round"/>
<path d="M10.8124 31.1816H8.42215C7.72237 31.1816 7.0019 31.0297 6.51204 30.5299C6.28533 30.2986 6.0873 30.0391 5.92334 29.7566C5.57962 29.1643 5.39767 28.4921 5.39575 27.8074V18.974C5.39575 17.9353 5.8084 16.9391 6.54292 16.2045C7.27743 15.47 8.27365 15.0574 9.31242 15.0574H38.6874C39.7262 15.0574 40.7224 15.47 41.4569 16.2045C42.1914 16.9391 42.6041 17.9353 42.6041 18.974V27.8074C42.6022 28.4921 42.4202 29.1643 42.0765 29.7566C41.9125 30.0391 41.7145 30.2986 41.4878 30.5299C40.9979 31.0297 40.2775 31.1816 39.5777 31.1816H37.0624" stroke="#3C3C3B" stroke-width="1.99731" stroke-miterlimit="10" stroke-linecap="round" stroke-linejoin="round"/>
<path d="M9.3125 25.849H38.6875" stroke="#3C3C3B" stroke-width="1.99731" stroke-miterlimit="10" stroke-linecap="round" stroke-linejoin="round"/>
<path d="M17.1458 37.599H26.9374" stroke="#3C3C3B" stroke-width="1.99731" stroke-miterlimit="10" stroke-linecap="round" stroke-linejoin="round"/>
<path d="M17.1458 31.724H30.8541" stroke="#3C3C3B" stroke-width="1.99731" stroke-miterlimit="10" stroke-linecap="round" stroke-linejoin="round"/>
</svg>
