<svg width="48" height="48" viewBox="0 0 48 48" fill="none" xmlns="http://www.w3.org/2000/svg">
<path d="M33.9796 40.7582L33.0304 36.8751C32.5989 35.063 30.9594 33.855 29.1473 33.855H19.9143C18.1022 33.855 15.9225 35.1493 15.491 36.8751L14.4031 41.4155C14.4031 41.4155 17.9296 43.0017 24.574 43.3469C31.2183 43.692 33.9796 40.7582 33.9796 40.7582Z" fill="#FA3E34"/>
<path d="M19.8196 19C21.8906 19 23.5696 17.3211 23.5696 15.25C23.5696 13.1789 21.8906 11.5 19.8196 11.5C17.7485 11.5 16.0696 13.1789 16.0696 15.25C16.0696 17.3211 17.7485 19 19.8196 19Z" fill="white" stroke="#3C3C3B" stroke-width="2" stroke-miterlimit="10" stroke-linecap="round" stroke-linejoin="round"/>
<path d="M24 44C12.9091 44 4 35.0909 4 24C4 12.9091 12.9091 4 24 4C35.0909 4 44 12.9091 44 24C44 35.0909 35.0909 44 24 44Z" stroke="#3C3C3B" stroke-width="2" stroke-miterlimit="10" stroke-linecap="round" stroke-linejoin="round"/>
<path d="M33.9797 41.2474L32.9804 37.1593C32.5262 35.2515 30.8001 33.9796 28.8923 33.9796H19.1717C17.2639 33.9796 15.5378 35.3423 15.0835 37.1593L14.0842 41.2474" stroke="#3C3C3B" stroke-width="2" stroke-miterlimit="10" stroke-linecap="round" stroke-linejoin="round"/>
<path d="M23.9866 35.7965C22.9873 35.7965 22.1697 34.9789 22.1697 33.9795V27.6202H25.8036V33.9795C25.8036 34.9789 24.9859 35.7965 23.9866 35.7965Z" fill="white" stroke="#3C3C3B" stroke-width="2" stroke-miterlimit="10" stroke-linecap="round" stroke-linejoin="round"/>
<path d="M23.9865 31.2541C20.4435 31.2541 17.6272 28.4379 17.6272 24.8948V20.3525C17.6272 16.8094 20.4435 13.9932 23.9865 13.9932C27.5295 13.9932 30.3458 16.8094 30.3458 20.3525V24.8948C30.3458 28.4379 27.5295 31.2541 23.9865 31.2541Z" fill="white" stroke="#3C3C3B" stroke-width="2" stroke-miterlimit="10" stroke-linecap="round" stroke-linejoin="round"/>
<path d="M21.2607 21.2608C23.6092 21.1738 26.3926 20.565 29.437 17.6946L21.2607 21.2608Z" fill="white"/>
<path d="M21.2607 21.2608C23.6092 21.1738 26.3926 20.565 29.437 17.6946" stroke="#3C3C3B" stroke-width="2" stroke-miterlimit="10" stroke-linecap="round" stroke-linejoin="round"/>
</svg>
