<svg width="48" height="48" viewBox="0 0 48 48" fill="none" xmlns="http://www.w3.org/2000/svg">
<path d="M35.5624 40.2511L35.8181 38.4044C35.8181 35.4906 33.3808 33.0909 30.4211 33.0909H18.5826C15.6229 33.0909 12.3333 35.4906 12.3333 38.4044V40.2511C12.3333 40.2511 18.3753 43.9675 24.4687 43.9675C29.1693 43.9675 35.5624 40.2511 35.5624 40.2511Z" fill="#FA3E34"/>
<path d="M24 44C12.9091 44 4 35.0909 4 24C4 12.9091 12.9091 4 24 4C35.0909 4 44 12.9091 44 24C44 35 35.0909 44 24 44Z" stroke="#3C3C3B" stroke-width="2" stroke-miterlimit="10" stroke-linecap="round" stroke-linejoin="round"/>
<path d="M35.8182 39.4546V38.7273C35.8182 35.6364 33.2728 33.0909 30.1819 33.0909H17.8182C14.7273 33.0909 12.1819 35.6364 12.1819 38.7273V39.4546" stroke="#3C3C3B" stroke-width="2" stroke-miterlimit="10" stroke-linecap="round" stroke-linejoin="round"/>
<path d="M24 36.7274C22.4545 36.7274 21.2727 35.5455 21.2727 34.0001V28.5455H26.7273V34.0001C26.7273 35.5455 25.5454 36.7274 24 36.7274Z" fill="white" stroke="#3C3C3B" stroke-width="2" stroke-miterlimit="10" stroke-linecap="round" stroke-linejoin="round"/>
<path d="M24.0001 31.2727C20.4547 31.2727 17.6365 28.4545 17.6365 24.9091V20.3636C17.6365 16.8182 20.4547 14 24.0001 14C27.5456 14 30.3637 16.8182 30.3637 20.3636V24.9091C30.3637 28.4545 27.5456 31.2727 24.0001 31.2727Z" fill="white" stroke="#3C3C3B" stroke-width="2" stroke-miterlimit="10" stroke-linecap="round" stroke-linejoin="round"/>
<path d="M17.2727 20.6364C19.2727 20.6364 21 19.8182 22.2727 18.4546C23.5454 19.8182 25.3636 20.6364 27.2727 20.6364C28.3636 20.6364 29.4545 20.3637 30.4545 19.9091" stroke="#3C3C3B" stroke-width="2" stroke-miterlimit="10" stroke-linejoin="round"/>
</svg>
