<svg width="48" height="48" viewBox="0 0 48 48" fill="none" xmlns="http://www.w3.org/2000/svg">
<path d="M23.5988 14.7104L19.8801 15.3042C19.8801 14.2417 19.6863 13.4292 20.7863 10.9292C22.1613 7.8042 25.9426 6.86675 28.5051 7.11675C30.5551 7.31675 31.9113 8.53346 32.7863 9.55429L34.2863 11.648L34.6613 15.1479L31.6613 14.2417L28.6613 12.2104L26.6926 13.5229L23.5988 14.7104Z" fill="#FA3E34"/>
<path d="M38.3933 34.2124C42.3125 34.7756 45.5129 32.8647 45.5129 29.9688C45.5129 27.0728 42.3933 24.0874 38.3933 22.7251" stroke="#3C3C3B" stroke-width="2" stroke-miterlimit="10" stroke-linecap="round" stroke-linejoin="round"/>
<rect x="14.6433" y="19" width="23.75" height="18.8252" rx="2" stroke="#3C3C3B" stroke-width="2" stroke-miterlimit="10" stroke-linecap="round" stroke-linejoin="round"/>
<path d="M20.3662 15.209L21.7422 15.1738C24.2991 15.1063 26.7659 14.0705 28.6066 12.3075C29.6974 13.355 31.0081 14.1555 32.431 14.6394L34.386 15.3043" stroke="#3C3C3B" stroke-width="2" stroke-miterlimit="10" stroke-linecap="round" stroke-linejoin="round"/>
<path d="M20 18.5513V14.5477C20 10.499 23.2827 7.21704 27.3306 7.21704C31.3793 7.21704 34.6613 10.499 34.6613 14.5477V18.5513" stroke="#3C3C3B" stroke-width="2" stroke-miterlimit="10" stroke-linecap="round" stroke-linejoin="round"/>
<circle cx="26.5183" cy="28.625" r="2.09937" stroke="#3C3C3B" stroke-width="2" stroke-miterlimit="10" stroke-linecap="round" stroke-linejoin="round"/>
<path d="M14.1433 35.5874L10.7527 35.5874" stroke="#3C3C3B" stroke-width="2" stroke-miterlimit="10" stroke-linecap="round" stroke-linejoin="round"/>
<path d="M38.8933 29.125H39.6433" stroke="#3C3C3B" stroke-width="2" stroke-miterlimit="10" stroke-linecap="round" stroke-linejoin="round"/>
<path d="M14.1433 25.7124C11.2371 25.7124 7.36206 29.3374 7.36206 32.0178" stroke="#3C3C3B" stroke-width="2" stroke-miterlimit="10" stroke-linecap="round" stroke-linejoin="round"/>
<path d="M7.36206 32.0562C6.12692 32.0562 5.05587 32.9997 4.52667 34.3795C4.13111 35.4108 5.06999 36.3374 6.17456 36.3374H8.54956C9.65413 36.3374 10.593 35.4108 10.1975 34.3795C9.66825 32.9997 8.5972 32.0562 7.36206 32.0562Z" stroke="#3C3C3B" stroke-width="2" stroke-miterlimit="10" stroke-linecap="round" stroke-linejoin="round"/>
</svg>
