<svg width="48" height="48" viewBox="0 0 48 48" fill="none" xmlns="http://www.w3.org/2000/svg">
<path d="M46 11.5V36.5C46 38.2 44.7 39.5 43 39.5H5C3.3 39.5 2 38.2 2 36.5V11.5C2 9.8 3.3 8.5 5 8.5H43C44.7 8.5 46 9.8 46 11.5Z" stroke="#3C3C3B" stroke-width="2" stroke-miterlimit="10" stroke-linecap="round" stroke-linejoin="round"/>
<path d="M26 17.5H39" stroke="#3C3C3B" stroke-width="2" stroke-miterlimit="10" stroke-linecap="round" stroke-linejoin="round"/>
<path d="M26 23.5H35" stroke="#3C3C3B" stroke-width="2" stroke-miterlimit="10" stroke-linecap="round" stroke-linejoin="round"/>
<path d="M26 29.5H39" stroke="#3C3C3B" stroke-width="2" stroke-miterlimit="10" stroke-linecap="round" stroke-linejoin="round"/>
<path d="M15.0499 24.4498H14.7499C11.2499 24.4498 8.34985 27.3498 8.34985 30.8498H21.4499C21.4499 27.3498 18.5499 24.4498 15.0499 24.4498Z" fill="#FA3E34"/>
<path d="M14.8497 25.85C12.4497 25.85 10.4497 23.85 10.4497 21.45V20.75C10.4497 18.35 12.4497 16.35 14.8497 16.35C17.2497 16.35 19.2497 18.35 19.2497 20.75V21.45C19.2497 23.85 17.2497 25.85 14.8497 25.85Z" fill="#FA3E34"/>
</svg>
