<svg width="48" height="48" viewBox="0 0 48 48" fill="none" xmlns="http://www.w3.org/2000/svg">
<path d="M10.8409 16.5L3.25586 3.375H20.2159L28.6534 17.4375" stroke="#3C3C3B" stroke-width="2" stroke-miterlimit="10" stroke-linecap="round" stroke-linejoin="round"/>
<path d="M33.5293 20.0351L43.652 3.375H26.7783L23.4971 8.76562" stroke="#3C3C3B" stroke-width="2" stroke-miterlimit="10" stroke-linecap="round" stroke-linejoin="round"/>
<path d="M23.0283 44.6249C30.7948 44.6249 37.0908 38.3289 37.0908 30.5624C37.0908 22.7959 30.7948 16.4999 23.0283 16.4999C15.2618 16.4999 8.96582 22.7959 8.96582 30.5624C8.96582 38.3289 15.2618 44.6249 23.0283 44.6249Z" stroke="#3C3C3B" stroke-width="2" stroke-miterlimit="10" stroke-linecap="round" stroke-linejoin="round"/>
<path fill-rule="evenodd" clip-rule="evenodd" d="M32.4033 30.5627C32.4033 35.7404 28.206 39.9377 23.0283 39.9377C17.8507 39.9377 13.6533 35.7404 13.6533 30.5627C13.6533 25.3851 17.8507 21.1877 23.0283 21.1877C28.206 21.1877 32.4033 25.3851 32.4033 30.5627ZM24.544 28.4517L23.4072 26.0782C23.2178 25.7934 22.8389 25.7934 22.6494 26.1732L21.5127 28.5466C21.5127 28.6416 21.3232 28.7365 21.2285 28.7365L18.6709 29.1163C18.3867 29.1163 18.1972 29.591 18.4814 29.7808L20.376 31.5847C20.4707 31.6796 20.4707 31.8695 20.4707 31.9644L19.997 34.5277C19.9023 34.8126 20.2812 35.0974 20.5654 34.9075L22.8389 33.6733C22.9336 33.5784 23.1231 33.5784 23.2178 33.6733L25.4912 34.8126C25.7754 35.0024 26.1543 34.7176 26.0596 34.4328L25.586 31.8695V31.8695C25.586 31.6796 25.586 31.5847 25.6807 31.4897L27.5753 29.6859C27.8594 29.496 27.67 29.1163 27.3858 29.0213L24.8282 28.6416C24.7334 28.6416 24.6387 28.5466 24.544 28.4517L24.544 28.4517Z" fill="#FA3E34"/>
</svg>
