<svg width="48" height="48" viewBox="0 0 48 48" fill="none" xmlns="http://www.w3.org/2000/svg">
<path d="M20.0469 13.0045L16.0938 13.6357C16.0938 12.5063 15.8879 11.6426 17.0572 8.98505C18.5188 5.66317 22.5383 4.66665 25.2622 4.9324C27.4414 5.145 28.883 6.43837 29.8132 7.52352L31.4077 9.74909L31.8063 13.4696L28.6173 12.5063L25.4283 10.347L23.3355 11.7422L20.0469 13.0045Z" fill="#FA3E34"/>
<path d="M16.616 13.3705L18.0786 13.3331C20.7966 13.2614 23.4188 12.1603 25.3755 10.2863C26.535 11.3998 27.9283 12.2507 29.4409 12.765L31.5191 13.4718" stroke="#3C3C3B" stroke-width="2" stroke-miterlimit="10" stroke-linecap="round" stroke-linejoin="round"/>
<path d="M16.2271 16.9234V12.6675C16.2271 8.3637 19.7165 4.875 24.0195 4.875C28.3233 4.875 31.812 8.3637 31.812 12.6675V16.9234" stroke="#3C3C3B" stroke-width="2" stroke-miterlimit="10" stroke-linecap="round" stroke-linejoin="round"/>
<path d="M5.58691 33.238V40.2777C9.03359 39.0788 17.5454 37.9699 24.0192 43.1249V21.331C17.5454 16.176 9.03359 17.2849 5.58691 18.4838V25.8609" stroke="#3C3C3B" stroke-width="2" stroke-miterlimit="10" stroke-linecap="round" stroke-linejoin="round"/>
<path d="M42.413 25.8806V18.4838C38.9663 17.2849 30.4545 16.176 23.9807 21.331V43.1249C30.4545 37.9699 38.9663 39.0788 42.413 40.2777V33.3576" stroke="#3C3C3B" stroke-width="2" stroke-miterlimit="10" stroke-linecap="round" stroke-linejoin="round"/>
<rect x="3.11548" y="25.9934" width="4.94524" height="7.26449" rx="2.47262" stroke="#3C3C3B" stroke-width="2" stroke-miterlimit="10" stroke-linecap="round" stroke-linejoin="round"/>
<rect x="39.9397" y="25.9934" width="4.94524" height="7.26449" rx="2.47262" stroke="#3C3C3B" stroke-width="2" stroke-miterlimit="10" stroke-linecap="round" stroke-linejoin="round"/>
</svg>
