<svg width="48" height="48" viewBox="0 0 48 48" fill="none" xmlns="http://www.w3.org/2000/svg">
<path d="M17.0537 14.0005L18.4297 13.9653C20.9866 13.8978 23.4534 12.862 25.2941 11.099C26.3849 12.1465 27.6956 12.9471 29.1185 13.4309L31.0735 14.0958" stroke="#3C3C3B" stroke-width="2" stroke-miterlimit="10" stroke-linecap="round" stroke-linejoin="round"/>
<path d="M16.6877 17.3428V13.3391C16.6877 11.0217 17.3211 9.34333 19 8M31.349 17.3428V13.3391C31.349 11.0217 30.6788 9.34333 29 8" stroke="#3C3C3B" stroke-width="2" stroke-miterlimit="10" stroke-linecap="round" stroke-linejoin="round"/>
<path d="M6.67822 32.6904V39.3128C9.92062 38.185 17.9279 37.1418 24.018 41.9913V21.4891C17.9279 16.6396 9.92062 17.6828 6.67822 18.8106V25.7505" stroke="#3C3C3B" stroke-width="2" stroke-miterlimit="10" stroke-linecap="round" stroke-linejoin="round"/>
<path d="M41.3217 25.769V18.8106C38.0793 17.6828 30.072 16.6396 23.9819 21.4891V41.9913C30.072 37.1418 38.0793 38.185 41.3217 39.3128V32.8029" stroke="#3C3C3B" stroke-width="2" stroke-miterlimit="10" stroke-linecap="round" stroke-linejoin="round"/>
<rect x="4.35327" y="25.8751" width="4.65213" height="6.83392" rx="2.32607" stroke="#3C3C3B" stroke-width="2" stroke-miterlimit="10" stroke-linecap="round" stroke-linejoin="round"/>
<rect x="38.9949" y="25.8751" width="4.65213" height="6.83392" rx="2.32607" stroke="#3C3C3B" stroke-width="2" stroke-miterlimit="10" stroke-linecap="round" stroke-linejoin="round"/>
<path d="M24.2751 2.07817C24.4231 2.04403 24.5769 2.04403 24.7249 2.07817L35.3304 4.52561C36.3639 4.76411 36.3639 6.23589 35.3304 6.47439L24.7249 8.92183C24.5769 8.95597 24.4231 8.95597 24.2751 8.92183L13.6696 6.47439C12.6361 6.23589 12.6361 4.76411 13.6696 4.52561L24.2751 2.07817Z" fill="#EA1106" stroke="#3C3C3B" stroke-width="2" stroke-linecap="round" stroke-linejoin="round"/>
<path d="M36 6L36 11" stroke="#3C3C3B" stroke-width="2" stroke-linecap="round" stroke-linejoin="round"/>
</svg>
