<svg width="48" height="48" viewBox="0 0 48 48" fill="none" xmlns="http://www.w3.org/2000/svg">
<path d="M45.2935 36.6598C45.2935 40.0676 40.7832 42.7738 35.2705 42.7738C29.7579 42.7738 25.2476 40.0676 25.2476 36.6598V31.3477H45.2935V36.6598Z" stroke="#3C3C3B" stroke-width="2" stroke-miterlimit="10" stroke-linecap="round" stroke-linejoin="round"/>
<path d="M18.9834 32.4C18.9834 31.8989 18.4822 31.3977 17.9811 31.3977C17.3797 31.3977 16.9788 31.8989 16.9788 32.4V33.1016L13.7714 35.5071C13.4708 35.1062 12.9696 35.006 12.5687 35.2064C12.0675 35.4069 11.8671 36.0083 12.0675 36.5094L15.1747 43.5255C15.2749 43.8262 15.5756 44.0266 15.8763 44.1269C15.9765 44.1269 15.9765 44.1269 16.0767 44.1269C16.3774 44.1269 16.5779 44.0266 16.7783 43.8262L18.7829 41.8216C18.9834 41.6211 19.0836 41.4207 19.0836 41.12L18.9834 32.4Z" fill="#FA3E34"/>
<path d="M4.65069 26.687L13.2704 26.7872L9.26125 33.7031L2.24518 30.596C1.94449 30.4957 1.74403 30.195 1.6438 29.8944C1.6438 29.4934 1.74403 29.1928 1.94449 28.9923L3.94908 26.9877C4.14954 26.7872 4.35 26.687 4.65069 26.687Z" fill="#FA3E34"/>
<path d="M45.2935 26.136V31.4482C45.2935 34.856 40.7832 37.5622 35.2705 37.5622C29.7579 37.5622 25.2476 34.856 25.2476 31.4482V26.136" fill="#FA3E34"/>
<path d="M45.2935 26.136V31.4482C45.2935 34.856 40.7832 37.5622 35.2705 37.5622C29.7579 37.5622 25.2476 34.856 25.2476 31.4482V26.136" stroke="#3C3C3B" stroke-width="2" stroke-miterlimit="10" stroke-linecap="round" stroke-linejoin="round"/>
<path d="M19.8352 31.047C18.432 32.0493 17.0288 32.9514 15.5253 33.8534L6.10376 39.1656L11.4159 29.744C13.3203 26.3362 15.7258 23.2291 18.432 20.4226L30.1589 8.69577C31.8628 6.99187 33.9676 5.88934 36.2729 5.38819C38.4779 4.88705 40.3823 6.89164 39.8812 8.99646C39.38 11.3017 38.1772 13.4066 36.5736 15.0102" stroke="#3C3C3B" stroke-width="2" stroke-miterlimit="10" stroke-linecap="round" stroke-linejoin="round"/>
<path d="M3.89893 10.9009L18.2318 20.6232L26.2501 12.6048L7.50719 7.19238L3.89893 10.9009Z" stroke="#3C3C3B" stroke-width="2" stroke-miterlimit="10" stroke-linecap="round" stroke-linejoin="round"/>
<path d="M35.2705 32.2499C40.8061 32.2499 45.2935 29.5125 45.2935 26.1359C45.2935 22.7592 40.8061 20.0219 35.2705 20.0219C29.735 20.0219 25.2476 22.7592 25.2476 26.1359C25.2476 29.5125 29.735 32.2499 35.2705 32.2499Z" fill="white" stroke="#3C3C3B" stroke-width="2" stroke-miterlimit="10" stroke-linecap="round" stroke-linejoin="round"/>
</svg>
