<svg width="48" height="48" viewBox="0 0 48 48" fill="none" xmlns="http://www.w3.org/2000/svg">
<path d="M17.0537 14.0005L18.4297 13.9653C20.9866 13.8978 23.4534 12.862 25.2941 11.099C26.3849 12.1465 27.6956 12.9471 29.1185 13.4309L31.0735 14.0958" stroke="#3C3C3B" stroke-width="2" stroke-miterlimit="10" stroke-linecap="round" stroke-linejoin="round"/>
<path d="M16.6877 17.3428V13.3392C16.6877 9.29047 19.9704 6.00854 24.0184 6.00854C28.0671 6.00854 31.349 9.29047 31.349 13.3392V17.3428" stroke="#3C3C3B" stroke-width="2" stroke-miterlimit="10" stroke-linecap="round" stroke-linejoin="round"/>
<path d="M6.67822 32.6905V39.3129C9.92062 38.1851 17.9279 37.1419 24.018 41.9914V21.4892C17.9279 16.6398 9.92062 17.683 6.67822 18.8107V25.7506" stroke="#3C3C3B" stroke-width="2" stroke-miterlimit="10" stroke-linecap="round" stroke-linejoin="round"/>
<path d="M41.3217 25.7691V18.8107C38.0793 17.683 30.072 16.6398 23.9819 21.4892V41.9914C30.072 37.1419 38.0793 38.1851 41.3217 39.3129V32.803" stroke="#3C3C3B" stroke-width="2" stroke-miterlimit="10" stroke-linecap="round" stroke-linejoin="round"/>
<rect x="4.35327" y="25.8752" width="4.65213" height="6.83392" rx="2.32607" stroke="#3C3C3B" stroke-width="2" stroke-miterlimit="10" stroke-linecap="round" stroke-linejoin="round"/>
<rect x="38.9949" y="25.8752" width="4.65213" height="6.83392" rx="2.32607" stroke="#3C3C3B" stroke-width="2" stroke-miterlimit="10" stroke-linecap="round" stroke-linejoin="round"/>
<circle cx="37.5" cy="32.5" r="10.5" fill="#FA3E34"/>
<path d="M40.9587 29.63C40.9587 27.9181 39.6252 26.6027 37.4268 26.6027C35.3784 26.6027 34.1452 27.752 33.8423 29.4867C33.7581 29.9686 34.1654 30.3688 34.6546 30.3688C35.1344 30.3688 35.5074 29.9804 35.6223 29.5145C35.8332 28.6586 36.3748 28.1163 37.4268 28.1163C38.6161 28.1163 39.2107 28.8371 39.2107 29.7561C39.2107 31.7923 36.3646 31.2044 36.4186 33.9794C36.4186 34.2076 36.6036 34.3926 36.8318 34.3926H37.483C37.7112 34.3926 37.8962 34.2076 37.8962 33.9794C37.9143 32.1054 40.9587 32.6212 40.9587 29.63ZM36.0063 36.6648C36.0063 37.2619 36.4903 37.7459 37.0875 37.7459C37.6846 37.7459 38.1686 37.2619 38.1686 36.6648C38.1686 36.0676 37.6846 35.5836 37.0875 35.5836C36.4903 35.5836 36.0063 36.0676 36.0063 36.6648Z" fill="white"/>
</svg>
