<svg width="48" height="48" viewBox="0 0 48 48" fill="none" xmlns="http://www.w3.org/2000/svg">
<path d="M13.0939 19.5566C13.0939 18.4521 13.9893 17.5566 15.0939 17.5566H36C37.1046 17.5566 38 18.4521 38 19.5566V32.2102C38 36.6285 34.4183 40.2102 30 40.2102H21.0939C16.6756 40.2102 13.0939 36.6285 13.0939 32.2102V19.5566Z" stroke="#3C3C3B" stroke-width="2" stroke-miterlimit="10" stroke-linecap="round" stroke-linejoin="round"/>
<path d="M12.7184 24.1506H11.0772C9.11891 24.1506 7.53137 25.7382 7.53137 27.6965V27.6965C7.53137 29.6548 9.11891 31.2424 11.0772 31.2424H12.7184" stroke="#3C3C3B" stroke-width="2" stroke-miterlimit="10" stroke-linecap="round" stroke-linejoin="round"/>
<path d="M27.4375 4.31201L28.4198 5.27694C29.3552 6.24428 29.1404 7.83157 27.9816 8.51558C26.7549 9.23974 26.602 10.9547 27.6813 11.8844L28.4198 12.5256" stroke="#3C3C3B" stroke-width="2" stroke-miterlimit="10" stroke-linecap="round" stroke-linejoin="round"/>
<path d="M22.5313 4.31201L23.5136 5.27694C24.4489 6.24428 24.2341 7.83157 23.0754 8.51558C21.8486 9.23974 21.6958 10.9547 22.7751 11.8844L23.5136 12.5256" stroke="#3C3C3B" stroke-width="2" stroke-miterlimit="10" stroke-linecap="round" stroke-linejoin="round"/>
<path d="M29.9792 26.1225C29.7738 25.7077 29.4592 25.3567 29.0692 25.1073C28.6793 24.8579 28.2287 24.7194 27.766 24.7069C27.4013 24.7021 27.0395 24.7722 26.703 24.913C26.3665 25.0538 26.0625 25.2623 25.81 25.5255L25.6567 25.6787C25.6399 25.6956 25.6199 25.709 25.5979 25.7182C25.5759 25.7273 25.5523 25.732 25.5285 25.732C25.5047 25.732 25.4811 25.7273 25.4591 25.7182C25.4371 25.709 25.4171 25.6956 25.4003 25.6787L25.2471 25.5255C24.9944 25.2623 24.6903 25.0538 24.3537 24.913C24.0171 24.7722 23.6551 24.702 23.2903 24.7069C22.7912 24.7222 22.3074 24.8831 21.8985 25.1697C21.4896 25.4563 21.1734 25.8562 20.9888 26.3201C20.8041 26.784 20.759 27.2918 20.8591 27.781C20.9592 28.2702 21.2001 28.7195 21.5522 29.0737L25.2659 32.9479C25.2999 32.9834 25.3406 33.0117 25.3857 33.031C25.4309 33.0503 25.4794 33.0602 25.5285 33.0602C25.5776 33.0602 25.6262 33.0503 25.6713 33.031C25.7164 33.0117 25.7572 32.9834 25.7911 32.9479L29.4998 29.0787C29.88 28.6987 30.1309 28.2087 30.2169 27.6781C30.303 27.1475 30.2198 26.6032 29.9792 26.1225V26.1225Z" stroke="#3C3C3B" stroke-width="2" stroke-miterlimit="10" stroke-linecap="round" stroke-linejoin="round"/>
</svg>
