<svg width="48" height="48" viewBox="0 0 48 48" fill="none" xmlns="http://www.w3.org/2000/svg">
<path d="M44.4371 4.2152C42.6545 2.43266 39.8817 2.43266 38.0991 4.2152L34.1379 8.1764L40.4759 14.5143L44.4371 10.5531C46.2196 8.77058 46.2196 5.99774 44.4371 4.2152Z" fill="#FA3E34"/>
<path d="M44.4371 3.93493C42.6545 2.15239 39.6836 2.15239 37.9011 3.93493L23.8388 17.8982C22.1553 19.6807 21.165 22.0574 21.165 24.4341V27.1079H23.8388C26.3146 27.1079 28.6913 26.1177 30.3748 24.4341L44.4371 10.4709C46.2196 8.68837 46.2196 5.71747 44.4371 3.93493Z" stroke="#3C3C3B" stroke-width="2" stroke-miterlimit="10" stroke-linejoin="round"/>
<path d="M3 27H13" stroke="#3C3C3B" stroke-width="2" stroke-miterlimit="10" stroke-linecap="round" stroke-linejoin="round"/>
<path d="M3 35H34" stroke="#3C3C3B" stroke-width="2" stroke-miterlimit="10" stroke-linecap="round" stroke-linejoin="round"/>
<path d="M3 43H34" stroke="#3C3C3B" stroke-width="2" stroke-miterlimit="10" stroke-linecap="round" stroke-linejoin="round"/>
<path d="M24.136 16.9078L30.672 23.4438" stroke="#3C3C3B" stroke-width="2" stroke-miterlimit="10" stroke-linejoin="round"/>
</svg>
