<svg width="48" height="48" viewBox="0 0 48 48" fill="none" xmlns="http://www.w3.org/2000/svg">
<path d="M40.9234 20.4303C41.6327 21.1397 42.0312 22.1018 42.0312 23.105C42.0297 23.7741 41.8508 24.4308 41.5127 25.0081C41.1746 25.5854 40.6894 26.0627 40.1067 26.3914C40.3233 26.7911 40.4577 27.2302 40.5018 27.6827C40.546 28.1352 40.4991 28.592 40.3638 29.0261C40.2286 29.4602 40.0078 29.8628 39.7144 30.2101C39.421 30.5575 39.061 30.8426 38.6557 31.0485C39.0508 31.8521 39.1136 32.779 38.8304 33.6285C38.5473 34.478 37.9409 35.1819 37.1426 35.5876C37.3743 36.0583 37.4939 36.5761 37.4921 37.1007C37.4921 38.0902 37.0503 39.7485 34.0878 39.75H15.9313V22.6859C15.9312 22.5633 15.9609 22.4425 16.0178 22.3339C16.0747 22.2253 16.1572 22.1322 16.2581 22.0626C19.1405 20.0729 22.3617 15.5338 22.3617 11.379C22.333 10.6444 22.5727 9.92441 23.036 9.35361C23.4993 8.7828 24.1546 8.40019 24.8794 8.27724C26.3531 8.07298 28.2384 8.9808 29.128 12.1582C29.4476 14.4115 29.1765 16.7091 28.3413 18.8262C28.3226 18.8829 28.3177 18.9433 28.3269 19.0023C28.336 19.0613 28.3591 19.1173 28.394 19.1657C28.429 19.2141 28.475 19.2536 28.5281 19.2808C28.5813 19.308 28.6401 19.3223 28.6998 19.3224H38.2486C39.2519 19.3224 40.214 19.721 40.9234 20.4303Z" fill="white" stroke="#3C3C3B" stroke-width="2" stroke-linecap="round" stroke-linejoin="round"/>
<path d="M5.96875 23.6753C5.96875 23.123 6.41647 22.6753 6.96875 22.6753H15.0938V39.75H6.96875C6.41647 39.75 5.96875 39.3023 5.96875 38.75V23.6753Z" fill="#FA3E34"/>
<path d="M6.28125 23.6753C6.28125 23.123 6.72897 22.6753 7.28125 22.6753H15.7422V39.75H7.28125C6.72897 39.75 6.28125 39.3023 6.28125 38.75V23.6753Z" stroke="#3C3C3B" stroke-width="2" stroke-linecap="round" stroke-linejoin="round"/>
</svg>
