<svg width="30" height="31" viewBox="0 0 30 31" fill="none" xmlns="http://www.w3.org/2000/svg">
<path d="M3.74951 6.68627C3.74951 5.47829 4.72878 4.49902 5.93677 4.49902H24.0597C25.2677 4.49902 26.247 5.47829 26.247 6.68628V24.8092C26.247 26.0172 25.2677 26.9965 24.0597 26.9965H5.93676C4.72878 26.9965 3.74951 26.0172 3.74951 24.8092V6.68627Z" stroke="#3C3C3B" stroke-width="2" stroke-miterlimit="10" stroke-linecap="round" stroke-linejoin="round"/>
<path d="M3.76514 19.4973H10.7487C11.0249 19.4973 11.2487 19.7212 11.2487 19.9973V22.122C11.2487 22.3981 11.4726 22.622 11.7487 22.622H18.2479C18.524 22.622 18.7479 22.3981 18.7479 22.122V19.9973C18.7479 19.7212 18.9717 19.4973 19.2479 19.4973H26.0283" stroke="#3C3C3B" stroke-width="2" stroke-miterlimit="10" stroke-linecap="round" stroke-linejoin="round"/>
<path d="M9.99878 14.498H19.9977" stroke="#3C3C3B" stroke-width="2" stroke-miterlimit="10" stroke-linecap="round" stroke-linejoin="round"/>
<path d="M9.99878 9.49854H19.9977" stroke="#3C3C3B" stroke-width="2" stroke-miterlimit="10" stroke-linecap="round" stroke-linejoin="round"/>
</svg>
