<svg width="30" height="30" viewBox="0 0 30 30" fill="none" xmlns="http://www.w3.org/2000/svg">
<path d="M15.8561 5.53278C16.9974 4.39174 18.5452 3.75073 20.1591 3.75073C21.7729 3.75073 23.3207 4.39174 24.462 5.53278C25.6031 6.67409 26.2441 8.22187 26.2441 9.83573C26.2441 11.4496 25.6031 12.9974 24.462 14.1387L14.1338 24.4669C12.9925 25.6079 11.4447 26.249 9.83085 26.249C8.21699 26.249 6.6692 25.6079 5.5279 24.4669C4.38686 23.3256 3.74585 21.7778 3.74585 20.164C3.74585 18.5501 4.38686 17.0023 5.5279 15.861L11.1223 10.2666C11.4045 9.98343 11.7398 9.75875 12.109 9.60545C12.4782 9.45215 12.874 9.37323 13.2738 9.37323C13.6735 9.37323 14.0694 9.45215 14.4386 9.60545C14.8078 9.75875 15.1431 9.98343 15.4253 10.2666C15.7084 10.5488 15.9331 10.8841 16.0864 11.2533C16.2397 11.6225 16.3186 12.0183 16.3186 12.4181C16.3186 12.8178 16.2397 13.2137 16.0864 13.5829C15.9331 13.9521 15.7084 14.2874 15.4253 14.5695L9.83198 20.164" stroke="#3C3C3B" stroke-width="2.4998" stroke-linecap="round"/>
</svg>
