<svg width="31" height="30" viewBox="0 0 31 30" fill="none" xmlns="http://www.w3.org/2000/svg">
<path d="M4.73169 6.75049C4.73169 5.09377 6.07473 3.75073 7.73145 3.75073H24.2301C25.8869 3.75073 27.2299 5.09377 27.2299 6.75049V23.2492C27.2299 24.9059 25.8869 26.249 24.2301 26.249H7.73145C6.07473 26.249 4.73169 24.9059 4.73169 23.2492V6.75049Z" stroke="#3C3C3B" stroke-width="2" stroke-miterlimit="10" stroke-linecap="round" stroke-linejoin="round"/>
<path d="M22.2302 26.2489V24.999C22.2302 22.3287 19.5587 19.9994 16.1238 19.9994H15.8376C12.4982 19.9994 9.7312 22.3287 9.7312 24.999V26.2489" stroke="#3C3C3B" stroke-width="2" stroke-miterlimit="10" stroke-linecap="round" stroke-linejoin="round"/>
<path d="M12.856 11.875C12.856 10.1706 14.1716 8.75024 15.7505 8.75024L16.211 8.75024C17.7898 8.75024 19.1055 10.1706 19.1055 11.875C19.1055 13.5794 17.7898 14.9997 16.211 14.9997H15.7505C14.1716 14.9287 12.856 13.5794 12.856 11.875Z" stroke="#3C3C3B" stroke-width="2" stroke-miterlimit="10" stroke-linecap="round" stroke-linejoin="round"/>
</svg>
