<svg width="30" height="30" viewBox="0 0 30 30" fill="none" xmlns="http://www.w3.org/2000/svg">
<path d="M3.74976 11.2535C3.74976 9.87286 4.86896 8.75366 6.24956 8.75366H23.7482C25.1288 8.75366 26.248 9.87286 26.248 11.2535V22.5026C26.248 23.8832 25.1288 25.0024 23.7482 25.0024H6.24956C4.86895 25.0024 3.74976 23.8832 3.74976 22.5026V11.2535Z" stroke="#3C3C3B" stroke-width="2"/>
<path d="M26.248 13.7533C26.248 13.7533 19.9985 16.2531 14.9989 16.2531C9.99926 16.2531 3.74976 13.7533 3.74976 13.7533" stroke="#3C3C3B" stroke-width="2"/>
<path d="M18.7484 8.1288V5.50415C18.7484 4.53765 17.9649 3.75415 16.9984 3.75415H12.999C12.0325 3.75415 11.249 4.53765 11.249 5.50415V8.1288" stroke="#3C3C3B" stroke-width="2"/>
</svg>
