<svg width="30" height="30" viewBox="0 0 30 30" fill="none" xmlns="http://www.w3.org/2000/svg">
<g clip-path="url(#clip0_1018_1757)">
<path d="M1 6.4998C1 5.1192 2.1192 4 3.4998 4H19.5002C20.8808 4 22 5.1192 22 6.4998V16.5002C22 17.8808 20.8808 19 19.5002 19H3.4998C2.1192 19 1 17.8808 1 16.5002V6.4998Z" fill="#EA1106" stroke="#3C3C3B" stroke-width="2"/>
<path d="M22.5 7.5H23.0002C24.3808 7.5 25.5 8.6192 25.5 9.9998V20.0002C25.5 21.3808 24.3808 22.5 23.0002 22.5H6.9998C5.6192 22.5 4.5 21.3808 4.5 20.0002V19.5" stroke="#3C3C3B" stroke-width="2"/>
<path d="M26 11H26.5002C27.8808 11 29 12.1192 29 13.4998V23.5002C29 24.8808 27.8808 26 26.5002 26H10.4998C9.1192 26 8 24.8808 8 23.5002V23" stroke="#3C3C3B" stroke-width="2"/>
</g>
<defs>
<clipPath id="clip0_1018_1757">
<rect width="29.9976" height="29.9976" fill="white"/>
</clipPath>
</defs>
</svg>
