<svg width="31" height="30" viewBox="0 0 31 30" fill="none" xmlns="http://www.w3.org/2000/svg">
<path d="M11.589 4.72475L10.7569 4.17005L10.7569 4.17005L11.589 4.72475ZM9.73852 7.50044V8.50044C10.0729 8.50044 10.3851 8.33333 10.5706 8.05514L9.73852 7.50044ZM22.2375 7.50044L21.4055 8.05514C21.5909 8.33333 21.9032 8.50044 22.2375 8.50044V7.50044ZM20.3871 4.72475L19.555 5.27945V5.27945L20.3871 4.72475ZM12.421 5.27945C12.6412 4.94914 13.012 4.75073 13.4089 4.75073V2.75073C12.3432 2.75073 11.3481 3.28334 10.7569 4.17005L12.421 5.27945ZM10.5706 8.05514L12.421 5.27945L10.7569 4.17005L8.90647 6.94574L10.5706 8.05514ZM5.67634 8.50044H9.73852V6.50044H5.67634V8.50044ZM4.48901 9.68776C4.48901 9.03202 5.0206 8.50044 5.67634 8.50044V6.50044C3.91603 6.50044 2.48901 7.92744 2.48901 9.68776H4.48901ZM4.48901 24.0616V9.68776H2.48901V24.0616H4.48901ZM5.67634 25.249C5.0206 25.249 4.48901 24.7174 4.48901 24.0616H2.48901C2.48901 25.8219 3.91603 27.249 5.67634 27.249V25.249ZM26.2997 25.249H5.67634V27.249H26.2997V25.249ZM27.487 24.0616C27.487 24.7174 26.9555 25.249 26.2997 25.249V27.249C28.06 27.249 29.487 25.8219 29.487 24.0616H27.487ZM27.487 9.68776V24.0616H29.487V9.68776H27.487ZM26.2997 8.50044C26.9555 8.50044 27.487 9.03202 27.487 9.68776H29.487C29.487 7.92745 28.06 6.50044 26.2997 6.50044V8.50044ZM22.2375 8.50044H26.2997V6.50044H22.2375V8.50044ZM19.555 5.27945L21.4055 8.05514L23.0696 6.94574L21.2191 4.17005L19.555 5.27945ZM18.5671 4.75073C18.9641 4.75073 19.3348 4.94914 19.555 5.27945L21.2191 4.17005C20.628 3.28334 19.6328 2.75073 18.5671 2.75073V4.75073ZM13.4089 4.75073H18.5671V2.75073H13.4089V4.75073Z" fill="#3C3C3B"/>
<circle cx="15.988" cy="16.2497" r="3.7497" stroke="#3C3C3B" stroke-width="2" stroke-linecap="round" stroke-linejoin="round"/>
<circle cx="23.7999" cy="12.1875" r="1.56238" fill="#3C3C3B"/>
</svg>
