<svg width="30" height="30" viewBox="0 0 30 30" fill="none" xmlns="http://www.w3.org/2000/svg">
<path fill-rule="evenodd" clip-rule="evenodd" d="M3.74976 26.2479C3.74976 25.5576 4.30936 24.998 4.99966 24.998H24.9981C25.6884 24.998 26.248 25.5576 26.248 26.2479C26.248 26.9382 25.6884 27.4978 24.9981 27.4978H4.99966C4.30936 27.4978 3.74976 26.9382 3.74976 26.2479Z" fill="#3C3C3B"/>
<path fill-rule="evenodd" clip-rule="evenodd" d="M4.99951 6.24953C4.99951 5.55923 5.55911 4.99963 6.24941 4.99963H21.2482C21.9385 4.99963 22.4981 5.55923 22.4981 6.24953V16.2487C22.4981 19.7003 19.7001 22.4982 16.2486 22.4982H11.249C7.79751 22.4982 4.99951 19.7002 4.99951 16.2487V6.24953ZM7.49931 7.49944V16.2487C7.49931 18.3196 9.17811 19.9984 11.249 19.9984H16.2486C18.3195 19.9984 19.9983 18.3196 19.9983 16.2487V7.49944H7.49931Z" fill="#3C3C3B"/>
<path fill-rule="evenodd" clip-rule="evenodd" d="M19.9985 8.74927H23.7482C25.8191 8.74927 27.4979 10.4281 27.4979 12.499C27.4979 14.5699 25.8191 16.2487 23.7482 16.2487H19.9985V8.74927ZM22.4983 11.2491V13.7489H23.7482C24.4385 13.7489 24.9981 13.1893 24.9981 12.499C24.9981 11.8087 24.4385 11.2491 23.7482 11.2491H22.4983Z" fill="#3C3C3B"/>
</svg>
