<svg width="31" height="30" viewBox="0 0 31 30" fill="none" xmlns="http://www.w3.org/2000/svg">
<path d="M14.2847 3.08472L15.2473 3.35547L15.2473 3.35547L14.2847 3.08472ZM17.6701 3.08472L18.6328 2.81398V2.81398L17.6701 3.08472ZM18.405 5.69748L17.4423 5.96823C17.5385 6.31037 17.8091 6.57573 18.1531 6.66525L18.405 5.69748ZM20.8378 6.706L20.3314 7.56829C20.6379 7.74832 21.017 7.75208 21.327 7.57815L20.8378 6.706ZM23.2055 5.37775L22.7163 4.50561V4.50561L23.2055 5.37775ZM24.1638 5.50994L23.4567 6.21705V6.21705L24.1638 5.50994ZM25.4672 6.81336L26.1743 6.10625V6.10625L25.4672 6.81336ZM25.5994 7.77161L26.4715 8.26086V8.26086L25.5994 7.77161ZM24.2711 10.1393L23.399 9.65009C23.2251 9.96014 23.2288 10.3392 23.4089 10.6458L24.2711 10.1393ZM25.198 12.2778L24.2388 12.5605C24.3361 12.8905 24.5961 13.1473 24.9273 13.2404L25.198 12.2778ZM27.8921 13.0355L27.6214 13.9981L27.8921 13.0355ZM27.8921 16.4209L28.1629 17.3836H28.1629L27.8921 16.4209ZM25.3508 17.1357L25.0801 16.173C24.7271 16.2723 24.4567 16.5568 24.3756 16.9144L25.3508 17.1357ZM24.2711 19.8605L23.4089 19.3541C23.2288 19.6607 23.2251 20.0397 23.399 20.3498L24.2711 19.8605ZM25.5993 22.2282L26.4715 21.7389H26.4715L25.5993 22.2282ZM24.1637 24.4898L23.4566 23.7827L23.4566 23.7827L24.1637 24.4898ZM23.2055 24.622L22.7162 25.4942L23.2055 24.622ZM20.8378 23.2938L21.3271 22.4217C21.017 22.2478 20.6379 22.2515 20.3314 22.4316L20.8378 23.2938ZM18.4048 24.3024L18.153 23.3347C17.809 23.4242 17.5384 23.6895 17.4421 24.0317L18.4048 24.3024ZM17.6701 26.9146L16.7075 26.6439V26.6439L17.6701 26.9146ZM14.2847 26.9146L15.2473 26.6439L15.2473 26.6439L14.2847 26.9146ZM13.55 24.3025L14.5127 24.0318C14.4165 23.6896 14.1458 23.4242 13.8018 23.3347L13.55 24.3025ZM11.1164 23.2937L11.6228 22.4314C11.3163 22.2513 10.9372 22.2476 10.6271 22.4215L11.1164 23.2937ZM8.749 24.6217L9.23825 25.4938H9.23825L8.749 24.6217ZM7.79075 24.4895L7.08364 25.1966L7.08364 25.1966L7.79075 24.4895ZM6.48733 23.1861L7.19444 22.479H7.19444L6.48733 23.1861ZM6.35514 22.2278L7.22728 22.7171L6.35514 22.2278ZM7.68326 19.8603L8.5554 20.3496C8.72933 20.0395 8.72558 19.6605 8.54555 19.3539L7.68326 19.8603ZM6.60371 17.1356L7.57892 16.9144C7.49779 16.5568 7.22744 16.2723 6.87445 16.173L6.60371 17.1356ZM4.06238 16.4209L4.33313 15.4582L4.33313 15.4582L4.06238 16.4209ZM3.47827 15.6498H4.47827H3.47827ZM3.47827 13.8065H2.47827H3.47827ZM4.06238 13.0355L3.79164 12.0728H3.79164L4.06238 13.0355ZM6.7565 12.2778L7.02725 13.2404C7.3584 13.1473 7.61844 12.8905 7.7157 12.5605L6.7565 12.2778ZM7.68338 10.1393L8.54566 10.6458C8.7257 10.3392 8.72945 9.96013 8.55552 9.65008L7.68338 10.1393ZM6.35508 7.77149L7.22722 7.28224L6.35508 7.77149ZM6.48727 6.81324L7.19437 7.52035L7.19437 7.52035L6.48727 6.81324ZM7.79068 5.50983L7.08357 4.80272L7.08357 4.80272L7.79068 5.50983ZM8.74893 5.37764L9.23818 4.50549L8.74893 5.37764ZM11.1168 6.70596L10.6276 7.5781C10.9376 7.75203 11.3167 7.74828 11.6232 7.56825L11.1168 6.70596ZM13.5499 5.6974L13.8017 6.66517C14.1457 6.57567 14.4163 6.3103 14.5125 5.96815L13.5499 5.6974ZM15.0558 1.50061C14.2489 1.50061 13.5405 2.03725 13.322 2.81398L15.2473 3.35547C15.2232 3.44131 15.1449 3.50061 15.0558 3.50061V1.50061ZM16.8991 1.50061H15.0558V3.50061H16.8991V1.50061ZM18.6328 2.81398C18.4143 2.03725 17.7059 1.50061 16.8991 1.50061V3.50061C16.8099 3.50061 16.7316 3.44131 16.7075 3.35547L18.6328 2.81398ZM19.3676 5.42674L18.6328 2.81398L16.7075 3.35547L17.4423 5.96823L19.3676 5.42674ZM21.3442 5.84372C20.5143 5.3563 19.6118 4.97825 18.6568 4.72972L18.1531 6.66525C18.9266 6.86655 19.658 7.17285 20.3314 7.56829L21.3442 5.84372ZM22.7163 4.50561L20.3485 5.83386L21.327 7.57815L23.6948 6.2499L22.7163 4.50561ZM24.8709 4.80284C24.3004 4.2323 23.42 4.11085 22.7163 4.50561L23.6948 6.2499C23.617 6.29352 23.5197 6.2801 23.4567 6.21705L24.8709 4.80284ZM26.1743 6.10625L24.8709 4.80284L23.4567 6.21705L24.7601 7.52046L26.1743 6.10625ZM26.4715 8.26086C26.8663 7.55716 26.7448 6.67678 26.1743 6.10625L24.7601 7.52046C24.697 7.45742 24.6836 7.36013 24.7272 7.28236L26.4715 8.26086ZM25.1433 10.6286L26.4715 8.26086L24.7272 7.28236L23.399 9.65009L25.1433 10.6286ZM26.1572 11.995C25.9111 11.16 25.5651 10.368 25.1334 9.63291L23.4089 10.6458C23.7591 11.2422 24.0395 11.8841 24.2388 12.5605L26.1572 11.995ZM28.1629 12.0728L25.4688 11.3151L24.9273 13.2404L27.6214 13.9981L28.1629 12.0728ZM29.4763 13.8065C29.4763 12.9997 28.9396 12.2913 28.1629 12.0728L27.6214 13.9981C27.5356 13.974 27.4763 13.8957 27.4763 13.8065H29.4763ZM29.4763 15.6498V13.8065H27.4763V15.6498H29.4763ZM28.1629 17.3836C28.9396 17.1651 29.4763 16.4567 29.4763 15.6498H27.4763C27.4763 15.5607 27.5356 15.4824 27.6214 15.4583L28.1629 17.3836ZM25.6216 18.0983L28.1629 17.3836L27.6214 15.4583L25.0801 16.173L25.6216 18.0983ZM25.1334 20.367C25.6754 19.4441 26.0822 18.4316 26.326 17.3569L24.3756 16.9144C24.1781 17.7849 23.8486 18.6054 23.4089 19.3541L25.1334 20.367ZM26.4715 21.7389L25.1433 19.3713L23.399 20.3498L24.7272 22.7174L26.4715 21.7389ZM26.1742 23.8935C26.7448 23.323 26.8662 22.4426 26.4715 21.7389L24.7272 22.7174C24.6836 22.6397 24.697 22.5424 24.76 22.4793L26.1742 23.8935ZM24.8708 25.197L26.1742 23.8935L24.76 22.4793L23.4566 23.7827L24.8708 25.197ZM22.7162 25.4942C23.4199 25.8889 24.3003 25.7675 24.8708 25.197L23.4566 23.7827C23.5197 23.7197 23.617 23.7063 23.6947 23.7499L22.7162 25.4942ZM20.3486 24.166L22.7162 25.4942L23.6947 23.7499L21.3271 22.4217L20.3486 24.166ZM18.6566 25.2702C19.6117 25.0217 20.5143 24.6436 21.3442 24.1561L20.3314 22.4316C19.658 22.827 18.9265 23.1334 18.153 23.3347L18.6566 25.2702ZM18.6328 27.1854L19.3674 24.5732L17.4421 24.0317L16.7075 26.6439L18.6328 27.1854ZM16.8991 28.4988C17.7059 28.4988 18.4143 27.9621 18.6328 27.1854L16.7075 26.6439C16.7316 26.5581 16.8099 26.4988 16.8991 26.4988V28.4988ZM15.0558 28.4988H16.8991V26.4988H15.0558V28.4988ZM13.322 27.1854C13.5405 27.9621 14.2489 28.4988 15.0558 28.4988V26.4988C15.1449 26.4988 15.2232 26.5581 15.2473 26.6439L13.322 27.1854ZM12.5874 24.5733L13.322 27.1854L15.2473 26.6439L14.5127 24.0318L12.5874 24.5733ZM10.6099 24.1559C11.4401 24.6435 12.3429 25.0217 13.2982 25.2703L13.8018 23.3347C13.028 23.1334 12.2964 22.827 11.6228 22.4314L10.6099 24.1559ZM9.23825 25.4938L11.6056 24.1658L10.6271 22.4215L8.25974 23.7496L9.23825 25.4938ZM7.08364 25.1966C7.65417 25.7671 8.53455 25.8886 9.23825 25.4938L8.25974 23.7496C8.33751 23.7059 8.4348 23.7194 8.49785 23.7824L7.08364 25.1966ZM5.78022 23.8932L7.08364 25.1966L8.49785 23.7824L7.19444 22.479L5.78022 23.8932ZM5.483 21.7386C5.08824 22.4423 5.20969 23.3227 5.78022 23.8932L7.19444 22.479C7.25749 22.542 7.27091 22.6393 7.22728 22.7171L5.483 21.7386ZM6.81111 19.3711L5.483 21.7386L7.22728 22.7171L8.5554 20.3496L6.81111 19.3711ZM5.62849 17.3569C5.87229 18.4315 6.27901 19.4439 6.82096 20.3667L8.54555 19.3539C8.10589 18.6053 7.77641 17.7848 7.57892 16.9144L5.62849 17.3569ZM6.87445 16.173L4.33313 15.4582L3.79164 17.3836L6.33296 18.0983L6.87445 16.173ZM4.33313 15.4582C4.41897 15.4824 4.47827 15.5607 4.47827 15.6498H2.47827C2.47827 16.4567 3.01491 17.1651 3.79164 17.3836L4.33313 15.4582ZM4.47827 15.6498V13.8065H2.47827L2.47827 15.6498H4.47827ZM4.47827 13.8065C4.47827 13.8957 4.41897 13.974 4.33313 13.9981L3.79164 12.0728C3.01492 12.2913 2.47827 12.9997 2.47827 13.8065H4.47827ZM4.33313 13.9981L7.02725 13.2404L6.48576 11.3151L3.79164 12.0728L4.33313 13.9981ZM6.8211 9.6329C6.38938 10.368 6.04344 11.16 5.7973 11.995L7.7157 12.5605C7.91507 11.8841 8.19539 11.2422 8.54566 10.6458L6.8211 9.6329ZM5.48293 8.26074L6.81123 10.6286L8.55552 9.65008L7.22722 7.28224L5.48293 8.26074ZM5.78016 6.10613C5.20962 6.67667 5.08818 7.55704 5.48293 8.26074L7.22722 7.28224C7.27084 7.36 7.25742 7.4573 7.19437 7.52035L5.78016 6.10613ZM7.08357 4.80272L5.78016 6.10613L7.19437 7.52035L8.49779 6.21693L7.08357 4.80272ZM9.23818 4.50549C8.53448 4.11074 7.65411 4.23218 7.08357 4.80272L8.49779 6.21693C8.43474 6.27998 8.33745 6.2934 8.25968 6.24978L9.23818 4.50549ZM11.6061 5.83382L9.23818 4.50549L8.25968 6.24978L10.6276 7.5781L11.6061 5.83382ZM13.2981 4.72963C12.343 4.97815 11.4404 5.35622 10.6104 5.84367L11.6232 7.56825C12.2966 7.17278 13.0281 6.86647 13.8017 6.66517L13.2981 4.72963ZM13.322 2.81398L12.5872 5.42666L14.5125 5.96815L15.2473 3.35547L13.322 2.81398Z" fill="#3C3C3B"/>
<circle cx="15.9773" cy="14.9998" r="3.12475" stroke="#3C3C3B" stroke-width="2" stroke-miterlimit="10" stroke-linecap="round" stroke-linejoin="round"/>
</svg>
