<svg width="30" height="30" viewBox="0 0 30 30" fill="none" xmlns="http://www.w3.org/2000/svg">
<path d="M23.7481 11.8714C23.7481 7.03927 19.8309 3.12207 14.9988 3.12207C10.1667 3.12207 6.24951 7.03927 6.24951 11.8714" stroke="#3C3C3B" stroke-width="2"/>
<path d="M6.24956 11.8713V12.2022C6.24956 12.3646 6.1157 12.4963 5.95327 12.4963V12.4963C4.74524 12.4963 3.74976 13.4756 3.74976 14.6836V14.6836C3.74976 15.8916 4.72906 16.8709 5.93709 16.8709H24.0606C25.2687 16.8709 26.248 15.8916 26.248 14.6836V14.6836C26.248 13.4756 25.2525 12.4963 24.0445 12.4963V12.4963C23.882 12.4963 23.7482 12.3646 23.7482 12.2022V11.8713" stroke="#3C3C3B" stroke-width="2" stroke-linecap="round"/>
<path d="M12.499 4.37195V8.12165" stroke="#3C3C3B" stroke-width="2" stroke-linecap="round"/>
<path d="M17.4985 4.37195V8.12165" stroke="#3C3C3B" stroke-width="2" stroke-linecap="round"/>
<path d="M7.32983 17.496V19.6354C7.32983 23.9115 10.8658 27.4952 14.9988 27.4952C19.1318 27.4952 22.6677 23.9115 22.6677 19.6354V17.496" stroke="#3C3C3B" stroke-width="2" stroke-linecap="round"/>
</svg>
