<svg width="31" height="30" viewBox="0 0 31 30" fill="none" xmlns="http://www.w3.org/2000/svg">
<path d="M8.16535 27.4951H23.7891C24.9971 27.4951 25.9764 26.5158 25.9764 25.3078V4.6844C25.9764 3.47637 24.9971 2.49707 23.7891 2.49707H14.3121C13.728 2.49707 13.1681 2.73068 12.7573 3.14584L6.6106 9.35724C6.20534 9.76677 5.97803 10.3196 5.97803 10.8958V25.3078C5.97803 26.5158 6.95733 27.4951 8.16535 27.4951Z" stroke="#3C3C3B" stroke-width="2" stroke-miterlimit="10" stroke-linecap="round" stroke-linejoin="round"/>
<path d="M7.30615 9.99648H12.5401C13.7481 9.99648 14.7274 9.01718 14.7274 7.80915V2.49707" stroke="#3C3C3B" stroke-width="2" stroke-miterlimit="10" stroke-linecap="round" stroke-linejoin="round"/>
<path d="M10.9778 21.8706V16.871" stroke="#3C3C3B" stroke-width="2" stroke-miterlimit="10" stroke-linecap="round" stroke-linejoin="round"/>
<path d="M15.9773 21.8705L15.9773 19.2926" stroke="#3C3C3B" stroke-width="2" stroke-miterlimit="10" stroke-linecap="round" stroke-linejoin="round"/>
<path d="M20.9771 21.8706L20.9771 13.0432" stroke="#3C3C3B" stroke-width="2" stroke-miterlimit="10" stroke-linecap="round" stroke-linejoin="round"/>
</svg>
