<svg width="30" height="30" viewBox="0 0 30 30" fill="none" xmlns="http://www.w3.org/2000/svg">
<path d="M15.2593 11.0188V3.75401C15.2593 3.06373 14.6997 2.50415 14.0094 2.50415H3.74278C3.0525 2.50415 2.49292 3.06373 2.49292 3.75401V17.5024C2.49292 18.1927 3.0525 18.7523 3.74278 18.7523H7.88294" stroke="#3C3C3B" stroke-width="2" stroke-miterlimit="10" stroke-linecap="round" stroke-linejoin="round"/>
<path d="M26.5394 10.9574C25.2719 9.68478 23.1595 9.68478 21.892 10.9574L11.8931 20.926C10.6961 22.1986 9.99194 23.8954 9.99194 25.5922V27.5011H11.8931C13.6535 27.5011 15.3435 26.7941 16.5405 25.5922L26.5394 15.6236C27.8068 14.351 27.8068 12.23 26.5394 10.9574Z" stroke="#3C3C3B" stroke-width="2" stroke-miterlimit="10" stroke-linejoin="round"/>
<path d="M12.1792 20.3927L17.1006 25.3141" stroke="#3C3C3B" stroke-width="2" stroke-miterlimit="10" stroke-linejoin="round"/>
</svg>
