<svg width="30" height="30" viewBox="0 0 30 30" fill="none" xmlns="http://www.w3.org/2000/svg">
<path d="M18.7444 7.50361V5.00389C18.7444 4.31361 18.1848 3.75403 17.4946 3.75403H4.99595C4.30568 3.75403 3.74609 4.31361 3.74609 5.00389V20.0022C3.74609 20.6925 4.30568 21.2521 4.99595 21.2521H6.24581" stroke="#3C3C3B" stroke-width="2" stroke-miterlimit="10" stroke-linecap="round" stroke-linejoin="round"/>
<path d="M26.556 10.9406C25.2885 9.66804 23.1365 9.66807 21.869 10.9407L11.8702 20.9395C10.6731 22.2121 9.99536 23.9297 9.99536 25.6265V27.5015H11.8702C13.6305 27.5015 15.3601 26.8284 16.5571 25.6265L26.556 15.6239C27.8235 14.3513 27.8235 12.2132 26.556 10.9406Z" stroke="#3C3C3B" stroke-width="2" stroke-miterlimit="10" stroke-linejoin="round"/>
<path d="M12.2217 20.7834L17.143 25.7048" stroke="#3C3C3B" stroke-width="2" stroke-miterlimit="10" stroke-linejoin="round"/>
<path d="M8.74561 8.75342H13.1201" stroke="#3C3C3B" stroke-width="2" stroke-miterlimit="10" stroke-linecap="round" stroke-linejoin="round"/>
<path d="M8.74561 13.7528H9.99547" stroke="#3C3C3B" stroke-width="2" stroke-miterlimit="10" stroke-linecap="round" stroke-linejoin="round"/>
</svg>
