<svg width="31" height="30" viewBox="0 0 31 30" fill="none" xmlns="http://www.w3.org/2000/svg">
<path fill-rule="evenodd" clip-rule="evenodd" d="M20.4038 6.83382C21.1778 6.83382 21.9517 6.83382 22.7256 6.83382C22.803 6.83382 22.8804 6.83382 23.0352 6.83382V2.732C22.6482 2.6546 22.1839 2.6546 21.7195 2.57721C20.9456 2.57721 20.0943 2.49982 19.3203 2.49982C18.0821 2.49982 16.9212 2.80939 15.9151 3.50592C14.7542 4.35725 14.135 5.51814 13.9028 6.91121C13.8255 7.45296 13.7724 8.0721 13.7724 8.61385C13.7724 9.54257 13.7724 10.3939 13.7724 11.3226V11.6322H9.87842V16.121H13.7724V27.4977H18.2934V16.3531H22.3387C22.5708 14.8827 22.7256 13.3348 22.9578 11.787C22.6482 11.787 22.3387 11.787 22.1065 11.787C21.023 11.787 18.2934 11.787 18.2934 11.787C18.2934 11.787 18.2934 9.54257 18.2934 8.61385C18.2934 7.22078 19.3977 6.83382 20.4038 6.83382Z" fill="#3C3C3B"/>
</svg>
