<svg width="31" height="31" viewBox="0 0 31 31" fill="none" xmlns="http://www.w3.org/2000/svg">
<g clip-path="url(#clip0_12_523)">
<path d="M14.6309 8.95179L12.5693 6.77103C12.0051 6.17412 11.1016 6.04999 10.3973 6.4726L6.6438 8.72467" stroke="#3C3C3B" stroke-width="2"/>
<path d="M25.3518 8.56124L25.3518 20.4349C25.3518 20.6075 25.4917 20.7474 25.6643 20.7474L29.4139 20.7474C29.5864 20.7474 29.7263 20.6075 29.7263 20.4349L29.7263 8.56124C29.7263 8.38867 29.5864 8.24878 29.4139 8.24878L25.6643 8.24878C25.4917 8.24878 25.3518 8.38867 25.3518 8.56124Z" stroke="#3C3C3B" stroke-width="2" stroke-linecap="round"/>
<path d="M2.22925 8.56124L2.22925 20.4349C2.22925 20.6075 2.36914 20.7474 2.54171 20.7474L6.29129 20.7474C6.46386 20.7474 6.60376 20.6075 6.60376 20.4349L6.60376 8.56124C6.60376 8.38867 6.46386 8.24878 6.29129 8.24878L2.54171 8.24878C2.36914 8.24878 2.22925 8.38867 2.22925 8.56124Z" stroke="#3C3C3B" stroke-width="2" stroke-linecap="round"/>
<path d="M6.30249 20.1224H8.27165C8.40426 20.1224 8.53144 20.1751 8.62521 20.2689L11.7457 23.3894C12.3762 24.0199 13.3801 24.0755 14.0764 23.5184L20.7644 18.1681C21.5557 17.535 21.6455 16.3643 20.9601 15.6179L18.2102 12.6233L16.0874 13.7351C15.2409 14.1784 14.199 13.961 13.6005 13.2162L12.9985 12.467C12.2294 11.51 12.4961 10.0925 13.5604 9.48047L19.0872 6.30184C19.6852 5.95795 20.4181 5.94645 21.0265 6.27141L25.4812 8.65059" stroke="#3C3C3B" stroke-width="2"/>
<path d="M25.3518 20.1223H18.4775" stroke="#3C3C3B" stroke-width="2"/>
</g>
<defs>
<clipPath id="clip0_12_523">
<rect width="29.9966" height="29.9966" fill="white" transform="translate(0.979492 0.749512)"/>
</clipPath>
</defs>
</svg>
