<svg width="30" height="30" viewBox="0 0 30 30" fill="none" xmlns="http://www.w3.org/2000/svg">
<path fill-rule="evenodd" clip-rule="evenodd" d="M15 27.4999C21.9035 27.4999 27.4999 21.9035 27.4999 15C27.4999 8.09642 21.9035 2.5 15 2.5C8.09642 2.5 2.5 8.09642 2.5 15C2.5 21.9035 8.09642 27.4999 15 27.4999Z" stroke="#3C3C3B" stroke-width="2" stroke-miterlimit="10" stroke-linecap="round" stroke-linejoin="round"/>
<path fill-rule="evenodd" clip-rule="evenodd" d="M15 21.25C18.4517 21.25 21.25 18.4517 21.25 15C21.25 11.5482 18.4517 8.75 15 8.75C11.5482 8.75 8.75 11.5482 8.75 15C8.75 18.4517 11.5482 21.25 15 21.25Z" stroke="#3C3C3B" stroke-width="2" stroke-miterlimit="10" stroke-linecap="round" stroke-linejoin="round"/>
<path d="M23.0504 6.65588L19.511 10.1953" stroke="#3C3C3B" stroke-width="2" stroke-miterlimit="10" stroke-linecap="round" stroke-linejoin="round"/>
<path d="M19.5156 19.4688L23.2336 23.1868" stroke="#3C3C3B" stroke-width="2" stroke-miterlimit="10" stroke-linecap="round" stroke-linejoin="round"/>
<path d="M10.6416 19.4689L6.7666 23.3439" stroke="#3C3C3B" stroke-width="2" stroke-miterlimit="10" stroke-linecap="round" stroke-linejoin="round"/>
<path d="M6.89429 6.65588L10.7 10.4616" stroke="#3C3C3B" stroke-width="2" stroke-miterlimit="10" stroke-linecap="round" stroke-linejoin="round"/>
</svg>
