<svg width="30" height="30" viewBox="0 0 30 30" fill="none" xmlns="http://www.w3.org/2000/svg">
<path d="M10.4646 3.74939H19.464C23.2022 3.74939 26.1789 6.72609 26.2481 10.4643V19.5328C26.2481 23.271 23.2022 26.2477 19.5332 26.2477H10.4646C6.72646 26.2477 3.74976 23.2018 3.74976 19.5328V10.4643C3.74976 6.72609 6.79568 3.74939 10.4646 3.74939Z" stroke="#3C3C3B" stroke-width="2.4998" stroke-miterlimit="10" stroke-linecap="round" stroke-linejoin="round"/>
<path d="M14.9989 10.7802C12.6889 10.7802 10.7805 12.6885 10.7805 14.9986C10.7805 17.3087 12.6889 19.217 14.9989 19.217C17.309 19.217 19.2174 17.3087 19.2174 14.9986C19.2174 12.6885 17.309 10.7802 14.9989 10.7802Z" stroke="#3C3C3B" stroke-width="2.4998" stroke-miterlimit="10" stroke-linecap="round" stroke-linejoin="round"/>
<path d="M21.4047 9.99917C22.1813 9.99917 22.8108 9.36962 22.8108 8.59303C22.8108 7.81644 22.1813 7.18689 21.4047 7.18689C20.6281 7.18689 19.9985 7.81644 19.9985 8.59303C19.9985 9.36962 20.6281 9.99917 21.4047 9.99917Z" fill="#3C3C3B"/>
</svg>
