<svg width="31" height="30" viewBox="0 0 31 30" fill="none" xmlns="http://www.w3.org/2000/svg">
<path fill-rule="evenodd" clip-rule="evenodd" d="M10.9465 2.49982H20.9458C25.0993 2.49982 28.4067 5.80725 28.4836 9.96077V20.0369C28.4836 24.1904 25.0993 27.4978 21.0227 27.4978H10.9465C6.79303 27.4978 3.4856 24.1135 3.4856 20.0369V9.96077C3.4856 5.80725 6.86994 2.49982 10.9465 2.49982ZM9.73515 14.9989C9.73515 11.5707 12.5565 8.74937 15.9847 8.74937C19.4128 8.74937 22.2342 11.5707 22.2342 14.9989C22.2342 18.4271 19.4128 21.2484 15.9847 21.2484C12.5565 21.2484 9.73515 18.4271 9.73515 14.9989ZM15.9847 11.2492C13.9371 11.2492 12.235 12.9513 12.235 14.9989C12.235 17.0465 13.9371 18.7486 15.9847 18.7486C18.0322 18.7486 19.7344 17.0465 19.7344 14.9989C19.7344 12.9513 18.0322 11.2492 15.9847 11.2492ZM24.734 8.0312C24.734 8.89407 24.0345 9.59357 23.1716 9.59357C22.3087 9.59357 21.6092 8.89407 21.6092 8.0312C21.6092 7.16832 22.3087 6.46882 23.1716 6.46882C24.0345 6.46882 24.734 7.16832 24.734 8.0312Z" fill="#3C3C3B"/>
</svg>
