<svg width="31" height="30" viewBox="0 0 31 30" fill="none" xmlns="http://www.w3.org/2000/svg">
<path d="M15.9739 2.49976C11.1418 2.49976 7.22461 6.41695 7.22461 11.2491C7.22461 13.4722 8.05378 15.5017 9.41973 17.0452C10.2863 18.0244 10.9743 19.2094 10.9743 20.517V24.998C10.9743 26.3786 12.0935 27.4978 13.4741 27.4978H18.4737C19.8543 27.4978 20.9735 26.3786 20.9735 24.998V20.517C20.9735 19.2094 21.6615 18.0244 22.5281 17.0452C23.8941 15.5017 24.7232 13.4722 24.7232 11.2491C24.7232 6.41695 20.806 2.49976 15.9739 2.49976Z" stroke="#3C3C3B" stroke-width="2"/>
<path d="M10.9744 22.4982H20.9736" stroke="#3C3C3B" stroke-width="2"/>
<path d="M16.9739 18.7485C16.9739 18.1963 16.5262 17.7485 15.9739 17.7485C15.4216 17.7485 14.9739 18.1963 14.9739 18.7485H16.9739ZM16.9739 22.4982V18.7485H14.9739V22.4982H16.9739Z" fill="#3C3C3B"/>
</svg>
