<svg width="31" height="31" viewBox="0 0 31 31" fill="none" xmlns="http://www.w3.org/2000/svg">
<path d="M14.7382 8.24857L16.613 6.37378C19.029 3.9578 22.946 3.9578 25.362 6.37378V6.37378C27.778 8.78975 27.778 12.7068 25.362 15.1228L22.452 18.0328C21.5143 18.9705 20.2425 19.4973 18.9164 19.4973H18.1297C16.424 19.4973 14.8665 18.528 14.1133 16.9976V16.9976" stroke="#3C3C3B" stroke-width="2" stroke-linecap="round" stroke-linejoin="round"/>
<path d="M17.2379 23.247L15.2881 25.1969C12.9137 27.5713 9.06391 27.5709 6.68992 25.1961V25.1961C4.25875 22.764 4.32707 18.8013 6.84064 16.4545L10.0124 13.4932C11.0413 12.5326 12.3965 11.9983 13.8041 11.9983H14.4432C16.156 11.9983 17.7218 12.966 18.4878 14.498V14.498" stroke="#3C3C3B" stroke-width="2" stroke-linecap="round" stroke-linejoin="round"/>
</svg>
