<svg width="30" height="30" viewBox="0 0 30 30" fill="none" xmlns="http://www.w3.org/2000/svg">
<path d="M14.9915 6.23975H26.2406" stroke="#3C3C3B" stroke-width="2" stroke-miterlimit="10" stroke-linecap="round" stroke-linejoin="round"/>
<path d="M14.9915 14.989H26.2406" stroke="#3C3C3B" stroke-width="2" stroke-miterlimit="10" stroke-linecap="round" stroke-linejoin="round"/>
<path d="M14.9915 23.7384H26.2406" stroke="#3C3C3B" stroke-width="2" stroke-miterlimit="10" stroke-linecap="round" stroke-linejoin="round"/>
<path d="M4.26006 4.47212L6.02769 6.23725L7.79531 4.47212L6.03019 6.23975L7.79531 8.00737L6.02769 6.24225L4.26006 8.00737L6.02519 6.23975L4.26006 4.47212Z" stroke="#3C3C3B" stroke-width="2" stroke-linecap="round" stroke-linejoin="round"/>
<path d="M4.26006 13.2214L6.02769 14.9865L7.79531 13.2214L6.03019 14.989L7.79531 16.7566L6.02769 14.9915L4.26006 16.7566L6.02519 14.989L4.26006 13.2214Z" stroke="#3C3C3B" stroke-width="2" stroke-linecap="round" stroke-linejoin="round"/>
<path d="M4.26006 21.9704L6.02769 23.7355L7.79531 21.9704L6.03019 23.738L7.79531 25.5057L6.02769 23.7405L4.26006 25.5057L6.02519 23.738L4.26006 21.9704Z" stroke="#3C3C3B" stroke-width="2" stroke-linecap="round" stroke-linejoin="round"/>
</svg>
