<svg width="31" height="31" viewBox="0 0 31 31" fill="none" xmlns="http://www.w3.org/2000/svg">
<path d="M7.2356 15.7478V25.2465C7.2356 26.213 8.0191 26.9965 8.98559 26.9965H22.9836C23.9501 26.9965 24.7336 26.213 24.7336 25.2465V15.7478" stroke="#3C3C3B" stroke-width="2"/>
<path d="M15.9846 15.7478L15.9846 26.9965" stroke="#3C3C3B" stroke-width="2"/>
<path d="M12.8631 3.24927C14.5658 3.24927 15.9848 4.6682 15.9848 6.37092V9.49257H12.8631C11.1604 9.49257 9.74146 8.07364 9.74146 6.37092C9.74146 4.6682 11.1604 3.24927 12.8631 3.24927Z" stroke="#3C3C3B" stroke-width="2" stroke-miterlimit="10" stroke-linecap="round" stroke-linejoin="round"/>
<path d="M19.1063 3.24927C17.4036 3.24927 15.9846 4.6682 15.9846 6.37092V9.49257H19.1063C20.809 9.49257 22.2279 8.07364 22.2279 6.37092C22.2279 4.6682 20.809 3.24927 19.1063 3.24927Z" stroke="#3C3C3B" stroke-width="2" stroke-miterlimit="10" stroke-linecap="round" stroke-linejoin="round"/>
<rect x="4.73584" y="9.49243" width="22.4975" height="6.2554" rx="1.24986" stroke="#3C3C3B" stroke-width="2" stroke-linecap="round" stroke-linejoin="round"/>
</svg>
