<svg width="31" height="30" viewBox="0 0 31 30" fill="none" xmlns="http://www.w3.org/2000/svg">
<path d="M9.73852 14.9891V5.92732C9.73852 4.71929 10.7178 3.73999 11.9258 3.73999H26.2997C27.5077 3.73999 28.487 4.71929 28.487 5.92732V22.4885C28.487 22.4885 28.487 22.4885 28.487 22.4885C28.487 22.4885 28.487 26.2382 25.3623 26.2382C22.2375 26.2382 6.61377 26.2382 6.61377 26.2382M9.73852 14.9891H3.48901V22.4885C3.48901 22.4885 3.48901 22.4885 3.48901 22.4885C3.48901 22.4886 3.48907 26.2382 6.61377 26.2382M9.73852 14.9891V22.4885C9.73852 22.4885 9.73852 22.4885 9.73852 22.4885C9.73852 22.4885 9.73851 26.2382 6.61377 26.2382" stroke="#3C3C3B" stroke-width="2" stroke-miterlimit="10" stroke-linecap="round" stroke-linejoin="round"/>
<path d="M14.7383 12.4893L23.4876 12.4893" stroke="#3C3C3B" stroke-width="2" stroke-miterlimit="10" stroke-linecap="round" stroke-linejoin="round"/>
<path d="M14.7383 17.4889H23.4876" stroke="#3C3C3B" stroke-width="2" stroke-miterlimit="10" stroke-linecap="round" stroke-linejoin="round"/>
</svg>
