<svg width="31" height="30" viewBox="0 0 31 30" fill="none" xmlns="http://www.w3.org/2000/svg">
<path d="M27.6944 17.9433C28.7121 17.0202 28.3203 15.4976 28.1635 15.1281L23.865 5.91614C23.249 4.59594 21.924 3.75208 20.4672 3.75208H9.73169L9.73168 15.9687C9.73159 16.0566 9.76587 16.1431 9.80667 16.2209C9.84746 16.2988 9.93368 16.3655 10.006 16.4154C12.0712 17.841 14.3793 21.0933 14.3793 24.0703C14.3587 24.5966 14.5304 25.1125 14.8624 25.5215C15.1944 25.9305 15.6639 26.2046 16.1832 26.2927C17.2392 26.439 18.59 25.7886 19.2274 23.512C19.4564 21.8975 19.2777 20.6096 18.6792 19.0927C18.6659 19.0521 18.6623 19.0088 18.6689 18.9665C18.6755 18.9243 18.692 18.8841 18.717 18.8494C18.7421 18.8148 18.775 18.7949 18.8131 18.7754C18.8512 18.7559 18.8934 18.7505 18.9361 18.7504H25.778C26.4968 18.7504 27.1861 18.4516 27.6944 17.9433Z" fill="white" stroke="#3C3C3B" stroke-width="2" stroke-linecap="round" stroke-linejoin="round"/>
<path d="M3.48267 14.7506C3.48267 15.579 4.15424 16.2506 4.98267 16.2506H9.73196V3.75201H4.98267C4.15424 3.75201 3.48267 4.42359 3.48267 5.25201V14.7506Z" stroke="#3C3C3B" stroke-width="2" stroke-linecap="round" stroke-linejoin="round"/>
</svg>
