<svg width="30" height="30" viewBox="0 0 30 30" fill="none" xmlns="http://www.w3.org/2000/svg">
<path d="M12.4168 5.1206L12.5923 6.10509C12.9202 6.04664 13.1975 5.82876 13.3318 5.52396L12.4168 5.1206ZM17.5658 5.1206L16.6508 5.52396C16.7851 5.82876 17.0624 6.04664 17.3904 6.10509L17.5658 5.1206ZM23.7403 22.502H22.7403C22.7403 22.7672 22.8457 23.0216 23.0332 23.2091L23.7403 22.502ZM24.9902 23.7519V24.7519C25.3946 24.7519 25.7593 24.5082 25.9141 24.1346C26.0688 23.7609 25.9833 23.3308 25.6973 23.0448L24.9902 23.7519ZM4.99243 23.7519L4.28532 23.0448C3.99933 23.3308 3.91377 23.7609 4.06855 24.1346C4.22333 24.5082 4.58797 24.7519 4.99243 24.7519V23.7519ZM6.24229 22.502L6.9494 23.2091C7.13693 23.0216 7.24229 22.7672 7.24229 22.502H6.24229ZM13.3318 5.52396C13.6136 4.88469 14.2518 4.44165 14.9913 4.44165V2.44165C13.4309 2.44165 12.0917 3.37902 11.5018 4.71724L13.3318 5.52396ZM14.9913 4.44165C15.7308 4.44165 16.369 4.88469 16.6508 5.52396L18.4809 4.71724C17.891 3.37902 16.5517 2.44165 14.9913 2.44165V4.44165ZM24.7403 12.5031C24.7403 8.32041 21.7199 4.84521 17.7413 4.13612L17.3904 6.10509C20.4315 6.64711 22.7403 9.30653 22.7403 12.5031H24.7403ZM24.7403 22.502V12.5031H22.7403V22.502H24.7403ZM25.6973 23.0448L24.4474 21.7949L23.0332 23.2091L24.2831 24.459L25.6973 23.0448ZM4.99243 24.7519H24.9902V22.7519H4.99243V24.7519ZM5.53518 21.7949L4.28532 23.0448L5.69954 24.459L6.9494 23.2091L5.53518 21.7949ZM5.24229 12.5031V22.502H7.24229V12.5031H5.24229ZM12.2413 4.13612C8.26275 4.84522 5.24229 8.32041 5.24229 12.5031H7.24229C7.24229 9.30652 9.55109 6.64711 12.5923 6.10509L12.2413 4.13612Z" fill="#3C3C3B"/>
<path d="M12.4917 23.7517V25.0016C12.4917 26.3821 13.6109 27.5013 14.9914 27.5013C16.372 27.5013 17.4911 26.3821 17.4911 25.0016V23.7517" stroke="#3C3C3B" stroke-width="2"/>
</svg>
