<svg width="30" height="30" viewBox="0 0 30 30" fill="none" xmlns="http://www.w3.org/2000/svg">
<path d="M15 24.5C19.1422 24.5 22.5 21.1422 22.5 17C22.5 12.8578 19.1422 9.5 15 9.5C10.8578 9.5 7.5 12.8578 7.5 17C7.5 21.1422 10.8578 24.5 15 24.5Z" fill="#F33729"/>
<path d="M15.2875 13.4951L16.1473 15.2365C16.1689 15.2794 16.2004 15.3163 16.2391 15.3445C16.2779 15.3723 16.3233 15.3906 16.3705 15.3975L18.2949 15.6756C18.3497 15.6836 18.401 15.7067 18.443 15.7422C18.4855 15.7776 18.5169 15.8245 18.5338 15.8768C18.551 15.9295 18.5532 15.9854 18.54 16.0392C18.5268 16.0926 18.499 16.1417 18.4595 16.1804L17.0693 17.5378C17.0349 17.5714 17.0093 17.6131 16.9946 17.6589C16.98 17.705 16.9767 17.7536 16.9851 17.8012L17.3144 19.7146C17.3246 19.7695 17.3191 19.8262 17.2983 19.8778C17.2774 19.9297 17.2427 19.9747 17.1977 20.0076C17.1523 20.0406 17.0989 20.06 17.0433 20.0636C16.9877 20.0676 16.9321 20.0556 16.8827 20.0292L15.1632 19.1256C15.1204 19.1029 15.0728 19.0908 15.0241 19.0908C14.9758 19.0908 14.9279 19.1029 14.8851 19.1256L13.1656 20.0292C13.1166 20.0556 13.061 20.0676 13.0054 20.0636C12.9494 20.06 12.896 20.0406 12.851 20.0076C12.806 19.9747 12.7708 19.9297 12.7503 19.8778C12.7295 19.8262 12.724 19.7695 12.7339 19.7146L13.0632 17.8012C13.0716 17.7536 13.0686 17.705 13.0536 17.6589C13.039 17.6131 13.0134 17.5714 12.979 17.5378L11.5888 16.1804C11.5496 16.1417 11.5214 16.0926 11.5086 16.0392C11.4955 15.9854 11.4973 15.9295 11.5145 15.8768C11.5317 15.8245 11.5632 15.7776 11.6052 15.7422C11.6477 15.7067 11.6989 15.6836 11.7534 15.6756L13.6778 15.3975C13.7254 15.3906 13.7704 15.3723 13.8091 15.3445C13.8483 15.3163 13.8797 15.2794 13.901 15.2365L14.7607 13.4951C14.7856 13.4468 14.8236 13.4062 14.8701 13.3776C14.9166 13.3495 14.97 13.3345 15.0241 13.3345C15.0786 13.3345 15.1321 13.3495 15.1785 13.3776C15.225 13.4062 15.2627 13.4468 15.2875 13.4951Z" fill="white"/>
<path d="M27.8906 6.5625H2.10938C1.46217 6.5625 0.9375 7.07551 0.9375 7.70833V26.0417C0.9375 26.6745 1.46217 27.1875 2.10938 27.1875H27.8906C28.5378 27.1875 29.0625 26.6745 29.0625 26.0417V7.70833C29.0625 7.07551 28.5378 6.5625 27.8906 6.5625Z" stroke="#3C3C3B" stroke-width="1.4" stroke-linecap="round" stroke-linejoin="round"/>
<path d="M20.625 6.5625V4.21875C20.625 3.59715 20.3879 3.00101 19.966 2.56147C19.544 2.12193 18.9717 1.875 18.375 1.875H11.625C11.0283 1.875 10.456 2.12193 10.034 2.56147C9.61205 3.00101 9.375 3.59715 9.375 4.21875V6.5625" stroke="#3C3C3B" stroke-width="1.4" stroke-linecap="round" stroke-linejoin="round"/>
</svg>
