<svg width="31" height="30" viewBox="0 0 31 30" fill="none" xmlns="http://www.w3.org/2000/svg">
<path d="M14.8491 10.8922C14.9414 10.869 15.0256 10.821 15.0927 10.7535L21.9415 3.89634C21.9901 3.84764 22.0479 3.80906 22.1116 3.78281C22.1752 3.75656 22.2434 3.74317 22.3123 3.74341H26.8164C26.9553 3.74341 27.0885 3.79859 27.1868 3.89681C27.285 3.99503 27.3402 4.12825 27.3402 4.26715V8.77131C27.3387 8.90749 27.2837 9.03764 27.1872 9.13373L20.3301 15.993C20.2624 16.0599 20.2143 16.1441 20.191 16.2364C20.1678 16.3288 20.1702 16.4257 20.1981 16.5167C20.4422 17.2831 20.57 18.0818 20.5773 18.8861C20.5773 20.5435 20.0858 22.1636 19.165 23.5417C18.2442 24.9198 16.9355 25.9938 15.4043 26.6281C13.8731 27.2623 12.1882 27.4283 10.5626 27.1049C8.93711 26.7816 7.44396 25.9835 6.27203 24.8115C5.10009 23.6396 4.30198 22.1465 3.97865 20.5209C3.65531 18.8954 3.82126 17.2105 4.45551 15.6793C5.08976 14.1481 6.16382 12.8393 7.54188 11.9185C8.91993 10.9978 10.5401 10.5063 12.1975 10.5063C13.0024 10.5137 13.8018 10.6415 14.5689 10.8855C14.66 10.9131 14.7569 10.9155 14.8491 10.8922Z" stroke="#3C3C3B" stroke-width="2" stroke-miterlimit="10" stroke-linecap="round" stroke-linejoin="round"/>
<circle cx="12.1505" cy="18.6719" r="2.64639" stroke="#3C3C3B" stroke-width="2" stroke-miterlimit="10" stroke-linecap="round" stroke-linejoin="round"/>
</svg>
