<svg width="31" height="30" viewBox="0 0 31 30" fill="none" xmlns="http://www.w3.org/2000/svg">
<path d="M23.3925 24.8471C21.7643 26.4752 19.2678 26.6923 17.314 25.4983C12.6465 22.3505 8.63038 18.3344 5.48258 13.6669C4.28859 11.7131 4.50568 9.21661 6.13385 7.58844L8.91489 5.42285L13.4067 9.87562L11.7272 11.7755C11.0759 12.4268 11.0759 13.4037 11.7272 14.055L16.9611 19.2108C17.6124 19.8621 18.5893 19.8621 19.2406 19.2108L20.9842 17.5313L25.7886 22.1793L23.3925 24.8471Z" stroke="#3C3C3B" stroke-width="2" stroke-miterlimit="10" stroke-linecap="round" stroke-linejoin="round"/>
<path d="M18.4844 7.49304C21.4789 7.49304 23.484 9.49812 23.484 12.4926" stroke="#3C3C3B" stroke-width="2" stroke-miterlimit="10" stroke-linecap="round" stroke-linejoin="round"/>
<path d="M18.4844 2.49341C24.2494 2.49341 28.4836 6.85294 28.4836 12.4926" stroke="#3C3C3B" stroke-width="2" stroke-miterlimit="10" stroke-linecap="round" stroke-linejoin="round"/>
</svg>
