<svg width="31" height="30" viewBox="0 0 31 30" fill="none" xmlns="http://www.w3.org/2000/svg">
<path d="M15.9847 15.4685C12.9535 15.4685 10.3601 12.8401 10.3601 9.70391V8.20296C10.3601 5.06674 12.9535 2.50073 15.9847 2.50073C19.0159 2.50073 21.6092 5.06674 21.6092 8.20296V9.70391C21.6092 12.8401 19.0159 15.4685 15.9847 15.4685Z" stroke="#3C3C3B" stroke-width="2" stroke-miterlimit="10" stroke-linecap="round" stroke-linejoin="round"/>
<path d="M5.71157 27.4988L26.2577 27.4987C27.071 27.4987 27.6677 26.7345 27.4704 25.9456L26.836 23.408C26.3352 21.4047 24.5353 19.9994 22.4704 19.9994H18.4845L15.9847 22.4992L13.4849 19.9994H9.49895C7.43404 19.9994 5.63411 21.4047 5.1333 23.408L4.49889 25.9457C4.30166 26.7346 4.89836 27.4988 5.71157 27.4988Z" stroke="#3C3C3B" stroke-width="2" stroke-miterlimit="10" stroke-linecap="round" stroke-linejoin="round"/>
</svg>
