<svg width="31" height="30" viewBox="0 0 31 30" fill="none" xmlns="http://www.w3.org/2000/svg">
<path d="M7.7299 20.3996C7.49679 20.3999 7.26424 20.3769 7.03571 20.3309C6.90964 20.3052 6.77943 20.308 6.65455 20.3389C6.52966 20.3698 6.41322 20.4281 6.31366 20.5096C6.2141 20.5911 6.13391 20.6937 6.07892 20.81C6.02392 20.9263 5.9955 21.0534 5.9957 21.182L5.99092 24.7314C5.991 25.1914 6.17375 25.6324 6.49898 25.9577C6.82421 26.2829 7.26528 26.4656 7.72521 26.4657L24.0958 26.4662C24.5557 26.4662 24.9968 26.2834 25.322 25.9582C25.6472 25.633 25.8299 25.192 25.83 24.732L25.8286 20.9018C25.8286 20.7578 25.7927 20.616 25.7242 20.4894C25.6557 20.3627 25.5568 20.2551 25.4363 20.1762C25.3158 20.0973 25.1776 20.0497 25.0341 20.0376C24.8906 20.0255 24.7463 20.0494 24.6144 20.107C24.1417 20.3126 23.6292 20.4103 23.114 20.393C22.5989 20.3757 22.0941 20.2438 21.6363 20.0069C21.1784 19.7701 20.7792 19.4341 20.4675 19.0236C20.1558 18.6131 19.9395 18.1382 19.8343 17.6336C19.7291 17.129 19.7377 16.6073 19.8594 16.1065C19.9811 15.6056 20.213 15.1382 20.538 14.7382C20.8631 14.3382 21.2732 14.0156 21.7385 13.794C22.2039 13.5724 22.7128 13.4573 23.2282 13.457C23.7057 13.4551 24.1782 13.5533 24.6154 13.7453C24.7475 13.8032 24.892 13.8272 25.0358 13.8152C25.1795 13.8032 25.318 13.7556 25.4387 13.6765C25.5594 13.5975 25.6584 13.4896 25.7269 13.3626C25.7954 13.2357 25.8311 13.0936 25.8308 12.9493L25.8306 9.12029C25.8306 8.66037 25.6478 8.21929 25.3226 7.89407C24.9973 7.56884 24.5563 7.38609 24.0963 7.386L19.5892 7.38588C19.5198 7.38644 19.4512 7.3701 19.3895 7.33826C19.3277 7.30642 19.2746 7.26004 19.2348 7.20313C19.195 7.14635 19.1693 7.08089 19.1599 7.0122C19.1506 6.94351 19.1577 6.87357 19.1808 6.8082C19.3129 6.43699 19.3797 6.04568 19.3782 5.65165C19.3768 5.14714 19.2654 4.64899 19.0518 4.19194C18.8381 3.7349 18.5273 3.32995 18.1411 3.00533C17.7549 2.68072 17.3025 2.44425 16.8155 2.31242C16.3285 2.18059 15.8186 2.15657 15.3214 2.24203C14.8242 2.32749 14.3516 2.52037 13.9366 2.80724C13.5216 3.0941 13.1742 3.46803 12.9185 3.90297C12.6629 4.33791 12.5052 4.82337 12.4565 5.32552C12.4078 5.82767 12.4691 6.33441 12.6364 6.81042C12.6588 6.87543 12.6655 6.94485 12.6558 7.01295C12.6462 7.08105 12.6205 7.14587 12.5808 7.20206C12.5411 7.25825 12.4887 7.30421 12.4278 7.33612C12.3668 7.36804 12.2992 7.38501 12.2304 7.38562L7.72453 7.38673C7.2646 7.38678 6.82354 7.5695 6.49834 7.89471C6.17313 8.21991 5.99041 8.66098 5.99036 9.1209L5.98926 12.6764C5.98899 12.8054 6.01747 12.9327 6.07261 13.0492C6.12776 13.1657 6.20819 13.2685 6.30804 13.35C6.4079 13.4316 6.52468 13.4898 6.64987 13.5205C6.77507 13.5513 6.90554 13.5537 7.03179 13.5276C7.25976 13.4806 7.49197 13.4572 7.72474 13.4578C8.18055 13.4575 8.63196 13.5469 9.0532 13.7211C9.47444 13.8952 9.85726 14.1506 10.1798 14.4727C10.5023 14.7948 10.7583 15.1773 10.933 15.5983C11.1078 16.0193 11.1979 16.4705 11.1982 16.9263C11.1986 17.3822 11.1091 17.8336 10.935 18.2548C10.7609 18.676 10.5055 19.0588 10.1834 19.3813C9.86138 19.7039 9.47894 19.9598 9.05796 20.1345C8.63698 20.3092 8.1857 20.3993 7.7299 20.3996Z" stroke="#3C3C3B" stroke-width="2" stroke-miterlimit="10" stroke-linecap="round" stroke-linejoin="round"/>
</svg>
