<svg width="30" height="30" viewBox="0 0 30 30" fill="none" xmlns="http://www.w3.org/2000/svg">
<path fill-rule="evenodd" clip-rule="evenodd" d="M25.7237 10.2406C25.7237 13.1791 24.9143 16.1985 23.109 18.9234C22.2187 20.2971 21.1665 21.4842 19.9524 22.5363C17.4996 24.5845 13.9676 25.9604 10.0039 25.9604C6.68773 25.9604 3.85494 25.205 1.51001 23.7234C1.94167 23.7751 2.37334 23.8043 2.83198 23.8043C5.23087 23.8043 7.49486 22.941 9.68016 21.1874C8.49308 21.1604 7.41392 20.8097 6.4719 20.0812C5.52764 19.3551 4.88014 18.4378 4.52941 17.3316C4.88014 17.4126 5.23087 17.4395 5.55461 17.4395C6.06722 17.4395 6.55284 17.3856 7.03846 17.2507C5.77045 17.0079 4.69129 16.3604 3.85494 15.3644C3.02083 14.3392 2.61615 13.1521 2.61615 11.8302V11.7492C3.39629 12.2079 4.20566 12.4237 5.09597 12.4507C3.45025 11.3468 2.64313 9.80898 2.64313 7.86649C2.64313 6.95145 2.88594 6.06115 3.36931 5.17084C6.17513 8.54097 10.2467 10.6184 14.7769 10.8612C14.696 10.5104 14.642 10.0788 14.642 9.56617C14.642 8.05535 15.1816 6.7626 16.2316 5.68344C17.3107 4.5773 18.6327 4.03772 20.1683 4.03772C21.76 4.03772 23.109 4.63126 24.2398 5.79136C25.4539 5.54855 26.614 5.0899 27.7201 4.44241C27.3154 5.76438 26.1161 7.35405 25.292 7.51577C26.3442 7.38087 27.4234 7.08635 28.4733 6.62771C27.7201 7.75858 26.8028 8.72982 25.7237 9.51221V10.2406Z" fill="#3C3C3B"/>
</svg>
