<svg width="31" height="30" viewBox="0 0 31 30" fill="none" xmlns="http://www.w3.org/2000/svg">
<path d="M22.2234 16.2496V25.7411" stroke="#3C3C3B" stroke-width="2" stroke-linecap="round"/>
<path fill-rule="evenodd" clip-rule="evenodd" d="M5.97475 26.2489C5.28445 26.2489 4.72485 25.6893 4.72485 24.999V13.1432C4.72485 12.7396 4.9198 12.3607 5.24826 12.1261L12.7477 6.76941C13.1823 6.45899 13.7661 6.45899 14.2007 6.76941L21.7001 12.1261C22.0285 12.3607 22.2235 12.7396 22.2235 13.1432V18.7495H26.0969C26.7872 18.7495 27.3468 19.3091 27.3468 19.9994V24.999" stroke="#3C3C3B" stroke-width="2" stroke-linecap="round"/>
<path d="M10.9744 24.9989L10.9744 21.8742C10.9744 20.4936 12.0936 19.3744 13.4742 19.3744V19.3744C14.8548 19.3744 15.974 20.4936 15.974 21.8742V24.9989" stroke="#3C3C3B" stroke-width="2" stroke-linecap="round"/>
<path d="M12.2241 14.3749L14.7239 14.3749" stroke="#3C3C3B" stroke-width="2" stroke-linecap="round"/>
</svg>
