<svg width="31" height="30" viewBox="0 0 31 30" fill="none" xmlns="http://www.w3.org/2000/svg">
<path d="M9.72778 8.79041H17.2272" stroke="#3C3C3B" stroke-width="2" stroke-linecap="round"/>
<path d="M9.72778 13.7499H17.2272" stroke="#3C3C3B" stroke-width="2" stroke-linecap="round"/>
<path d="M9.72778 18.7495H12.8525" stroke="#3C3C3B" stroke-width="2" stroke-linecap="round"/>
<path d="M22.2268 25.663L22.2268 22.421" stroke="#3C3C3B" stroke-width="2" stroke-linecap="round"/>
<path d="M18.3706 26.249H6.47827C5.51177 26.249 4.72827 25.4654 4.72827 24.499V5.50073C4.72827 4.53423 5.51177 3.75073 6.47827 3.75073H20.4769C21.4434 3.75073 22.2269 4.53423 22.2269 5.50073V17.4996" stroke="#3C3C3B" stroke-width="2" stroke-linecap="round"/>
<path d="M17.2273 19.2496C17.2273 18.2831 18.0108 17.4996 18.9773 17.4996H25.4765C26.443 17.4996 27.2265 18.2831 27.2265 19.2496V24.4989C27.2265 25.4654 26.443 26.2489 25.4765 26.2489H17.2273V19.2496Z" stroke="#3C3C3B" stroke-width="2" stroke-linecap="round"/>
</svg>
