<svg width="31" height="30" viewBox="0 0 31 30" fill="none" xmlns="http://www.w3.org/2000/svg">
<path d="M27.6981 12.0601C28.7158 12.9833 28.3239 14.5058 28.1672 14.8753L23.8687 24.0873C23.2526 25.4075 21.9277 26.2513 20.4708 26.2513H9.73536L9.73534 14.0347C9.73525 13.9468 9.76954 13.8603 9.81033 13.7825C9.85112 13.7047 9.93735 13.6379 10.0097 13.588C12.0749 12.1624 14.3829 8.91011 14.3829 5.93315C14.3624 5.40679 14.5341 4.89094 14.8661 4.48195C15.198 4.07296 15.6676 3.79882 16.1869 3.71072C17.2428 3.56437 18.5936 4.21483 19.2311 6.49146C19.4601 8.10596 19.2813 9.39382 18.6829 10.9107C18.6695 10.9513 18.666 10.9946 18.6726 11.0369C18.6791 11.0792 18.6956 11.1193 18.7207 11.154C18.7458 11.1887 18.7787 11.2085 18.8168 11.228C18.8548 11.2475 18.897 11.2529 18.9398 11.253H25.7816C26.5004 11.253 27.1898 11.5518 27.6981 12.0601Z" fill="white" stroke="#3C3C3B" stroke-width="2" stroke-linecap="round" stroke-linejoin="round"/>
<path d="M3.48608 15.2524C3.48608 14.424 4.15766 13.7524 4.98608 13.7524H9.73538V26.251H4.98608C4.15766 26.251 3.48608 25.5795 3.48608 24.751V15.2524Z" stroke="#3C3C3B" stroke-width="2" stroke-linecap="round" stroke-linejoin="round"/>
</svg>
