<svg width="30" height="30" viewBox="0 0 30 30" fill="none" xmlns="http://www.w3.org/2000/svg">
<path fill-rule="evenodd" clip-rule="evenodd" d="M12.4964 19.061L12.4951 10.9366L19.9945 15.013L12.4964 19.061ZM27.3762 6.24977C26.3305 5.08506 25.1585 5.07931 24.621 5.01112C20.7731 4.71533 15.001 4.71533 15.001 4.71533C14.989 4.71533 9.21707 4.71533 5.36901 5.01112C4.83149 5.07931 3.65986 5.08506 2.61384 6.24977C1.78937 7.13715 1.52109 9.15225 1.52109 9.15225C1.52109 9.15225 1.24609 11.5186 1.24609 13.885V16.1035C1.24609 18.4698 1.52109 20.8362 1.52109 20.8362C1.52109 20.8362 1.78937 22.8513 2.61384 23.7387C3.65986 24.9034 5.03388 24.8665 5.64583 24.9886C7.84572 25.2129 14.995 25.2824 14.995 25.2824C14.995 25.2824 20.7731 25.2731 24.621 24.9773C25.1585 24.9091 26.3305 24.9034 27.3762 23.7387C28.2006 22.8513 28.4693 20.8362 28.4693 20.8362C28.4693 20.8362 28.7439 18.4698 28.7439 16.1035V13.885C28.7439 11.5186 28.4693 9.15225 28.4693 9.15225C28.4693 9.15225 28.2006 7.13715 27.3762 6.24977Z" fill="#3C3C3B"/>
</svg>
