<svg width="16" height="17" viewBox="0 0 16 17" fill="none" xmlns="http://www.w3.org/2000/svg">
<path d="M2.3501 3.78594C2.3501 3.18003 2.84129 2.68884 3.4472 2.68884H12.5374C13.1434 2.68884 13.6345 3.18003 13.6345 3.78594V12.8762C13.6345 13.4821 13.1434 13.9733 12.5374 13.9733H3.4472C2.84129 13.9733 2.3501 13.4821 2.3501 12.8762V3.78594Z" stroke="#3C3C3B" stroke-width="1.00317" stroke-miterlimit="10" stroke-linecap="round" stroke-linejoin="round"/>
<path d="M2.35791 10.2118H5.79813C5.97125 10.2118 6.11159 10.3521 6.11159 10.5252V11.4656C6.11159 11.6387 6.25193 11.7791 6.42504 11.7791H9.55961C9.73273 11.7791 9.87307 11.6387 9.87307 11.4656V10.5252C9.87307 10.3521 10.0134 10.2118 10.1865 10.2118H13.5248" stroke="#3C3C3B" stroke-width="1.00317" stroke-miterlimit="10" stroke-linecap="round" stroke-linejoin="round"/>
<path d="M5.48486 7.7041H10.5002" stroke="#3C3C3B" stroke-width="1.00317" stroke-miterlimit="10" stroke-linecap="round" stroke-linejoin="round"/>
<path d="M5.48486 5.19653H10.5002" stroke="#3C3C3B" stroke-width="1.00317" stroke-miterlimit="10" stroke-linecap="round" stroke-linejoin="round"/>
</svg>
