<svg width="17" height="17" viewBox="0 0 17 17" fill="none" xmlns="http://www.w3.org/2000/svg">
<path d="M9.02865 3.52032C9.6374 2.91172 10.4629 2.56982 11.3237 2.56982C12.1845 2.56982 13.0101 2.91172 13.6188 3.52032C14.2274 4.12907 14.5693 4.95462 14.5693 5.81541C14.5693 6.67621 14.2274 7.50176 13.6188 8.11051L8.11002 13.6193C7.50127 14.2279 6.67572 14.5698 5.81493 14.5698C4.95413 14.5698 4.12858 14.2279 3.51984 13.6193C2.91123 13.0106 2.56934 12.185 2.56934 11.3242C2.56934 10.4634 2.91123 9.63789 3.51984 9.02914L6.50375 6.04522C6.65426 5.89419 6.83311 5.77435 7.03003 5.69259C7.22695 5.61082 7.43808 5.56873 7.6513 5.56873C7.86452 5.56873 8.07565 5.61082 8.27257 5.69259C8.46949 5.77435 8.64834 5.89419 8.79884 6.04522C8.94988 6.19573 9.06971 6.37458 9.15148 6.5715C9.23325 6.76842 9.27534 6.97955 9.27534 7.19277C9.27534 7.40599 9.23325 7.61712 9.15148 7.81404C9.06971 8.01096 8.94988 8.1898 8.79884 8.34031L5.81553 11.3242" stroke="#3C3C3B" stroke-width="1.25387" stroke-linecap="round"/>
</svg>
