<svg width="17" height="17" viewBox="0 0 17 17" fill="none" xmlns="http://www.w3.org/2000/svg">
<path d="M2.72852 3.95533C2.72852 3.12434 3.40217 2.45068 4.23316 2.45068H12.5087C13.3397 2.45068 14.0133 3.12434 14.0133 3.95533V12.2309C14.0133 13.0619 13.3397 13.7355 12.5087 13.7355H4.23316C3.40217 13.7355 2.72852 13.0619 2.72852 12.2309V3.95533Z" stroke="#3C3C3B" stroke-width="1.00317" stroke-miterlimit="10" stroke-linecap="round" stroke-linejoin="round"/>
<path d="M11.5052 13.7355V13.1086C11.5052 11.7692 10.1652 10.6008 8.4423 10.6008H8.29873C6.62371 10.6008 5.23584 11.7692 5.23584 13.1086V13.7355" stroke="#3C3C3B" stroke-width="1.00317" stroke-miterlimit="10" stroke-linecap="round" stroke-linejoin="round"/>
<path d="M6.80322 6.52571C6.80322 5.6708 7.46315 4.95837 8.25507 4.95837L8.48605 4.95837C9.27796 4.95837 9.9379 5.6708 9.9379 6.52571C9.9379 7.38062 9.27796 8.09305 8.48605 8.09305H8.25507C7.46315 8.05743 6.80322 7.38062 6.80322 6.52571Z" stroke="#3C3C3B" stroke-width="1.00317" stroke-miterlimit="10" stroke-linecap="round" stroke-linejoin="round"/>
</svg>
