<svg width="16" height="16" viewBox="0 0 16 16" fill="none" xmlns="http://www.w3.org/2000/svg">
<path d="M1.88086 5.64242C1.88086 4.94993 2.44224 4.38855 3.13473 4.38855H11.9118C12.6043 4.38855 13.1657 4.94993 13.1657 5.64242V11.2848C13.1657 11.9773 12.6043 12.5387 11.9118 12.5387H3.13473C2.44224 12.5387 1.88086 11.9773 1.88086 11.2848V5.64242Z" stroke="#3C3C3B" stroke-width="1.00317"/>
<path d="M13.1657 6.89624C13.1657 6.89624 10.031 8.15011 7.52327 8.15011C5.01553 8.15011 1.88086 6.89624 1.88086 6.89624" stroke="#3C3C3B" stroke-width="1.00317"/>
<path d="M9.40419 4.07513V3.63086C9.40419 2.66436 8.62068 1.88086 7.65418 1.88086H7.39258C6.42608 1.88086 5.64258 2.66436 5.64258 3.63086V4.07513" stroke="#3C3C3B" stroke-width="1.00317"/>
</svg>
