<svg width="17" height="17" viewBox="0 0 17 17" fill="none" xmlns="http://www.w3.org/2000/svg">
<path d="M6.02573 2.93924L6.44308 3.21747V3.21747L6.02573 2.93924ZM5.09756 4.33149V4.83307C5.26527 4.83307 5.42188 4.74926 5.51491 4.60972L5.09756 4.33149ZM11.3669 4.33149L10.9496 4.60972C11.0426 4.74926 11.1992 4.83307 11.3669 4.83307V4.33149ZM10.4387 2.93924L10.8561 2.66101L10.8561 2.66101L10.4387 2.93924ZM6.44308 3.21747C6.55353 3.05179 6.73948 2.95227 6.9386 2.95227V1.9491C6.40406 1.9491 5.90489 2.21624 5.60838 2.66101L6.44308 3.21747ZM5.51491 4.60972L6.44308 3.21747L5.60838 2.66101L4.68022 4.05326L5.51491 4.60972ZM3.06003 4.83307H5.09756V3.8299H3.06003V4.83307ZM2.46448 5.42862C2.46448 5.09971 2.73111 4.83307 3.06003 4.83307V3.8299C2.17708 3.8299 1.4613 4.54567 1.4613 5.42862H2.46448ZM2.46448 12.6384V5.42862H1.4613V12.6384H2.46448ZM3.06003 13.2339C2.73111 13.2339 2.46448 12.9673 2.46448 12.6384H1.4613C1.4613 13.5213 2.17708 14.2371 3.06003 14.2371V13.2339ZM13.4044 13.2339H3.06003V14.2371H13.4044V13.2339ZM14 12.6384C14 12.9673 13.7334 13.2339 13.4044 13.2339V14.2371C14.2874 14.2371 15.0032 13.5213 15.0032 12.6384H14ZM14 5.42862V12.6384H15.0032V5.42862H14ZM13.4044 4.83307C13.7334 4.83307 14 5.09971 14 5.42862H15.0032C15.0032 4.54567 14.2874 3.8299 13.4044 3.8299V4.83307ZM11.3669 4.83307H13.4044V3.8299H11.3669V4.83307ZM10.0214 3.21747L10.9496 4.60972L11.7843 4.05326L10.8561 2.66101L10.0214 3.21747ZM9.52587 2.95227C9.72499 2.95227 9.91094 3.05179 10.0214 3.21747L10.8561 2.66101C10.5596 2.21624 10.0604 1.9491 9.52587 1.9491V2.95227ZM6.9386 2.95227H9.52587V1.9491H6.9386V2.95227Z" fill="#3C3C3B"/>
<circle cx="8.23237" cy="8.71992" r="1.8808" stroke="#3C3C3B" stroke-width="1.00317" stroke-linecap="round" stroke-linejoin="round"/>
<circle cx="12.1504" cy="6.68247" r="0.783668" fill="#3C3C3B"/>
</svg>
