<svg width="17" height="16" viewBox="0 0 17 16" fill="none" xmlns="http://www.w3.org/2000/svg">
<g clip-path="url(#clip0_121_7)">
<path d="M6.84196 2.99841H4.82102C4.17666 2.99841 3.6543 3.52077 3.6543 4.16514V13.4989C3.6543 14.1433 4.17666 14.6657 4.82102 14.6657H13.1548C13.7991 14.6657 14.3215 14.1433 14.3215 13.4989V4.16514C14.3215 3.52077 13.7991 2.99841 13.1548 2.99841H11.1338" stroke="#3C3C3B" stroke-miterlimit="10" stroke-linecap="round" stroke-linejoin="round"/>
<path d="M7.30713 4.24848H10.5771V2.96667C10.5771 2.06368 9.84512 1.33167 8.94213 1.33167C8.03914 1.33167 7.30713 2.06368 7.30713 2.96667V4.24848Z" stroke="#3C3C3B" stroke-miterlimit="10" stroke-linecap="round" stroke-linejoin="round"/>
<path d="M6.98779 7.99866L10.988 7.99866" stroke="#3C3C3B" stroke-miterlimit="10" stroke-linecap="round" stroke-linejoin="round"/>
<path d="M6.98779 10.6655L10.988 10.6655" stroke="#3C3C3B" stroke-miterlimit="10" stroke-linecap="round" stroke-linejoin="round"/>
</g>
<defs>
<clipPath id="clip0_121_7">
<rect width="16.0008" height="16.0008" fill="white" transform="translate(0.987305 -0.00170898)"/>
</clipPath>
</defs>
</svg>
