<svg width="17" height="16" viewBox="0 0 17 16" fill="none" xmlns="http://www.w3.org/2000/svg">
<path fill-rule="evenodd" clip-rule="evenodd" d="M2.13965 13.9999C2.13965 13.6317 2.43813 13.3333 2.80632 13.3333H13.473C13.8412 13.3333 14.1396 13.6317 14.1396 13.9999C14.1396 14.3681 13.8412 14.6666 13.473 14.6666H2.80632C2.43813 14.6666 2.13965 14.3681 2.13965 13.9999Z" fill="#3C3C3B"/>
<path fill-rule="evenodd" clip-rule="evenodd" d="M2.80615 3.33341C2.80615 2.96522 3.10463 2.66675 3.47282 2.66675H11.4728C11.841 2.66675 12.1395 2.96522 12.1395 3.33341V8.66675C12.1395 10.5077 10.6471 12.0001 8.80615 12.0001H6.13949C4.29854 12.0001 2.80615 10.5077 2.80615 8.66675V3.33341ZM4.13949 4.00008V8.66675C4.13949 9.77132 5.03492 10.6667 6.13949 10.6667H8.80615C9.91072 10.6667 10.8062 9.77132 10.8062 8.66675V4.00008H4.13949Z" fill="#3C3C3B"/>
<path fill-rule="evenodd" clip-rule="evenodd" d="M10.8062 4.66675H12.8062C13.9107 4.66675 14.8062 5.56218 14.8062 6.66675C14.8062 7.77132 13.9107 8.66675 12.8062 8.66675H10.8062V4.66675ZM12.1395 6.00008V7.33341H12.8062C13.1743 7.33341 13.4728 7.03494 13.4728 6.66675C13.4728 6.29856 13.1743 6.00008 12.8062 6.00008H12.1395Z" fill="#3C3C3B"/>
</svg>
