<svg width="17" height="17" viewBox="0 0 17 17" fill="none" xmlns="http://www.w3.org/2000/svg">
<path d="M7.09224 1.70815L7.57509 1.84395V1.84395L7.09224 1.70815ZM8.79032 1.70814L8.30747 1.84395L8.30747 1.84395L8.79032 1.70814ZM9.1589 3.01863L8.67604 3.15443C8.72431 3.32605 8.86005 3.45916 9.03259 3.50405L9.1589 3.01863ZM10.3793 3.52453L10.1253 3.95705C10.2791 4.04735 10.4692 4.04923 10.6247 3.96199L10.3793 3.52453ZM11.567 2.8583L11.8124 3.29576L11.567 2.8583ZM12.0476 2.9246L11.6929 3.27928L11.6929 3.27928L12.0476 2.9246ZM12.7014 3.57838L13.0561 3.2237L13.0561 3.2237L12.7014 3.57838ZM12.7677 4.05903L12.3302 3.81362L12.3302 3.81362L12.7677 4.05903ZM12.1015 5.24665L11.664 5.00125C11.5768 5.15677 11.5787 5.34691 11.669 5.50067L12.1015 5.24665ZM12.5664 6.31925L12.0853 6.46107C12.134 6.62658 12.2645 6.75539 12.4306 6.80211L12.5664 6.31925ZM13.9177 6.69932L13.7819 7.18217L13.7819 7.18217L13.9177 6.69932ZM13.9177 8.3974L13.7819 7.91455L13.7819 7.91455L13.9177 8.3974ZM12.643 8.75591L12.5072 8.27306C12.3302 8.32286 12.1946 8.46556 12.1539 8.64493L12.643 8.75591ZM12.1014 10.1228L11.6689 9.86879C11.5786 10.0226 11.5767 10.2127 11.6639 10.3682L12.1014 10.1228ZM12.7675 11.3103L13.205 11.0649L13.205 11.0649L12.7675 11.3103ZM11.5668 12.511L11.3214 12.9484H11.3214L11.5668 12.511ZM10.3793 11.8448L10.6247 11.4074C10.4692 11.3201 10.279 11.322 10.1253 11.4123L10.3793 11.8448ZM9.15882 12.3507L9.03252 11.8653C8.85998 11.9102 8.72424 12.0433 8.67597 12.2149L9.15882 12.3507ZM8.79032 13.6609L9.27318 13.7967L8.79032 13.6609ZM7.09224 13.6609L6.60939 13.7967L7.09224 13.6609ZM6.72373 12.3507L7.20658 12.2149C7.15832 12.0433 7.02258 11.9102 6.85005 11.8653L6.72373 12.3507ZM5.5032 11.8447L5.75724 11.4122C5.60347 11.3219 5.41332 11.32 5.2578 11.4072L5.5032 11.8447ZM4.31576 12.5108L4.56116 12.9483H4.56116L4.31576 12.5108ZM3.83511 12.4445L3.48043 12.7992L3.48044 12.7992L3.83511 12.4445ZM3.18133 11.7907L3.53601 11.4361L3.53601 11.4361L3.18133 11.7907ZM3.11503 11.3101L3.55249 11.5555L3.11503 11.3101ZM3.78119 10.1226L4.21865 10.368C4.30589 10.2125 4.30401 10.0223 4.21371 9.86857L3.78119 10.1226ZM3.23972 8.75596L3.72887 8.64497C3.68817 8.4656 3.55257 8.3229 3.37552 8.2731L3.23972 8.75596ZM1.96486 8.3974L1.82906 8.88026H1.82906L1.96486 8.3974ZM1.67188 8.01065H1.17029H1.67188ZM1.67188 7.08607H2.17346H1.67188ZM1.96486 6.69932L2.10066 7.18217L2.10066 7.18217L1.96486 6.69932ZM3.31636 6.31921L3.45216 6.80206C3.61827 6.75535 3.7487 6.62653 3.79748 6.46103L3.31636 6.31921ZM3.78133 5.24651L4.21384 5.50055C4.30415 5.34678 4.30604 5.15663 4.21879 5.00111L3.78133 5.24651ZM3.11515 4.05897L3.55261 3.81357L3.55261 3.81357L3.11515 4.05897ZM3.18145 3.57832L2.82678 3.22365L2.82678 3.22365L3.18145 3.57832ZM3.83523 2.92455L4.18991 3.27922L3.83523 2.92455ZM4.31588 2.85824L4.07047 3.2957L4.07047 3.2957L4.31588 2.85824ZM5.5035 3.52447L5.2581 3.96192C5.41361 4.04916 5.60374 4.04728 5.7575 3.95699L5.5035 3.52447ZM6.72365 3.01867L6.84998 3.50409C7.02251 3.45919 7.15824 3.32609 7.20651 3.15448L6.72365 3.01867ZM7.47899 0.913574C7.07428 0.913574 6.71896 1.18275 6.60939 1.57234L7.57509 1.84395C7.56298 1.887 7.52372 1.91675 7.47899 1.91675V0.913574ZM8.40357 0.913574H7.47899V1.91675H8.40357V0.913574ZM9.27318 1.57234C9.1636 1.18275 8.80828 0.913574 8.40357 0.913574V1.91675C8.35885 1.91675 8.31958 1.887 8.30747 1.84395L9.27318 1.57234ZM9.64175 2.88283L9.27318 1.57234L8.30747 1.84395L8.67604 3.15443L9.64175 2.88283ZM10.6334 3.09202C10.217 2.84751 9.76429 2.65786 9.28521 2.53321L9.03259 3.50405C9.42063 3.60502 9.78755 3.75867 10.1253 3.95705L10.6334 3.09202ZM11.3216 2.42084L10.1339 3.08708L10.6247 3.96199L11.8124 3.29576L11.3216 2.42084ZM12.4023 2.56993C12.1161 2.28375 11.6745 2.22284 11.3216 2.42084L11.8124 3.29576C11.7734 3.31764 11.7246 3.31091 11.6929 3.27928L12.4023 2.56993ZM13.0561 3.2237L12.4023 2.56993L11.6929 3.27928L12.3467 3.93306L13.0561 3.2237ZM13.2052 4.30443C13.4032 3.95146 13.3422 3.50988 13.0561 3.2237L12.3467 3.93306C12.3151 3.90143 12.3084 3.85263 12.3302 3.81362L13.2052 4.30443ZM12.5389 5.49205L13.2052 4.30443L12.3302 3.81362L11.664 5.00125L12.5389 5.49205ZM13.0475 6.17744C12.924 5.75859 12.7505 5.36134 12.534 4.99263L11.669 5.50067C11.8447 5.79981 11.9853 6.12181 12.0853 6.46107L13.0475 6.17744ZM14.0535 6.21647L12.7022 5.8364L12.4306 6.80211L13.7819 7.18217L14.0535 6.21647ZM14.7123 7.08607C14.7123 6.68136 14.4431 6.32604 14.0535 6.21646L13.7819 7.18217C13.7389 7.17006 13.7091 7.1308 13.7091 7.08607H14.7123ZM14.7123 8.01065V7.08607H13.7091V8.01065H14.7123ZM14.0535 8.88026C14.4431 8.77068 14.7123 8.41536 14.7123 8.01065H13.7091C13.7091 7.96593 13.7389 7.92666 13.7819 7.91455L14.0535 8.88026ZM12.7788 9.23877L14.0535 8.88026L13.7819 7.91455L12.5072 8.27306L12.7788 9.23877ZM12.5339 10.3769C12.8058 9.91391 13.0099 9.40598 13.1322 8.8669L12.1539 8.64493C12.0548 9.0816 11.8895 9.49322 11.6689 9.86879L12.5339 10.3769ZM13.205 11.0649L12.5388 9.87742L11.6639 10.3682L12.3301 11.5557L13.205 11.0649ZM13.0559 12.1456C13.3421 11.8594 13.403 11.4178 13.205 11.0649L12.3301 11.5557C12.3082 11.5167 12.3149 11.4679 12.3465 11.4362L13.0559 12.1456ZM12.4021 12.7994L13.0559 12.1456L12.3465 11.4362L11.6928 12.09L12.4021 12.7994ZM11.3214 12.9484C11.6744 13.1464 12.1159 13.0855 12.4021 12.7994L11.6928 12.09C11.7244 12.0584 11.7732 12.0517 11.8122 12.0735L11.3214 12.9484ZM10.1339 12.2823L11.3214 12.9484L11.8122 12.0735L10.6247 11.4074L10.1339 12.2823ZM9.28512 12.8361C9.76421 12.7115 10.2169 12.5219 10.6333 12.2773L10.1253 11.4123C9.7875 11.6107 9.42057 11.7643 9.03252 11.8653L9.28512 12.8361ZM9.27318 13.7967L9.64167 12.4865L8.67597 12.2149L8.30747 13.5251L9.27318 13.7967ZM8.40357 14.4555C8.80828 14.4555 9.1636 14.1863 9.27318 13.7967L8.30747 13.5251C8.31958 13.4821 8.35885 13.4523 8.40357 13.4523V14.4555ZM7.47899 14.4555H8.40357V13.4523H7.47899V14.4555ZM6.60939 13.7967C6.71896 14.1863 7.07428 14.4555 7.47899 14.4555V13.4523C7.52372 13.4523 7.56298 13.4821 7.57509 13.5251L6.60939 13.7967ZM6.24088 12.4865L6.60939 13.7967L7.57509 13.5251L7.20658 12.2149L6.24088 12.4865ZM5.24917 12.2772C5.66553 12.5217 6.11829 12.7114 6.59741 12.8361L6.85005 11.8653C6.46198 11.7643 6.09503 11.6106 5.75724 11.4122L5.24917 12.2772ZM4.56116 12.9483L5.7486 12.2821L5.2578 11.4072L4.07035 12.0734L4.56116 12.9483ZM3.48044 12.7992C3.76661 13.0854 4.20819 13.1463 4.56116 12.9483L4.07035 12.0734C4.10936 12.0515 4.15816 12.0582 4.18979 12.0898L3.48044 12.7992ZM2.82666 12.1454L3.48043 12.7992L4.18979 12.0898L3.53601 11.4361L2.82666 12.1454ZM2.67757 11.0647C2.47957 11.4177 2.54049 11.8592 2.82666 12.1454L3.53601 11.4361C3.56764 11.4677 3.57437 11.5165 3.55249 11.5555L2.67757 11.0647ZM3.34374 9.87718L2.67757 11.0647L3.55249 11.5555L4.21865 10.368L3.34374 9.87718ZM2.75056 8.86695C2.87285 9.4059 3.07685 9.91373 3.34868 10.3766L4.21371 9.86857C3.99319 9.49308 3.82793 9.08154 3.72887 8.64497L2.75056 8.86695ZM3.37552 8.2731L2.10066 7.91455L1.82906 8.88026L3.10392 9.23881L3.37552 8.2731ZM2.10066 7.91455C2.14372 7.92666 2.17346 7.96593 2.17346 8.01065H1.17029C1.17029 8.41536 1.43946 8.77068 1.82906 8.88026L2.10066 7.91455ZM2.17346 8.01065V7.08607H1.17029V8.01065H2.17346ZM2.17346 7.08607C2.17346 7.1308 2.14372 7.17006 2.10066 7.18217L1.82906 6.21646C1.43946 6.32604 1.17029 6.68136 1.17029 7.08607H2.17346ZM2.10066 7.18217L3.45216 6.80206L3.18056 5.83636L1.82906 6.21647L2.10066 7.18217ZM3.34883 4.99248C3.13226 5.36121 2.95871 5.7585 2.83524 6.17739L3.79748 6.46103C3.89749 6.12174 4.03812 5.79971 4.21384 5.50055L3.34883 4.99248ZM2.67769 4.30437L3.34388 5.49192L4.21879 5.00111L3.55261 3.81357L2.67769 4.30437ZM2.82678 3.22365C2.54061 3.50982 2.47969 3.95141 2.67769 4.30437L3.55261 3.81357C3.57449 3.85257 3.56776 3.90137 3.53613 3.933L2.82678 3.22365ZM3.48055 2.56987L2.82678 3.22365L3.53613 3.933L4.18991 3.27922L3.48055 2.56987ZM4.56128 2.42078C4.20831 2.22278 3.76673 2.2837 3.48055 2.56987L4.18991 3.27922C4.15828 3.31085 4.10948 3.31758 4.07047 3.2957L4.56128 2.42078ZM5.7489 3.08701L4.56128 2.42078L4.07047 3.2957L5.2581 3.96192L5.7489 3.08701ZM6.59732 2.53326C6.11836 2.6579 5.66574 2.8475 5.2495 3.09195L5.7575 3.95699C6.0952 3.75867 6.46203 3.60505 6.84998 3.50409L6.59732 2.53326ZM6.60939 1.57234L6.2408 2.88287L7.20651 3.15448L7.57509 1.84395L6.60939 1.57234Z" fill="#3C3C3B"/>
<circle cx="7.94136" cy="7.68452" r="1.56734" stroke="#3C3C3B" stroke-width="1.00317" stroke-miterlimit="10" stroke-linecap="round" stroke-linejoin="round"/>
</svg>
