<svg width="16" height="17" viewBox="0 0 16 17" fill="none" xmlns="http://www.w3.org/2000/svg">
<path d="M11.9118 6.09533C11.9118 3.6716 9.94703 1.70679 7.52331 1.70679C5.09958 1.70679 3.13477 3.6716 3.13477 6.09533" stroke="#3C3C3B" stroke-width="1.00317"/>
<path d="M3.13473 6.09534V6.14547C3.13473 6.2909 3.01683 6.4088 2.8714 6.4088V6.4088C2.32434 6.4088 1.88086 6.85228 1.88086 7.39934V7.50594C1.88086 8.11187 2.37206 8.60308 2.978 8.60308H12.0685C12.6745 8.60308 13.1657 8.11187 13.1657 7.50594V7.39934C13.1657 6.85228 12.7222 6.4088 12.1751 6.4088V6.4088C12.0297 6.4088 11.9118 6.2909 11.9118 6.14547V6.09534" stroke="#3C3C3B" stroke-width="1.00317" stroke-linecap="round"/>
<path d="M6.26953 2.33362V4.21442" stroke="#3C3C3B" stroke-width="1.00317" stroke-linecap="round"/>
<path d="M8.77686 2.33362V4.21442" stroke="#3C3C3B" stroke-width="1.00317" stroke-linecap="round"/>
<path d="M3.67627 8.9165V9.98959C3.67627 12.1345 5.44986 13.932 7.52292 13.932C9.59597 13.932 11.3696 12.1345 11.3696 9.98959V8.9165" stroke="#3C3C3B" stroke-width="1.00317" stroke-linecap="round"/>
</svg>
