<svg width="17" height="17" viewBox="0 0 17 17" fill="none" xmlns="http://www.w3.org/2000/svg">
<g clip-path="url(#clip0_121_63)">
<path d="M4.02292 13.932H11.8596C12.4655 13.932 12.9567 13.4408 12.9567 12.8349V2.49045C12.9567 1.88451 12.4655 1.39331 11.8596 1.39331H7.10602C6.81305 1.39331 6.53225 1.51048 6.32618 1.71873L3.24307 4.83429C3.0398 5.0397 2.92578 5.31702 2.92578 5.60601V12.8349C2.92578 13.4408 3.41699 13.932 4.02292 13.932Z" stroke="#3C3C3B" stroke-width="1.00317" stroke-miterlimit="10" stroke-linecap="round" stroke-linejoin="round"/>
<path d="M3.5918 5.15492H6.21709C6.82302 5.15492 7.31422 4.66371 7.31422 4.05778V1.39331" stroke="#3C3C3B" stroke-width="1.00317" stroke-miterlimit="10" stroke-linecap="round" stroke-linejoin="round"/>
<path d="M5.43359 11.1108V8.60303" stroke="#3C3C3B" stroke-width="1.00317" stroke-miterlimit="10" stroke-linecap="round" stroke-linejoin="round"/>
<path d="M7.94141 11.1108L7.94141 9.81775" stroke="#3C3C3B" stroke-width="1.00317" stroke-miterlimit="10" stroke-linecap="round" stroke-linejoin="round"/>
<path d="M10.4487 11.1107L10.4487 6.68298" stroke="#3C3C3B" stroke-width="1.00317" stroke-miterlimit="10" stroke-linecap="round" stroke-linejoin="round"/>
</g>
<defs>
<clipPath id="clip0_121_63">
<rect width="16" height="16" fill="white" transform="translate(0.417969 0.139404)"/>
</clipPath>
</defs>
</svg>
