<svg width="17" height="17" viewBox="0 0 17 17" fill="none" xmlns="http://www.w3.org/2000/svg">
<g clip-path="url(#clip0_121_62)">
<path d="M4.59225 13.932H12.4289C13.0349 13.932 13.5261 13.4408 13.5261 12.8349V2.49045C13.5261 1.88451 13.0349 1.39331 12.4289 1.39331H7.67536C7.38239 1.39331 7.10159 1.51048 6.89552 1.71873L3.81241 4.83429C3.60914 5.0397 3.49512 5.31702 3.49512 5.60601V12.8349C3.49512 13.4408 3.98632 13.932 4.59225 13.932Z" stroke="#3C3C3B" stroke-width="1.00317" stroke-miterlimit="10" stroke-linecap="round" stroke-linejoin="round"/>
<path d="M4.16113 5.15492H6.78642C7.39235 5.15492 7.88356 4.66371 7.88356 4.05778V1.39331" stroke="#3C3C3B" stroke-width="1.00317" stroke-miterlimit="10" stroke-linecap="round" stroke-linejoin="round"/>
<path d="M7.25635 10.7973L9.76409 8.28955" stroke="#3C3C3B" stroke-width="1.00317" stroke-miterlimit="10" stroke-linecap="round" stroke-linejoin="round"/>
<path d="M10.391 10.1703V7.6626H7.8833" stroke="#3C3C3B" stroke-width="1.00317" stroke-miterlimit="10" stroke-linecap="round" stroke-linejoin="round"/>
</g>
<defs>
<clipPath id="clip0_121_62">
<rect width="16" height="16" fill="white" transform="translate(0.987305 0.139404)"/>
</clipPath>
</defs>
</svg>
