<svg width="17" height="17" viewBox="0 0 17 17" fill="none" xmlns="http://www.w3.org/2000/svg">
<g clip-path="url(#clip0_121_67)">
<path d="M3.7446 13.932H11.5813C12.1872 13.932 12.6784 13.4408 12.6784 12.8349V5.60937C12.6784 5.31839 12.5628 5.03933 12.3571 4.83357L9.23815 1.71465C9.0324 1.5089 8.75334 1.39331 8.46236 1.39331H3.7446C3.13867 1.39331 2.64746 1.88451 2.64746 2.49045V12.8349C2.64746 13.4408 3.13867 13.932 3.7446 13.932Z" stroke="#3C3C3B" stroke-width="1.00317" stroke-miterlimit="10" stroke-linecap="round" stroke-linejoin="round"/>
<path d="M8.29004 1.94189V4.0578C8.29004 4.66373 8.78124 5.15493 9.38717 5.15493H12.0516" stroke="#3C3C3B" stroke-width="1.00317" stroke-miterlimit="10" stroke-linecap="round" stroke-linejoin="round"/>
<path d="M5.46875 8.28955H9.26954" stroke="#3C3C3B" stroke-width="1.00317" stroke-miterlimit="10" stroke-linecap="round" stroke-linejoin="round"/>
<path d="M5.46875 10.8365H7.97649" stroke="#3C3C3B" stroke-width="1.00317" stroke-miterlimit="10" stroke-linecap="round" stroke-linejoin="round"/>
</g>
<defs>
<clipPath id="clip0_121_67">
<rect width="16" height="16" fill="white" transform="translate(0.139648 0.139404)"/>
</clipPath>
</defs>
</svg>
