<svg width="16" height="16" viewBox="0 0 16 16" fill="none" xmlns="http://www.w3.org/2000/svg">
<g clip-path="url(#clip0_121_12)">
<path d="M3.8303 14.6657H12.164C12.8084 14.6657 13.3308 14.1433 13.3308 13.4989V2.49839C13.3308 1.85403 12.8084 1.33167 12.164 1.33167H7.10896C6.79741 1.33167 6.4988 1.45627 6.27965 1.67772L3.00099 4.99089C2.78483 5.20934 2.66357 5.50424 2.66357 5.81156V13.4989C2.66357 14.1433 3.18593 14.6657 3.8303 14.6657Z" stroke="#3C3C3B" stroke-miterlimit="10" stroke-linecap="round" stroke-linejoin="round"/>
<path d="M3.37158 5.33186H6.16339C6.80775 5.33186 7.33011 4.8095 7.33011 4.16514V1.33167" stroke="#3C3C3B" stroke-miterlimit="10" stroke-linecap="round" stroke-linejoin="round"/>
<path d="M5.33008 11.6656V8.99878" stroke="#3C3C3B" stroke-miterlimit="10" stroke-linecap="round" stroke-linejoin="round"/>
<path d="M7.99707 11.6656L7.99707 10.2905" stroke="#3C3C3B" stroke-miterlimit="10" stroke-linecap="round" stroke-linejoin="round"/>
<path d="M10.6636 11.6655L10.6636 6.95691" stroke="#3C3C3B" stroke-miterlimit="10" stroke-linecap="round" stroke-linejoin="round"/>
</g>
<defs>
<clipPath id="clip0_121_12">
<rect width="16.0008" height="16.0008" fill="white" transform="translate(-0.00341797 -0.00170898)"/>
</clipPath>
</defs>
</svg>
