<svg width="17" height="17" viewBox="0 0 17 17" fill="none" xmlns="http://www.w3.org/2000/svg">
<path d="M9.97316 4.15845V2.90462C9.97316 2.55839 9.69248 2.27771 9.34625 2.27771H3.07711C2.73087 2.27771 2.4502 2.55839 2.4502 2.90462V10.4276C2.4502 10.7738 2.73087 11.0545 3.07711 11.0545H3.70402" stroke="#3C3C3B" stroke-width="1.00317" stroke-miterlimit="10" stroke-linecap="round" stroke-linejoin="round"/>
<path d="M13.8911 5.88242C13.2553 5.2441 12.1759 5.24411 11.5402 5.88243L6.52484 10.8977C5.92442 11.5361 5.58447 12.3976 5.58447 13.2487V14.1891H6.52484C7.40782 14.1891 8.27535 13.8515 8.87577 13.2487L13.8911 8.23148C14.5268 7.59317 14.5268 6.52074 13.8911 5.88242Z" stroke="#3C3C3B" stroke-width="1.00317" stroke-miterlimit="10" stroke-linejoin="round"/>
<path d="M6.70117 10.8195L9.16967 13.288" stroke="#3C3C3B" stroke-width="1.00317" stroke-miterlimit="10" stroke-linejoin="round"/>
<path d="M4.95752 4.7854H7.15172" stroke="#3C3C3B" stroke-width="1.00317" stroke-miterlimit="10" stroke-linecap="round" stroke-linejoin="round"/>
<path d="M4.95752 7.29297H5.58443" stroke="#3C3C3B" stroke-width="1.00317" stroke-miterlimit="10" stroke-linecap="round" stroke-linejoin="round"/>
</svg>
