<svg width="17" height="17" viewBox="0 0 17 17" fill="none" xmlns="http://www.w3.org/2000/svg">
<g clip-path="url(#clip0_121_48)">
<path d="M7.797 5.92161V2.27767C7.797 1.93144 7.51632 1.65076 7.17009 1.65076H2.02047C1.67423 1.65076 1.39355 1.93144 1.39355 2.27767V9.17369C1.39355 9.51992 1.67423 9.8006 2.02047 9.8006H4.09712" stroke="#3C3C3B" stroke-width="1.00317" stroke-miterlimit="10" stroke-linecap="round" stroke-linejoin="round"/>
<path d="M13.4548 5.89097C12.819 5.25265 11.7595 5.25265 11.1237 5.89097L6.1084 10.8911C5.50798 11.5294 5.15479 12.3805 5.15479 13.2316V14.1891H6.1084C6.99138 14.1891 7.83904 13.8345 8.43946 13.2316L13.4548 8.23147C14.0905 7.59315 14.0905 6.52929 13.4548 5.89097Z" stroke="#3C3C3B" stroke-width="1.00317" stroke-miterlimit="10" stroke-linejoin="round"/>
<path d="M6.25195 10.6235L8.72045 13.092" stroke="#3C3C3B" stroke-width="1.00317" stroke-miterlimit="10" stroke-linejoin="round"/>
</g>
<defs>
<clipPath id="clip0_121_48">
<rect width="16" height="16" fill="white" transform="translate(0.139648 0.396973)"/>
</clipPath>
</defs>
</svg>
