<svg width="16" height="16" viewBox="0 0 16 16" fill="none" xmlns="http://www.w3.org/2000/svg">
<path d="M15 2H1C0.447715 2 0 2.44772 0 3C0 3.55228 0.447715 4 1 4H15C15.5523 4 16 3.55228 16 3C16 2.44772 15.5523 2 15 2Z" fill="#3C3C3B"/>
<path d="M15 7H1C0.447715 7 0 7.44772 0 8C0 8.55228 0.447715 9 1 9H15C15.5523 9 16 8.55228 16 8C16 7.44772 15.5523 7 15 7Z" fill="#3C3C3B"/>
<path d="M15 12H1C0.447715 12 0 12.4477 0 13C0 13.5523 0.447715 14 1 14H15C15.5523 14 16 13.5523 16 13C16 12.4477 15.5523 12 15 12Z" fill="#3C3C3B"/>
</svg>
