<svg width="17" height="17" viewBox="0 0 17 17" fill="none" xmlns="http://www.w3.org/2000/svg">
<g clip-path="url(#clip0_121_42)">
<path d="M7.26549 4.45302L6.71298 3.86856C6.14872 3.27166 5.24524 3.14753 4.5409 3.57013L3.25928 4.33911" stroke="#3C3C3B" stroke-width="1.00317"/>
<path d="M12.6426 4.25707L12.6426 10.2128C12.6426 10.2993 12.7127 10.3695 12.7993 10.3695L14.68 10.3695C14.7666 10.3695 14.8368 10.2993 14.8368 10.2128L14.8368 4.25707C14.8368 4.17051 14.7666 4.10034 14.68 4.10034L12.7993 4.10034C12.7127 4.10034 12.6426 4.17051 12.6426 4.25707Z" stroke="#3C3C3B" stroke-width="1.00317" stroke-linecap="round"/>
<path d="M1.04492 4.25707L1.04492 10.2128C1.04492 10.2993 1.11509 10.3695 1.20165 10.3695L3.08239 10.3695C3.16895 10.3695 3.23912 10.2993 3.23912 10.2128L3.23912 4.25707C3.23912 4.17051 3.16895 4.10034 3.08239 4.10034L1.20165 4.10034C1.11509 4.10034 1.04492 4.17051 1.04492 4.25707Z" stroke="#3C3C3B" stroke-width="1.00317" stroke-linecap="round"/>
<path d="M3.08789 10.0561H3.97237C4.10498 10.0561 4.23216 10.1087 4.32593 10.2025L5.26612 11.1427C5.89665 11.7732 6.90046 11.8288 7.59677 11.2718L9.61267 9.65907C10.404 9.02603 10.4938 7.85532 9.80844 7.10891L9.06067 6.29458L8.17227 6.75987C7.64518 7.03593 6.99645 6.90056 6.62374 6.43676V6.43676C6.1449 5.84089 6.31096 4.95825 6.97362 4.57714L9.02147 3.39938C9.61941 3.05549 10.3523 3.04399 10.9608 3.36894L12.7077 4.30195" stroke="#3C3C3B" stroke-width="1.00317"/>
<path d="M12.6429 10.056H9.19482" stroke="#3C3C3B" stroke-width="1.00317"/>
</g>
<defs>
<clipPath id="clip0_121_42">
<rect width="16" height="16" fill="white" transform="translate(0.417969 0.338867)"/>
</clipPath>
</defs>
</svg>
