<svg width="17" height="16" viewBox="0 0 17 16" fill="none" xmlns="http://www.w3.org/2000/svg">
<path fill-rule="evenodd" clip-rule="evenodd" d="M8.09502 13.7936C11.5577 13.7936 14.3648 10.9865 14.3648 7.52373C14.3648 4.061 11.5577 1.25391 8.09502 1.25391C4.63229 1.25391 1.8252 4.061 1.8252 7.52373C1.8252 10.9865 4.63229 13.7936 8.09502 13.7936Z" stroke="#3C3C3B" stroke-width="1.00317" stroke-miterlimit="10" stroke-linecap="round" stroke-linejoin="round"/>
<path fill-rule="evenodd" clip-rule="evenodd" d="M8.09487 10.6586C9.82624 10.6586 11.2298 9.25507 11.2298 7.5237C11.2298 5.79234 9.82624 4.38879 8.09487 4.38879C6.36351 4.38879 4.95996 5.79234 4.95996 7.5237C4.95996 9.25507 6.36351 10.6586 8.09487 10.6586Z" stroke="#3C3C3B" stroke-width="1.00317" stroke-miterlimit="10" stroke-linecap="round" stroke-linejoin="round"/>
<path d="M12.1323 3.33838L10.3569 5.11371" stroke="#3C3C3B" stroke-width="1.00317" stroke-miterlimit="10" stroke-linecap="round" stroke-linejoin="round"/>
<path d="M10.3594 9.76522L12.2243 11.6301" stroke="#3C3C3B" stroke-width="1.00317" stroke-miterlimit="10" stroke-linecap="round" stroke-linejoin="round"/>
<path d="M5.90847 9.76527L3.96484 11.7089" stroke="#3C3C3B" stroke-width="1.00317" stroke-miterlimit="10" stroke-linecap="round" stroke-linejoin="round"/>
<path d="M4.02881 3.33838L5.93771 5.24728" stroke="#3C3C3B" stroke-width="1.00317" stroke-miterlimit="10" stroke-linecap="round" stroke-linejoin="round"/>
</svg>
