<svg width="17" height="17" viewBox="0 0 17 17" fill="none" xmlns="http://www.w3.org/2000/svg">
<path d="M8.51061 1.75977C6.08689 1.75977 4.12207 3.72458 4.12207 6.14831C4.12207 6.89062 4.30637 7.58989 4.63171 8.20285C5.24475 9.35784 6.00287 10.5295 6.00287 11.8371V13.0446C6.00287 13.7371 6.56425 14.2985 7.25674 14.2985H9.76448C10.457 14.2985 11.0184 13.7371 11.0184 13.0446V11.8371C11.0184 10.5295 11.7765 9.35784 12.3895 8.20285C12.7149 7.58989 12.8992 6.89062 12.8992 6.14831C12.8992 3.72458 10.9343 1.75977 8.51061 1.75977Z" stroke="#3C3C3B" stroke-width="1.00317"/>
<path d="M6.00293 11.7906H11.0184" stroke="#3C3C3B" stroke-width="1.00317"/>
<path d="M9.01233 9.90991C9.01233 9.63289 8.78776 9.40832 8.51074 9.40832C8.23372 9.40832 8.00915 9.63289 8.00915 9.90991H9.01233ZM9.01233 11.7907V9.90991H8.00915V11.7907H9.01233Z" fill="#3C3C3B"/>
</svg>
