<svg width="17" height="17" viewBox="0 0 17 17" fill="none" xmlns="http://www.w3.org/2000/svg">
<path d="M8.04232 4.33883L9.04232 3.33883C10.331 2.05016 12.4203 2.05016 13.709 3.33883V3.33883C14.9976 4.62749 14.9976 6.71683 13.709 8.00549L12.1763 9.53815C11.6637 10.0508 10.9683 10.3388 10.2433 10.3388H9.85132C8.9415 10.3388 8.11076 9.82179 7.70898 9.00549V9.00549" stroke="#3C3C3B" stroke-width="1.00317" stroke-linecap="round" stroke-linejoin="round"/>
<path d="M9.37581 12.3389L8.3358 13.3789C7.0693 14.6454 5.01584 14.6452 3.74957 13.3785V13.3785C2.4528 12.0813 2.48925 9.96758 3.82997 8.71582L5.52177 7.13628C6.07058 6.62389 6.79341 6.33891 7.54423 6.33891H7.8851C8.79871 6.33891 9.6339 6.85509 10.0425 7.67224V7.67224" stroke="#3C3C3B" stroke-width="1.00317" stroke-linecap="round" stroke-linejoin="round"/>
</svg>
