<svg width="17" height="17" viewBox="0 0 17 17" fill="none" xmlns="http://www.w3.org/2000/svg">
<path d="M8.13965 3.61194H14.1396" stroke="#3C3C3B" stroke-width="1.00317" stroke-miterlimit="10" stroke-linecap="round" stroke-linejoin="round"/>
<path d="M8.13965 8.27856H14.1396" stroke="#3C3C3B" stroke-width="1.00317" stroke-miterlimit="10" stroke-linecap="round" stroke-linejoin="round"/>
<path d="M8.13965 12.9452H14.1396" stroke="#3C3C3B" stroke-width="1.00317" stroke-miterlimit="10" stroke-linecap="round" stroke-linejoin="round"/>
<path d="M2.28017 2.52659L3.16679 3.41195L4.05341 2.52659L3.16805 3.41321L4.05341 4.29983L3.16679 3.41446L2.28017 4.29983L3.16554 3.41321L2.28017 2.52659Z" stroke="#3C3C3B" stroke-width="1.00317" stroke-linecap="round" stroke-linejoin="round"/>
<path d="M2.28017 6.91514L3.16679 7.8005L4.05341 6.91514L3.16805 7.80176L4.05341 8.68838L3.16679 7.80301L2.28017 8.68838L3.16554 7.80176L2.28017 6.91514Z" stroke="#3C3C3B" stroke-width="1.00317" stroke-linecap="round" stroke-linejoin="round"/>
<path d="M2.28017 11.3036L3.16679 12.1889L4.05341 11.3036L3.16805 12.1902L4.05341 13.0768L3.16679 12.1914L2.28017 13.0768L3.16554 12.1902L2.28017 11.3036Z" stroke="#3C3C3B" stroke-width="1.00317" stroke-linecap="round" stroke-linejoin="round"/>
</svg>
