<svg width="17" height="17" viewBox="0 0 17 17" fill="none" xmlns="http://www.w3.org/2000/svg">
<path d="M3.41357 7.86182V11.754C3.41357 12.7205 4.19708 13.504 5.16357 13.504H10.4404C11.4069 13.504 12.1904 12.7205 12.1904 11.754V7.86182" stroke="#3C3C3B" stroke-width="1.00317"/>
<path d="M7.80176 7.86182L7.80176 13.504" stroke="#3C3C3B" stroke-width="1.00317"/>
<path d="M6.23619 1.59265C7.09025 1.59265 7.80197 2.30437 7.80197 3.15843V4.72422H6.23619C5.38213 4.72422 4.67041 4.0125 4.67041 3.15843C4.67041 2.30437 5.38213 1.59265 6.23619 1.59265Z" stroke="#3C3C3B" stroke-width="1.00317" stroke-miterlimit="10" stroke-linecap="round" stroke-linejoin="round"/>
<path d="M9.36754 1.59265C8.51348 1.59265 7.80176 2.30437 7.80176 3.15843V4.72421H9.36754C10.2216 4.72421 10.9333 4.0125 10.9333 3.15843C10.9333 2.30437 10.2216 1.59265 9.36754 1.59265Z" stroke="#3C3C3B" stroke-width="1.00317" stroke-miterlimit="10" stroke-linecap="round" stroke-linejoin="round"/>
<rect x="2.15967" y="4.72424" width="11.2844" height="3.13763" rx="0.626914" stroke="#3C3C3B" stroke-width="1.00317" stroke-linecap="round" stroke-linejoin="round"/>
</svg>
