<svg width="17" height="17" viewBox="0 0 17 17" fill="none" xmlns="http://www.w3.org/2000/svg">
<path d="M14.2466 9.39488C14.7571 8.93184 14.5606 8.16813 14.4819 7.98282L12.3259 3.3622C12.0169 2.70001 11.3523 2.27673 10.6215 2.27673H5.23677L5.23677 8.40445C5.23672 8.44852 5.25392 8.49194 5.27438 8.53096C5.29484 8.56999 5.33809 8.60346 5.37436 8.62849C6.41025 9.34355 7.56795 10.9749 7.56795 12.4681C7.55762 12.7321 7.64376 12.9908 7.81027 13.196C7.97679 13.4011 8.21229 13.5386 8.47279 13.5828C9.00242 13.6562 9.67997 13.33 9.99971 12.188C10.1146 11.3782 10.0249 10.7323 9.72474 9.97141C9.71804 9.95102 9.71627 9.92933 9.71956 9.90812C9.72286 9.88691 9.73113 9.86678 9.74371 9.84938C9.75628 9.83198 9.77279 9.82203 9.79189 9.81224C9.811 9.80245 9.83215 9.79974 9.85361 9.7997H13.2854C13.6459 9.7997 13.9917 9.64983 14.2466 9.39488Z" fill="white" stroke="#3C3C3B" stroke-width="1.00317" stroke-linecap="round" stroke-linejoin="round"/>
<path d="M2.10254 7.0459C2.10254 7.87432 2.77411 8.5459 3.60254 8.5459H5.23711V2.27676H3.60254C2.77411 2.27676 2.10254 2.94833 2.10254 3.77676V7.0459Z" stroke="#3C3C3B" stroke-width="1.00317" stroke-linecap="round" stroke-linejoin="round"/>
</svg>
