<svg width="17" height="17" viewBox="0 0 17 17" fill="none" xmlns="http://www.w3.org/2000/svg">
<path d="M8.95363 3.20115L8.49466 3.40347C8.56205 3.55635 8.70114 3.66564 8.86562 3.69495L8.95363 3.20115ZM12.0507 11.9194H11.5491C11.5491 12.0525 11.6019 12.1801 11.696 12.2741L12.0507 11.9194ZM12.6776 12.5464V13.0479C12.8805 13.0479 13.0634 12.9257 13.141 12.7383C13.2186 12.5509 13.1757 12.3351 13.0323 12.1917L12.6776 12.5464ZM2.64697 12.5464L2.2923 12.1917C2.14884 12.3351 2.10593 12.5509 2.18357 12.7383C2.2612 12.9257 2.4441 13.0479 2.64697 13.0479V12.5464ZM3.27389 11.9194L3.62856 12.2741C3.72263 12.1801 3.77547 12.0525 3.77547 11.9194H3.27389ZM6.37094 3.20115L6.45895 3.69495C6.62343 3.66564 6.76252 3.55635 6.82991 3.40347L6.37094 3.20115ZM12.5523 6.90413C12.5523 4.80613 11.0372 3.06302 9.04164 2.70734L8.86562 3.69495C10.391 3.96683 11.5491 5.30076 11.5491 6.90413H12.5523ZM12.5523 11.9194V6.90413H11.5491V11.9194H12.5523ZM13.0323 12.1917L12.4054 11.5648L11.696 12.2741L12.3229 12.901L13.0323 12.1917ZM2.64697 13.0479H12.6776V12.0448H2.64697V13.0479ZM2.91921 11.5648L2.2923 12.1917L3.00165 12.901L3.62856 12.2741L2.91921 11.5648ZM2.7723 6.90413V11.9194H3.77547V6.90413H2.7723ZM6.28293 2.70734C4.28732 3.06302 2.7723 4.80613 2.7723 6.90413H3.77547C3.77547 5.30076 4.93354 3.96683 6.45895 3.69495L6.28293 2.70734ZM6.82991 3.40347C6.97126 3.08282 7.29137 2.8606 7.66228 2.8606V1.85742C6.87961 1.85742 6.20785 2.3276 5.91196 2.99883L6.82991 3.40347ZM7.66228 2.8606C8.03319 2.8606 8.35331 3.08282 8.49466 3.40347L9.4126 2.99883C9.11671 2.3276 8.44496 1.85742 7.66228 1.85742V2.8606Z" fill="#3C3C3B"/>
<path d="M6.40869 12.5464V13.1733C6.40869 13.8658 6.97005 14.4271 7.66252 14.4271C8.35499 14.4271 8.91635 13.8658 8.91635 13.1733V12.5464" stroke="#3C3C3B" stroke-width="1.00317"/>
</svg>
