<svg width="17" height="17" viewBox="0 0 17 17" fill="none" xmlns="http://www.w3.org/2000/svg">
<path d="M8.38736 6.52198C8.43658 6.50958 8.48149 6.484 8.51726 6.44799L12.1702 2.79056C12.1962 2.76458 12.227 2.744 12.261 2.73C12.2949 2.716 12.3313 2.70886 12.368 2.70898H14.7704C14.8445 2.70898 14.9156 2.73842 14.9679 2.79081C15.0203 2.84319 15.0498 2.91425 15.0498 2.98834V5.39074C15.049 5.46338 15.0197 5.5328 14.9682 5.58405L11.3108 9.24261C11.2746 9.27831 11.249 9.32322 11.2366 9.37246C11.2242 9.4217 11.2255 9.4734 11.2404 9.52196C11.3706 9.93074 11.4387 10.3567 11.4426 10.7857C11.4426 11.6697 11.1805 12.5339 10.6893 13.2689C10.1982 14.0039 9.50016 14.5768 8.68345 14.9151C7.86674 15.2534 6.96806 15.3419 6.10104 15.1694C5.23402 14.997 4.43762 14.5713 3.81253 13.9462C3.18745 13.3211 2.76176 12.5247 2.5893 11.6577C2.41684 10.7907 2.50535 9.89201 2.84365 9.07529C3.18194 8.25858 3.75482 7.56053 4.48984 7.0694C5.22486 6.57828 6.08901 6.31614 6.97301 6.31614C7.40237 6.3201 7.82872 6.38828 8.23791 6.51839C8.28647 6.53314 8.33814 6.53438 8.38736 6.52198Z" stroke="#3C3C3B" stroke-width="1.00317" stroke-miterlimit="10" stroke-linecap="round" stroke-linejoin="round"/>
<circle cx="6.59253" cy="10.0778" r="1.3274" stroke="#3C3C3B" stroke-width="1.00317" stroke-miterlimit="10" stroke-linecap="round" stroke-linejoin="round"/>
</svg>
