<svg width="17" height="17" viewBox="0 0 17 17" fill="none" xmlns="http://www.w3.org/2000/svg">
<path d="M11.5177 13.1752C10.7011 13.9919 9.44884 14.1007 8.46883 13.5019C6.12771 11.923 4.11326 9.90851 2.53436 7.56738C1.93547 6.58738 2.04436 5.33515 2.86103 4.51848L4.25597 3.43225L6.50901 5.66571L5.66657 6.61868C5.3399 6.94535 5.3399 7.43535 5.66657 7.76202L8.29186 10.3481C8.61853 10.6748 9.10853 10.6748 9.4352 10.3481L10.3098 9.50568L12.7196 11.8371L11.5177 13.1752Z" stroke="#3C3C3B" stroke-width="1.00317" stroke-miterlimit="10" stroke-linecap="round" stroke-linejoin="round"/>
<path d="M9.05566 4.47058C10.5577 4.47058 11.5634 5.4763 11.5634 6.97832" stroke="#3C3C3B" stroke-width="1.00317" stroke-miterlimit="10" stroke-linecap="round" stroke-linejoin="round"/>
<path d="M9.05566 1.96289C11.9473 1.96289 14.0711 4.14958 14.0711 6.97837" stroke="#3C3C3B" stroke-width="1.00317" stroke-miterlimit="10" stroke-linecap="round" stroke-linejoin="round"/>
</svg>
