<svg width="17" height="17" viewBox="0 0 17 17" fill="none" xmlns="http://www.w3.org/2000/svg">
<path d="M12.6796 14.2152L12.7799 13.4905C12.7799 12.3471 11.8235 11.4055 10.6621 11.4055H6.01669C4.85533 11.4055 3.56445 12.3471 3.56445 13.4905V14.2152C3.56445 14.2152 5.93536 15.6735 8.32639 15.6735C10.1709 15.6735 12.6796 14.2152 12.6796 14.2152Z" fill="#FA3E34"/>
<path fill-rule="evenodd" clip-rule="evenodd" d="M3.06885 13.6173C3.06885 12.1634 4.26305 10.9692 5.71692 10.9692H10.5684C12.0223 10.9692 13.2165 12.1634 13.2165 13.6173V13.9027C13.2165 14.1437 13.0211 14.3391 12.7801 14.3391C12.5391 14.3391 12.3438 14.1437 12.3438 13.9027V13.6173C12.3438 12.6454 11.5403 11.842 10.5684 11.842H5.71692C4.74505 11.842 3.94157 12.6454 3.94157 13.6173V13.9027C3.94157 14.1437 3.74621 14.3391 3.50521 14.3391C3.26421 14.3391 3.06885 14.1437 3.06885 13.9027V13.6173Z" fill="#3C3C3B"/>
<path d="M8.14342 12.8323C7.53699 12.8323 7.07324 12.3685 7.07324 11.7621V9.6217H9.21361V11.7621C9.21361 12.3685 8.74986 12.8323 8.14342 12.8323Z" fill="white"/>
<path fill-rule="evenodd" clip-rule="evenodd" d="M6.63623 9.62191C6.63623 9.38091 6.8316 9.18555 7.07259 9.18555H9.21296C9.45396 9.18555 9.64932 9.38091 9.64932 9.62191V11.7623C9.64932 12.6097 8.99021 13.2688 8.14278 13.2688C7.29534 13.2688 6.63623 12.6097 6.63623 11.7623V9.62191ZM7.50896 10.0583V11.7623C7.50896 12.1277 7.77734 12.3961 8.14278 12.3961C8.50822 12.3961 8.7766 12.1277 8.7766 11.7623V10.0583H7.50896Z" fill="#3C3C3B"/>
<path d="M8.14309 10.6921C6.75185 10.6921 5.646 9.58627 5.646 8.19504V6.4114C5.646 5.02016 6.75185 3.91431 8.14309 3.91431C9.53433 3.91431 10.6402 5.02016 10.6402 6.4114V8.19504C10.6402 9.58627 9.53433 10.6921 8.14309 10.6921Z" fill="white"/>
<path fill-rule="evenodd" clip-rule="evenodd" d="M8.14293 4.35063C6.99269 4.35063 6.0822 5.26112 6.0822 6.41136V8.195C6.0822 9.34524 6.99269 10.2557 8.14293 10.2557C9.29317 10.2557 10.2037 9.34524 10.2037 8.195V6.41136C10.2037 5.26112 9.29317 4.35063 8.14293 4.35063ZM5.20947 6.41136C5.20947 4.77913 6.51069 3.47791 8.14293 3.47791C9.77516 3.47791 11.0764 4.77913 11.0764 6.41136V8.195C11.0764 9.82723 9.77516 11.1285 8.14293 11.1285C6.51069 11.1285 5.20947 9.82723 5.20947 8.195V6.41136Z" fill="#3C3C3B"/>
<path fill-rule="evenodd" clip-rule="evenodd" d="M7.46542 5.22583C7.58637 5.22583 7.7019 5.27603 7.78443 5.36445C8.20331 5.81326 8.80213 6.08198 9.42742 6.08198C9.7837 6.08198 10.1504 5.99254 10.4954 5.83571L10.8565 6.63021C10.4168 6.83011 9.92728 6.9547 9.42742 6.9547C8.70463 6.9547 8.01262 6.69873 7.46673 6.25797C6.92992 6.69745 6.25783 6.9547 5.50342 6.9547V6.08198C6.16128 6.08198 6.72535 5.8156 7.14641 5.36445C7.22894 5.27603 7.34447 5.22583 7.46542 5.22583Z" fill="#3C3C3B"/>
<path fill-rule="evenodd" clip-rule="evenodd" d="M8.14307 1.01555C4.20678 1.01555 1.01579 4.20654 1.01579 8.14282C1.01579 12.0791 4.20678 15.2701 8.14307 15.2701C12.0793 15.2701 15.2703 12.0791 15.2703 8.14282C15.2703 4.20654 12.0793 1.01555 8.14307 1.01555ZM0.143066 8.14282C0.143066 3.72454 3.72479 0.142822 8.14307 0.142822C12.5613 0.142822 16.1431 3.72454 16.1431 8.14282C16.1431 12.5611 12.5613 16.1428 8.14307 16.1428C3.72479 16.1428 0.143066 12.5611 0.143066 8.14282Z" fill="#3C3C3B"/>
</svg>
