<svg width="17" height="17" viewBox="0 0 17 17" fill="none" xmlns="http://www.w3.org/2000/svg">
<path d="M7.80216 8.32818C6.28175 8.32818 4.98096 7.00985 4.98096 5.43675V4.6839C4.98096 3.11081 6.28175 1.82373 7.80216 1.82373C9.32258 1.82373 10.6234 3.11081 10.6234 4.6839V5.43675C10.6234 7.00985 9.32258 8.32818 7.80216 8.32818Z" stroke="#3C3C3B" stroke-width="1.00317" stroke-miterlimit="10" stroke-linecap="round" stroke-linejoin="round"/>
<path d="M3.05993 14.3625L12.5442 14.3624C13.1607 14.3624 13.6131 13.783 13.4636 13.1849C13.0839 11.6662 11.7194 10.6008 10.1539 10.6008H9.05594L7.80207 11.8547L6.5482 10.6008H5.45026C3.88481 10.6008 2.52024 11.6663 2.14056 13.185C1.99104 13.7831 2.44341 14.3625 3.05993 14.3625Z" stroke="#3C3C3B" stroke-width="1.00317" stroke-miterlimit="10" stroke-linecap="round" stroke-linejoin="round"/>
</svg>
