<svg width="17" height="17" viewBox="0 0 17 17" fill="none" xmlns="http://www.w3.org/2000/svg">
<path d="M4.30393 11.5834C4.1796 11.5836 4.05556 11.5713 3.93366 11.5468C3.86641 11.5331 3.79696 11.5346 3.73035 11.5511C3.66374 11.5675 3.60163 11.5986 3.54852 11.6421C3.49542 11.6856 3.45265 11.7403 3.42331 11.8023C3.39398 11.8644 3.37882 11.9322 3.37892 12.0008L3.37637 13.894C3.37642 14.1393 3.4739 14.3746 3.64737 14.5481C3.82085 14.7215 4.05611 14.819 4.30143 14.8191L13.0334 14.8193C13.2787 14.8193 13.514 14.7218 13.6874 14.5484C13.8609 14.3749 13.9584 14.1397 13.9584 13.8943L13.9577 11.8513C13.9577 11.7745 13.9385 11.6989 13.902 11.6313C13.8655 11.5638 13.8127 11.5064 13.7484 11.4643C13.6841 11.4222 13.6104 11.3968 13.5339 11.3904C13.4573 11.3839 13.3804 11.3966 13.31 11.4274C13.0579 11.537 12.7845 11.5892 12.5097 11.5799C12.235 11.5707 11.9657 11.5004 11.7215 11.374C11.4773 11.2477 11.2643 11.0685 11.0981 10.8495C10.9318 10.6305 10.8164 10.3773 10.7603 10.1081C10.7042 9.83894 10.7088 9.56067 10.7737 9.29352C10.8387 9.02637 10.9623 8.77705 11.1357 8.56368C11.3091 8.35032 11.5278 8.17828 11.776 8.06007C12.0243 7.94186 12.2957 7.88045 12.5706 7.88031C12.8253 7.87931 13.0773 7.93169 13.3105 8.03407C13.381 8.06497 13.4581 8.0778 13.5348 8.0714C13.6114 8.06499 13.6853 8.03956 13.7497 7.99741C13.8141 7.95525 13.8669 7.89771 13.9034 7.82998C13.9399 7.76225 13.959 7.68648 13.9588 7.60953L13.9587 5.56714C13.9587 5.32182 13.8612 5.08655 13.6878 4.91308C13.5143 4.73961 13.279 4.64213 13.0337 4.64208L10.6296 4.64202C10.5926 4.64232 10.556 4.6336 10.5231 4.61662C10.4901 4.59964 10.4618 4.5749 10.4406 4.54454C10.4193 4.51425 10.4057 4.47934 10.4006 4.4427C10.3956 4.40606 10.3994 4.36875 10.4118 4.33389C10.4822 4.13589 10.5179 3.92716 10.5171 3.71699C10.5163 3.44789 10.4569 3.18218 10.3429 2.93839C10.229 2.69461 10.0632 2.47861 9.85719 2.30546C9.65118 2.13232 9.40988 2.00619 9.15012 1.93587C8.89036 1.86555 8.6184 1.85274 8.35319 1.89832C8.08797 1.94391 7.8359 2.04679 7.61454 2.1998C7.39319 2.35281 7.20787 2.55227 7.07152 2.78426C6.93517 3.01625 6.85106 3.27519 6.82507 3.54304C6.79907 3.81088 6.83181 4.08117 6.921 4.33507C6.93299 4.36975 6.93655 4.40678 6.9314 4.4431C6.92624 4.47942 6.91252 4.514 6.89137 4.54397C6.87022 4.57394 6.84224 4.59845 6.80974 4.61548C6.77724 4.6325 6.74116 4.64155 6.70448 4.64188L4.30107 4.64247C4.05575 4.6425 3.82049 4.73996 3.64703 4.91342C3.47357 5.08689 3.3761 5.32215 3.37608 5.56747L3.37549 7.46397C3.37535 7.53273 3.39054 7.60065 3.41995 7.66281C3.44936 7.72496 3.49226 7.77977 3.54553 7.82326C3.59879 7.86675 3.66108 7.89782 3.72786 7.91421C3.79464 7.93059 3.86423 7.93189 3.93157 7.91799C4.05316 7.8929 4.17702 7.88041 4.30118 7.88072C4.54431 7.88056 4.78509 7.92828 5.00978 8.02117C5.23446 8.11406 5.43866 8.25029 5.6107 8.42209C5.78274 8.59389 5.91926 8.79789 6.01247 9.02245C6.10568 9.247 6.15374 9.48771 6.15392 9.73084C6.1541 9.97396 6.10639 10.2147 6.01352 10.4394C5.92065 10.6641 5.78443 10.8683 5.61264 11.0403C5.44085 11.2123 5.23686 11.3488 5.01231 11.442C4.78777 11.5352 4.54706 11.5833 4.30393 11.5834Z" stroke="#3C3C3B" stroke-width="1.00317" stroke-miterlimit="10" stroke-linecap="round" stroke-linejoin="round"/>
</svg>
