<svg width="17" height="17" viewBox="0 0 17 17" fill="none" xmlns="http://www.w3.org/2000/svg">
<path d="M11.645 8.71997V13.4808" stroke="#3C3C3B" stroke-width="1.00317" stroke-linecap="round"/>
<path fill-rule="evenodd" clip-rule="evenodd" d="M3.4951 13.7354C3.14885 13.7354 2.86816 13.4547 2.86816 13.1085V7.16177C2.86816 6.9593 2.96594 6.7693 3.1307 6.65161L6.89231 3.96475C7.11029 3.80905 7.40312 3.80905 7.6211 3.96475L11.3827 6.65161C11.5475 6.7693 11.6452 6.9593 11.6452 7.16177V9.97381H13.5881C13.9343 9.97381 14.215 10.2545 14.215 10.6007V13.1085" stroke="#3C3C3B" stroke-width="1.00317" stroke-linecap="round"/>
<path d="M6.00293 13.1086L6.00293 11.5412C6.00293 10.8487 6.56431 10.2874 7.2568 10.2874V10.2874C7.94929 10.2874 8.51067 10.8487 8.51067 11.5412V13.1086" stroke="#3C3C3B" stroke-width="1.00317" stroke-linecap="round"/>
<path d="M6.62988 7.77954L7.88375 7.77954" stroke="#3C3C3B" stroke-width="1.00317" stroke-linecap="round"/>
</svg>
