<svg width="17" height="17" viewBox="0 0 17 17" fill="none" xmlns="http://www.w3.org/2000/svg">
<path d="M4.80664 4.97852H8.56825" stroke="#3C3C3B" stroke-width="1.00317" stroke-linecap="round"/>
<path d="M4.80664 7.46606H8.56825" stroke="#3C3C3B" stroke-width="1.00317" stroke-linecap="round"/>
<path d="M4.80664 9.97388H6.37398" stroke="#3C3C3B" stroke-width="1.00317" stroke-linecap="round"/>
<path d="M11.0757 13.4415L11.0757 11.8154" stroke="#3C3C3B" stroke-width="1.00317" stroke-linecap="round"/>
<path d="M9.14166 13.7355H4.04883C3.08233 13.7355 2.29883 12.952 2.29883 11.9855V4.20068C2.29883 3.23419 3.08233 2.45068 4.04883 2.45068H9.32591C10.2924 2.45068 11.0759 3.23419 11.0759 4.20068V9.34696" stroke="#3C3C3B" stroke-width="1.00317" stroke-linecap="round"/>
<path d="M8.56836 11.0969C8.56836 10.1304 9.35186 9.34692 10.3184 9.34692H11.8338C12.8003 9.34692 13.5838 10.1304 13.5838 11.0969V11.9855C13.5838 12.952 12.8003 13.7355 11.8338 13.7355H8.56836V11.0969Z" stroke="#3C3C3B" stroke-width="1.00317" stroke-linecap="round"/>
</svg>
