<svg width="17" height="17" viewBox="0 0 17 17" fill="none" xmlns="http://www.w3.org/2000/svg">
<path d="M13.6768 6.44398C14.1873 6.90703 13.9907 7.67074 13.9121 7.85605L11.756 12.4767C11.4471 13.1389 10.7825 13.5621 10.0517 13.5621H4.66695L4.66694 7.43441C4.6669 7.39035 4.6841 7.34693 4.70456 7.3079C4.72502 7.26888 4.76827 7.23541 4.80453 7.21038C5.84042 6.49531 6.99812 4.86399 6.99812 3.37078C6.98779 3.10677 7.07394 2.84802 7.24045 2.64288C7.40697 2.43774 7.64247 2.30023 7.90296 2.25605C8.4326 2.18264 9.11015 2.5089 9.42988 3.65083C9.54474 4.46064 9.45509 5.10661 9.15491 5.86745C9.14821 5.88785 9.14644 5.90954 9.14974 5.93075C9.15304 5.95196 9.16131 5.97209 9.17388 5.98949C9.18645 6.00689 9.20297 6.01684 9.22207 6.02663C9.24117 6.03642 9.26232 6.03912 9.28379 6.03917H12.7156C13.0761 6.03917 13.4219 6.18904 13.6768 6.44398Z" fill="white" stroke="#3C3C3B" stroke-width="1.00317" stroke-linecap="round" stroke-linejoin="round"/>
<path d="M1.53271 8.79297C1.53271 7.96454 2.20429 7.29297 3.03272 7.29297H4.66728V13.5621H3.03272C2.20429 13.5621 1.53271 12.8905 1.53271 12.0621V8.79297Z" stroke="#3C3C3B" stroke-width="1.00317" stroke-linecap="round" stroke-linejoin="round"/>
</svg>
